<?xml version="1.0" encoding="utf-8"?>
<!-- Generator: Adobe Illustrator 17.1.0, SVG Export Plug-In . SVG Version: 6.00 Build 0)  -->
<!DOCTYPE svg PUBLIC "-//W3C//DTD SVG 1.1//EN" "http://www.w3.org/Graphics/SVG/1.1/DTD/svg11.dtd">
<svg version="1.1" id="Layer_1" xmlns="http://www.w3.org/2000/svg" xmlns:xlink="http://www.w3.org/1999/xlink" x="0px" y="0px"
	 viewBox="194.8 177.7 1610.7 752.3" enable-background="new 194.8 177.7 1610.7 752.3" xml:space="preserve">
<g id="BACKGROUND" display="none">
	<rect x="194" y="0" display="inline" fill="#D9D9D9" width="445.3" height="296.9"/>
</g>
<g id="OBJECTS">
	<g id="New_Symbol_1">
	</g>
	<g id="New_Symbol_2">
	</g>
	<g id="New_Symbol">
	</g>
	<g>
		<g>
			<g>
				<defs>
					<rect id="SVGID_1_" x="194.8" y="0" width="1610.7" height="1000"/>
				</defs>
				<clipPath id="SVGID_2_">
					<use xlink:href="#SVGID_1_"  overflow="visible"/>
				</clipPath>
				
					<linearGradient id="SVGID_3_" gradientUnits="userSpaceOnUse" x1="1.4" y1="157.9" x2="2714.0999" y2="157.9" gradientTransform="matrix(0.5938 0 0 -0.5938 193.9792 593.7537)">
					<stop  offset="0" style="stop-color:#002A3A"/>
					<stop  offset="0.2048" style="stop-color:#012D3C"/>
					<stop  offset="0.3624" style="stop-color:#043743"/>
					<stop  offset="0.5042" style="stop-color:#0A474F"/>
					<stop  offset="0.6368" style="stop-color:#115E60"/>
					<stop  offset="0.763" style="stop-color:#1B7C76"/>
					<stop  offset="0.8826" style="stop-color:#28A191"/>
					<stop  offset="0.998" style="stop-color:#36CBB0"/>
					<stop  offset="1" style="stop-color:#36CCB1"/>
				</linearGradient>
				<rect x="194.8" y="0" clip-path="url(#SVGID_2_)" fill="url(#SVGID_3_)" width="1610.7" height="1000"/>
			</g>
			<g>
				<defs>
					<rect id="SVGID_4_" x="194.8" y="0" width="1610.7" height="1000"/>
				</defs>
				<clipPath id="SVGID_5_">
					<use xlink:href="#SVGID_4_"  overflow="visible"/>
				</clipPath>
				<g opacity="0.25" clip-path="url(#SVGID_5_)">
					<path fill="#36CCB1" d="M2035.4,1093.9c0.4-0.9,0.7-1.9,1-2.8c3-9,11.4-15,20.9-14.8c9.3,0.2,17.5,6.4,20.1,15.4
						c0.7,2.3,0.9,4.7,1.3,7.3c3.7-10.1,10.9-15.2,21.4-16.2c-4.6-2-8.3-4.8-10.9-8.8c-2.7-4-3.7-8.5-3.6-13.7
						c-6.8,13.5-16.8,18.5-28.1,14.4c-10.2-3.7-15.9-14.4-13.4-24.8c2.6-10.8,12.4-17.5,23.6-16.2c8.4,1,18.8,8.5,18.2,22.7
						c7-12.7,14.4-17.5,24.8-15.7c5.2,0.9,9.7,3.4,13.1,7.5s5,8.9,5.2,15.1c3.6-8.6,8.9-13.8,18.1-15.4c-3.4,13.3-6.8,26-10.2,39.1
						c-5.9-4.8-8.2-10.6-8.7-18.2c-4.3,10.1-11.4,15-22.3,15.3c9.7,3.6,14.8,10.2,16.2,20.3c3.1-5.9,6.9-10.2,13.2-12.5
						c-3.9,10.9-7.7,21.4-11.3,31.8c-0.3,0-0.6-0.1-1-0.1c-0.9-3-1.8-6.1-2.8-9.5c-3.6,7.6-9.6,11.9-18.3,13.5
						c6.8,3.7,10.8,8.7,12.4,15.5c0.2,0.8,0.4,1.7,0.1,2.4c-3.3,6.9-6.2,14.1-10.3,20.5c-1.6,2.6-5.7,3.6-8.6,5.2
						c1,0.7,2.5,1.8,4.3,3.1c-12.8,23.8-27.8,45.8-44.7,67.3c-0.5-1.7-0.8-2.8-1.3-4.3c-3.7,6.5-9.3,10.2-16.5,11.7
						c2.3,2,4.5,3.7,7.2,5.9c-10.7,11.3-21.1,22.3-31.6,33.3c-5.2-3.8-7.8-8.7-9.4-14.9c-4,6.4-9.4,9.9-16.5,11.3
						c5.6,3.5,9.3,8,10.8,13.9c0.3,1.2-0.2,3.1-1.1,3.9c-3,2.8-6.3,5.4-9.6,7.9c-10.9,8.3-21.6,17-32.9,24.8
						c-12,8.3-24.7,15.6-37,23.3c-2.6,1.7-4.6,1.5-6.9-0.7c-3.4-3.3-5.9-7.1-7.2-11.6c-0.2-0.8-0.4-1.5-0.8-2.8
						c-4,6.7-9.5,10.5-17.3,11.9c5.9,3.4,9.7,7.7,11.7,14.1c-13.8,6-27.3,11.8-41.3,17.9c-1.1-3.7-2.1-6.8-3.2-10.2
						c-4,8-10.5,12.3-19.6,13.2c1.8,1.1,3,1.8,5,3.1c-11.5,3.3-22.2,6.5-33,9.7c3.6-9,10.3-13.1,18.1-14c-3-2.8-6.8-5.5-9.1-9.1
						c-2.3-3.6-3.1-8.1-4.2-11.1c-2.3,2.7-4.8,6.7-8.3,9.2c-3.4,2.5-8,3.5-11.6,5c6.1,2.6,10.8,7.4,12.8,14.4
						c1.5,5.2,1.4,5.6-3.7,6.7c-11.6,2.5-23.2,4.8-34.9,7.1c-1.9,0.4-3.4-0.2-3.3-2.4c0.1-4.3-0.7-8.8,0.6-12.6
						c3.1-9.6,10.5-14.2,20.5-14.8c-13-8.8-16.9-17.4-12.9-28.2c3.3-9,12.7-15,22.1-14c11.3,1.2,18.1,8.8,20,22.9
						c3.7-10.3,11-15.5,21.9-16.3c-11.7-6.8-16.3-14.8-14.5-24.6c2-10.6,9.1-16.4,22.3-18.2c-12.6-6.9-17.3-16-13.9-27
						c2.9-9.4,12.2-15.8,21.6-15c10.9,0.9,18.8,8.5,20,19.2c0.7,6.3-1.2,11.8-5.5,16.4c-4.3,4.7-9.7,6.8-16.1,7.3
						c9.6,4.2,14.5,11.5,14.8,22.5c4.1-10.2,11.2-15.2,21.6-16c-11.6-6.1-16.6-15.4-14.1-25.7c2.5-10.2,10.9-16.8,21.2-16.9
						c5.8,0,10.8,2.1,15,6c4.3,4,6.4,9.1,6.9,15.9c3.9-9.1,10.3-13.7,19.5-15.1c-10.6-6.1-14.2-14.9-12.2-26.2v0.1
						c3-7.5,7.8-13.2,16-15.3c2-0.5,4-0.7,6.2-1c-10.2-4.8-14.9-11-15.2-22.9c-5.9,13-15.9,18.4-27.2,14.8
						c-10.2-3.3-16.5-13.8-14.4-24.2c2.2-10.8,11.8-17.9,23.1-16.9c11.2,0.9,18.3,9.7,18.9,23.6c5-12,12.4-17.7,22.9-16.6
						c12.9,1.3,19.2,9.4,20.4,22.4c3.6-9.6,10.3-14.5,19.9-15.8c-12-9.3-15.4-17.6-11.6-28c3.4-9.2,12.1-14.7,22.3-14
						c5.6,0.4,10.2,2.9,14,6.9c3.7,4,5.5,8.8,5.8,15.1c4.2-9.7,10.9-14.5,21.1-15.4c-11.2-5.5-15.6-14.2-13.8-25.9l-0.1,0.1
						c2.7-8.2,7.8-14,16.4-16.2c1.4-0.4,2.9-0.5,4.9-0.9c-10.7-5.2-15-13.4-13.9-24.5L2035.4,1093.9z M1946.5,1233.2
						c9.7,3.5,15.1,10,16.4,20.4c4.2-8.4,10.5-13.1,20-14.2c-8.8-4.7-13.4-11.6-13.7-21.4C1963,1229.2,1958.3,1232.4,1946.5,1233.2z
						 M1860.3,1332c-4.2,9.4-11.2,14.4-22.2,14.7c9.6,3.6,14.8,10,16.2,19.2c2.6-2.9,4.9-6.1,7.9-8.4c3-2.2,6.7-3.4,10-5
						C1863.4,1345.7,1862.2,1343.7,1860.3,1332z M2090.6,1125.4c-8.4-4.8-12.5-11.6-12.9-20.8c-3.8,9.1-10.5,14.1-20.5,15
						c10.2,6.4,12.6,9.7,14.3,20.2C2075.5,1131.4,2081.6,1126.8,2090.6,1125.4z M1911,1297.2c-4.3,9-10.9,14-21.4,14.4
						c8.6,3.7,13.5,9.4,15.4,18.5c4.3-7.4,10.3-11.4,18.9-12.6C1915.8,1312.8,1911.6,1306.5,1911,1297.2z M2082.7,1168.2
						c-7.7-4.5-11.8-10.6-12.6-19.7c-4.3,8.5-10.6,13.3-19.8,14.2c7.5,3.6,12.1,9.4,14,17.8
						C2068.5,1173.3,2074.5,1169.4,2082.7,1168.2z M2013.3,1215.4c2.6-2.6,4.8-5.6,7.7-7.6c2.8-2,6.4-3.1,9.8-4.7
						c-6.6-4.3-10.8-10.6-11.1-20c-4,8.9-10.3,13.9-20.2,14.9C2007.3,1201.9,2011.8,1207.5,2013.3,1215.4z M1972.9,1281.7
						c-6.9-4.6-10.7-10.5-11.5-19.2c-4.1,8.1-9.9,12.6-19,14c7.2,3.8,11.5,9.3,13.2,17.2C1959.7,1287,1965.2,1283.2,1972.9,1281.7z
						 M2011.4,1228.6c-4.3,7.2-10.2,11.3-18.9,12.4c7.6,3.7,12,9.3,13.8,17.2c4.1-6.5,9.5-10.3,17.3-11.7
						C2016.6,1242.3,2012.8,1236.7,2011.4,1228.6z M1935.2,1319.5c6.9,3.9,11.2,9.3,12.9,17.5c4-6.8,9.5-10.7,17-12.4
						c-6.5-4-10.3-9.4-11.9-16.9C1948.9,1314.7,1943.2,1318.4,1935.2,1319.5z M2044.5,1206c6.8,4,10.7,9.5,12.1,17.5
						c4-6.7,9.4-10.6,17.2-12.2c-6.5-4-10.3-9.4-11.9-17.2C2057.7,1201,2052,1204.5,2044.5,1206z"/>
					<path fill="#36CCB1" d="M1919.5,1248.5c-0.4-2.5-0.5-5.1-1.1-7.5c-2.6-10-12.5-16.9-22.4-15.9c-10.9,1.2-19,9.4-19.7,20.2
						c-0.7,10,6.6,19.8,16.4,22.1c10.4,2.4,20.8-3,24.8-12.9c0.8-2,1.3-4,2-6.1C1919.5,1248.5,1919.5,1248.5,1919.5,1248.5z"/>
					<path fill="#36CCB1" d="M2027.9,1135.3c-0.1-0.9-0.2-1.8-0.2-2.7c-0.6-11.8-9.7-20.8-21.2-21c-11.3-0.2-20.7,8.6-21.6,20.2
						c-0.9,10.8,7.3,20.7,18.6,22.4c10.9,1.6,21.5-5.8,23.8-16.7c0.2-0.8,0.5-1.5,0.7-2.3C2028,1135.2,2027.9,1135.3,2027.9,1135.3z
						"/>
					<path fill="#36CCB1" d="M2114.9,997.5c-11.6-0.1-21.4,9.6-21.5,21.3c-0.1,11.6,9.5,21.4,21.2,21.6c11.8,0.2,21.7-9.6,21.7-21.4
						C2136.2,1007.2,2126.6,997.6,2114.9,997.5z"/>
					<path fill="#36CCB1" d="M1934.4,1168.6c0.2,11.9,10,21.2,21.8,20.9c11.8-0.4,21-10,20.7-21.6c-0.2-11.9-10-21.3-21.8-20.8
						C1943.4,1147.3,1934.2,1156.9,1934.4,1168.6z"/>
					<path fill="#36CCB1" d="M1775.4,1317.6c0.1,11.8,9.4,21.1,21.2,21s21.1-9.4,21-21.2c-0.1-11.8-9.4-21.1-21.2-21
						C1784.6,1296.4,1775.4,1305.8,1775.4,1317.6z"/>
					<path fill="#36CCB1" d="M2035.4,1093.9c-0.2-3-0.1-6.2-0.7-9.1c-2.4-10.4-11.9-16.9-22.8-15.9c-9.8,0.9-18.1,9.6-18.6,19.5
						c-0.5,11,6.5,20.1,17.2,22.3c10,2,20.2-3.9,23.8-13.7c0.4-1.1,0.8-2,1.3-3.1C2035.4,1093.8,2035.4,1093.9,2035.4,1093.9z"/>
					<path fill="#36CCB1" d="M1767.6,1352.6c0-11.8-9.4-21-21.2-21c-11.6,0.1-20.8,9.4-20.8,21.1c0,11.8,9.4,21,21.2,21
						C1758.3,1373.6,1767.6,1364.2,1767.6,1352.6z"/>
					<path fill="#36CCB1" d="M2122.8,955.3c-11.7,0-21,9.4-21,21.2c0.1,11.6,9.4,20.8,21.1,20.8c11.8,0,21-9.4,21-21.2
						C2143.7,964.6,2134.4,955.3,2122.8,955.3z"/>
					<path fill="#36CCB1" d="M1734.3,1414.9c4.5-0.5,10.3-1.2,16.3-1.9c0.7-0.1,1.2-0.6,1.8-1c7-5.6,9.4-16.1,5.8-24.6
						c-3.7-8.5-12.7-13.8-21.8-12.8c-9.6,1.2-17.3,8.2-18.8,17.3c-1.2,7.8,1,14.4,6.7,19.8
						C1727.4,1414.6,1728.5,1414.9,1734.3,1414.9z"/>
					<path fill="#36CCB1" d="M1834.2,1239.1c0,11.6,9.3,21,20.8,21c11.7,0.1,21.1-9.4,21.1-21.1c-0.1-11.6-9.4-20.9-21-20.8
						C1843.5,1218.1,1834.2,1227.5,1834.2,1239.1z"/>
					<path fill="#36CCB1" d="M1963.6,1104.7c-11.5,0.1-20.9,9.5-20.9,21s9.5,20.9,21,20.9c11.5,0,20.9-9.5,20.9-21
						C1984.6,1114.1,1975.2,1104.7,1963.6,1104.7z"/>
					<path fill="#36CCB1" d="M1675.1,1388.5c0.1,11.5,9.6,21,21.1,20.8c11.4-0.1,20.7-9.6,20.7-21c-0.1-11.5-9.6-21-21.1-20.8
						C1684.4,1367.6,1675,1377.1,1675.1,1388.5z"/>
					<path fill="#36CCB1" d="M2051.3,1011.5c0,11.5,9.5,21,21,21c11.4-0.1,20.8-9.4,20.8-20.8c0-11.5-9.5-21-21-21
						C2060.7,990.7,2051.4,1000.1,2051.3,1011.5z"/>
					<path fill="#36CCB1" d="M1804.5,1295.2c11.5,0,21-9.5,21-21c-0.1-11.4-9.5-20.8-20.9-20.8c-11.5,0-21,9.5-21,21
						C1783.7,1285.8,1793.1,1295.2,1804.5,1295.2z"/>
					<path fill="#36CCB1" d="M1892.2,1160.8c0,11.4,9.4,20.8,20.8,20.8c11.5,0,21-9.6,20.9-21.1c-0.1-11.4-9.6-20.8-21-20.7
						C1901.6,1140,1892.2,1149.5,1892.2,1160.8z"/>
					<path fill="#36CCB1" d="M2021.6,1026.5c-11.4,0-20.8,9.5-20.8,20.8c0,11.4,9.5,20.8,20.8,20.8c11.4,0,20.8-9.5,20.8-20.8
						C2042.5,1035.9,2033,1026.5,2021.6,1026.5z"/>
					<path fill="#36CCB1" d="M2130.1,953.9c11.3,0.1,20.8-9.3,20.8-20.7c0.1-11.4-9.4-20.8-20.8-20.8c-11.3,0-20.5,9.1-20.7,20.5
						C2109.3,944.4,2118.6,953.8,2130.1,953.9z"/>
					<path fill="#36CCB1" d="M1733.2,1309.9c-0.1,11.3,9.3,20.8,20.7,20.8c11.4,0.1,20.8-9.3,20.8-20.7c0-11.3-9.1-20.5-20.5-20.7
						C1742.8,1289.2,1733.3,1298.5,1733.2,1309.9z"/>
					<path fill="#36CCB1" d="M1862.5,1175.3c-11.4,0-20.5,9.1-20.6,20.5c-0.1,11.5,9.3,20.8,20.8,20.7c11.5-0.1,20.5-9.3,20.4-20.7
						C1883.1,1184.4,1873.9,1175.3,1862.5,1175.3z"/>
					<path fill="#36CCB1" d="M1682.8,1345.3c0,11.5,9.1,20.5,20.5,20.5s20.5-9.1,20.5-20.5s-9.1-20.5-20.5-20.5
						C1691.9,1324.7,1682.8,1333.8,1682.8,1345.3z"/>
					<path fill="#36CCB1" d="M2059.1,968.8c-0.1,11.5,9,20.6,20.4,20.7c11.5,0.1,20.6-9,20.7-20.4c0.1-11.5-9-20.6-20.4-20.7
						C2068.3,948.3,2059.1,957.4,2059.1,968.8z"/>
					<path fill="#36CCB1" d="M1950.5,1082.4c-0.1,11.5,9,20.6,20.5,20.7c11.5,0.1,20.6-9,20.7-20.5s-9-20.6-20.5-20.7
						C1959.7,1061.9,1950.6,1071,1950.5,1082.4z"/>
					<path fill="#36CCB1" d="M1791.5,1231.8c0,11.5,9.1,20.5,20.6,20.4s20.4-9.2,20.4-20.7c-0.1-11.3-9.1-20.2-20.4-20.3
						C1800.5,1211.3,1791.5,1220.3,1791.5,1231.8z"/>
					<path fill="#36CCB1" d="M1900.1,1117.8c0.1,11.4,9.3,20.4,20.7,20.2c11.2-0.1,20.2-9.3,20.1-20.6c-0.1-11.4-9.3-20.4-20.7-20.2
						C1909,1097.3,1900,1106.5,1900.1,1117.8z"/>
					<path fill="#36CCB1" d="M1632.4,1381.1c0.1,11.3,9.1,20.3,20.4,20.3c11.4,0,20.5-9.2,20.4-20.7c-0.1-11.2-9.3-20.2-20.5-20.1
						C1641.4,1360.6,1632.4,1369.8,1632.4,1381.1z"/>
					<path fill="#36CCB1" d="M2029.2,1024.5c11.3-0.1,20.3-9.1,20.3-20.4c0-11.4-9.2-20.5-20.7-20.4c-11.2,0.1-20.2,9.3-20.1,20.5
						C2008.7,1015.6,2017.9,1024.6,2029.2,1024.5z"/>
					<path fill="#36CCB1" d="M1761.3,1246.5c-11.2,0.1-20.3,9.2-20.2,20.4c0.1,11.2,9.2,20.3,20.4,20.2c11.2-0.1,20.3-9.2,20.2-20.4
						C1781.7,1255.6,1772.5,1246.5,1761.3,1246.5z"/>
					<path fill="#36CCB1" d="M1849.6,1153.3c-0.1,11.2,9.1,20.4,20.3,20.4c11.2,0,20.4-9.2,20.3-20.4c-0.1-11.1-9.1-20.2-20.2-20.2
						C1858.9,1133,1849.6,1142.1,1849.6,1153.3z"/>
					<path fill="#36CCB1" d="M2066.7,925.8c0,11,9.1,20.2,20.1,20.3c11.2,0.1,20.5-9.2,20.4-20.4c-0.1-11-9.3-20.2-20.3-20.2
						C2075.9,905.5,2066.8,914.7,2066.7,925.8z"/>
					<path fill="#36CCB1" d="M1978.5,1059.6c11.2,0,20.4-9.3,20.2-20.5c-0.1-11-9.3-20.1-20.3-20.1c-11.2,0-20.4,9.3-20.2,20.5
						C1958.3,1050.5,1967.5,1059.6,1978.5,1059.6z"/>
					<path fill="#36CCB1" d="M1731.1,1301.8c-0.2-11-9.4-20.1-20.5-20c-11.2,0.1-20.4,9.6-20.1,20.7c0.2,11.1,9.6,20.1,20.6,19.8
						C1722.2,1322.1,1731.2,1312.8,1731.1,1301.8z"/>
					<path fill="#36CCB1" d="M1799.1,1188.7c0.1,11,9.4,20.2,20.4,20.1c11.1-0.1,20.2-9.3,20.1-20.4c-0.1-11-9.3-20.2-20.4-20.1
						S1799,1177.7,1799.1,1188.7z"/>
					<path fill="#36CCB1" d="M1928,1054.9c-11-0.1-20.2,9.1-20.2,20.2c0,11,9.2,20.2,20.2,20.2c11-0.1,20-9,20.1-20
						C1948.2,1064.2,1939.1,1055,1928,1054.9z"/>
					<path fill="#36CCB1" d="M1660.1,1357.9c11.1,0.1,20.2-9,20.2-20.1c0-11-8.9-20-20-20.1c-11.1-0.1-20.2,9-20.2,20.1
						C1640.1,1348.8,1649,1357.8,1660.1,1357.9z"/>
					<path fill="#36CCB1" d="M2016.4,960.8c-0.1,11.1,9,20.2,20.1,20.2c11,0,20-8.9,20.1-20c0.1-11.1-9-20.2-20.1-20.2
						C2025.5,940.9,2016.5,949.8,2016.4,960.8z"/>
					<path fill="#36CCB1" d="M1768.8,1203.7c-11.1,0-20,8.8-20,20c0,11.1,8.8,20,20,20c11.1,0,20-8.8,20-20
						C1788.7,1212.7,1779.9,1203.8,1768.8,1203.7z"/>
					<path fill="#36CCB1" d="M1857.4,1110.1c-0.1,11.2,8.7,20,19.9,20s20-8.8,19.9-20c-0.1-11-8.7-19.8-19.7-19.8
						C1866.3,1090.3,1857.5,1099,1857.4,1110.1z"/>
					<path fill="#36CCB1" d="M1609.6,1392.9c11.2,0,20-8.8,20-19.9c0-11.2-8.8-19.9-20-19.8c-11,0.1-19.7,8.7-19.8,19.8
						C1589.7,1384,1598.4,1392.8,1609.6,1392.9z"/>
					<path fill="#36CCB1" d="M1986.5,1016.6c11.1,0,20-8.8,19.9-20c0-11.1-8.8-19.9-20-19.8c-11,0.1-19.7,8.8-19.8,19.8
						C1966.6,1007.8,1975.4,1016.6,1986.5,1016.6z"/>
					<path fill="#36CCB1" d="M2095.5,902.4c11-0.2,19.6-9.2,19.4-20.4c-0.2-10.9-9.1-19.4-20.2-19.2c-11,0.2-19.6,9.2-19.4,20.4
						C2075.5,894.1,2084.4,902.6,2095.5,902.4z"/>
					<path fill="#36CCB1" d="M1698.4,1259.4c-0.1,11.2,8.7,20,19.8,20c11,0,19.8-8.7,19.8-19.7c0.1-11.2-8.7-20-19.8-20
						C1707.2,1239.6,1698.4,1248.4,1698.4,1259.4z"/>
					<path fill="#36CCB1" d="M1827.2,1125.6c-10.9,0.1-19.7,8.9-19.6,19.9c0.1,11.1,9,19.8,20.1,19.7c10.9-0.1,19.5-9,19.5-20.1
						C1847,1134.2,1838.2,1125.5,1827.2,1125.6z"/>
					<path fill="#36CCB1" d="M1916.2,1031.8c-0.1,11,8.7,19.8,19.7,19.8c11,0,19.8-8.7,19.8-19.7c0.1-11-8.7-19.8-19.7-19.8
						C1925,1012.1,1916.2,1020.8,1916.2,1031.8z"/>
					<path fill="#36CCB1" d="M2044.6,938.1c10.9-0.1,19.7-9,19.7-19.9c-0.1-10.9-9-19.7-20-19.6c-10.7,0.1-19.5,9-19.5,19.7
						C2024.8,929.3,2033.7,938.2,2044.6,938.1z"/>
					<path fill="#36CCB1" d="M1668.2,1274.9c-10.9,0-19.7,9-19.7,19.8c0.1,10.9,9,19.7,20,19.6c10.7-0.1,19.5-8.9,19.5-19.7
						C1688,1283.8,1679.1,1274.9,1668.2,1274.9z"/>
					<path fill="#36CCB1" d="M2154.7,899.5c-1.2-8-2.3-15.5-3.5-23c-0.1-0.8-0.9-1.8-1.6-2.4c-8.7-6.5-21.3-4.6-28,4.1
						c-6.8,8.8-5.2,21.4,3.5,28.4c8.6,6.8,21.3,5.6,28.1-2.9C2154,902.6,2154.2,900.8,2154.7,899.5z"/>
					<path fill="#36CCB1" d="M1757.1,1181.2c0.1,10.7,8.9,19.6,19.7,19.6c10.9,0,19.8-9,19.7-19.9c-0.1-10.7-9.1-19.5-19.8-19.5
						C1765.9,1161.6,1757,1170.5,1757.1,1181.2z"/>
					<path fill="#36CCB1" d="M1617.7,1350.1c10.7-0.1,19.7-9,19.6-19.7c0-10.7-9-19.7-19.7-19.6c-10.7,0.1-19.6,9-19.6,19.7
						C1598,1341.2,1607,1350.1,1617.7,1350.1z"/>
					<path fill="#36CCB1" d="M1974.3,953.5c-0.1,10.7,8.8,19.7,19.6,19.7c10.7,0.1,19.7-8.8,19.7-19.6c0.1-10.7-8.8-19.7-19.6-19.7
						C1983.3,933.9,1974.3,942.8,1974.3,953.5z"/>
					<path fill="#36CCB1" d="M1865.7,1067c-0.1,10.7,8.8,19.7,19.6,19.7c10.7,0.1,19.7-8.8,19.7-19.6c0.1-10.7-8.8-19.7-19.6-19.7
						C1874.7,1047.4,1865.8,1056.2,1865.7,1067z"/>
					<path fill="#36CCB1" d="M1706.6,1216.4c0.1,10.7,9,19.6,19.7,19.5c10.7-0.1,19.6-9.1,19.4-19.8c-0.2-10.7-8.9-19.4-19.5-19.4
						C1715.5,1196.7,1706.6,1205.7,1706.6,1216.4z"/>
					<path fill="#36CCB1" d="M2082.9,839.9c-0.1,10.7,8.7,19.7,19.5,19.7c10.7,0.1,19.7-8.8,19.7-19.6c0-10.6-8.7-19.4-19.4-19.6
						C2092,820.3,2083,829.2,2082.9,839.9z"/>
					<path fill="#36CCB1" d="M1815.3,1102.7c-0.1,10.7,8.8,19.7,19.5,19.7c10.6,0,19.4-8.7,19.5-19.4c0.1-10.7-8.8-19.7-19.5-19.7
						C1824.1,1083.4,1815.3,1092,1815.3,1102.7z"/>
					<path fill="#36CCB1" d="M1567,1385c10.7,0.1,19.4-8.5,19.5-19.3c0.1-10.7-8.5-19.4-19.3-19.5c-10.7-0.1-19.4,8.5-19.5,19.3
						C1547.6,1376.2,1556.2,1384.9,1567,1385z"/>
					<path fill="#36CCB1" d="M1923.9,988.7c0,10.7,8.6,19.4,19.4,19.4c10.7,0,19.4-8.7,19.4-19.4c0-10.7-8.6-19.4-19.4-19.4
						C1932.5,969.3,1923.9,978,1923.9,988.7z"/>
					<path fill="#36CCB1" d="M1675.2,1232.8c-10.8,0.2-19.1,9-18.9,19.8c0.2,10.8,9,19.1,19.8,18.8c10.6-0.3,18.9-8.9,18.8-19.6
						C1694.8,1241,1686,1232.6,1675.2,1232.8z"/>
					<path fill="#36CCB1" d="M2052,855.9c-10.8-0.1-19.4,8.6-19.4,19.3c0,10.8,8.6,19.4,19.4,19.3c10.7-0.1,19.1-8.5,19.2-19.2
						C2071.3,864.6,2062.8,856,2052,855.9z"/>
					<path fill="#36CCB1" d="M1764.9,1138.1c0.1,10.8,8.7,19.2,19.5,19.1c10.6-0.1,19-8.7,18.9-19.4c-0.1-10.8-8.7-19.2-19.5-19.1
						C1773.2,1118.9,1764.9,1127.4,1764.9,1138.1z"/>
					<path fill="#36CCB1" d="M1873.5,1024.5c0,10.8,8.5,19.3,19.4,19.3c10.7-0.1,19.1-8.5,19.1-19.2c0-10.8-8.5-19.3-19.4-19.3
						C1882,1005.3,1873.5,1013.8,1873.5,1024.5z"/>
					<path fill="#36CCB1" d="M1624.9,1268.1c-10.6,0.1-19.1,8.6-19.1,19.3c0.1,10.6,8.6,19.1,19.3,19.1c10.6-0.1,19.1-8.6,19.1-19.3
						C1644.2,1276.5,1635.6,1268,1624.9,1268.1z"/>
					<path fill="#36CCB1" d="M1982.1,910.4c0,10.7,8.6,19.2,19.2,19.1c10.7,0,19.2-8.6,19.2-19.2c0-10.7-8.5-19.2-19.2-19.1
						C1990.6,891.2,1982.1,899.7,1982.1,910.4z"/>
					<path fill="#36CCB1" d="M2090.7,796.9c0,10.6,8.6,19.2,19.2,19.1c10.6,0,19.1-8.6,19.1-19.3c-0.1-10.5-8.6-18.9-19.1-19
						C2099.3,777.7,2090.7,786.2,2090.7,796.9z"/>
					<path fill="#36CCB1" d="M1733.7,1192.9c10.6-0.1,19.1-8.7,19.1-19.4c-0.1-10.6-8.7-19.1-19.4-18.9
						c-10.5,0.1-18.9,8.7-18.9,19.2C1714.5,1184.4,1723.1,1193,1733.7,1192.9z"/>
					<path fill="#36CCB1" d="M1842.2,1078.7c10.6,0,19.2-8.7,19.1-19.2c-0.1-10.4-8.7-18.9-19.1-18.9c-10.6,0-19.2,8.7-19.1,19.2
						C1823.1,1070.2,1831.7,1078.7,1842.2,1078.7z"/>
					<path fill="#36CCB1" d="M1555.4,1322.5c0,10.5,8.6,19,19.1,19c10.6,0,19.2-8.7,19.1-19.3c-0.1-10.4-8.8-18.9-19.2-18.9
						C1563.9,1303.4,1555.4,1312,1555.4,1322.5z"/>
					<path fill="#36CCB1" d="M1931.7,946.3c0.1,10.5,8.7,19,19.1,18.9c10.5,0,19.2-8.8,19-19.4c-0.2-10.4-8.8-18.9-19.3-18.8
						C1940.1,927.2,1931.6,935.9,1931.7,946.3z"/>
					<path fill="#36CCB1" d="M1791.5,1114.4c10.4,0.1,19.1-8.6,19.1-19c0-10.4-8.7-19.1-19.1-19.1c-10.3,0.1-18.8,8.5-19,18.8
						C1772.4,1105.6,1781.1,1114.4,1791.5,1114.4z"/>
					<path fill="#36CCB1" d="M1664,1208.8c-0.1,10.4,8.5,19.1,18.9,19.1c10.4,0.1,19.1-8.5,19.1-18.9c0.1-10.4-8.5-19.1-18.9-19.1
						C1672.8,1189.8,1664.1,1198.4,1664,1208.8z"/>
					<path fill="#36CCB1" d="M2059.2,851.1c10.4,0.1,19.1-8.6,19.1-18.9s-8.6-19.1-18.9-19.1c-10.4-0.1-19.1,8.6-19.1,18.9
						C2040.2,842.4,2048.8,851,2059.2,851.1z"/>
					<path fill="#36CCB1" d="M1881.2,981.2c-0.1,10.4,8.6,19.1,19,19.1c10.3-0.1,18.8-8.6,18.9-18.8c0.1-10.4-8.6-19.1-19-19.1
						C1889.8,962.4,1881.3,970.9,1881.2,981.2z"/>
					<path fill="#36CCB1" d="M1504.9,1358.1c-0.1,10.4,8.6,19.1,19,19.1c10.3-0.1,18.8-8.5,18.9-18.9c0.1-10.4-8.6-19.1-19-19.1
						C1513.5,1339.3,1505,1347.8,1504.9,1358.1z"/>
					<path fill="#36CCB1" d="M1613.6,1244.1c0.1,10.3,8.5,18.8,18.8,18.8c10.5,0,19.1-8.7,18.9-19.1c-0.2-10.4-8.7-18.8-19-18.6
						C1622,1225.3,1613.6,1233.8,1613.6,1244.1z"/>
					<path fill="#36CCB1" d="M1989.8,867.8c0,10.3,8.4,18.8,18.8,18.9c10.5,0.1,19.1-8.6,18.9-19c-0.1-10.4-8.6-18.8-18.9-18.7
						C1998.3,849,1989.8,857.4,1989.8,867.8z"/>
					<path fill="#36CCB1" d="M1722.2,1130.5c-0.1,10.4,8.3,18.8,18.7,18.8c10.4,0.1,18.8-8.3,18.8-18.7c0.1-10.4-8.3-18.8-18.7-18.8
						C1730.7,1111.7,1722.3,1120.1,1722.2,1130.5z"/>
					<path fill="#36CCB1" d="M1849.6,998.4c-10.5,0-18.8,8.3-18.7,18.8c0.1,10.3,8.3,18.5,18.6,18.5c10.5,0,18.8-8.3,18.7-18.8
						C1868.2,1006.6,1860,998.5,1849.6,998.4z"/>
					<path fill="#36CCB1" d="M1939.5,903.2c0.1,10.3,8.3,18.5,18.7,18.5c10.5-0.1,18.6-8.4,18.5-18.9c-0.1-10.3-8.4-18.4-18.8-18.3
						C1947.6,884.5,1939.4,892.8,1939.5,903.2z"/>
					<path fill="#36CCB1" d="M1581.7,1261.3c-10.3,0.1-18.5,8.3-18.4,18.7c0.1,10.5,8.4,18.6,18.9,18.5c10.3-0.1,18.4-8.5,18.3-18.9
						C1600.4,1269.3,1592.1,1261.2,1581.7,1261.3z"/>
					<path fill="#36CCB1" d="M1690.3,1147.2c-10.3,0.1-18.5,8.3-18.4,18.7c0.1,10.3,8.3,18.5,18.7,18.4c10.3-0.1,18.5-8.3,18.4-18.7
						C1708.9,1155.3,1700.6,1147.1,1690.3,1147.2z"/>
					<path fill="#36CCB1" d="M2066.6,808c10.3,0.1,18.6-8.1,18.6-18.5c0-10.3-8.1-18.6-18.5-18.6c-10.3,0-18.6,8.1-18.6,18.5
						C2048.1,799.7,2056.3,808,2066.6,808z"/>
					<path fill="#36CCB1" d="M1780.4,1052.3c0.1,10.3,8.3,18.5,18.6,18.5c10.3-0.1,18.5-8.3,18.5-18.6c0-10.3-8.3-18.5-18.6-18.5
						C1788.6,1033.7,1780.4,1042,1780.4,1052.3z"/>
					<path fill="#36CCB1" d="M1531.2,1296.5c-10.3,0-18.5,8.4-18.5,18.6c0.1,10.3,8.4,18.5,18.8,18.3c10.2-0.1,18.3-8.4,18.3-18.5
						C1549.8,1304.7,1541.6,1296.5,1531.2,1296.5z"/>
					<path fill="#36CCB1" d="M1907.4,920.3c-10.3,0.1-18.4,8.4-18.3,18.8c0.1,10.2,8.6,18.4,18.9,18.2c10.1-0.1,18.2-8.4,18.2-18.6
						C1926,928.3,1917.7,920.1,1907.4,920.3z"/>
					<path fill="#36CCB1" d="M1621.4,1201.6c0,10.2,8.3,18.4,18.5,18.5c10.3,0,18.6-8.4,18.5-18.7c-0.1-10.1-8.4-18.3-18.6-18.3
						C1629.6,1183.1,1621.4,1191.4,1621.4,1201.6z"/>
					<path fill="#36CCB1" d="M2016.6,843.1c10.2,0.1,18.5-8.2,18.6-18.3c0.1-10.3-8.3-18.7-18.5-18.7c-10.2,0-18.4,8.3-18.5,18.4
						C1998.2,834.8,2006.5,843.1,2016.6,843.1z"/>
					<path fill="#36CCB1" d="M1749.1,1068.9c-10.1-0.1-18.5,8.3-18.5,18.4c-0.1,10.1,8.3,18.5,18.4,18.5
						c10.1,0.1,18.5-8.3,18.5-18.4C1767.5,1077.4,1759.2,1069,1749.1,1068.9z"/>
					<path fill="#36CCB1" d="M1857.7,955.5c-10-0.1-18.5,8.3-18.5,18.3c0,10,8.4,18.5,18.5,18.4c10-0.1,18.2-8.3,18.3-18.2
						C1876.1,964.1,1867.8,955.6,1857.7,955.5z"/>
					<path fill="#36CCB1" d="M1947.7,860.5c0.1,10.1,8.6,18.5,18.6,18.3c10-0.2,18.2-8.6,18.1-18.5c-0.1-10.1-8.6-18.5-18.6-18.3
						C1955.9,842.2,1947.7,850.6,1947.7,860.5z"/>
					<path fill="#36CCB1" d="M1589.7,1218.3c-10.1,0.1-18.5,8.7-18.2,18.7c0.2,10,8.6,18.2,18.5,18.1c10.1-0.1,18.5-8.7,18.2-18.7
						C1608,1226.3,1599.6,1218.1,1589.7,1218.3z"/>
					<path fill="#36CCB1" d="M2074.6,728c-10,0.1-18.2,8.3-18.2,18.3c0,10.1,8.5,18.5,18.5,18.3c10-0.2,18.2-8.5,18.1-18.5
						C2092.9,736.1,2084.6,727.9,2074.6,728z"/>
					<path fill="#36CCB1" d="M1698.6,1141.5c10-0.1,18.2-8.4,18.2-18.3c-0.1-10.1-8.6-18.5-18.6-18.3c-10,0.2-18.2,8.6-18.1,18.5
						C1680.3,1133.4,1688.6,1141.6,1698.6,1141.5z"/>
					<path fill="#36CCB1" d="M1788.8,1009c0,10,8.1,18.2,18.2,18.2c10,0,18.2-8.2,18.2-18.2c0-10-8.1-18.2-18.2-18.2
						C1797,990.8,1788.8,999,1788.8,1009z"/>
					<path fill="#36CCB1" d="M1539.4,1253.7c-10.2-0.1-18.2,8-18.2,18.2c0,10,8,18,18,18.1c10.2,0.1,18.2-8,18.2-18.2
						C1557.4,1261.8,1549.5,1253.8,1539.4,1253.7z"/>
					<path fill="#36CCB1" d="M1915.9,913.7c10.2-0.2,18.1-8.4,17.8-18.6c-0.3-10-8.4-17.8-18.4-17.6c-10.2,0.2-18.1,8.4-17.8,18.6
						C1897.8,906.1,1905.9,913.8,1915.9,913.7z"/>
					<path fill="#36CCB1" d="M2024.3,764c-10-0.1-18.1,7.8-18.2,17.8c-0.1,10.2,7.9,18.2,18.1,18.2c10,0,18-7.9,18-18
						C2042.2,772.1,2034.3,764.1,2024.3,764z"/>
					<path fill="#36CCB1" d="M1629.9,1158.4c0,10,7.9,18,17.9,18.1c10.2,0.1,18.2-8,18.1-18.2c-0.1-10-8.1-17.9-18.1-17.9
						C1637.8,1140.4,1629.9,1148.3,1629.9,1158.4z"/>
					<path fill="#36CCB1" d="M1462.3,1350.3c0.3,5,1.4,9.3,6.9,11.2c3.9,1.4,7.2,4,11,5.6c1.6,0.7,3.8,1,5.5,0.6
						c9.2-2.4,14.8-11.7,12.9-21.2c-1.7-9-10.3-15.6-19.2-14.7C1469.7,1332.7,1462.2,1340.7,1462.3,1350.3z"/>
					<path fill="#36CCB1" d="M1470.8,1307.6c0,10,8,17.9,18,17.9c10,0,17.9-8,17.9-18c0-10-8-17.9-18-17.9
						C1478.7,1289.6,1470.8,1297.6,1470.8,1307.6z"/>
					<path fill="#36CCB1" d="M1738.5,1044.9c0,10,8,17.9,18.1,17.9c10,0,17.9-8,17.9-18.1c0-10-8-17.9-18.1-17.9
						C1746.3,1026.9,1738.5,1034.9,1738.5,1044.9z"/>
					<path fill="#36CCB1" d="M1847,930.8c0,10,8.1,17.9,18.1,17.9c10-0.1,17.9-8.1,17.8-18.2c-0.1-9.8-8.1-17.7-17.9-17.7
						C1855,912.8,1847,920.8,1847,930.8z"/>
					<path fill="#36CCB1" d="M1991.5,817.1c-0.1-10-8.2-17.9-18.2-17.8c-9.8,0.1-17.6,8.2-17.6,18.1c0.1,10,8.2,17.9,18.3,17.8
						C1983.7,835.1,1991.5,827,1991.5,817.1z"/>
					<path fill="#36CCB1" d="M1615.2,1193.3c-0.1-10-8.2-17.9-18.2-17.8c-9.8,0.1-17.7,8.1-17.6,18.1c0.1,10,8.2,17.9,18.2,17.8
						C1607.4,1211.3,1615.2,1203.2,1615.2,1193.3z"/>
					<path fill="#36CCB1" d="M1688,1080.3c0.1,9.8,8.2,17.7,18.1,17.6c9.9-0.1,17.9-8.3,17.7-18.3c-0.2-9.7-8.4-17.6-18.2-17.5
						C1695.7,1062.3,1687.9,1070.4,1688,1080.3z"/>
					<path fill="#36CCB1" d="M1796.6,966.4c-0.1,9.8,8,17.9,17.7,18c9.8,0.1,17.9-8,18-17.7c0.1-9.8-8-17.9-17.7-18
						C1804.8,948.6,1796.6,956.6,1796.6,966.4z"/>
					<path fill="#36CCB1" d="M1923,870.2c9.7,0,17.8-8.2,17.8-17.9c-0.1-9.7-8.3-17.8-18-17.7c-9.6,0.1-17.6,8.1-17.6,17.8
						C1905.1,862.1,1913.3,870.2,1923,870.2z"/>
					<path fill="#36CCB1" d="M1564.5,1229.2c0-9.7-8.1-17.8-17.9-17.8c-9.7,0.1-17.8,8.3-17.7,18c0.1,9.6,8.1,17.6,17.8,17.6
						C1556.4,1247.1,1564.5,1239,1564.5,1229.2z"/>
					<path fill="#36CCB1" d="M2013.8,739c0.1,9.7,8.1,17.6,17.8,17.6c9.8,0,17.9-8.3,17.7-18c-0.2-9.7-8.3-17.6-17.9-17.5
						C2021.7,721.4,2013.7,729.4,2013.8,739z"/>
					<path fill="#36CCB1" d="M1637.5,1115.1c0,9.6,8,17.7,17.6,17.8c9.7,0.1,17.9-8.1,17.8-17.9c-0.1-9.7-8.1-17.6-17.8-17.6
						C1645.6,1097.5,1637.6,1105.5,1637.5,1115.1z"/>
					<path fill="#36CCB1" d="M1872.8,905.8c9.9-0.4,17.6-8.5,17.2-18.1c-0.4-9.9-8.6-17.5-18.2-17.1c-9.7,0.5-17.3,8.4-17,18
						C1855.1,898.4,1863.2,906.1,1872.8,905.8z"/>
					<path fill="#36CCB1" d="M1513.8,1264.5c0.1-9.7-8-17.7-17.6-17.7c-9.7,0-17.7,8-17.6,17.8c0.1,9.6,7.8,17.4,17.5,17.5
						C1505.7,1282.2,1513.7,1274.2,1513.8,1264.5z"/>
					<path fill="#36CCB1" d="M1746.2,1002.1c0.4,9.8,8.5,17.6,18.1,17.2c9.8-0.4,17.5-8.5,17.2-18.1c-0.4-9.8-8.5-17.5-18.1-17.2
						C1753.6,984.4,1745.8,992.5,1746.2,1002.1z"/>
					<path fill="#36CCB1" d="M1587.2,1150.9c-0.1,9.7,7.6,17.5,17.3,17.6c9.8,0.2,17.7-7.6,17.8-17.5c0.1-9.8-7.8-17.6-17.6-17.6
						C1594.9,1133.5,1587.2,1141.1,1587.2,1150.9z"/>
					<path fill="#36CCB1" d="M1963.4,774c-0.1,9.8,7.7,17.6,17.6,17.6c9.7,0,17.4-7.7,17.5-17.4c0.1-9.8-7.7-17.6-17.6-17.6
						C1971.2,756.6,1963.5,764.3,1963.4,774z"/>
					<path fill="#36CCB1" d="M1713.1,1054.3c9.7,0.1,17.5-7.5,17.6-17.2c0.1-9.9-7.6-17.6-17.5-17.6c-9.7,0-17.4,7.7-17.4,17.3
						C1695.8,1046.5,1703.4,1054.2,1713.1,1054.3z"/>
					<path fill="#36CCB1" d="M1804.5,923.4c0.1,9.7,7.8,17.3,17.5,17.3c9.7-0.1,17.3-7.8,17.2-17.6c-0.1-9.6-7.8-17.1-17.4-17.1
						C1812.1,905.9,1804.4,913.7,1804.5,923.4z"/>
					<path fill="#36CCB1" d="M1445.6,1282.9c-9.7,0-17.5,7.7-17.5,17.4s7.7,17.4,17.5,17.3c9.6-0.1,17.2-7.7,17.3-17.2
						C1463,1290.6,1455.3,1282.9,1445.6,1282.9z"/>
					<path fill="#36CCB1" d="M1930.5,827.2c9.7-0.1,17.3-7.8,17.2-17.6c-0.1-9.5-7.8-17.1-17.4-17c-9.7,0.1-17.3,7.8-17.2,17.6
						C1913.1,819.6,1920.9,827.2,1930.5,827.2z"/>
					<path fill="#36CCB1" d="M1536.8,1186.1c0,9.7,7.8,17.3,17.5,17.3c9.5-0.1,17.1-7.8,17.1-17.4c0-9.7-7.8-17.3-17.5-17.3
						C1544.4,1168.9,1536.8,1176.6,1536.8,1186.1z"/>
					<path fill="#36CCB1" d="M1771.2,941.2c-9.5,0-17.2,7.7-17.2,17.2c0,9.6,7.8,17.4,17.5,17.3c9.5-0.1,17.1-7.9,17-17.4
						C1788.4,948.9,1780.7,941.2,1771.2,941.2z"/>
					<path fill="#36CCB1" d="M2021.7,695.9c0.1,9.5,7.8,17.2,17.3,17.1c9.6-0.1,17.3-7.9,17.2-17.6c-0.1-9.4-8-17-17.5-17
						C2029.2,678.5,2021.6,686.4,2021.7,695.9z"/>
					<path fill="#36CCB1" d="M1645.4,1072.5c-0.1,9.5,7.6,17.3,17.1,17.3c9.7,0.1,17.5-7.7,17.5-17.3c0-9.5-7.8-17.2-17.3-17.2
						C1653.2,1055.3,1645.5,1063,1645.4,1072.5z"/>
					<path fill="#36CCB1" d="M1862.5,845c0,9.4,7.8,17.2,17.2,17.3c9.4,0,17.2-7.8,17.3-17.2c0-9.4-7.8-17.3-17.2-17.3
						C1870.4,827.8,1862.5,835.5,1862.5,845z"/>
					<path fill="#36CCB1" d="M1486.3,1221.8c-0.1,9.4,7.7,17.3,17.2,17.3c9.4,0.1,17.3-7.7,17.3-17.2c0.1-9.4-7.7-17.3-17.2-17.3
						C1494.2,1204.6,1486.3,1212.3,1486.3,1221.8z"/>
					<path fill="#36CCB1" d="M1971.1,731.4c-0.1,9.4,7.8,17.3,17.2,17.3c9.3-0.1,17-7.8,17.2-17.1c0.1-9.4-7.8-17.3-17.2-17.3
						C1979,714.3,1971.3,722.1,1971.1,731.4z"/>
					<path fill="#36CCB1" d="M1612,1124.9c9.4,0.1,17.3-7.9,17.2-17.3c-0.1-9.3-7.8-17-17.2-17.1c-9.4-0.1-17.3,7.9-17.2,17.3
						C1595,1117.2,1602.7,1124.9,1612,1124.9z"/>
					<path fill="#36CCB1" d="M1703.5,994.2c-0.1,9.3,7.6,17.1,16.9,17.2c9.4,0.1,17.3-7.8,17.3-17.2c-0.1-9.3-7.8-17-17.1-17
						C1711.4,977.1,1703.6,984.9,1703.5,994.2z"/>
					<path fill="#36CCB1" d="M1812.2,880.2c0.1,9.4,7.8,17.1,17.2,16.9c9.4-0.1,17-8,16.9-17.3s-7.8-16.8-17-16.8
						C1819.9,863.1,1812.1,870.9,1812.2,880.2z"/>
					<path fill="#36CCB1" d="M1470,1256.8c-0.2-9.4-8.1-17-17.3-16.7c-9.4,0.3-17,8.2-16.7,17.5c0.4,9.3,8,16.7,17.2,16.6
						C1462.5,1273.9,1470.2,1266.1,1470,1256.8z"/>
					<path fill="#36CCB1" d="M1921.5,766.7c0.1,9.4,7.7,17,17.1,16.9c9.3-0.1,16.7-7.6,16.7-17c-0.1-9.4-7.7-17-17.1-16.9
						C1928.8,749.9,1921.4,757.4,1921.5,766.7z"/>
					<path fill="#36CCB1" d="M1653.8,1029.3c-0.1,9.4,7.4,16.9,16.7,16.9c9.5,0.1,17-7.5,17-17c-0.1-9.4-7.5-16.8-16.9-16.8
						C1661.3,1012.5,1653.8,1020,1653.8,1029.3z"/>
					<path fill="#36CCB1" d="M1796,915.7c-0.1-9.4-7.5-16.7-17-16.6c-9.4,0.1-16.7,7.5-16.6,17c0.1,9.4,7.5,16.7,17,16.6
						C1788.8,932.7,1796.2,925.2,1796,915.7z"/>
					<path fill="#36CCB1" d="M1544.7,1143.5c-0.1,9.4,7.5,17,17,17c9.3-0.1,16.7-7.5,16.8-16.9c0.1-9.4-7.5-17-17-17
						C1552.1,1126.7,1544.7,1134.1,1544.7,1143.5z"/>
					<path fill="#36CCB1" d="M1402.4,1275.4c-9.4,0-16.8,7.4-16.7,16.8c0,9.4,7.5,16.7,16.9,16.7c9.3-0.1,16.6-7.4,16.6-16.6
						C1419.1,1282.9,1411.8,1275.4,1402.4,1275.4z"/>
					<path fill="#36CCB1" d="M1494.8,1178.7c0,9.4,7.4,16.8,16.8,16.7c9.4,0,16.7-7.5,16.7-16.9c-0.1-9.3-7.4-16.6-16.6-16.6
						C1502.3,1161.9,1494.8,1169.3,1494.8,1178.7z"/>
					<path fill="#36CCB1" d="M1871.1,801.9c0,9.4,7.4,16.7,16.9,16.7c9.4-0.1,16.7-7.5,16.6-16.9c-0.1-9.2-7.4-16.6-16.7-16.6
						C1878.5,785.1,1871,792.5,1871.1,801.9z"/>
					<path fill="#36CCB1" d="M1996.3,671.7c-9.3,0-16.6,7.4-16.7,16.6c0,9.4,7.5,16.8,16.9,16.7c9.2-0.1,16.6-7.5,16.5-16.8
						C2013,679,2005.6,671.7,1996.3,671.7z"/>
					<path fill="#36CCB1" d="M1603.4,1065.2c0,9.3,7.4,16.7,16.6,16.7c9.4,0,16.8-7.4,16.7-16.9c-0.1-9.2-7.5-16.6-16.7-16.5
						C1610.8,1048.6,1603.4,1055.9,1603.4,1065.2z"/>
					<path fill="#36CCB1" d="M1728.5,934.4c-9.1,0.1-16.6,7.6-16.5,16.8c0.1,9.1,7.6,16.6,16.8,16.5c9.1-0.1,16.6-7.6,16.5-16.8
						C1745.3,941.8,1737.7,934.4,1728.5,934.4z"/>
					<path fill="#36CCB1" d="M1461,1197.2c-9.1,0-16.6,7.5-16.6,16.7c0.1,9.1,7.7,16.6,16.7,16.5c9-0.1,16.4-7.5,16.4-16.6
						C1477.6,1204.8,1470.1,1197.2,1461,1197.2z"/>
					<path fill="#36CCB1" d="M1820.6,837.7c0.1,9.1,7.7,16.6,16.9,16.4c9.1-0.1,16.6-7.8,16.4-16.9c-0.2-9-7.7-16.3-16.7-16.3
						C1828,821,1820.6,828.6,1820.6,837.7z"/>
					<path fill="#36CCB1" d="M1569.5,1083.8c-9.1,0-16.7,7.7-16.6,16.8c0.1,9,7.6,16.4,16.6,16.4c9.1,0,16.7-7.7,16.6-16.8
						C1586,1091.1,1578.5,1083.7,1569.5,1083.8z"/>
					<path fill="#36CCB1" d="M1945.8,740.1c9,0,16.5-7.5,16.6-16.4c0.1-9.1-7.6-16.7-16.7-16.6c-9,0.1-16.4,7.7-16.4,16.6
						C1929.3,732.6,1936.8,740.1,1945.8,740.1z"/>
					<path fill="#36CCB1" d="M1678.2,1002.8c9-0.1,16.4-7.6,16.4-16.6c0-9.1-7.8-16.7-16.8-16.5c-9,0.2-16.4,7.8-16.3,16.7
						C1661.7,995.4,1669.2,1002.9,1678.2,1002.8z"/>
					<path fill="#36CCB1" d="M1394,1249.6c0,9,7.5,16.5,16.4,16.5s16.5-7.5,16.5-16.4c0-9-7.5-16.5-16.4-16.5
						C1401.4,1233.1,1394,1240.6,1394,1249.6z"/>
					<path fill="#36CCB1" d="M1786.7,856.3c-9-0.1-16.5,7.4-16.5,16.4c-0.1,9,7.4,16.5,16.4,16.5c9,0,16.5-7.4,16.5-16.4
						C1803.2,863.8,1795.7,856.3,1786.7,856.3z"/>
					<path fill="#36CCB1" d="M1518.8,1151.9c9,0.1,16.5-7.3,16.5-16.4c0-9-7.2-16.3-16.2-16.3c-9-0.1-16.5,7.3-16.5,16.4
						C1502.6,1144.5,1509.9,1151.8,1518.8,1151.9z"/>
					<path fill="#36CCB1" d="M1878.9,759.6c0.3,9.1,7.9,16.4,16.9,16c9.1-0.4,16.1-7.8,15.9-16.7c-0.3-9.1-7.9-16.4-16.9-16
						C1885.6,743.3,1878.6,750.7,1878.9,759.6z"/>
					<path fill="#36CCB1" d="M1627.7,1005.8c-9.1-0.1-16.3,7-16.4,16.1c-0.1,9.1,7,16.3,16.1,16.4s16.3-7,16.4-16.1
						C1643.8,1013.1,1636.7,1005.9,1627.7,1005.8z"/>
					<path fill="#36CCB1" d="M1987.5,645.3c0.1,9.1,7.3,16.2,16.4,16.2c9.1-0.1,16.2-7.3,16.2-16.3c-0.1-9.1-7.3-16.2-16.3-16.2
						C1994.6,629,1987.5,636.2,1987.5,645.3z"/>
					<path fill="#36CCB1" d="M1752.2,907.8c-0.1-9-7.3-16.1-16.4-16c-9,0.1-16,7.4-15.9,16.4c0.1,8.9,7.2,15.9,16.2,15.9
						C1745.2,924.1,1752.3,916.9,1752.2,907.8z"/>
					<path fill="#36CCB1" d="M1937.1,680.9c0,9,7.2,16.2,16.3,16.1c8.9-0.1,15.9-7.2,15.9-16.1c0-9-7.2-16.2-16.3-16.1
						C1944.1,664.9,1937.1,672,1937.1,680.9z"/>
					<path fill="#36CCB1" d="M1577,1073.3c9,0,16.1-7.2,16-16.3c-0.1-8.8-7.2-15.9-16.2-15.9c-9,0-16.1,7.2-16,16.3
						C1560.9,1066.3,1568.1,1073.3,1577,1073.3z"/>
					<path fill="#36CCB1" d="M1844.7,778.4c-9,0-16.2,7.1-16.2,16.2c0.1,8.9,7.1,16,16,16c9,0,16.2-7.1,16.2-16.2
						C1860.7,785.4,1853.6,778.4,1844.7,778.4z"/>
					<path fill="#36CCB1" d="M1452.3,1171.4c0,9,7.2,16.2,16.3,16c8.8-0.1,15.9-7.2,15.9-16.2c0-9-7.2-16.2-16.3-16
						C1459.3,1155.3,1452.3,1162.4,1452.3,1171.4z"/>
					<path fill="#36CCB1" d="M1417.8,1222.5c8.8,0,16-7.3,16-16.2c-0.1-8.8-7.4-16-16.2-15.9c-8.7,0.1-15.8,7.3-15.8,16
						C1401.8,1215.2,1409,1222.5,1417.8,1222.5z"/>
					<path fill="#36CCB1" d="M1794.1,813.6c-8.8-0.1-16.1,7.2-16.1,16c0,8.8,7.2,16,16.1,16c8.7-0.1,15.9-7.2,16-15.9
						C1810.2,820.9,1803,813.6,1794.1,813.6z"/>
					<path fill="#36CCB1" d="M1669.5,943.8c0.1,8.8,7.3,16,16.2,15.9c8.8-0.1,16-7.2,15.9-16.2c-0.1-8.8-7.2-16-16.2-15.9
						C1676.5,927.7,1669.4,934.9,1669.5,943.8z"/>
					<path fill="#36CCB1" d="M1510.4,1093c0.1,8.7,7.3,15.9,16,15.9c8.8,0,16.1-7.4,16-16.2c-0.1-8.7-7.5-15.9-16.1-15.7
						C1517.5,1077.1,1510.3,1084.4,1510.4,1093z"/>
					<path fill="#36CCB1" d="M1886.7,716c-0.1,8.7,7.1,15.9,15.8,16c8.8,0.1,16.2-7.2,16.1-16c-0.1-8.7-7.3-15.9-16-15.9
						C1894,700.2,1886.7,707.3,1886.7,716z"/>
					<path fill="#36CCB1" d="M1634.9,962.9c-8.7,0.1-15.9,7.3-15.9,15.9c0.1,8.7,7.3,15.9,15.9,15.9c8.7-0.1,15.9-7.3,15.9-15.9
						C1650.8,970.1,1643.5,962.9,1634.9,962.9z"/>
					<path fill="#36CCB1" d="M1367.3,1225.8c-8.7-0.1-15.9,7.2-15.9,15.9c0.1,8.6,7.1,15.7,15.7,15.7c8.7,0.1,15.9-7.2,15.9-15.9
						C1383,1232.9,1375.9,1225.9,1367.3,1225.8z"/>
					<path fill="#36CCB1" d="M1475.7,1112.3c-8.7,0.1-15.9,7.4-15.7,16.1c0.2,8.7,7.4,15.6,15.9,15.5c8.7-0.1,15.9-7.4,15.7-16
						C1491.4,1119.2,1484.3,1112.2,1475.7,1112.3z"/>
					<path fill="#36CCB1" d="M1743.6,849.5c-8.7-0.1-15.9,7.1-15.9,15.9c0.1,8.6,7.1,15.7,15.7,15.7c8.7,0.1,15.9-7.1,15.9-15.9
						C1759.2,856.7,1752.2,849.7,1743.6,849.5z"/>
					<path fill="#36CCB1" d="M1960.6,653.4c8.7,0,15.6-7,15.6-15.7c0-8.7-7-15.6-15.7-15.6c-8.7,0-15.6,7-15.6,15.7
						S1951.9,653.4,1960.6,653.4z"/>
					<path fill="#36CCB1" d="M1852.2,735.6c-8.7-0.1-15.7,6.8-15.8,15.5s6.8,15.7,15.5,15.8c8.7,0.1,15.7-6.8,15.8-15.5
						C1867.8,742.7,1860.9,735.7,1852.2,735.6z"/>
					<path fill="#36CCB1" d="M1568.7,1014.7c0,8.7,6.9,15.7,15.7,15.6c8.7,0,15.7-6.9,15.6-15.7c0-8.7-6.9-15.7-15.7-15.6
						C1575.6,999,1568.7,1005.9,1568.7,1014.7z"/>
					<path fill="#36CCB1" d="M1692.8,916.1c8.7,0.1,15.6-6.8,15.6-15.6s-6.9-15.6-15.6-15.6c-8.6,0.1-15.4,6.8-15.5,15.4
						C1677.3,909.1,1684.1,916,1692.8,916.1z"/>
					<path fill="#36CCB1" d="M1786,786.9c-0.1,8.7,6.7,15.6,15.3,15.6c8.8,0.1,15.7-6.8,15.7-15.5c0-8.6-6.8-15.4-15.4-15.5
						C1792.9,771.5,1786,778.3,1786,786.9z"/>
					<path fill="#36CCB1" d="M1425.2,1178.8c8.6,0,15.4-6.8,15.5-15.4c0-8.8-6.9-15.6-15.7-15.6c-8.6,0.1-15.4,6.9-15.3,15.6
						C1409.7,1172,1416.6,1178.8,1425.2,1178.8z"/>
					<path fill="#36CCB1" d="M1894.5,673.1c0.1,8.6,7,15.3,15.6,15.3c8.6-0.1,15.3-7,15.3-15.6c-0.1-8.6-7-15.3-15.6-15.3
						C1901.3,657.5,1894.5,664.5,1894.5,673.1z"/>
					<path fill="#36CCB1" d="M1518.3,1049.8c0,8.6,6.8,15.4,15.4,15.5c8.6,0,15.5-6.8,15.5-15.4c0-8.6-6.8-15.4-15.4-15.5
						C1525.2,1034.3,1518.3,1041.1,1518.3,1049.8z"/>
					<path fill="#36CCB1" d="M1626.9,936.4c0.1,8.6,7.1,15.4,15.7,15.3c8.4-0.1,15.2-7.1,15.1-15.5c-0.1-8.5-7.1-15.4-15.7-15.3
						C1633.7,921,1626.9,928,1626.9,936.4z"/>
					<path fill="#36CCB1" d="M1844.7,708.7c0,8.3,6.9,15.3,15.3,15.3c8.5,0.1,15.5-7.1,15.4-15.5c-0.1-8.4-7.1-15.3-15.4-15.2
						C1851.6,693.4,1844.7,700.4,1844.7,708.7z"/>
					<path fill="#36CCB1" d="M1467.8,1084.8c-0.1,8.3,6.8,15.4,15.1,15.5c8.4,0.1,15.6-6.9,15.6-15.4c0-8.4-6.9-15.3-15.3-15.3
						C1474.9,1069.5,1467.9,1076.5,1467.8,1084.8z"/>
					<path fill="#36CCB1" d="M1735.5,822.2c0,8.3,6.9,15.3,15.3,15.3c8.5,0.1,15.5-7.1,15.4-15.6c-0.1-8.4-7.1-15.2-15.4-15.1
						C1742.4,806.9,1735.5,813.9,1735.5,822.2z"/>
					<path fill="#36CCB1" d="M1359.3,1199c0,8.4,6.9,15.3,15.3,15.4c8.5,0.1,15.6-7,15.4-15.5c-0.1-8.4-7.1-15.3-15.4-15.2
						C1366.2,1183.7,1359.3,1190.7,1359.3,1199z"/>
					<path fill="#36CCB1" d="M1968.6,579.3c-8.4,0-15.3,7.1-15.3,15.4c0.1,8.4,7.1,15.3,15.4,15.2c8.3-0.1,15.1-6.9,15.1-15.2
						C1984,586.3,1976.9,579.3,1968.6,579.3z"/>
					<path fill="#36CCB1" d="M1577.1,971.4c-0.1,8.3,6.9,15.4,15.3,15.4c8.4,0,15.3-7,15.3-15.3c-0.1-8.3-6.8-15.1-15.1-15.2
						C1584.2,956.1,1577.1,963,1577.1,971.4z"/>
					<path fill="#36CCB1" d="M1685.7,858c0.1,8.3,6.9,15.1,15.2,15.1c8.4,0,15.4-7.1,15.2-15.4c-0.2-8.3-7.1-15.1-15.3-15
						C1692.4,842.9,1685.7,849.8,1685.7,858z"/>
					<path fill="#36CCB1" d="M1794.4,743.7c-0.1,8.4,6.5,15.1,14.9,15.2c8.4,0.1,15.1-6.5,15.2-14.9c0.1-8.4-6.5-15.1-14.9-15.2
						C1801.3,728.7,1794.5,735.3,1794.4,743.7z"/>
					<path fill="#36CCB1" d="M1433.1,1105.7c-8.4,0.1-15,6.8-15,15.1c0.1,8.4,6.8,15,15.1,15c8.4-0.1,15-6.8,15-15.1
						C1448.2,1112.2,1441.5,1105.6,1433.1,1105.7z"/>
					<path fill="#36CCB1" d="M1903.1,630.4c0.1,8.4,6.7,15,15.2,14.8c8.3-0.1,14.7-6.7,14.7-15c-0.1-8.4-6.7-15-15.2-14.8
						C1909.5,615.5,1903,622.1,1903.1,630.4z"/>
					<path fill="#36CCB1" d="M1541.7,1021.6c8.4,0.1,15.1-6.5,15.1-15c0-8.3-6.5-14.8-14.8-14.9c-8.4-0.1-15.1,6.5-15.1,15
						C1526.8,1015,1533.4,1021.5,1541.7,1021.6z"/>
					<path fill="#36CCB1" d="M1759,794.5c8.3-0.1,14.8-6.6,14.8-14.9c0-8.4-6.7-15-15.1-14.8c-8.3,0.1-14.7,6.7-14.6,15.1
						C1744.1,788,1750.7,794.5,1759,794.5z"/>
					<path fill="#36CCB1" d="M1650.5,878.2c-8.3-0.1-14.9,6.4-15,14.7c-0.1,8.4,6.5,15.1,14.9,15.1c8.3,0,14.8-6.5,14.8-14.8
						C1665.2,884.8,1658.7,878.3,1650.5,878.2z"/>
					<path fill="#36CCB1" d="M1382.8,1170.8c8.3-0.1,14.8-6.7,14.7-14.9c0-8.4-6.7-14.9-15.1-14.8c-8.2,0.1-14.7,6.8-14.6,15.1
						C1367.8,1164.3,1374.5,1170.8,1382.8,1170.8z"/>
					<path fill="#36CCB1" d="M1867.5,680.3c8.3-0.1,14.8-6.7,14.7-15c-0.1-8.2-6.8-14.8-15-14.7c-8.1,0.1-14.6,6.7-14.6,14.8
						C1852.6,673.7,1859.3,680.4,1867.5,680.3z"/>
					<path fill="#36CCB1" d="M1491.2,1027.6c-8.3,0.1-14.8,6.7-14.8,15c0.1,8.2,6.8,14.8,15,14.7c8.1-0.1,14.6-6.7,14.6-14.8
						C1506.1,1034.1,1499.4,1027.6,1491.2,1027.6z"/>
					<path fill="#36CCB1" d="M1585,928.2c-0.1,8.2,6.7,14.9,14.8,14.8c8-0.1,14.7-6.7,14.7-14.7c0.1-8.2-6.7-14.9-14.8-14.8
						C1591.6,913.5,1585,920.1,1585,928.2z"/>
					<path fill="#36CCB1" d="M1332.1,1205.7c8-0.1,14.7-6.8,14.7-14.8c-0.1-8-6.8-14.7-14.8-14.7c-8,0.1-14.7,6.8-14.7,14.8
						C1317.4,1199.1,1324.1,1205.8,1332.1,1205.7z"/>
					<path fill="#36CCB1" d="M1693.6,814.7c0,8,6.7,14.7,14.7,14.7c8,0,14.7-6.7,14.7-14.7s-6.7-14.7-14.7-14.7
						C1700.3,800,1693.6,806.7,1693.6,814.7z"/>
					<path fill="#36CCB1" d="M1440.7,1062.9c-8-0.1-14.8,6.7-14.7,14.7c0.1,7.9,6.6,14.5,14.5,14.6c8,0.1,14.8-6.7,14.7-14.7
						C1455.2,1069.5,1448.6,1063,1440.7,1062.9z"/>
					<path fill="#36CCB1" d="M1802.2,701.2c0,8,6.8,14.8,14.8,14.7c8-0.1,14.5-6.7,14.5-14.6c0-8-6.8-14.8-14.8-14.7
						C1808.8,686.7,1802.3,693.3,1802.2,701.2z"/>
					<path fill="#36CCB1" d="M1549.3,978.6c8-0.1,14.5-6.6,14.5-14.5c0-8.1-6.8-14.7-14.8-14.5s-14.4,6.8-14.3,14.7
						C1534.7,972.2,1541.3,978.7,1549.3,978.6z"/>
					<path fill="#36CCB1" d="M1925.5,572.6c-8-0.1-14.5,6.4-14.6,14.4c-0.1,8,6.6,14.8,14.6,14.7c8-0.1,14.5-6.6,14.5-14.5
						C1940,579.2,1933.5,572.7,1925.5,572.6z"/>
					<path fill="#36CCB1" d="M1657.9,864.4c8-0.1,14.5-6.7,14.4-14.7c-0.1-8-6.7-14.5-14.7-14.4c-8,0.1-14.5,6.7-14.4,14.7
						C1643.3,858.1,1649.9,864.6,1657.9,864.4z"/>
					<path fill="#36CCB1" d="M1375.7,1112.6c-0.1,8.1,6.2,14.5,14.3,14.5c8.1,0.1,14.4-6.4,14.4-14.4c0-8-6.2-14.3-14.2-14.4
						C1382.2,1098.2,1375.7,1104.5,1375.7,1112.6z"/>
					<path fill="#36CCB1" d="M1751.9,736.5c0.1,8.1,6.5,14.4,14.5,14.3c8.1-0.1,14.4-6.5,14.3-14.6c-0.1-8-6.4-14.2-14.4-14.2
						C1758.2,722.1,1751.9,728.4,1751.9,736.5z"/>
					<path fill="#36CCB1" d="M2141.3,828c-11.2,2.2-18.2,12.9-15.9,23.6c2.4,10.9,13.2,17.9,24.4,15
						C2147.1,853.7,2144.2,840.9,2141.3,828z"/>
					<path fill="#36CCB1" d="M1484.3,999.3c0.1,8,6.4,14.2,14.4,14.1c8.1-0.1,14.4-6.5,14.3-14.6c-0.1-7.9-6.5-14.1-14.5-14
						C1490.4,985,1484.3,991.3,1484.3,999.3z"/>
					<path fill="#36CCB1" d="M1860.6,623.1c0.1,8,6.4,14.2,14.4,14.2c8.1,0,14.4-6.4,14.3-14.5c-0.1-8-6.5-14.1-14.5-14
						C1866.7,608.7,1860.5,615.1,1860.6,623.1z"/>
					<path fill="#36CCB1" d="M1592.9,885.9c0.1,7.9,6.5,14.1,14.5,14c7.9-0.1,14.1-6.6,14-14.5c-0.1-7.8-6.5-14-14.4-13.9
						C1599.1,871.5,1592.9,877.9,1592.9,885.9z"/>
					<path fill="#36CCB1" d="M1325.3,1148.5c0,7.9,6.5,14.3,14.4,14.1c7.8-0.1,14-6.4,14-14.2c0-7.9-6.5-14.3-14.4-14.2
						C1331.6,1134.4,1325.3,1140.7,1325.3,1148.5z"/>
					<path fill="#36CCB1" d="M1701.5,771.7c0.1,7.9,6.5,14.2,14.4,14.1c7.7-0.1,14-6.5,14-14.3c-0.1-7.9-6.5-14.2-14.4-14.1
						C1707.8,757.5,1701.5,763.9,1701.5,771.7z"/>
					<path fill="#36CCB1" d="M2094.5,715.8c-6.2-9.8-12.4-19.6-18.5-29.3c-7.1,2.7-11.5,9-11.7,16.2c-0.2,7.1,4,13.7,10.6,16.7
						C2081.5,722.4,2088.7,721.1,2094.5,715.8z"/>
					<path fill="#36CCB1" d="M1447.9,1048.5c7.7,0.1,14.2-6.3,14.3-14.1c0.1-7.7-6.3-14.2-14.1-14.3c-7.7-0.1-14.2,6.3-14.3,14.1
						C1433.9,1042,1440.2,1048.5,1447.9,1048.5z"/>
					<path fill="#36CCB1" d="M1556.5,935c7.7,0.1,14.2-6.3,14.3-14c0.1-7.7-6.3-14.2-14-14.3c-7.7-0.1-14.2,6.3-14.3,14
						S1548.7,934.9,1556.5,935z"/>
					<path fill="#36CCB1" d="M1824.5,672.2c7.7-0.1,14-6.6,13.9-14.4c-0.2-7.7-6.7-14-14.4-13.9c-7.7,0.1-14,6.7-13.9,14.4
						C1810.3,666.1,1816.8,672.4,1824.5,672.2z"/>
					<path fill="#36CCB1" d="M1665.3,793.3c-7.7-0.1-14.2,6.4-14.2,14.1c0,7.6,6.3,14,13.9,14.1c7.7,0.1,14.2-6.4,14.2-14.1
						C1679.2,799.8,1672.9,793.4,1665.3,793.3z"/>
					<path fill="#36CCB1" d="M1759.8,693.7c0.3,7.7,6.8,13.8,14.4,13.5c7.7-0.3,13.8-6.8,13.5-14.4c-0.3-7.7-6.8-13.8-14.4-13.5
						C1765.6,679.6,1759.5,686.1,1759.8,693.7z"/>
					<path fill="#36CCB1" d="M1383.5,1070c-0.1,7.6,6.2,14,13.8,14.1c7.6,0.1,14-6.2,14.1-13.8c0.1-7.6-6.2-14-13.8-14.1
						C1390,1056.1,1383.6,1062.3,1383.5,1070z"/>
					<path fill="#36CCB1" d="M1868.5,579.8c0.1,7.7,6.2,13.8,14,13.8c7.7-0.1,13.8-6.3,13.7-14c-0.1-7.6-6.2-13.6-13.8-13.6
						C1874.5,566,1868.4,572.1,1868.5,579.8z"/>
					<path fill="#36CCB1" d="M1505.9,942.2c-7.7,0.1-13.8,6.2-13.7,14c0.1,7.7,6.3,13.8,14,13.7c7.6-0.1,13.6-6.2,13.6-13.8
						C1519.8,948.3,1513.7,942.2,1505.9,942.2z"/>
					<path fill="#36CCB1" d="M1600.9,842.5c0,7.7,5.9,13.7,13.6,13.7c7.8,0.1,13.8-6.1,13.8-13.8c-0.1-7.7-6.1-13.6-13.8-13.6
						C1606.9,828.9,1600.9,834.9,1600.9,842.5z"/>
					<path fill="#36CCB1" d="M1333.2,1105.3c0,7.7,6,13.7,13.7,13.7s13.7-6,13.7-13.7s-6-13.7-13.7-13.7
						C1339.2,1091.7,1333.2,1097.7,1333.2,1105.3z"/>
					<path fill="#36CCB1" d="M1723.3,742.7c7.6-0.1,13.5-6.2,13.4-13.8c-0.1-7.6-6.2-13.5-13.8-13.4c-7.6,0.1-13.5,6.2-13.4,13.8
						C1709.5,736.8,1715.7,742.7,1723.3,742.7z"/>
					<path fill="#36CCB1" d="M1455.5,978.1c-7.7,0-13.7,6-13.7,13.7s6.1,13.7,13.7,13.7c7.5,0,13.5-6,13.5-13.5
						C1469.1,984.3,1463.1,978.2,1455.5,978.1z"/>
					<path fill="#36CCB1" d="M1818.1,614.8c-0.1,7.6,6,13.7,13.6,13.7c7.5,0,13.5-6,13.6-13.4c0.1-7.6-6-13.7-13.6-13.7
						C1824.2,601.4,1818.1,607.4,1818.1,614.8z"/>
					<path fill="#36CCB1" d="M1563.8,891.3c7.6,0.1,13.7-6,13.7-13.6c0-7.4-6-13.5-13.4-13.6c-7.6-0.1-13.7,6-13.7,13.6
						C1550.4,885.2,1556.4,891.2,1563.8,891.3z"/>
					<path fill="#36CCB1" d="M1296.4,1154.6c7.4-0.1,13.5-6.2,13.4-13.6c-0.1-7.4-6.2-13.5-13.6-13.4c-7.4,0.1-13.5,6.2-13.4,13.6
						C1282.8,1148.6,1289,1154.7,1296.4,1154.6z"/>
					<path fill="#36CCB1" d="M1659,764.2c0,7.4,6.2,13.5,13.5,13.5c7.4,0,13.5-6.2,13.5-13.5c0-7.4-6.2-13.5-13.5-13.5
						C1665.1,750.7,1659,756.8,1659,764.2z"/>
					<path fill="#36CCB1" d="M1391.4,1026.8c-0.1,7.4,6.2,13.6,13.5,13.5c7.2-0.1,13.3-6.1,13.4-13.4c0.1-7.4-6.2-13.6-13.5-13.5
						C1397.6,1013.5,1391.5,1019.6,1391.4,1026.8z"/>
					<path fill="#36CCB1" d="M1768.3,650.7c0,7.4,6.3,13.6,13.6,13.5c7.2-0.1,13.3-6.2,13.3-13.4c0-7.4-6.3-13.6-13.6-13.5
						C1774.3,637.3,1768.3,643.5,1768.3,650.7z"/>
					<path fill="#36CCB1" d="M1513.5,926.8c7.3-0.1,13.3-6.2,13.2-13.5c-0.1-7.3-6.2-13.3-13.5-13.2c-7.3,0.1-13.3,6.2-13.2,13.5
						C1500.2,920.9,1506.3,926.9,1513.5,926.8z"/>
					<path fill="#36CCB1" d="M1609.4,799.4c0,7.4,5.9,13.2,13.3,13.2c7.4-0.1,13.2-6,13.1-13.4c-0.1-7.3-5.9-13-13.2-13.1
						C1615.2,786.1,1609.4,792,1609.4,799.4z"/>
					<path fill="#36CCB1" d="M1341.7,1063.1c0.2,7.4,6.4,13.1,13.8,12.8c7.3-0.3,12.9-6.3,12.6-13.6c-0.2-7.4-6.4-13.1-13.8-12.8
						C1347,1049.9,1341.5,1055.9,1341.7,1063.1z"/>
					<path fill="#36CCB1" d="M1718,686.3c0.2,7.4,6.3,13.1,13.7,12.8c7.3-0.3,12.9-6.3,12.6-13.6c-0.2-7.4-6.3-13.1-13.7-12.8
						C1723.3,673,1717.7,679,1718,686.3z"/>
					<path fill="#36CCB1" d="M1826.6,572.4c0,7.4,5.8,13.1,13.1,13.1c7.4,0,13.1-5.8,13.1-13.1s-5.8-13.1-13.1-13.1
						C1832.3,559.3,1826.6,565.1,1826.6,572.4z"/>
					<path fill="#36CCB1" d="M1463.5,961.7c7.4,0,13.1-5.8,13.1-13.1c0-7.4-5.8-13.1-13.1-13.1c-7.4,0-13.1,5.8-13.1,13.1
						C1450.4,955.9,1456.1,961.7,1463.5,961.7z"/>
					<path fill="#36CCB1" d="M2059.6,664.1c-6.9-8.4-14-16.8-21-25.2c-5.7,2.9-8.8,8.8-8.4,15.7c0.4,6.6,5,12.5,11.5,14.6
						C2048.1,671.3,2055,669.5,2059.6,664.1z"/>
					<path fill="#36CCB1" d="M1304.5,1110.9c7.1-0.1,12.8-6,12.7-13.1c-0.1-7.2-6.1-13-13.4-12.8c-7.1,0.2-12.7,6.1-12.6,13.3
						C1291.5,1105.3,1297.4,1111,1304.5,1110.9z"/>
					<path fill="#36CCB1" d="M1680.7,734c7.1-0.1,12.8-5.9,12.8-13.1c-0.1-7.2-6-13-13.3-12.8c-7.1,0.2-12.7,6.1-12.6,13.2
						C1667.7,728.4,1673.6,734.1,1680.7,734z"/>
					<path fill="#36CCB1" d="M1572,848.1c7.3,0,13.1-5.8,13.1-13c0-7.3-5.8-13-13.1-13c-7.1,0.1-12.9,5.8-12.9,12.9
						C1559,842.3,1564.7,848.1,1572,848.1z"/>
					<path fill="#36CCB1" d="M1400,984.4c0,7.1,5.9,12.9,13,12.9c7.1-0.1,12.9-6.1,12.8-13.1c-0.1-6.9-5.9-12.7-12.9-12.7
						C1405.8,971.4,1400,977.4,1400,984.4z"/>
					<path fill="#36CCB1" d="M1776.2,607.5c-0.1,7.1,5.8,13,12.9,12.9c7.1,0,12.9-5.9,12.9-13c-0.1-6.9-5.8-12.7-12.8-12.8
						C1782.2,594.5,1776.3,600.4,1776.2,607.5z"/>
					<path fill="#36CCB1" d="M1521.4,857.4c-6.9,0.1-12.8,5.9-12.8,12.8c0,7.1,6.1,13,13.1,12.8c6.9-0.2,12.7-6.1,12.6-13
						C1534.1,863.2,1528.3,857.4,1521.4,857.4z"/>
					<path fill="#36CCB1" d="M1617.3,756.9c0.1,7,6,12.8,12.9,12.6c7-0.1,12.8-6.1,12.5-13c-0.2-6.9-5.9-12.5-12.8-12.5
						C1623,744.1,1617.1,750,1617.3,756.9z"/>
					<path fill="#36CCB1" d="M1739,655.4c7.1-0.3,12.6-6.3,12.3-13.2c-0.4-7.1-6.4-12.6-13.2-12.2c-6.9,0.4-12.4,6.2-12.1,13
						C1726.1,650.1,1732,655.7,1739,655.4z"/>
					<path fill="#36CCB1" d="M1349.6,1020c0.3,7.1,6.3,12.6,13.2,12.2c7.1-0.4,12.6-6.4,12.2-13.3c-0.4-7-6.2-12.4-13.1-12.1
						C1354.9,1007.1,1349.3,1013.1,1349.6,1020z"/>
					<path fill="#36CCB1" d="M1423.2,1333.6c9.4,5.9,18.6,11.6,27.7,17.5c2,1.2,2.5,0.9,3.3-0.9c3.9-8.3,0.6-18.3-7.5-22.9
						C1438.5,1322.8,1428.5,1325.3,1423.2,1333.6z"/>
					<path fill="#36CCB1" d="M1834.6,529.3c0.1,7,5.6,12.4,12.6,12.4c7.1-0.1,12.6-5.7,12.5-12.8c-0.2-6.9-5.8-12.4-12.8-12.2
						C1839.9,516.7,1834.5,522.3,1834.6,529.3z"/>
					<path fill="#36CCB1" d="M1458.3,906.1c0,7,5.5,12.5,12.5,12.5c7.1,0,12.7-5.6,12.6-12.7c-0.1-6.9-5.7-12.4-12.6-12.4
						C1463.7,893.6,1458.3,899.1,1458.3,906.1z"/>
					<path fill="#36CCB1" d="M1579.5,779.5c-7-0.1-12.5,5.4-12.5,12.4c0,7,5.5,12.5,12.5,12.5c6.9,0,12.3-5.4,12.4-12.3
						C1591.9,785.1,1586.5,779.5,1579.5,779.5z"/>
					<path fill="#36CCB1" d="M1675.6,678.5c0,6.8,5.5,12.4,12.3,12.4c7,0,12.5-5.5,12.4-12.5c-0.1-6.8-5.6-12.2-12.5-12.2
						C1681,666.1,1675.6,671.6,1675.6,678.5z"/>
					<path fill="#36CCB1" d="M1299.4,1054.6c-0.1,6.9,5.3,12.4,12.2,12.5c7,0.1,12.6-5.5,12.5-12.4c0-6.8-5.5-12.3-12.4-12.3
						C1304.9,1042.3,1299.4,1047.8,1299.4,1054.6z"/>
					<path fill="#36CCB1" d="M1796.5,552c-6.8,0-12.3,5.6-12.3,12.4c0,6.8,5.6,12.3,12.4,12.3c6.8,0,12.3-5.6,12.3-12.4
						S1803.3,552,1796.5,552z"/>
					<path fill="#36CCB1" d="M1408,941.3c0.1,6.8,5.6,12.3,12.4,12.2c6.8-0.1,12.3-5.6,12.2-12.4c-0.1-6.8-5.6-12.3-12.4-12.2
						C1413.4,928.9,1407.9,934.5,1408,941.3z"/>
					<path fill="#36CCB1" d="M1876.9,536.2c-0.1,7.5,5.9,13.7,13.2,13.8c7.2,0.2,13.6-5.9,13.6-13.1c0-1.1-1-2.7-1.9-3.3
						c-5.5-2.9-11.2-5.6-16.9-8.1c-0.7-0.3-2-0.1-2.6,0.4C1878.7,528.5,1877,532.2,1876.9,536.2z"/>
					<path fill="#36CCB1" d="M1541.1,827.8c0.1-6.7-5.6-12.4-12.3-12.4c-6.6,0-12.2,5.5-12.2,12.2c-0.1,6.7,5.6,12.4,12.3,12.4
						C1535.5,840,1541,834.5,1541.1,827.8z"/>
					<path fill="#36CCB1" d="M1312.3,1224.7c6.1,7.8,12.1,15.6,18.1,23.2c5.8-2.7,9.2-8.3,8.9-14.2c-0.4-6.4-4.5-11.9-10.5-13.9
						C1322.8,1217.7,1316.8,1219.5,1312.3,1224.7z"/>
					<path fill="#36CCB1" d="M1248.9,1090.5c0,6.6,5.5,12.2,12.2,12.2c6.7,0.1,12.4-5.7,12.4-12.4c-0.1-6.7-5.7-12.2-12.3-12.1
						C1254.4,1078.3,1248.9,1083.9,1248.9,1090.5z"/>
					<path fill="#36CCB1" d="M1637.3,701.3c-6.7,0.1-12.2,5.6-12.2,12.3c0,6.7,5.8,12.4,12.5,12.2c6.7-0.2,12.1-5.8,12-12.4
						C1649.5,706.8,1643.9,701.3,1637.3,701.3z"/>
					<path fill="#36CCB1" d="M1733.8,600.2c0.1,6.7,5.7,12.2,12.3,12.1c6.7-0.1,12.2-5.8,12-12.4c-0.2-6.6-5.6-11.9-12.1-11.9
						C1739.3,588,1733.8,593.6,1733.8,600.2z"/>
					<path fill="#36CCB1" d="M1357.6,976.4c0,6.7,5.6,12.2,12.2,12.2c6.7-0.1,12.2-5.7,12.1-12.3c-0.1-6.5-5.5-11.9-12.1-12
						C1363.2,964.1,1357.6,969.7,1357.6,976.4z"/>
					<path fill="#36CCB1" d="M1466.3,863c0.1,6.7,5.3,11.9,12,11.9c6.8,0,12.1-5.5,11.9-12.2c-0.1-6.7-5.5-11.8-12.2-11.7
						C1471.4,851,1466.2,856.4,1466.3,863z"/>
					<path fill="#36CCB1" d="M1586.7,737.6c-6.7,0-11.9,5.3-11.8,12s5.3,11.8,12.1,11.7c6.5-0.1,11.6-5.2,11.6-11.8
						C1598.7,742.7,1593.5,737.5,1586.7,737.6z"/>
					<path fill="#36CCB1" d="M1695.5,623.5c-6.7-0.1-11.9,5.1-11.9,11.8c0,6.5,5.1,11.7,11.6,11.8c6.7,0.1,11.9-5.1,11.9-11.8
						C1707.2,628.7,1702,623.6,1695.5,623.5z"/>
					<path fill="#36CCB1" d="M1307.3,1012.1c-0.1,6.7,5.2,11.9,11.8,11.9c6.5,0,11.7-5.2,11.8-11.7c0.1-6.7-5.2-11.9-11.8-11.9
						C1312.6,1000.4,1307.4,1005.5,1307.3,1012.1z"/>
					<path fill="#36CCB1" d="M2147.5,1045.7c2.2-13.4,4.3-26.4,6.5-39.5c-7.8,0.2-15.4,7.7-17.3,16.4
						C2134.7,1031.6,2139.2,1041.6,2147.5,1045.7z"/>
					<path fill="#36CCB1" d="M2122,771.4c-5.1-11.1-10.2-22-15.1-32.8c-7.5,4.6-10.3,14.8-6.5,23
						C2104.1,769.7,2113.6,774.3,2122,771.4z"/>
					<path fill="#36CCB1" d="M1427.7,909.7c6.5,0,11.7-5.3,11.6-11.8c-0.1-6.5-5.3-11.7-11.8-11.6c-6.5,0.1-11.7,5.3-11.6,11.8
						C1416,904.6,1421.3,909.8,1427.7,909.7z"/>
					<path fill="#36CCB1" d="M1256.9,1047.1c-0.1,6.3,5.1,11.6,11.4,11.8c6.4,0.1,11.9-5.2,11.9-11.6c0-6.3-5.3-11.6-11.6-11.6
						C1262.3,1035.6,1257,1040.9,1256.9,1047.1z"/>
					<path fill="#36CCB1" d="M1644.8,658.8c-6.3,0-11.6,5.3-11.6,11.6c-0.1,6.4,5.4,11.8,11.8,11.7c6.3-0.1,11.5-5.5,11.5-11.8
						C1656.4,664.1,1651.1,658.8,1644.8,658.8z"/>
					<path fill="#36CCB1" d="M1803.8,510.1c-6.5,0.1-11.6,5.4-11.6,11.9s5.4,11.6,11.9,11.6c6.5-0.1,11.6-5.4,11.6-11.9
						C1815.6,515.2,1810.2,510,1803.8,510.1z"/>
					<path fill="#36CCB1" d="M1536.1,796.2c6.4,0.1,11.8-5.3,11.8-11.7c0-6.3-5.3-11.6-11.6-11.6c-6.4-0.1-11.8,5.3-11.8,11.7
						C1524.6,790.9,1529.8,796.2,1536.1,796.2z"/>
					<path fill="#36CCB1" d="M1365.6,933.7c-0.1,6.3,5.2,11.6,11.5,11.6c6.3,0,11.6-5.3,11.6-11.6c-0.1-6.2-5.2-11.3-11.4-11.5
						C1371,922.2,1365.6,927.4,1365.6,933.7z"/>
					<path fill="#36CCB1" d="M1753.3,545.4c-6.3,0-11.6,5.4-11.5,11.6c0.1,6.3,5.5,11.6,11.8,11.5c6.2-0.1,11.3-5.3,11.3-11.5
						C1764.9,550.7,1759.6,545.4,1753.3,545.4z"/>
					<path fill="#36CCB1" d="M1485.6,808.3c-6.3,0-11.3,5-11.3,11.3c0,6.4,5.2,11.5,11.6,11.4c6.3-0.1,11.3-5.2,11.2-11.5
						C1497,813.3,1491.9,808.3,1485.6,808.3z"/>
					<path fill="#36CCB1" d="M1605.5,706c-0.1-6.4-5.2-11.2-11.5-11.1c-6.4,0.1-11.2,5.2-11,11.6c0.2,6.2,5.1,11,11.3,10.9
						C1600.6,717.4,1605.6,712.4,1605.5,706z"/>
					<path fill="#36CCB1" d="M1326.4,957.8c-6.2,0.1-11,5-11,11.2c0,6.4,5,11.2,11.5,11.1c6.2-0.1,10.9-5.1,10.9-11.4
						C1337.6,962.6,1332.6,957.8,1326.4,957.8z"/>
					<path fill="#36CCB1" d="M1703.5,603.3c6.2-0.1,11-5,11-11.2c0-6.4-5-11.2-11.5-11.1c-6.2,0.1-11,5.1-10.9,11.3
						C1692.3,598.5,1697.3,603.3,1703.5,603.3z"/>
					<path fill="#36CCB1" d="M1544.3,752.5c6.1,0,11.1-5,11-11.2c-0.1-6.1-5.1-11-11.3-11c-6,0.1-10.9,5-10.9,11
						C1533.1,747.5,1538.1,752.5,1544.3,752.5z"/>
					<path fill="#36CCB1" d="M1435.2,866.6c6.2-0.1,11-5.1,11-11.3c-0.1-6.2-5.2-11-11.4-10.9c-6,0.1-10.9,5.1-10.8,11.2
						C1424,861.7,1429,866.6,1435.2,866.6z"/>
					<path fill="#36CCB1" d="M1279.8,1172.8c2.3,4.1,4.3,8.3,6.7,12.2c2.3,3.9,4.8,7.7,7.1,11.5c4.8-1.1,8.4-5.5,9.3-11
						c0.8-5.3-1.9-11-6.7-13.9C1291.2,1168.4,1285.4,1168.8,1279.8,1172.8z"/>
					<path fill="#36CCB1" d="M1652.9,638.9c6-0.1,11-5.2,10.9-11.1c-0.1-6-5.2-11-11.1-10.9c-6,0.1-11,5.2-10.9,11.1
						C1641.8,634,1647,639,1652.9,638.9z"/>
					<path fill="#36CCB1" d="M1265.5,1004.2c0.1,6,5.2,11,11.1,10.9c6-0.1,11-5.2,10.9-11.1c-0.1-6-5.2-11-11.1-10.9
						C1270.5,993.2,1265.5,998.3,1265.5,1004.2z"/>
					<path fill="#36CCB1" d="M1750.4,513.7c-0.1,5.9,5,11,11,11c5.9,0,11-5.1,10.9-11c-0.1-5.9-4.9-10.7-10.8-10.8
						C1755.6,502.7,1750.4,507.8,1750.4,513.7z"/>
					<path fill="#36CCB1" d="M1374.2,890.7c0.1,6,5.2,11,11.1,10.9c6-0.1,10.9-5.3,10.7-11.2c-0.2-5.9-5.1-10.7-10.9-10.7
						C1379.2,879.7,1374.1,884.8,1374.2,890.7z"/>
					<path fill="#36CCB1" d="M1493.8,787.9c6-0.1,10.7-4.9,10.6-10.9c-0.1-6-4.9-10.7-10.9-10.6c-6,0.1-10.7,4.9-10.6,10.9
						C1483,783.3,1487.8,788,1493.8,787.9z"/>
					<path fill="#36CCB1" d="M1602.1,673.7c6.1,0.1,10.7-4.6,10.7-10.6c0-5.9-4.6-10.6-10.5-10.6c-6.1-0.1-10.7,4.6-10.7,10.6
						C1591.6,669,1596.2,673.6,1602.1,673.7z"/>
					<path fill="#36CCB1" d="M1710.7,539c-5.9,0.1-10.5,4.8-10.4,10.7c0.1,5.9,4.8,10.5,10.7,10.4c5.9-0.1,10.5-4.8,10.4-10.7
						C1721.2,543.5,1716.5,539,1710.7,539z"/>
					<path fill="#36CCB1" d="M1324,926c0.1,5.9,4.8,10.5,10.7,10.4c5.9-0.1,10.4-4.8,10.4-10.7c-0.1-5.9-4.8-10.5-10.7-10.4
						C1328.5,915.3,1324,920,1324,926z"/>
					<path fill="#36CCB1" d="M1432.6,812.4c0.1,5.9,4.8,10.5,10.7,10.4c5.8-0.1,10.5-4.9,10.3-10.8c-0.1-5.7-4.8-10.3-10.6-10.2
						C1437.2,801.8,1432.5,806.6,1432.6,812.4z"/>
					<path fill="#36CCB1" d="M1551.7,688.3c-5.6,0-10.4,4.7-10.5,10.3c-0.1,5.8,4.8,10.6,10.6,10.5c5.6-0.1,10.3-4.9,10.3-10.5
						C1562,693.1,1557.4,688.4,1551.7,688.3z"/>
					<path fill="#36CCB1" d="M1621.7,1412.2c-1.4-8-7.7-14.2-15.2-15.7c-8.2-1.7-16.3,1.6-21,8.9
						C1597.7,1407.7,1609.6,1409.9,1621.7,1412.2z"/>
					<path fill="#36CCB1" d="M1284.4,971.9c5.7-0.3,10.3-5.3,9.9-10.9c-0.4-5.7-5.4-10.3-10.9-9.9c-5.6,0.4-10,5.3-9.8,10.7
						C1273.8,967.6,1278.8,972.3,1284.4,971.9z"/>
					<path fill="#36CCB1" d="M1660.3,595.1c5.6-0.1,10.4-4.9,10.3-10.5c-0.1-5.6-5-10.3-10.6-10.2c-5.5,0.2-10.1,4.9-10.1,10.4
						C1649.9,590.4,1654.7,595.1,1660.3,595.1z"/>
					<path fill="#36CCB1" d="M1392.5,837.3c-5.6,0-10.2,4.5-10.3,10.2c-0.1,5.7,4.7,10.5,10.3,10.3c5.6-0.1,10.2-4.7,10.1-10.3
						C1402.7,841.8,1398.1,837.3,1392.5,837.3z"/>
					<path fill="#36CCB1" d="M2154.5,1001.7c0.9-12.4,1.8-24.6,2.6-36.9c-6.3,1.2-11.8,8.5-12.9,16.4
						C2143,989.3,2147.3,998.2,2154.5,1001.7z"/>
					<path fill="#36CCB1" d="M1491,734.1c0.1,5.7,4.6,10,10.3,9.9c5.6-0.1,9.8-4.6,9.7-10.2c-0.1-5.7-4.6-10-10.3-9.9
						C1495.2,724.1,1491,728.5,1491,734.1z"/>
					<path fill="#36CCB1" d="M1664.6,1416.5c-3.1-8.3-10.4-13.3-18.8-13.5c-7.5-0.2-15.1,4.2-17.6,10.1
						C1640.2,1414.2,1652.2,1415.3,1664.6,1416.5z"/>
					<path fill="#36CCB1" d="M1599.7,620.5c0,5.6,4.5,9.9,10,9.9c5.6,0,9.9-4.5,9.9-10c-0.1-5.6-4.5-9.9-10-9.9
						C1604,610.6,1599.7,615,1599.7,620.5z"/>
					<path fill="#36CCB1" d="M1717.9,496.4c-5.5,0.1-9.8,4.6-9.7,10.3c0.1,5.5,4.7,9.7,10.3,9.6c5.4-0.2,9.6-4.6,9.5-10.1
						C1728,500.7,1723.5,496.3,1717.9,496.4z"/>
					<path fill="#36CCB1" d="M1332,883.4c0.1,5.6,4.5,9.9,10.2,9.8c5.5-0.1,9.9-4.6,9.7-10.2c-0.1-5.4-4.5-9.7-10-9.6
						C1336.3,873.4,1332,877.8,1332,883.4z"/>
					<path fill="#36CCB1" d="M1440.6,769.1c0,5.3,4.3,9.9,9.7,9.9c5.5,0.1,10-4.5,10-10c-0.1-5.4-4.5-9.7-9.9-9.7
						C1445.1,759.3,1440.7,763.7,1440.6,769.1z"/>
					<path fill="#36CCB1" d="M1559.1,645.9c-5.3-0.1-9.9,4.5-9.8,9.8c0,5.3,4.6,9.8,9.9,9.7c5.2-0.1,9.6-4.5,9.7-9.6
						C1568.9,650.5,1564.4,645.9,1559.1,645.9z"/>
					<path fill="#36CCB1" d="M1373.6,1293.1c3.9-7.1,2.8-14.7-2.4-19.8c-5.2-5-12.7-6-19.6-2.2
						C1357.9,1279.3,1365.9,1285.8,1373.6,1293.1z"/>
					<path fill="#36CCB1" d="M1225,992.7c0.6,3.9,0.8,7.1,1.6,10.1c0.3,1.2,1.4,2.5,2.5,3c4.4,2.3,10,0.7,12.7-3.6
						c2.7-4,2-9.7-1.6-12.9c-3.6-3.4-9.6-3.7-13.2-0.4C1225.9,990,1225.5,991.8,1225,992.7z"/>
					<path fill="#36CCB1" d="M1291.5,908.7c-5.2-0.1-9.7,4.3-9.7,9.6c-0.1,5.2,4.3,9.7,9.5,9.7c5.2,0.1,9.7-4.3,9.7-9.5
						C1301.1,913.3,1296.8,908.9,1291.5,908.7z"/>
					<path fill="#36CCB1" d="M1658,542.1c0,5.2,4.3,9.6,9.6,9.7c5.2,0,9.7-4.3,9.7-9.6c0-5.2-4.3-9.7-9.6-9.7
						C1662.4,532.5,1658,536.9,1658,542.1z"/>
					<path fill="#36CCB1" d="M1399.9,814.3c5.3,0,9.5-4.2,9.4-9.6c-0.1-5.2-4.2-9.3-9.4-9.3c-5.3,0-9.5,4.2-9.4,9.6
						C1390.6,810.3,1394.7,814.3,1399.9,814.3z"/>
					<path fill="#36CCB1" d="M1508.6,681.5c-5.3-0.1-9.4,4-9.4,9.3s4.1,9.4,9.3,9.4c5.2,0,9.2-4,9.3-9.1
						C1517.9,685.7,1513.8,681.5,1508.6,681.5z"/>
					<path fill="#36CCB1" d="M1231.5,953.5c0,5.2,4.1,9.4,9.3,9.4c5.2,0,9.3-4.2,9.3-9.4c-0.1-5.1-4-9.1-9.1-9.2
						C1235.7,944.2,1231.5,948.3,1231.5,953.5z"/>
					<path fill="#36CCB1" d="M1617.1,568c-5,0-9.2,4.1-9.3,9.1c-0.1,5.2,4.2,9.4,9.4,9.4c5-0.1,9.1-4.2,9.1-9.3
						C1626.2,572.2,1622.1,568.1,1617.1,568z"/>
					<path fill="#36CCB1" d="M1349.4,849.3c5,0,9.2-4.2,9.2-9.3c0-5-4.2-9.2-9.3-9.2c-5,0-9.2,4.2-9.2,9.3
						C1340.1,845.1,1344.3,849.3,1349.4,849.3z"/>
					<path fill="#36CCB1" d="M1457.7,717.4c-5,0.1-9.2,4.5-9,9.4c0.2,4.9,4.5,8.9,9.3,8.8c5-0.1,9.2-4.5,9-9.4
						C1466.8,721.4,1462.6,717.4,1457.7,717.4z"/>
					<path fill="#36CCB1" d="M1557.5,612.6c0.1,5,4.2,9,9.1,8.9c5-0.1,9-4.3,8.8-9.3c-0.2-4.9-4.2-8.7-9-8.7
						C1561.5,603.5,1557.4,607.6,1557.5,612.6z"/>
					<path fill="#36CCB1" d="M1290,875.3c0.1,4.9,3.9,8.7,8.8,8.7c5,0,8.8-4,8.8-9c-0.1-4.9-4-8.6-9-8.6
						C1293.7,866.5,1289.9,870.4,1290,875.3z"/>
					<path fill="#36CCB1" d="M1666.3,499c0,4.9,3.8,8.7,8.7,8.7c5,0,8.9-3.9,8.8-9c-0.1-4.9-3.9-8.7-8.9-8.6
						C1670,490.3,1666.2,494.1,1666.3,499z"/>
					<path fill="#36CCB1" d="M1398.6,761.8c0,4.9,4,8.7,8.9,8.6c4.7-0.1,8.5-4,8.4-8.7c0-4.9-4-8.7-8.9-8.6
						C1402.3,753.2,1398.6,757,1398.6,761.8z"/>
					<path fill="#36CCB1" d="M1546,1394.5c11,3.1,21.4,6.1,32.7,9.3c-2.5-7.2-6.6-11.5-12.9-13.6
						C1558.7,1387.8,1552.4,1389.4,1546,1394.5z"/>
					<path fill="#36CCB1" d="M1507.3,648.4c0.1,4.7,4.1,8.6,8.8,8.4c4.7-0.1,8.6-4.2,8.4-8.9c-0.2-4.6-4.1-8.3-8.7-8.3
						C1511.1,639.7,1507.2,643.7,1507.3,648.4z"/>
					<path fill="#36CCB1" d="M1239.6,911.1c0,4.7,4,8.6,8.7,8.6c4.7-0.1,8.6-4.1,8.5-8.7c-0.1-4.6-4-8.4-8.6-8.4
						C1243.6,902.4,1239.6,906.4,1239.6,911.1z"/>
					<path fill="#36CCB1" d="M1615.8,534.3c0.1,4.7,4.1,8.6,8.8,8.5c4.7-0.1,8.6-4.2,8.4-8.8c-0.2-4.6-4-8.3-8.6-8.3
						C1619.7,525.6,1615.8,529.6,1615.8,534.3z"/>
					<path fill="#36CCB1" d="M1348.3,797.1c0.2,4.6,4.2,8.4,8.7,8.2c4.6-0.2,8.4-4.2,8.2-8.7c-0.2-4.6-4.2-8.4-8.7-8.2
						C1351.9,788.6,1348.1,792.6,1348.3,797.1z"/>
					<path fill="#36CCB1" d="M1466,691.7c4.6-0.1,8.1-3.7,8.1-8.3c-0.1-4.7-3.8-8.3-8.5-8.2c-4.6,0.2-8.1,3.9-8,8.5
						C1457.8,688.2,1461.5,691.7,1466,691.7z"/>
					<path fill="#36CCB1" d="M2017.7,617.1c-7.2-6.8-14.3-13.2-21.3-19.8c-2.7,4.8-0.7,12.8,3.6,16.9
						C2004.7,618.6,2011.1,619.9,2017.7,617.1z"/>
					<path fill="#36CCB1" d="M1574.5,578c4.6,0,8.2-3.6,8.1-8.3c-0.1-4.5-3.6-8-8.1-8c-4.6,0-8.2,3.6-8.1,8.3
						C1566.4,574.5,1569.9,578,1574.5,578z"/>
					<path fill="#36CCB1" d="M1306.6,840.7c4.4,0.1,8.1-3.4,8.1-7.8c0.1-4.4-3.4-8.1-7.8-8.1c-4.4-0.1-8.1,3.4-8.1,7.8
						C1298.7,836.9,1302.2,840.6,1306.6,840.7z"/>
					<path fill="#36CCB1" d="M1523.9,597.2c-4.2,0-7.8,3.6-7.8,7.8s3.6,7.8,7.8,7.9c4.2,0,7.8-3.6,7.8-7.8
						C1531.8,600.9,1528.1,597.2,1523.9,597.2z"/>
					<path fill="#36CCB1" d="M1415.2,710.7c-4.2,0.1-7.8,3.8-7.8,8s3.8,7.8,8,7.8c4.2-0.1,7.8-3.8,7.8-8
						C1423.2,714.2,1419.4,710.6,1415.2,710.7z"/>
					<path fill="#36CCB1" d="M1248.5,867.8c0,4.3,3.3,7.6,7.6,7.7c4.4,0.1,7.8-3.4,7.7-7.8c-0.1-4.3-3.5-7.5-7.7-7.5
						C1251.9,860.2,1248.5,863.6,1248.5,867.8z"/>
					<path fill="#36CCB1" d="M1364.5,746.8c-4.3,0.1-7.4,3.6-7.2,7.9c0.2,4.1,3.5,7.2,7.7,7.1c4.3-0.1,7.4-3.6,7.2-7.9
						C1372,749.8,1368.7,746.7,1364.5,746.8z"/>
					<path fill="#36CCB1" d="M1473.5,647.6c4-0.1,7.4-3.5,7.2-7.6c-0.1-4-3.6-7.4-7.7-7.2c-3.9,0.2-7.1,3.5-7.1,7.4
						C1466,644.3,1469.4,647.7,1473.5,647.6z"/>
					<path fill="#36CCB1" d="M1941,556c-7.5-4.5-14.7-8.8-22-13.2c-1,5.8,1.6,11.2,6.5,14.1C1930.4,559.8,1936.3,559.6,1941,556z"/>
					<path fill="#36CCB1" d="M1624.6,491.6c0,3.2,2.2,6.2,5.2,7.3s6.2,0.2,8.4-2.1c2.3-2.4,2.7-5.9,1.2-8.8
						c-0.8-1.4-1.4-2.4-3.6-1.7c-2.3,0.8-4.8,0.7-7.2,0.8C1625.6,487.5,1624.6,488.5,1624.6,491.6z"/>
					<path fill="#36CCB1" d="M1574.6,526.8c0.1,3.9,3.5,7.2,7.4,7.2c3.9-0.1,7.2-3.5,7.2-7.4c-0.1-3.9-3.5-7.2-7.4-7.2
						C1577.9,519.5,1574.6,522.9,1574.6,526.8z"/>
					<path fill="#36CCB1" d="M1307.1,789.6c0.1,3.9,3.2,6.9,7.1,6.9c3.9-0.1,6.9-3.2,6.9-7.1s-3.2-6.9-7.1-6.9
						C1310.1,782.6,1307.1,785.7,1307.1,789.6z"/>
					<path fill="#36CCB1" d="M1415.8,675.9c-0.1,4,3,7.1,6.9,7.1c4,0,7-3,6.9-7c-0.1-3.9-3-6.8-6.8-6.9
						C1418.9,669,1415.8,672,1415.8,675.9z"/>
					<path fill="#36CCB1" d="M1524.5,561.9c0,3.8,3,6.8,6.8,6.8c3.8,0,6.8-3,6.8-6.8s-3-6.8-6.8-6.8
						C1527.4,555.1,1524.5,558.1,1524.5,561.9z"/>
					<path fill="#36CCB1" d="M1703.1,1416.6c-7.8-8.8-22.6-8.8-30.1,0C1683,1416.6,1692.9,1416.6,1703.1,1416.6z"/>
					<path fill="#36CCB1" d="M1256.9,825.3c0,3.6,3,6.7,6.7,6.7c3.7,0.1,6.9-3.1,6.8-6.9c-0.1-3.6-3.2-6.7-6.8-6.6
						C1259.9,818.6,1256.9,821.6,1256.9,825.3z"/>
					<path fill="#36CCB1" d="M1365.6,711c-0.1,3.5,2.9,6.5,6.4,6.7c3.6,0.1,6.8-3,6.7-6.6c0-3.5-3-6.5-6.5-6.5
						S1365.7,707.5,1365.6,711z"/>
					<path fill="#36CCB1" d="M1474.4,597.6c0,3.6,2.6,6.3,6.2,6.4c3.7,0.1,6.5-2.7,6.4-6.4c-0.1-3.6-2.7-6.2-6.3-6.2
						C1477.1,591.4,1474.5,594.1,1474.4,597.6z"/>
					<path fill="#36CCB1" d="M1315.5,747.1c0.1,3.3,2.9,6.1,6.2,6c3.4,0,6.2-3,6.1-6.4c-0.2-3.3-3.1-6-6.4-5.8
						C1318.1,740.9,1315.4,743.8,1315.5,747.1z"/>
					<path fill="#36CCB1" d="M1430,638.8c3.1,0.1,5.9-2.6,6.1-5.8c0.1-3.3-2.7-6.2-5.9-6.1c-3.2,0-5.9,2.7-5.9,5.9
						C1424.2,636,1426.8,638.7,1430,638.8z"/>
					<path fill="#36CCB1" d="M1255.3,1120.6c2.9,6.8,5.6,13.2,8.4,19.7c2.8-2.4,3.7-6.8,2.3-11.2
						C1264.5,1124.4,1260.5,1121.1,1255.3,1120.6z"/>
					<path fill="#36CCB1" d="M1538.7,513.7c-3.2,0-5.6,2.4-5.6,5.6c0,3.3,2.6,5.8,5.9,5.7c3.2-0.1,5.5-2.6,5.5-5.8
						C1544.4,516,1541.9,513.6,1538.7,513.7z"/>
					<path fill="#36CCB1" d="M1265.5,782c-0.1,3,2.4,5.5,5.4,5.6c3.1,0.1,5.8-2.5,5.7-5.6c-0.1-3-2.6-5.5-5.5-5.5
						C1268,776.6,1265.5,779,1265.5,782z"/>
					<path fill="#36CCB1" d="M1374.2,668.6c0,2.9,2.5,5.3,5.3,5.3c2.9,0.1,5.5-2.6,5.4-5.5c-0.1-2.9-2.7-5.2-5.5-5.2
						C1376.6,663.3,1374.2,665.8,1374.2,668.6z"/>
					<path fill="#36CCB1" d="M1488,559.5c2.9,0.1,5.1-2.1,5.1-4.9c0.1-2.9-2.1-5.1-4.9-5.1c-2.9-0.1-5.1,2.1-5.1,4.9
						C1483,557.3,1485.2,559.5,1488,559.5z"/>
					<path fill="#36CCB1" d="M2156.6,952.7c0-8.2,0-16,0-23.8C2151.1,933.7,2151.1,947,2156.6,952.7z"/>
					<path fill="#36CCB1" d="M1329.1,708.6c2.6-0.1,4.9-2.3,4.8-4.9c0-2.6-2.3-4.9-4.9-4.8c-2.6,0.1-4.9,2.3-4.8,4.9
						C1324.1,706.4,1326.4,708.6,1329.1,708.6z"/>
					<path fill="#36CCB1" d="M1433,590.4c0.1,2.6,2.2,4.6,4.9,4.5c2.5-0.1,4.3-2.1,4.3-4.7c-0.1-2.6-2.2-4.6-4.9-4.5
						C1434.7,585.9,1432.9,587.9,1433,590.4z"/>
					<path fill="#36CCB1" d="M1230.1,1030.1c1.1,5.9,2.2,11.5,3.3,17.2C1238.9,1043.6,1237.6,1032.8,1230.1,1030.1z"/>
					<path fill="#36CCB1" d="M1278.5,743.3c2.4,0,4.3-2,4.3-4.3c0-2.5-2-4.5-4.5-4.3c-2.1,0.1-4.1,2.2-4.2,4.5
						C1274.1,741.3,1276.1,743.3,1278.5,743.3z"/>
					<path fill="#36CCB1" d="M1387.5,629.4c2.4-0.2,3.9-1.4,4-3.8c0.2-2.3-1.7-4.3-4-4.2c-2.4,0.1-3.9,1.5-3.9,3.9
						C1383.6,627.8,1385,629.1,1387.5,629.4z"/>
					<path fill="#36CCB1" d="M1514,1382.6c5.6,2.1,11.2,4.3,17.1,6.6C1528,1384,1521,1381.1,1514,1382.6z"/>
					<path fill="#36CCB1" d="M1336.1,656.7c-0.8,1.4-2.2,2.7-2.4,4.2c-0.2,2,1.4,3.1,3.4,3.1c2.1-0.1,3.6-1.5,3.1-3.6
						c-0.3-1.4-1.8-2.4-2.8-3.7C1337.1,656.7,1336.6,656.7,1336.1,656.7z"/>
					<path fill="#36CCB1" d="M2133.2,804.7c1,3.3,2,6.6,2.9,9.9c0.4-0.1,0.7-0.2,1-0.3c-1-3.3-2.1-6.5-3.1-9.9
						C2133.7,804.5,2133.4,804.7,2133.2,804.7z"/>
				</g>
			</g>
			<g>
				<defs>
					<rect id="SVGID_6_" x="194.8" y="0" width="1610.7" height="1000"/>
				</defs>
				<clipPath id="SVGID_7_">
					<use xlink:href="#SVGID_6_"  overflow="visible"/>
				</clipPath>
				<g opacity="0.5" clip-path="url(#SVGID_7_)">
					<path fill="#36CCB1" d="M1163.6,787.6c-154.5-57.1-436.1,44.7-564.9,28.4C297.4,777.6,354.5,499,195.9,378.2
						C101.2,261.8-0.5,260-16.6,260l-41.4,140.7C-148.4,534.2-255.1,691-255.6,874.4c0.5,231.1,154.3,381.9,286.2,467.1
						c187.4,119,407.3,158.3,622.8,138.3c109-9.8,218.1-37.9,322.1-85.1c78.7-36.2,153.9-84,221.4-151.1
						c49-47.9,227.7-46.3,247.5-127.7C1457.4,1062.7,1344.9,854.6,1163.6,787.6z"/>
				</g>
			</g>
			<g>
				<defs>
					<rect id="SVGID_8_" x="194.8" y="0" width="1610.7" height="1000"/>
				</defs>
				<clipPath id="SVGID_9_">
					<use xlink:href="#SVGID_8_"  overflow="visible"/>
				</clipPath>
				<g opacity="0.5" clip-path="url(#SVGID_9_)">
					<path fill="#36CCB1" d="M1320.7,710.6c-188.5-13.2-465.7,189.6-612.9,213.1c-344.1,54.8-371-270.4-584.5-352.3
						c-141.6-97.6-254.3-66.9-272-61.7l-0.4,168.3c-56.4,176.1-123.6,383.2-65,585.2c74.9,254.4,292.9,370.8,465.6,422.2
						c244.6,70.7,499.5,43.2,730.3-48.2c116.9-45.9,227.9-112,327.2-197.4c75.1-65.3,142.4-142,195.2-237.7
						c38.5-68.5,235.9-124.2,231.4-220.3C1732.8,919,1542,726,1320.7,710.6z"/>
				</g>
			</g>
			<g>
				<defs>
					<rect id="SVGID_10_" x="194.8" y="0" width="1610.7" height="1000"/>
				</defs>
				<clipPath id="SVGID_11_">
					<use xlink:href="#SVGID_10_"  overflow="visible"/>
				</clipPath>
				<g opacity="0.5" clip-path="url(#SVGID_11_)">
					<path fill="#36CCB1" d="M752.3-51.6c94.3,36.3,188.7,65.3,283.1,90.7c123.4,32.7,246.8,58.1,362.9,108.9
						c105.3,43.5,196,112.5,250.4,217.7c50.8,90.7,65.3,203.2,130.6,286.7c25.4,36.3,58.1,61.7,101.6,68.9
						c54.4,10.9,108.9-10.9,152.4-39.9c123.4-83.5,196-239.5,188.7-384.7c-7.2-185.1-137.9-330.2-290.3-421
						c-156-94.3-333.9-145.2-511.7-167c-123.4-10.9-246.8-7.2-362.9,36.3C944.6-211.3,835.8-149.6,730.5-91.5L752.3-51.6z"/>
				</g>
			</g>
			<g>
				<defs>
					<rect id="SVGID_12_" x="194.8" y="0" width="1610.7" height="1000"/>
				</defs>
				<clipPath id="SVGID_13_">
					<use xlink:href="#SVGID_12_"  overflow="visible"/>
				</clipPath>
				<g opacity="0.5" clip-path="url(#SVGID_13_)">
					<path fill="#36CCB1" d="M641.7,149.4c71.4,39.5,249,9.2,345.7-4.7c126.3-18.7,249.7-44.1,376.4-43.2
						c113.9-1.5,224.5,26,316.1,101.2c82.5,63.3,140.2,161,233.2,211.9c37.6,23.3,77.7,33.8,120.6,23.2
						c54.3-11.5,95.7-53,124.3-96.8c80.4-125.4,85.5-297.4,21.6-427.9c-79.7-167.2-257.1-249-433-272.2
						c-180.6-25.1-364.1-1.5-536,48.6c-117.7,38.7-229.6,90.7-319.1,176.6C805.2-49.5,652.1-81.3,578.3,13.7
						C578.3,13.7,540.1,93.2,641.7,149.4z"/>
				</g>
			</g>
			<g>
				<defs>
					<rect id="SVGID_14_" x="194.8" y="0" width="1610.7" height="1000"/>
				</defs>
				<clipPath id="SVGID_15_">
					<use xlink:href="#SVGID_14_"  overflow="visible"/>
				</clipPath>
				<g clip-path="url(#SVGID_15_)">
					<g>
						<path fill="#36CCB1" d="M708.6,156.2c21,11.5,45.5,15.6,69.1,17.8c22.8,2.1,45.8,2.1,68.6,1.3c59.5-2.2,118.7-10.6,177.5-19.2
							c78.2-11.5,156.1-25.4,234.5-35.6c52-6.8,104.4-11.7,156.9-12.2c39.6-0.4,79.1,0.8,118.3,7.2c71.9,11.6,140.8,39,199.2,82.9
							c55.7,42,99.8,94.9,148.5,144.2c24.4,24.8,50.4,48.3,79.6,67.2c30,19.4,62.5,36.6,98.8,38.6c63.1,3.5,117.1-34.5,153.5-83
							c82.9-110.6,97.7-267.9,54.1-396.7c-21-62-56.2-118.8-102.8-164.9c-45.4-45-100.3-79.6-158.9-104.8
							c-126.1-54.4-268.4-67-404.3-59.9c-82.7,4.4-164.7,17.1-245.2,36.3c-75.1,17.9-148,42.4-217.6,75.8
							c-66.6,31.9-127.9,72.4-181.6,123.1c-43.3,40.9-102.6,54.2-158.6,68.1C743.4-44,685.1-28.2,647.8,17.1
							c-5.6,6.8-7.3,16.2-8.6,24.6c-2.8,18.6-0.1,37.7,8,54.7C659.8,123.1,683.4,142.1,708.6,156.2c0.2,0.1,0.4-0.1,0.6,0
							c-41.7-23.5-76.7-62.8-69.5-113.5c1.1-7.7,2.6-16.6,6.8-23.2C653.5,8.2,666-1.8,676.6-9.6c10.8-8,22.6-14.6,34.7-20.2
							C763.2-53.7,820.9-60,874.5-78.5c26.2-9,51.7-21.1,73.3-38.8c12.8-10.6,24.4-22.7,37.1-33.4c14-11.9,28.4-23.1,43.3-33.7
							c123.3-87.4,272.5-133.7,420-159.1c92.4-15.9,186.6-22.6,280.3-17.3c69.5,4,139.2,14,206,34.1
							c119.3,36.1,231.3,106,295.5,215.6c68.1,116.3,79,264,30,389.4c-23.6,60.3-62.8,122.7-122.3,152.9
							c-35.3,17.9-76.6,22.3-114.5,10.2c-33.4-10.7-64.9-31.6-92.1-53.5c-52.7-42.3-94.3-96.2-142.9-143
							c-50.8-48.9-109.8-88.1-176.9-110.6c-65.4-22-133.4-27.2-202-26.1c-75.6,1.2-150.8,11.2-225.4,22.8
							c-68.7,10.6-137.3,22-206.2,31.4c-67.5,9.2-137.3,18.3-205.3,10.8c-21.7-2.4-43.9-6.7-63.2-17.2
							C709,156.2,708.7,156.3,708.6,156.2z"/>
					</g>
				</g>
			</g>
			<g>
				<defs>
					<rect id="SVGID_16_" x="194.8" y="0" width="1610.7" height="1000"/>
				</defs>
				<clipPath id="SVGID_17_">
					<use xlink:href="#SVGID_16_"  overflow="visible"/>
				</clipPath>
				<g clip-path="url(#SVGID_17_)">
					<g>
						<path fill="none" stroke="#36CCB1" stroke-width="0.9046" stroke-miterlimit="10" d="M751.3,688.7c0,6.9-5.6,12.6-12.6,12.6
							c-6.9,0-12.6-5.6-12.6-12.6c0-6.9,5.6-12.6,12.6-12.6S751.3,681.7,751.3,688.7z"/>
					</g>
					<g>
						<path fill="none" stroke="#36CCB1" stroke-width="0.9046" stroke-miterlimit="10" d="M1295.9,196.7c0,6.9-5.6,12.6-12.6,12.6
							c-7,0-12.6-5.6-12.6-12.6c0-6.9,5.6-12.6,12.6-12.6C1290.3,184,1295.9,189.6,1295.9,196.7z"/>
					</g>
					<g>
						<path fill="none" stroke="#36CCB1" stroke-width="0.9046" stroke-miterlimit="10" d="M1751.7,385.7c0,6.9-5.6,12.6-12.6,12.6
							c-6.9,0-12.6-5.6-12.6-12.6c0-6.9,5.6-12.6,12.6-12.6C1746.1,373.1,1751.7,378.7,1751.7,385.7z"/>
					</g>
					<g>
						<path fill="none" stroke="#36CCB1" stroke-width="0.9046" stroke-miterlimit="10" d="M1629.6,819.3c0,6.9-5.6,12.6-12.6,12.6
							s-12.6-5.6-12.6-12.6c0-6.9,5.6-12.6,12.6-12.6S1629.6,812.3,1629.6,819.3z"/>
					</g>
					<g>
						<path fill="none" stroke="#36CCB1" stroke-width="0.9046" stroke-miterlimit="10" d="M1170.3,904.2c0,6.9-5.6,12.6-12.6,12.6
							c-6.9,0-12.6-5.6-12.6-12.6c0-6.9,5.6-12.6,12.6-12.6C1164.6,891.6,1170.3,897.3,1170.3,904.2z"/>
					</g>
					<g>
						<path fill="none" stroke="#36CCB1" stroke-width="0.9046" stroke-miterlimit="10" d="M888.4,952.7c0,6.9-5.6,12.6-12.6,12.6
							c-6.9,0-12.6-5.6-12.6-12.6c0-6.9,5.6-12.6,12.6-12.6C882.8,940,888.4,945.7,888.4,952.7z"/>
					</g>
					<g>
						<path fill="none" stroke="#36CCB1" stroke-width="0.9046" stroke-miterlimit="10" d="M326.4,792.9c0,6.9-5.6,12.6-12.6,12.6
							c-6.9,0-12.6-5.6-12.6-12.6c0-6.9,5.6-12.6,12.6-12.6S326.4,785.9,326.4,792.9z"/>
					</g>
					<g>
						<circle fill="none" stroke="#36CCB1" stroke-width="0.9046" stroke-miterlimit="10" cx="339.7" cy="123" r="12.6"/>
					</g>
					<g>
						<path fill="none" stroke="#36CCB1" stroke-width="0.9046" stroke-miterlimit="10" d="M1543.9,519.1c0,6.9-5.6,12.6-12.6,12.6
							c-6.9,0-12.6-5.6-12.6-12.6c0-6.9,5.6-12.6,12.6-12.6S1543.9,512.1,1543.9,519.1z"/>
					</g>
					<g>
						<circle fill="#E5E5E5" cx="1175.8" cy="474.5" r="2.1"/>
					</g>
					<g>
						<circle fill="#E5E5E5" cx="743" cy="89.5" r="2.1"/>
					</g>
					<g>
						<circle fill="#E5E5E5" cx="527.6" cy="588.7" r="2.1"/>
					</g>
					<g>
						<circle fill="#E5E5E5" cx="1199.1" cy="964.7" r="2.1"/>
					</g>
					<g>
						<circle fill="#E5E5E5" cx="991.3" cy="964" r="2.1"/>
					</g>
					<g>
						<circle fill="#E5E5E5" cx="1464.5" cy="756.1" r="2.1"/>
					</g>
					<g>
						<circle fill="#E5E5E5" cx="1628" cy="956.9" r="2.1"/>
					</g>
					<g>
						<circle fill="#E5E5E5" cx="1453.5" cy="882.5" r="2.1"/>
					</g>
					<g>
						<circle fill="#E5E5E5" cx="395.4" cy="945.3" r="2.1"/>
					</g>
					<g>
						<circle fill="#E5E5E5" cx="268.8" cy="871.6" r="2.1"/>
					</g>
					<g>
						<circle fill="#E5E5E5" cx="176.5" cy="663.1" r="2.1"/>
					</g>
					<g>
						<circle fill="#E5E5E5" cx="854.1" cy="137.6" r="2.1"/>
					</g>
					<g>
						<circle fill="#E5E5E5" cx="1182.5" cy="185.5" r="2.1"/>
					</g>
					<g>
						<circle fill="#E5E5E5" cx="1568.4" cy="170.5" r="2.1"/>
					</g>
					<g>
						<circle fill="#E5E5E5" cx="1712.9" cy="188.9" r="2.1"/>
					</g>
					<g>
						<circle fill="#E5E5E5" cx="1817" cy="263.1" r="2.1"/>
					</g>
				</g>
			</g>
			<g>
				<defs>
					<rect id="SVGID_18_" x="194.8" y="0" width="1610.7" height="1000"/>
				</defs>
				<clipPath id="SVGID_19_">
					<use xlink:href="#SVGID_18_"  overflow="visible"/>
				</clipPath>
				<g clip-path="url(#SVGID_19_)">
					<g>
						<path fill="#36CCB1" d="M1388.9,700.1c-79.4-5.2-158.8,22.8-231.3,52.4c-88.9,36.3-173.6,81.9-261.5,120.3
							c-34.9,15.2-70.7,29.9-107.9,37.9c-51.2,11-106.5,13.4-158.1,5c-70.5-11.5-129.6-48.4-179-98.9
							c-50.3-51.5-91.7-110.9-141.9-162.5C243.9,587.2,163,538.1,76.5,502.7c-37.8-15.5-88.8-35.1-130.1-19.4
							c-8.9,3.4-15.6,9.3-23.6,14c-3.7,2.2-3.8,1.6-3.8,6.2c0,10.9-0.1,21.9-0.1,32.8c-0.1,32.7-0.1,65.3-0.2,98
							c0,10,0.5,20.2-0.1,30.3c-0.3,4.9-2,9.1-3.6,13.9c-4.5,13.9-8.9,27.8-13.2,41.7c-38,120.9-72.1,245.6-70.8,373.4
							c1.2,115.2,34.7,228.4,101.1,322.9c52.7,75.1,123.7,135.4,203.1,180.8c78.9,45.1,165.7,76.4,254.5,95.2
							c110.7,23.5,225.1,28,337.5,15.6c125.6-13.8,249.3-48,364.9-98.9c111.7-49.2,216.5-116.4,306.6-199
							c42.6-39.1,81.8-81.9,116.1-128.5c18.1-24.5,34.8-50.1,50-76.5c8.7-15.1,16.9-28.1,30-39.8c56.2-50.5,133.4-75.1,183.8-132.6
							c17.5-20,31.5-47.6,22.7-74.5c-8.5-26.2-27.9-49.5-46-69.8c-60.2-67.4-139.2-120.7-222.9-154.2
							C1486.5,715.8,1438.2,703.7,1388.9,700.1c-0.2,0-0.4,0-0.6,0c100,7.4,195.5,49.3,276,107.9c32.9,23.9,63.9,50.8,90.9,81.1
							c17.8,20,36.5,42.8,45.1,68.5c8.7,26.1-3.9,53-20.7,72.9c-24.2,28.6-57.1,49.4-88.5,69.1c-31.2,19.6-64.1,37.8-92.3,61.6
							c-10.9,9.2-20.8,19.4-27.9,31.8c-14.9,26.2-30.6,51.8-48,76.4c-67.7,95.6-155.7,175.6-252.6,241
							c-100.3,67.7-211,118.3-326.8,153.1c-131.8,39.6-270.3,58-407.9,49c-106-7-211.3-29.9-309.5-70.8
							c-79.1-33-153.9-77.9-216.6-136.7c-71.4-67-124.3-151.4-153.2-245c-37.8-122.4-27.7-253,0.4-376.3
							c13.5-59.6,31.2-118.2,49.7-176.4c2-6.4,4.1-12.8,6.1-19.2c2.1-6.5,5.6-13.8,6.6-20.6c0.2-1.6,0-3.4,0-5c0-11,0.1-22,0.1-32.9
							c0.1-32.1,0.1-64.2,0.2-96.3c0-10.1-0.7-20.5,0.1-30.5c0.3-4.1,0.6-3.3,4.1-5.5c7.9-4.8,14.5-10.5,23.3-13.8
							c20.1-7.7,42.7-5.6,63.4-1.5c38.6,7.8,75.5,24,110.6,41.3c44.8,22,89,46.5,128.4,77.4c58.2,45.8,104.1,103.6,151.3,160.1
							c42.5,50.9,88.2,101.1,148.9,130.3c67.2,32.3,143.5,34.3,216,23.9c36.2-5.2,70.5-16.8,104.2-30.5
							c40.9-16.6,80.7-35.7,120.5-54.7c86.1-41.3,172.5-84.7,264.6-111.2c43.2-12.5,88.5-21.2,133.7-18.2
							C1388.5,700.2,1388.8,700.1,1388.9,700.1z"/>
					</g>
				</g>
			</g>
		</g>
	</g>
</g>
</svg>
