<?xml version="1.0" encoding="utf-8"?>
<!-- Generator: Adobe Illustrator 17.1.0, SVG Export Plug-In . SVG Version: 6.00 Build 0)  -->
<!DOCTYPE svg PUBLIC "-//W3C//DTD SVG 1.1//EN" "http://www.w3.org/Graphics/SVG/1.1/DTD/svg11.dtd">
<svg version="1.1" id="Layer_1" xmlns="http://www.w3.org/2000/svg" xmlns:xlink="http://www.w3.org/1999/xlink" x="0px" y="0px"
	 viewBox="0 0 1920 950" enable-background="new 0 0 1920 950" xml:space="preserve">
<linearGradient id="SVGID_1_" gradientUnits="userSpaceOnUse" x1="959.9583" y1="951.9739" x2="959.9583" y2="2.559" gradientTransform="matrix(1 0 0 -1 0 952)">
	<stop  offset="0" style="stop-color:#BB788A"/>
	<stop  offset="1" style="stop-color:#BB788A;stop-opacity:0.53"/>
</linearGradient>
<rect x="0" y="0" fill="url(#SVGID_1_)" width="1920" height="949.4"/>
<linearGradient id="SVGID_2_" gradientUnits="userSpaceOnUse" x1="1005.8973" y1="266.3101" x2="921.3514" y2="953.3699" gradientTransform="matrix(1 0 0 -1 0 952)">
	<stop  offset="0" style="stop-color:#FFFFFF"/>
	<stop  offset="1" style="stop-color:#FFFFFF;stop-opacity:3.000000e-002"/>
</linearGradient>
<path opacity="0.4" fill="url(#SVGID_2_)" fill-opacity="0.4" enable-background="new    " d="M902.6,0.9l34.1,691.6H950L991.7,0.9
	L902.6,0.9z"/>
<linearGradient id="SVGID_3_" gradientUnits="userSpaceOnUse" x1="1017.5128" y1="291.1862" x2="720.4837" y2="958.8287" gradientTransform="matrix(1 0 0 -1 0 952)">
	<stop  offset="0" style="stop-color:#FFFFFF"/>
	<stop  offset="1" style="stop-color:#FFFFFF;stop-opacity:3.000000e-002"/>
</linearGradient>
<path opacity="0.4" fill="url(#SVGID_3_)" fill-opacity="0.4" enable-background="new    " d="M703.2,0.9L958,684.1l7.1,0L793.8,0.9
	L703.2,0.9z"/>
<linearGradient id="SVGID_4_" gradientUnits="userSpaceOnUse" x1="900.4539" y1="293.5898" x2="1197.1912" y2="960.5776" gradientTransform="matrix(1 0 0 -1 0 952)">
	<stop  offset="0" style="stop-color:#FFFFFF"/>
	<stop  offset="1" style="stop-color:#FFFFFF;stop-opacity:3.000000e-002"/>
</linearGradient>
<path opacity="0.4" fill="url(#SVGID_4_)" fill-opacity="0.4" enable-background="new    " d="M1218.4,0.9L955.1,677.2h-12.4
	L1130,0.9L1218.4,0.9z"/>
<linearGradient id="SVGID_5_" gradientUnits="userSpaceOnUse" x1="972.4971" y1="364.5938" x2="493.7949" y2="965.9299" gradientTransform="matrix(1 0 0 -1 0 952)">
	<stop  offset="0" style="stop-color:#FFFFFF"/>
	<stop  offset="1" style="stop-color:#FFFFFF;stop-opacity:3.000000e-002"/>
</linearGradient>
<path opacity="0.4" fill="url(#SVGID_5_)" fill-opacity="0.4" enable-background="new    " d="M475.8,0.4l445.2,618.5h12L581.6,0.4
	L475.8,0.4z"/>
<linearGradient id="SVGID_6_" gradientUnits="userSpaceOnUse" x1="954.4877" y1="362.1038" x2="1434.2672" y2="964.7944" gradientTransform="matrix(1 0 0 -1 0 952)">
	<stop  offset="0" style="stop-color:#FFFFFF"/>
	<stop  offset="1" style="stop-color:#FFFFFF;stop-opacity:3.000000e-002"/>
</linearGradient>
<path opacity="0.4" fill="url(#SVGID_6_)" fill-opacity="0.4" enable-background="new    " d="M1450.8,0.4L1004,625.5l-13.2-6.6
	L1345.9,0.4L1450.8,0.4z"/>
<linearGradient id="SVGID_7_" gradientUnits="userSpaceOnUse" x1="903.7838" y1="419.6813" x2="199.4871" y2="964.3583" gradientTransform="matrix(1 0 0 -1 0 952)">
	<stop  offset="0" style="stop-color:#FFFFFF"/>
	<stop  offset="1" style="stop-color:#FFFFFF;stop-opacity:3.000000e-002"/>
</linearGradient>
<path opacity="0.4" fill="url(#SVGID_7_)" fill-opacity="0.4" enable-background="new    " d="M189.3,0.8l671.9,585l11.5-13.2
	L328.2,0.8L189.3,0.8z"/>
<linearGradient id="SVGID_8_" gradientUnits="userSpaceOnUse" x1="1021.2697" y1="414.4016" x2="1725.168" y2="958.7672" gradientTransform="matrix(1 0 0 -1 0 952)">
	<stop  offset="0" style="stop-color:#FFFFFF"/>
	<stop  offset="1" style="stop-color:#FFFFFF;stop-opacity:3.000000e-002"/>
</linearGradient>
<path opacity="0.4" fill="url(#SVGID_8_)" fill-opacity="0.4" enable-background="new    " d="M1731,0.8l-661.4,589.5l-15.3-10
	L1599,0.8L1731,0.8z"/>
<linearGradient id="SVGID_9_" gradientUnits="userSpaceOnUse" x1="784.9955" y1="463.7755" x2="-28.1153" y2="894.7286" gradientTransform="matrix(1 0 0 -1 0 952)">
	<stop  offset="0" style="stop-color:#FFFFFF"/>
	<stop  offset="1" style="stop-color:#FFFFFF;stop-opacity:3.000000e-002"/>
</linearGradient>
<path opacity="0.4" fill="url(#SVGID_9_)" fill-opacity="0.4" enable-background="new    " d="M2,103.2l747.7,439l12.7-11.3L2,0.5
	V103.2z"/>
<linearGradient id="SVGID_10_" gradientUnits="userSpaceOnUse" x1="1141.1996" y1="459.7431" x2="1954.1525" y2="890.6157" gradientTransform="matrix(1 0 0 -1 0 952)">
	<stop  offset="0" style="stop-color:#FFFFFF"/>
	<stop  offset="1" style="stop-color:#FFFFFF;stop-opacity:3.000000e-002"/>
</linearGradient>
<path opacity="0.4" fill="url(#SVGID_10_)" fill-opacity="0.4" enable-background="new    " d="M1921.9,107.6l-745.1,443.8
	l-12.7-15.8l757.7-535V107.6z"/>
<linearGradient id="SVGID_11_" gradientUnits="userSpaceOnUse" x1="813.5673" y1="405.2918" x2="-19.7239" y2="678.7828" gradientTransform="matrix(1 0 0 -1 0 952)">
	<stop  offset="0" style="stop-color:#FFFFFF"/>
	<stop  offset="1" style="stop-color:#FFFFFF;stop-opacity:3.000000e-002"/>
</linearGradient>
<path opacity="0.4" fill="url(#SVGID_11_)" fill-opacity="0.4" enable-background="new    " d="M1.9,298.5l786.3,312.8l11.6-22.8
	L1.9,207.4L1.9,298.5z"/>
<linearGradient id="SVGID_12_" gradientUnits="userSpaceOnUse" x1="1108.5388" y1="410.6208" x2="1941.8353" y2="684.114" gradientTransform="matrix(1 0 0 -1 0 952)">
	<stop  offset="0" style="stop-color:#FFFFFF"/>
	<stop  offset="1" style="stop-color:#FFFFFF;stop-opacity:3.000000e-002"/>
</linearGradient>
<path opacity="0.4" fill="url(#SVGID_12_)" fill-opacity="0.4" enable-background="new    " d="M1922,299.9l-791.7,301.4l-6.2-12.7
	L1922,207.4V299.9z"/>
<linearGradient id="SVGID_13_" gradientUnits="userSpaceOnUse" x1="843.3755" y1="328.7639" x2="-10.941" y2="491.2129" gradientTransform="matrix(1 0 0 -1 0 952)">
	<stop  offset="0" style="stop-color:#FFFFFF"/>
	<stop  offset="1" style="stop-color:#FFFFFF;stop-opacity:3.000000e-002"/>
</linearGradient>
<path opacity="0.4" fill="url(#SVGID_13_)" fill-opacity="0.4" enable-background="new    " d="M2.2,479l824.2,212.4l8.6-24.1
	L2.2,391.9L2.2,479z"/>
<linearGradient id="SVGID_14_" gradientUnits="userSpaceOnUse" x1="1079.7208" y1="332.7541" x2="1934.0377" y2="495.2025" gradientTransform="matrix(1 0 0 -1 0 952)">
	<stop  offset="0" style="stop-color:#FFFFFF"/>
	<stop  offset="1" style="stop-color:#FFFFFF;stop-opacity:3.000000e-002"/>
</linearGradient>
<path opacity="0.4" fill="url(#SVGID_14_)" fill-opacity="0.4" enable-background="new    " d="M1921.7,469l-826.4,214.6l-6.4-16.2
	l832.8-275.4V469z"/>
<path fill="#002A3A" d="M1920,950.1V646.3L0,640.1v310H1920z"/>
<path opacity="0.6" fill="#02A39B" enable-background="new    " d="M-0.4,645.3c0,11.7-4.2,14.1,15.5,16.7
	c23.6,2.6,104.9,4.2,123.7,13.6c12.4,6,27,4.7,40.3,5.5c13.7,0.9,32.1,5.1,45.8,1.7c18-4.3,30-13.2,51-14.5c39-2.6,78.8,0,118.3-0.4
	c44.1-0.4,87.8-4.3,132-4.3c37.3,0,75,2.1,112.3,4.7c19.7,1.3,26.1,2.1,16.3,17c35.6,14.5,91.7,0.4,129.4-1.3
	c51.8-2.1,108-12.8,160.3-5.5c16.3,2.1,32.1,9.4,47.6,13.2c21,4.7,43.7,3.8,64.7,1.7c45-4.3,89.1-17,134.5-16.6
	c37.3,0,73.7,7.7,111,7.2c51.4,0,102.4-1.7,153.8-3c112.7-3.4,225.8-5.5,338.5-0.4c41.6,1.7,83.6,5.1,125.1,5.1v-40.5H-0.4z"/>
<path fill="#447D98" d="M72.7,646.3h44.5h40.6h52.9H238h8.9h45.6h25.6h20.6h2.2h16.7H410h47.3h61.8h31.7H562h52.9h56.8V506.2H661
	v-12.8h-10v-31.7h-11.1v31.7h-9.5v12.8h-15.6v-98.4h-5.6v-17.2h-11.7v-10h-6.1v-27.8h-5v-26.1h-6.7v26.1H572v27.8h-5.6v10h-11.1
	v17.2h-4.5v121.7h-31.7v-13.9v-94h-61.8v94h-9.5v-90.6h-13.4v-10.6h-6.7v-13.3h-14.5v13.3H405v10.6h-13.4v75.6H390v-7.2h-9.5v-22.8
	h-6.1v-25h-2.8v25h-8.9v22.8h-12.8v7.2h-11.1v31.1h-7.2v-10.6h-8.9v-25.6h-8.9v25.6h-8.3v10.6h-12.8v-80.1h-5v-13.9h-10v-8.3h-5
	v-22.8h-5v-21.1h-5v21.1h-6.7v22.8h-5v8.3h-9.5v13.9H238v99h-27.3v-10.6v-76.7h-52.9v76.7h-7.8v-73.9h-11.7v-8.9h-5.6v-11.1h-12.2
	v11.1h-7.2v8.9h-11.7v61.2H100v-6.1h-7.8v-18.3h-5v-20h-2.8v20h-7.2v18.3H66.1v6.1h-8.9v37.2l-20.6,2.2v79.5h20.6H72.7z"/>
<path fill="#447D98" d="M1920,485.2v-32.7h-11.4v32.7h-9.8v13.6h-16.3v-103h-5.8v-18.2h-12.3v-10.2h-6.1v-29.6h-5.8v-27.1h-6.5v27.1
	h-8v29.6h-6.1v10.2h-11.7v18.2h-4.3v127.7h-33.2v-14.2v-98.7h-64.8v98.7h-9.5V414h-14.1v-11.1h-7.1v-14.2h-15v14.2h-8.9V414h-14.1
	v79.3h-1.5v-8h-9.8v-23.8h-6.1v-25.9h-3.1v25.9h-9.2v23.8h-13.2v8h-11.7V526h-7.7v-10.8h-9.2v-26.8h-9.5v26.8h-8.3V526h-13.8v-83.9
	h-5.2v-15.1h-10.4v-8.3h-5.2v-23.8h-4.9v-22.2h-5.5v22.2h-7.1v23.8h-5.2v8.3h-9.8v15.1h-3.7v104h-28.3v-11.7v-80.5h-55.3v80.5h-8.3
	v-77.4h-12v-8.9h-6.1v-11.7h-12.6v11.7h-7.7v8.9h-12v64.8h-1.5v-6.5h-8.3v-19.4h-5.2v-21.6h-2.8v21.6h-7.7v19.4h-11.4v6.5h-9.8v38.6
	h-18.7v86.1h18.7h16.6h46.7h42.1h55.3h28.3h9.8h47.3h26.4h22.1h2.2h17.2h54.7h49.5h64.8h33.2h11.4h55.3h37.5V485.2z"/>
<path fill="#FFF4D2" d="M1357.1,463.7h-4v5.2h4V463.7z"/>
<path fill="#FFF4D2" d="M1370.3,455.4h-3.1v7.1h3.1V455.4z"/>
<path fill="#FFF4D2" d="M1370.3,474.8h-3.1v10.7h3.1V474.8z"/>
<path fill="#FFF4D2" d="M1382.8,463.7h-2.4v5.2h2.4V463.7z"/>
<path fill="#FFF4D2" d="M1382.8,480.9h-1.2v4.6h1.2V480.9z"/>
<path fill="#FFF4D2" d="M1415.1,462.5h-4.6v6.1h4.6V462.5z"/>
<path fill="#FFF4D2" d="M1415.4,481.2h-2.5v7.4h2.5V481.2z"/>
<path fill="#FFF4D2" d="M1428.9,460.7h-5.2v21.5h5.2V460.7z"/>
<path fill="#FFF4D2" d="M1439.4,465.9h-3.4v6.7h3.4V465.9z"/>
<path fill="#FFF4D2" d="M1439.4,485.5h-3.4v5.8h3.4V485.5z"/>
<path fill="#FFF4D2" d="M1448.6,463.7h-1.5v8.9h1.5V463.7z"/>
<path fill="#FFF4D2" d="M1504.5,433.1h-5.5v8h5.5V433.1z"/>
<path fill="#FFF4D2" d="M1504.5,456.1h-5.5v13.2h5.5V456.1z"/>
<path fill="#FFF4D2" d="M1519.2,428.1h-4v8.9h4V428.1z"/>
<path fill="#FFF4D2" d="M1518.9,455.4h-1.8v9.5h1.8V455.4z"/>
<path fill="#FFF4D2" d="M1537.6,446.9h-4v11h4V446.9z"/>
<path fill="#FFF4D2" d="M1498.9,486.1h-4.6v12.3h4.6V486.1z"/>
<path fill="#FFF4D2" d="M1535.5,478.1h-1.8v12.6h1.8V478.1z"/>
<path fill="#FFF4D2" d="M1566.5,517.7h-2.5v9.5h2.5V517.7z"/>
<path fill="#FFF4D2" d="M1577.6,490.7h-4.3v8.3h4.3V490.7z"/>
<path fill="#FFF4D2" d="M1600.6,500.5h-0.9V511h0.9V500.5z"/>
<path fill="#FFF4D2" d="M1611.7,516.2h-4.3v5.5h4.3V516.2z"/>
<path fill="#FFF4D2" d="M1620.6,494.4h-2.5v10.1h2.5V494.4z"/>
<path fill="#FFF4D2" d="M1661.4,424.2h-3.1v8.9h3.1V424.2z"/>
<path fill="#FFF4D2" d="M1677.1,408.5h-4v26.7h4V408.5z"/>
<path fill="#FFF4D2" d="M1689.4,421.7h-1.5v6.7h1.5V421.7z"/>
<path fill="#FFF4D2" d="M1674.9,452.4h-1.8v9.5h1.8V452.4z"/>
<path fill="#FFF4D2" d="M1729,414h-3.4v14.7h3.4V414z"/>
<path fill="#FFF4D2" d="M1727.1,446.9h-1.5v9.8h1.5V446.9z"/>
<path fill="#FFF4D2" d="M1742.8,418.6h-1.5v8.3h1.5V418.6z"/>
<path fill="#FFF4D2" d="M1741.3,446.9h-4.6v11h4.6V446.9z"/>
<path fill="#FFF4D2" d="M1757.5,425.1h-1.5v9.8h1.5V425.1z"/>
<path fill="#FFF4D2" d="M1829.1,399.6h-2.4v8.9h2.4V399.6z"/>
<path fill="#FFF4D2" d="M1843.2,377.2h-5.5v17.2h5.5V377.2z"/>
<path fill="#FFF4D2" d="M1857.7,377.2h-5.5v17.2h5.5V377.2z"/>
<path fill="#FFF4D2" d="M1829.1,425.1h-1.2v11.7h1.2V425.1z"/>
<path fill="#FFF4D2" d="M1845.4,400.8h-0.9v7.7h0.9V400.8z"/>
<path fill="#FFF4D2" d="M1869.3,408.5h-1.5v12h1.5V408.5z"/>
<path fill="#013A4B" d="M1257.6,545.6c-0.3-4.4-1-9-1.7-13.4c-1-5.4-1.3-3.3-6.4-5c-0.7-5,1.3-10.4,1-15.7c0-2.7,0-16.1-3.7-10.4
	c-1-5.4-5-2.3-6.4,1c-0.3-2.3-2.7-3.3-4.4-1.3c-1.7-2-3,1.3-2.7,3c-2,0-4,0.7-6,0.3c0.3-4.4-2.7-2.3-4.7-2c-1.3-4-3.3-4.7-7.4-4.3
	c-3,0.3-6.7,1-8,3.3c-1,1.7,0.3,3.3-1.7,4.4c-1,0.7-4-0.3-4.7-1c-1-1,0.3-3.3-2-4c-2-0.3-2.7,2-4,3c-0.3-1.3-1.3-1.7-2-2.7
	c0.3,0.3-1.7,1.7-2,1.7c-1,0-0.7-1-1.3-1.3c-1.7-0.7-1-3.7-4-2c-2.3,1.3-1,6-1.7,8.4c-1,3-3.7,4-5.7,6c1.3,1.3,3.7,1.3,4.4,3
	c1,2.3-0.7,6.4-0.3,9c-0.7,0-3.7-1-4.3-0.3c-1.3,1.3-0.3,3.7,1.3,3.3c-0.3,1.7-1.3,3.3-1,5.4c-6,0-12.1,1.3-18.4,1
	c-3,0-5.7,0.7-7.4-1.7c-1.3-1.7-2-5-2.7-7c4-2.3,0-7.7-2.3-3.3c-1.7,2.7,1.3,5.4-0.7,8.7c-2.3,3.7-15.1,5.4-15.7-0.3
	c6.7-6-10.4-6.7-12.4-7c-0.3-6.7,1-12.7,0.7-19.4c-0.3-3.7-1-6.7-1-10.4c0-3.3,0.7-7.4-2.3-9c-0.7,1.3-1.3,3-2,4.4
	c-0.3-1.7-0.7-3.3-0.7-5c-0.3-2.3-5,3.3-5,3.3c-3,0.7-1-1.7-3-3.7c-0.3,0.7-0.7,1.3-1,2c-0.7,0.7-0.7,4-3,2c-0.7-0.7-0.3-4-0.3-5
	c-2-0.3-2.3,2-2.7,3.7c-1.7-0.3-2-4-2.7-4c-1.7-0.3-1.7,3.3-2.7,4c-0.3-1.7-1.3-3-3-3.7c-0.3,1-1,2.3-1.3,3c-2.7-4-4.4,0.7-6,2.7
	c-1-1,0-4.4-2-4.4c-1.7,0-1.7,3.3-2,4.7c-2.7,0-0.7-2.7-2-3.3c-1.7-1-3,0.3-3,2.3c-0.3,0.3-1,0.3-1.3,0.3c-1.3-1.7,0-4-2.3-5
	c-3.7,2.7-2.3,5-5.7,0.7c-2.3,2.3-1.7,5.4-1.3,8.4c0.7,3.3,0.3,7,0.3,10.7c0,6.7-0.7,13.1-1,19.4c-0.3,3-1,5.7-2.3,8
	c-1,1.7-1.7,2.7-2,3.7h-7.4c0-7.4,0.3-26.8,0.7-27.4c0.3-1,0-30.8,0-30.8v-17.1v-56.9l-3-6.4c0,0,0.3-2,0-4.7l-1.3,2.7v3l-2,4.7
	l-1.7-7c0,0-0.3-1.7,0-2.7c0.3-0.7,0-2.7-1.7-1.7l-1.3,3.3v4l-2,2.7v4h-3c0.3-1-1-1.7-2.7-0.7l-4.4,0.7l-3.3-13.1L1021,402
	l-2.7-12.4l-1.7,10.4v3.7c0,0-1.3,9-3.4,10l1.3,2.3v26.8h-15.8c0,0,0-74,0-75s-1.3-6-1.3-6.7s-1.7-17.7-1.7-17.7s0-2.7-1.3-5.4
	c0,0-1.3,0.3-2.3,1.7v2.3v3.3l-3,18.7c0,0,0-4.4,0-5s-2.3-2-2.3-2l-2-15.4c0,0,1.3-1,2-3.7l-3-2.3c0,0-1.3,0.7-1.3,2v2.7v2.7
	c0,0-0.7,14.1-2.7,14.7l-2.7,7l-0.7-40.5c0,0,1.3-2.7,2.3-3.7c0.7-0.7,1.7-4.4,1.7-4.4s-1-3.3-1.3-4.7c-0.3-1.3-2,4.7-2,4.7v-16.7
	l-4.7,4.4l-1-3.3l-1.3,3.3c0,0-3,0.7-3-1.3c0-0.7-0.3-3.7-1.3-4.3c-0.7-0.7,0-2.7,0-2.7l-1.7-4c0,0,0,0,1.3-2c0.3-0.7-0.3-1.7,0-2.7
	c0-0.7-0.7-0.3-1.3-0.3c-2.3-6.4-1.7-14.1-2-20.7c0-3.3,0.3-19.1-2-20.1c0-1.3,0-3,0-4.4c4.7,0,6.7-11.4,2-9c0-2,1-2.3,1.3-4
	c-3.7,0.7-2-4-3-6c-0.7-0.3-0.3,0.3-0.7,0.3c-1,2-1,4.7-2,6.7c-1-0.7-2.7-1-4-0.7c0.7,1.3,2,2.3,3,3.3c-0.7,1-1,2-1.7,3
	c-0.3-1-1.3-2-2.7-2.3c-1.3,2.3-0.7,4.7,0.7,6.7c0.7,1,2.3,0.3,3,1.7c0,0.3,0,3.3,0,3.7c-0.3,4.7-0.7,8.7-1,13.1
	c-0.3,4.3,0.3,10.4,0,15.7c-0.3,4.3-1.7,8.4-1.7,12.7c-0.7,0-1,0-0.7,0.3v1c0,0.7-0.3,1.3,0,1.7v5.7l-0.3,0.3c0,0,0,0.3,0.3,0.3v1.7
	c0,0,0,0.3-0.3,0.3c-0.7,0.7-1.3,3.7-1.3,4.4c0,2-3,1.3-3,1.3l-1.3-3.3l-1,3.3L941,299v16.7c0,0-1.7-6-2-4.7
	c-0.3,1.3-1.3,4.7-1.3,4.7s1,3.7,1.7,4.3c0.7,0.7,2.3,3.7,2.3,3.7l-1.3,41.2l-2.7-7c-2-0.7-2.7-14.7-2.7-14.7v-2.7v-2.7
	c0-1.7-1.3-2-1.3-2l-3,2.3c0.3,2.7,2,3.7,2,3.7l-2,15.4c0,0-2.3,1.3-2.3,2s0,5,0,5l-3-18.7v-3.3v-2.3c-0.7-1.3-2.3-1.7-2.3-1.7
	c-1.3,2.7-1.3,5.4-1.3,5.4s-1.7,17.1-1.7,17.7s-1.3,5.7-1.3,6.7s0,75,0,75h-15.7v-26.8l1.3-2.3c-1.7-1-3.3-10-3.3-10V400l-2.3-8.4
	l-2.7,12.4l-3.3-10.7l-3.4,13.1l-4-0.7c-1.7-1-3-0.3-2.7,0.7h-3v-4l-2-2.7v-4l-1.3-3.3c-1.7-1-2,0.7-1.7,1.7c0.3,0.7,0,2.7,0,2.7
	l-1.7,7l-2-4.7v-3l-1.3-2.7c-0.3,2.7,0,4.7,0,4.7l-3,6.4v56.9v17.1c0,0-0.3,29.8,0,30.8c0.3,0.7,0.7,20.1,0.7,27.4h-39.9
	c-0.7-1.3-0.3-2.3-2.7-3c1.3-4.7-3.3-2.3-4.4-6c-0.7-2.7-1.3-8.7-0.3-11.4c0.3,0,1.3-0.3,1.7,0c0.3-1.3-0.3-2.3-1.7-2.3
	c2-1.3,0-4.4-0.3-6.4c0-2.7,0.7-5,0.7-7.7c0.3,0,0.3,0,0.7,0c0.3-1.7-1-1.3-1.3-2.3c-0.3-1-0.3-2-0.3-3.3c0-2.7,0-4.7-3-4.4
	c0.3,1,0,2-1.3,2c0,1.3,0.3,4.4-2,3c-0.3-1.3,0.3-2.3,0-3.3c-1,0-3-0.7-3.7,0c-0.7,0.3-0.7,2.7-1,3.7c-2.3,1.3-2-2-2-3.3
	c-1,0-1.7,0.7-2.3,1.3c-1-2-2.3-0.7-2.3,0.7c-0.3,1,0.7,3.3,0.7,4.7c0,3,0.3,6.7-0.7,9.7c-2.3,0-4.7-0.7-7.4-0.7c-3,0-4.4,0.7-4.7-3
	c0-1.3,0-2.7-0.3-3.7c0-0.7,0-1.3,0-1.7c0-0.7-1-1-1-1.3c-0.3-2.7,2-4.7-0.7-7c-1,0.7-1,2-1,3c-0.3-0.7-1-1-1.3-1.7
	c-0.7,0.7-1,1.7-1.3,2.7c-0.3-2.3-1-5-3-1.7c-0.3-0.7-0.3-1.7-0.7-2.7c-1.3,0.7-1.3,3-2.7,3.7l-1,0.7c0-1-1.7-5-3-4.7
	c-1.7,0.3-1.3,5-1.3,6c-0.3,5.7-0.7,11.7-1.3,17.1c-0.3-0.3-0.7-0.7-0.7-1c-1.7,1.3,0.3,2,0.7,3c0.3,1.3,0,3,0,4.7
	c-0.3,3-0.3,6-0.7,8.7c-1.7,0-2,0.3-3,1c-0.7,0.7,0,1.3-0.7,1.7c-0.7,0.3-1-0.3-1.7-0.3c-2.7,0-5,0.7-7.4,1c-2,0.3-5.4-1-6,1.7
	c-0.3,1.7,1,2.3,1,3.7c0.3,1.3-0.3,2-0.7,3.7c-1.7,0-3.7-1-5.7-1c0.3-3,1-3-1-4.7c-1-0.7,0.3-2-2-1.3c-1.3,0.3-0.3,2.7-2.3,0.3
	c-1.3-1.7-0.7-5.4-0.7-7.4c0-2.3-0.7-4.7-0.3-7c2.3,0.3,1.3-2.7,0-3.7c2-1.7-0.3-2.3-0.7-3.7c-0.7-1.7-0.3-4.3-0.3-6
	c-1.7-0.3-2,2-3,3c-0.7-0.7-1-1.7-1.7-2.3c-1.3,1.3-1,5-3.7,4.4c0-3,0-6.4,0-9.4c0-1.7,0.7-3-1.3-2.7c-0.3,0-0.3,1.7-1.3,1.7
	c-0.7,0-1-0.7-1.7-1c-2.7-1-4.7-0.3-7.7,0c-4.7,0.7-0.7-4-4-5c-2,2.3-1,5.4-4,6.4c-1,0.3-2-0.3-3,0c-1,0.3-1.3,1-2.3,1
	c-2.3-0.3-3-2.7-5,0.7c-1,2-1,4.7-1.3,6.7c-0.3,2.7,0.3,4.4-2.3,5c-1.7,0.3-4.7,0.3-5.7,0.3c-1.7-0.3-4.7-1-4.4,2
	c0,1,1.3,1.7,1.7,2.7c0.3,1.7-1,2.3-1.3,3.7c-0.7,2.3,0.3,4.7,0.3,7c-0.3,5.7,0.7,11.7-0.3,17.4c-2,13.1-2,26.1-2,39.2
	c0,3-0.3,6.4-0.3,9.7V648h573.9v-51.2h-4.3c2.7-9.4,4.3-17.7,4.3-27.4C1259.3,561,1258.2,553.3,1257.6,545.6z"/>
<path fill="#FFF4D2" d="M937.3,373.2h-5v21.4h5V373.2z"/>
<path fill="#FFF4D2" d="M950,323.4h-1.7v14.7h1.7V323.4z"/>
<path fill="#FFF4D2" d="M961.1,369.6h-5.4v10.7h5.4V369.6z"/>
<path fill="#FFF4D2" d="M958.4,323.4h-2.7v11.4h2.7V323.4z"/>
<path fill="#FFF4D2" d="M977.8,380.3h-5v8.4h5V380.3z"/>
<path fill="#013A4B" d="M412.8,454.7l0.3,0.3L412.8,454.7z"/>
<path fill="#013A4B" d="M566.3,635.3c-1.6-3.5-4.6-7.8-5.1-11.6c-0.5-2.7,1.1-10-2.2-11.3c-0.8,2.4-0.5,5.4-1.1,7.8
	c-0.8,2.2-1.9,4.3-3,6.5c-1.6-7.5-5.9-14.8-6.7-22.1c-0.8-7.3-3-14.5-2.7-22.9c4,3.8,6.2-2.4,2.7-3.2c0.3-2.2,1.6-4.3,2.2-6.5
	c0.8-3,0.3-3.8-0.3-6.5c-0.8-5.1-0.3-10.5-7-10.2c0.5-4.8-1.1-6.2-5.7-7.3c-0.3-3,0-5.9,0-8.9c0-1.6-0.3-2.7,0-3.8
	c0.3-1.6,2.7-1.6,0.8-3.8c1.1-0.8,1.3-2.4,1.3-3.8c2.4-0.5,1.6-4.3,0.3-5.7c12.7-7.5,0.3-21.3-5.7-29.1c-3-4-7-9.7-8.4-14.5
	c-1.1-3.5,0-3.8,1.3-6.7c1.3-2.7,1.6-5.1-2.2-5.9c-0.3-5.9,0.5-11.6,0.3-17.5c-0.5,0,0,0.3-0.3,0.8l-0.8-2.2c-0.3,1.1-3.5,4-3.5,3.8
	c0,1.6,2.2,0.8,2.7,1.9c0.5,1.1,0.3,1.6,0.5,3c0.8,4.3-0.3,8.9-0.5,13.2c-4,0-0.8,4-0.5,5.1c0.5,3.2,0,4.6-1.6,7.3
	c-3.2,4.8-7,9.4-10.2,14.3c-5.4,7.5-14.3,21-3.8,28.3c-3,1.6-2.4,3-1.9,5.7c0.3,1.1,1.1,0.8,1.1,2.7c0,0.8-1.1,2.2-1.3,2.7
	c-2.2,4.3-4.6,8.1-7.3,11.8c-1.6-1.3-2.7-3.5-3.8-5.1c14.8-7,0.5-25-5.4-32.8c-0.3-6.5-1.6-13.2-2.2-19.6c0-2.2-1.3-3.5-1.6-5.7
	c0-0.8,0.8-2.2,0.5-3c-0.5-1.1-1.6-0.8-2.2-1.9c-2.7-3.8,1.6-8.6,3.2-11.6c-1.6-0.3-4.3-0.8-5.4-1.9c-1.6-1.3-0.5-3.5-1.3-5.4
	c-0.8-1.9-2.4-3-3-5.1c-0.5-1.9,0.5-4.6-0.3-6.2c-0.5-0.8-1.6-0.8-1.9-1.3c-0.8-0.8-0.8-1.9-1.1-3.2c-0.5-2.4-1.1-4.6-1.6-7
	c-0.8-3.5-1.9-7-3-10.5l-4-19.1c0.8-2.7,1.3-0.8,3-2.2c2.2-1.9,0.5-3.5-0.8-4.8v-11c1.3-1.3,1.6-3.8,0.5-4.3
	c1.1-0.3,1.3-1.6,0.8-2.7c6.2-2.2,1.3-10-0.8-13.2c-2.7-4-3.2-9.2-5.1-13.2c3-1.1-0.8-5.4-1.1-7.3c-0.5-3.2,0.8-7-0.8-9.7l0.3-1.9
	c-1.9,3.8,0.8,10.5,0.3,14.8c-1.9,0-2.4,2.2-2.4,3.8c0,0.5,0.8,0.8,1.1,1.6c0,0.8-0.3,1.6-0.3,2.4c-0.3,3.2-1.1,5.7-3.5,8.1
	c-2.7,2.4-5.1,3.8-5.9,7.5c-0.8,3.2,0.8,4.8,2.7,7.3v1.1c-1.9,0.5-1.9,3.2,0,3.8v10.8c-0.3,0.3-0.5,0.5-0.5,1.1
	c-0.3,0.8-0.5,1.9-0.5,2.7c0.3,1.6,0.5,1.3,1.1,2.4c1.1,2.4,0.3,3.5-0.5,6.2c-3.8,11.3-7,23.1-10.5,34.4c-0.3,0.8-0.3,1.3-0.3,2.2
	c-0.5,0-1.1,0.3-1.6,0c-0.8,1.3-0.3,3.2-0.8,4.8c-0.5,1.3-0.5,3.5-1.6,4.6c-0.8-2.7-2.4,3.2-1.9,4.8c-1.6,0-1.3,1.9-1.6,3
	c-2.4-1.1-6.7,0-6.7,3.5c2.4,0.5,3.8,0.5,4.3,3c0.5,2.2,0.8,4.6,0.8,6.7c-3.8-2.4-2.4,4.6-2.4,6.5c-1.9,0.3-2.7,3.5-2.4,5.1
	c0.3,0.8,1.1,1.3,1.1,1.9c0.3,1.1-0.3,1.9-0.5,3c-0.3,1.9-0.5,4-0.5,6.2c-1.9-1.6-3.8-3.2-5.7-4.8c-3.5-3.2-4.6-7-4.9-11.6
	c-0.3-1.9-1.1-4.3-0.5-6.2c0.5-2.4,2.2-2.4,1.1-4.8c-0.5-0.8-1.1-0.8-1.6-2.2c-0.3-1.1,0-2.4,0-3.5c-0.3-1.9-1.1-4.3-0.5-6.2
	c0-0.3,0-0.8,0-1.3c2.4,0,0.8-1.6,0.8-2.2c0-0.3-0.8-1.9-1.6-2.7c-0.8,0.5-0.8,1.9-0.5,3c-0.5-0.3-1.3,0-1.6-0.3
	c-0.5,1.9,1.3,1.3,1.9,2.7c0.5,0.8,0,3,0,4c0,2.7,0,5.4,0,8.1c-2.7-1.3-4.3,5.4-0.5,4.6c0.5,10.8-6.2,16.7-14.3,22.6
	c-3,2.2-5.7,5.4-7.8,9.1c-3.8-7.8-11.9-12.6-13.5-22.1c-0.5-4-1.6-8.1-1.6-12.1c-0.3-2.7,1.1-2.7,1.6-4.8c1.1-2.7-1.6-3.5-2.4-5.7
	c-0.8-2.7,0-7.3,0-10c0-2.2,2.7-8.3-1.1-7.8h0.5c-3,2.4-1.3,7.8-1.3,11.8c0,1.9,0.3,4.3,0,6.5c-0.3,1.9-1.6,3.5-1.1,5.7
	c0.3,0.8,0.8,1.1,1.1,2.2c0,1.1-0.3,2.4-0.5,3.2c-0.3,2.2-1.1,3.5-1.9,5.7c-1.9,4.6-3.5,8.3-6.5,12.6c-3.2,4.3-6.5,8.3-10.8,11.8
	c-4,3.2-7.3,6.7-8.1,12.1c-0.5,4.3,0.5,8.9,2.7,12.6c1.3,2.2,3.8,2.7,6.5,3v34.4c-0.3,1.3-0.3,3-0.5,4c-0.3,1.1,0,1.6-0.8,2.7
	c-1.3,0.5-2.4,0.5-2.7,1.3c-0.3,1.3,1.6,2.4,1.3,3.8c-0.3,1.6-1.9,1.6-3,2.4c-0.8-1.1-1.6-4.6-3.2-3c-1.3,1.3-0.3,5.9-1.3,7.8
	c-2.7,4.6-8.9,5.1-11.6,9.4c-1.6,2.4-2.4,5.4-2.4,8.3c0,3.8,1.9,4.3,4,6.7c1.9,1.9,1.3,4,1.3,7c0,2.2,1.3,7.5,0.3,9.4
	c0,0,0.3,0.5,0.3,0.8c-1.9-0.5-4.6-0.8-6.2,1.1c-2.2,3,0.5,4.8,0.8,7.3c0.3,1.3-1.1,3-1.3,4.3c-0.5,1.9-0.3,4.3,0,6.2
	c0.5,4.3,0.8,8.6,1.9,12.6c0.5,2.4,1.3,6.7,3,8.6c2.7,3.2,10.5,4,14.3,4.6c7.5,0.8,16.2,0.8,23.7-0.5c4.3-0.8,9.2-0.8,13.5-2.2
	c0.3,0,0.5-0.3,0.5-0.3c4,3.5,14.5,4.6,18.3,4.8c10,0.8,20.2,1.3,30.2,2.7c9.4,1.1,18.9,1.6,28.6,1.6c10.8,0,21.3-3.5,32.1-5.4
	c15.9-2.7,31.8-4.6,47.7-5.9c4.6-0.3,8.9-1.6,13.2-1.9c3.2,0,5.9,1.3,8.9,1.3c1.9-5.7-0.8-11.8,1.9-17.2
	C572,643.7,569.3,641.8,566.3,635.3z M389.3,570.7v3.8c-0.8-0.5-1.3-1.3-1.1-3c0.3-0.8,0.5-1.3,1.1-2.2V570.7z M389.3,564.6
	c-0.3-0.5-0.5-1.1-0.5-1.9c0.3,0,0.3,0,0.5,0V564.6z M395,548.7c-1.3-1.9-2.7-3.8-4-5.4c-1.9-2.7-3-5.1-4-8.1c0-0.3-0.3-0.8-0.5-1.1
	c0.3,0,0.3,0,0.5,0c2.4-0.3,4.3-1.6,5.1-3.2v3.5h2.7v14.3H395z"/>
<path fill="#013A4B" d="M392,563.7v-0.3c0-0.8-0.3-1.3-0.5-1.9c-0.3-0.8-0.5-1.3-1.1-2.2c-2.2-3.2-6.7-1.9-7,1.9
	c0,1.6-0.3,3.5-0.3,5.1c-0.3,0.5-0.3,0.8-0.5,1.3c-0.3,1.3,0,2.4,0.5,3c0,2.7,0,5.1,0,7.8c0,4.8,7.5,4.8,7.5,0c0-0.3,0-0.8,0-1.1
	c1.3-0.5,2.2-1.6,2.2-3.5C393.4,570.7,393.4,567.2,392,563.7z"/>
<path fill="#0B5B63" d="M412,481.7c-0.5,10.2-11.6,15.6-14,25c-1.1,4.3-1.3,8.9,0.3,13.2c0.8,1.9,1.6,4,3,5.7c1.6,1.9,3,1.9,5.4,1.6
	c-4-7.3-4.3-17-0.3-24.2c3.8-7,5.4-12.6,5.4-20.7v-0.5H412z"/>
<path fill="#0B5B63" d="M411.1,486.2c-3.5,4.8-6.7,8.9-11.9,11.8c-4.6,2.7-7.5,6.2-9.7,11.3c-1.6,4-1.3,8.3,0.3,12.4
	c0.8,1.9,1.9,3.8,3.2,5.4c1.6,2.2,2.4,2.7,4.6,1.3c-5.1-7.5-7.5-16.7-1.3-24.5c2.7-3.2,6.5-5.4,9.4-8.3c1.6-1.6,5.9-6.7,4.8-8.6
	L411.1,486.2z"/>
<path fill="#0B5B63" d="M411.4,485.4c0,9.7-4.9,18.6-4.9,28.3c0,3.5,0.8,6.5,1.6,9.7c1.1,3.5,1.6,4,5.4,4c-0.5-7,0.8-13.5,0.8-20.5
	c0-4-0.3-7.8-0.8-11.6c-0.3-2.4-0.3-8.1-1.6-9.7h-0.5V485.4z"/>
<path fill="#0B5B63" d="M410.6,487.3c-0.5-1.1-0.5-4.6,1.3-5.1c2.4-0.8,2.7,2.7,3.2,4.3c1.6,4.8,4.8,7.8,8.9,10.8
	c8.1,6.2,12.7,16.7,7,26.4c-0.8,1.3-1.6,3-3.2,3.5c-1.1,0.5-2.4,0-3.5,0.5c5.1-2.4,4.6-14,3.2-18.3c-2.2-5.9-6.5-10.5-10.8-15.3
	c2.7,7.3,7.5,12.6,7.5,21c0,5.1,0.8,12.9-5.7,12.6c0.3-4,1.3-8.1,1.1-12.4c0-4.3-1.3-8.1-2.4-12.4c-0.8-3.2-1.9-6.2-2.7-9.2
	c-0.3-1.1-2.7-7.8-3-7.3L410.6,487.3z"/>
<path fill="#0B5B63" d="M430,528.5c0,0.8-0.8,1.6-1.6,1.6h-33.7c-0.8,0-1.6-0.8-1.6-1.6s0.8-1.6,1.6-1.6h33.7
	C429.5,526.9,430,527.7,430,528.5z"/>
<path fill="#72CED3" d="M374.2,479.5c0,7.5,0.8,14.5-2.2,21.8c-1.9,4.8-5.7,8.1-8.9,12.1c-2.7,3.5-4.9,7.3-5.7,11.8
	c-0.3,1.9-1.1,4.8,0.8,6.2c2.2,1.9,4.3-0.3,5.4-1.9c3-4.8,4.3-10,8.1-14.5c3.2-4,5.4-8.9,5.7-14.3
	C378,493.2,376.1,485.4,374.2,479.5z"/>
<path fill="#72CED3" d="M375.8,489.2c1.9,0.5,4,5.4,4.9,7.3c1.3,3.2,1.9,6.5,1.6,10c0,4.6-2.2,8.3-4.9,11.8c-2.2,3-4.6,5.7-7,8.6
	c-1.3,1.6-5.9,3.8-6.2,5.4c2.4,0.8,5.7-0.3,8.4-0.3c3,0,4.3,0,6.5-1.9c4.8-4.8,6.7-10,7.8-16.7c0.5-4.6-0.8-8.9-2.7-12.6
	c-1.1-1.9-1.9-3.8-3.2-5.7c-1.1-1.6-3-2.7-4-4.6c-0.5-0.5-0.8-1.1-1.1-1.9V489.2z"/>
<path fill="#72CED3" d="M373.7,476.5c0,6.7-2.7,13.2-5.1,19.4c-2.7,6.2-7.5,8.9-11.3,13.7c-3,4-4.3,8.1-3.8,13.2
	c0.3,1.9,0.5,3.8,1.9,5.4c1.1,1.3,3.2,2.4,3.8,3.8c-4.3,0.3-8.1,0.5-11.3-2.7c-3.5-3.5-3.8-8.3-2.4-13.2
	c3.2-10.5,14.3-14.8,19.7-24.2c2.2-3.5,3.8-7.5,5.1-11.3c0.5-1.1,1.1-5.1,2.7-4.8c1.6,0.3,1.1,4.8,0.8,5.7V476.5z"/>
<path fill="#013A4B" d="M514.6,489.5c-1.1,1.1-1.1,3-1.1,4.6c-0.8,0.3-1.9,0.3-2.4,0.8c-0.8,0.8-0.3,1.6-0.8,2.2
	c-0.5,0.8-1.1,0.3-1.6,1.1c-0.5,0.5-0.3,1.6-0.3,2.4c-1.1,0.3-2.7,0.3-3.2,1.3c-0.5,1.1-0.5,2.4-0.8,3.2c-0.8,1.6-1.6,1.9-1.1,3.8
	c0.3,1.9,0.8,0.8-0.3,2.7c-1.1,1.9-0.8,2.7,0.3,4.3c0.3,0.3,0.8,0.3,0.8,0.8c0.3,0.5-0.3,1.3-0.3,1.9c0,2.4,2.7,3,4.9,3
	c-1.9-0.3-3.2,0.8-3,2.7c0.3,2.2,1.6,1.9,3.2,2.4c-1.1,0-1.9,1.1-1.6,2.2c0.3,1.3,1.3,1.6,2.4,2.2c-1.1,0.8-1.3,2.4-0.8,3.8
	c0.3,0.5,1.1,0.5,1.3,1.3c0.3,0.5,0,1.6,0,2.2c0,3-0.8,6.7-0.3,9.7c-4-1.1-7,2.4-7.3,6.2c-1.6-3.2-4.3,1.6-5.1,3
	c-1.1,1.6-1.1,3-1.9,4.8c-0.5,1.3-1.1,2.2-2.7,1.3c-2.7-1.3,1.9-5.1,2.7-7.3c1.3-2.7,2.2-6.2,0.5-8.6c3.5-2.2,5.7-6.5,7.5-10.2
	c0.8-1.6,2.2-3,2.4-4.8c0.5-1.9-0.8-1.9-1.1-3.8c-0.3-1.6,1.3-3,1.1-4.3c0,0.3-0.8-1.3-1.1-1.3c-0.3-0.5-0.3-1.3-0.8-2.2
	c-1.1-2.2-2.2-5.7-1.9-8.3c0.3-4,1.9-7.5,4.3-10.8c1.1-1.6,2.4-3,3.5-4.6c1.1-1.3,3.2-4.3,3.5-5.4L514.6,489.5z"/>
<path fill="#013A4B" d="M538,533.6c0,0.5-0.3,0.8-0.8,0.8h-28.3c-0.5,0-0.8-0.3-0.8-0.8s0.3-0.8,0.8-0.8h28
	C537.5,532.8,538,533.1,538,533.6z"/>
<path fill="#013A4B" d="M538,528.8c0,0.5-0.5,1.3-1.1,1.3h-28.6c-0.5,0-1.1-0.5-1.1-1.3c0-0.5,0.5-1.3,1.1-1.3H537
	C537.5,527.7,538,528.2,538,528.8z"/>
<path fill="#013A4B" d="M541.5,522.8c0,0.5-0.3,0.8-0.8,0.8h-35.3c-0.5,0-0.8-0.3-0.8-0.8c0-0.5,0.3-0.8,0.8-0.8H541
	C541.3,522,541.5,522.3,541.5,522.8z"/>
<path fill="#013A4B" d="M518.9,548.1c0,0.8-0.5,1.3-1.3,1.3s-1.3-0.5-1.3-1.3v-11.6c0-0.8,0.5-1.3,1.3-1.3s1.3,0.5,1.3,1.3V548.1z"
	/>
<path fill="#013A4B" d="M530.5,547.9c0,0.8-0.8,1.6-1.6,1.6c-0.8,0-1.6-0.8-1.6-1.6v-10.8c0-0.8,0.8-1.6,1.6-1.6
	c0.8,0,1.6,0.8,1.6,1.6V547.9z"/>
<path fill="#013A4B" d="M500.9,553.3c1.9,0.8,3,4.3,2.7,6.2c0,0.3,0,0.3,0,0c-0.3-1.9,2.2-4.6,3.5-5.4c1.6-1.1,4.6-1.6,6.7-1.6
	c4,0.3,8.1,3.2,8.9,7c-0.3-1.6,1.9-3.2,3-4.3c1.9-1.9,3.8-2.2,6.2-2.4c2.4-0.3,4.8-0.5,6.7,1.1c1.6,1.3,2.7,3.2,4,4.8
	c0-1.6,1.3-2.4,3-2.2c1.9,0.3,3,1.9,3.5,3.8c0.3,1.1,1.1,6.5,0,7.3c-0.8,0.5-2.4-0.5-3.2-0.8c0-1.6,1.9-7.8-2.2-6.7
	c-0.5,1.6-0.3,3.8-0.3,5.7c-0.8,0.3-1.6,0-2.4-0.3c-0.3-3-0.3-5.1-2.7-7.3c-2.2-1.6-4.6-2.7-7-2.2c-2.4,0.3-5.1,2.4-6.2,4.8
	c-1.3,2.7,0.5,4.6-3.5,4.3c1.1-1.6-0.8-4.6-1.9-5.9c-1.6-1.9-3.5-2.7-5.7-3c-2.7-0.5-5.1,0.3-6.7,2.7c-1.6,2.4-1.3,4.6-1.3,7.3
	c-1.1-0.5-2.7-0.8-3.8-0.3c0.3-1.9,0.5-7.5-2.2-7.8c-4-0.5-3.2,6.5-3.5,8.3c-5.1,1.1-2.4-7-1.3-9.2c0.8-1.3,1.9-3.2,3.2-4
	c1.6-0.8,2.7,0,4,0.3L500.9,553.3z"/>
<path fill="#013A4B" d="M551.8,567c0,0.8-0.8,1.6-1.6,1.6h-55.5c-0.8,0-1.6-0.8-1.6-1.6c0-0.8,0.8-1.6,1.6-1.6h55.5
	C551.2,565.4,551.8,566.2,551.8,567z"/>
<path fill="#013A4B" d="M530.8,559.4c-1.6,0.3-8.6,4.8-5.1,6.5c-1.1,0-2.2-0.3-3-0.3c-0.5,0-3.2,0.5-3.5,0.3c-1.1-0.8-1.3-4-2.7-5.1
	c-1.6-1.6-4.6-1.9-6.5-0.5c-2.2,1.3-2.4,3.5-2.7,5.7l0.3,0.5c4.6,0,9.2,1.1,14,0.8c2.7,0,5.4-0.3,8.1-0.3c2.7,0,5.1-0.8,7.5-0.8
	C538,561.3,535.1,558.9,530.8,559.4z"/>
<path fill="#EFD5D0" d="M513.3,562.7C513.3,562.7,513.3,562.4,513.3,562.7c-0.5-0.5-1.3,0-0.8,0.5c0,0,0,0,0.3,0.3
	C513.3,563.7,513.8,562.9,513.3,562.7z"/>
<path fill="#EFD5D0" d="M531.6,562.4C531.6,562.4,531.3,562.4,531.6,562.4c-0.3,0-0.3,0.3-0.3,0.3c-0.3,0.3,0,0.5,0,0.8
	c0.3,0.5,0.8,0.3,0.8-0.3C532.7,562.7,532.1,562.1,531.6,562.4z"/>
<path fill="#013A4B" d="M389,520.7c0,4-1.1,9.4-5.1,11c-0.8,0.3-3.5,0.3-2.4,1.6c0.8,1.1,3-0.5,3,1.6c-2.7,0.8-1.9,4-3,6.2
	c-1.1,1.9-2.2,3.5-3,5.4c-0.5,1.6-1.1,3.8-2.2,4.8c-1.9,2.4-5.7,2.7-5.7,7c0,3.2,4.8,3,4.3,5.9c-1.9,0.3-2.2,1.3-1.1,3
	c0.5,0.8,0.8,0,1.1,1.3c0,0.5-0.3,1.6-0.3,2.2c0,4-0.5,8.6,0.3,12.6c0.8-3.2,0-7,0.5-10.2c0.5-2.2,0-4.8,2.4-5.7
	c1.1-0.3,6.2,0.5,5.9-1.9c0-1.1-4-1.9-5.1-2.4c-1.1-0.8-4-2.7-3.8-4.3c0.3-2.2,2.4-1.1,3.8-1.6c2.2-1.1,2.4-4.3,3-6.2
	c0.3-1.1,1.6-6.5,3-6.7c1.9-0.3,5.1,6.2,5.4,7.8c0.3,2.7-0.3,4.6-2.4,6.5c2.4,0,2.7,5.1,3.5,6.7c0.3-3,0.5-3.8,2.2-5.9
	c0.8-1.1,0.5-0.3,0.5-1.6c0-0.8-1.1-1.1-0.3-2.2c0.8-1.3,3-0.3,3.2-2.4c0.3-1.6-1.6-3.8-2.4-5.1c-1.9-3-4.3-5.7-6.2-8.9
	c-0.5-0.8-2.4-3.2-2.2-4.3c0.3-0.8,3.2-1.3,3.8-2.2c1.6-1.9,2.7-4.3,1.6-6.5c-0.5-1.3-2.7-4.8-3.8-5.4L389,520.7z"/>
<path fill="#013A4B" d="M346.7,579.4c-0.5,0-2.4,5.1-3,6.2c-1.3,2.2-3,4-4.8,5.9c-3.2,3-6.7,4.8-8.1,9.2c-1.1,3.8-0.3,7.8,2.7,10.5
	c3.2,2.7,8.6,1.3,12.7,1.3c4,0,8.9,1.3,12.7,0.3c5.1-1.6,6.5-8.3,4.6-12.9c-2.4-6.2-8.6-9.4-11.3-15.6c-0.5-1.3-1.1-4.6-2.2-5.7
	c-1.3-1.1-3.8-0.8-3.8,1.3c0,0,0,0,0,0.3L346.7,579.4z"/>
<path fill="#013A4B" d="M385.8,536c0,0.5-0.3,0.8-0.8,0.8h-31.5c-0.5,0-0.8-0.3-0.8-0.8s0.3-0.8,0.8-0.8H385
	C385.5,535.2,385.8,535.5,385.8,536z"/>
<path fill="#013A4B" d="M383.9,546.5c0,0.3-0.3,0.5-0.5,0.5h-30.2c-0.3,0-0.5-0.3-0.5-0.5c0-0.3,0.3-0.5,0.5-0.5h30.4
	C383.7,546,383.9,546.3,383.9,546.5z"/>
<path fill="#013A4B" d="M386.6,581.2c-3.2,0-6.7,0-10,0.3c-0.8,0-3,0-3.5,1.1c-0.5,1.6,1.1,1.9,2.2,2.2c0,0-0.3,1.1-0.3,1.6
	c-0.8,0.5-0.8,1.6-0.8,2.4c-2.2,0.3-2.4,4.6-1.9,5.9c1.3-1.9,1.9-4.6,5.1-4.6s4.3,2.4,5.4,5.1c2.2-3,5.9,1.1,7,3.2
	c0-3-1.1-6.2-4.8-4.8c0-2.2-0.3-3.5-2.2-4.6c-1.1-0.8-4-1.6-5.1-0.8c0-1.6,0-3,0-4.6c4.3-0.3,8.6,0.3,12.7,0c1.1,0,1.6,0.3,2.2-0.8
	c0.3-0.8-0.3-1.6-1.1-2.2c-1.1-0.8-4.3-0.5-5.1,0.5H386.6z"/>
<path fill="#72CED3" d="M479.8,512.6c-1.6-3.5-3.5,0.3-3.8,2.2c-0.5,2.7-0.5,5.7-1.1,8.6c-0.5,2.7-0.5,4-2.4,5.9
	c-2.4,2.2-5.1,4-7.5,5.9c-7.3,5.1-12.9,18.6-3.2,24.2c0.8,0.5,1.6,0.8,2.2,1.3c-3.2,1.6-1.9,3.5-1.6,6.2c0.3,2.7-1.1,8.9,0.8,10.8
	c1.6-3.8-0.3-8.9,1.3-12.9c1.1-3.2,5.1-2.7,8.1-2.7c3.5-0.3,7,0,10.5,0c2.2,0,7,1.3,8.6,0c-0.5-0.8-1.3-1.3-2.2-1.9
	c5.1-0.3,7-7,7-11.3c0.3-5.4-3.8-8.3-7.3-11.8c-3.5-3.5-6.7-7.8-8.4-12.7c-1.1-3,1.1-10.8-1.6-12.6H479L479.8,512.6z"/>
<path fill="#72CED3" d="M523.5,475.2c-1.6,1.6-2.4,5.4-3.8,7.5c-1.3,2.4-3.2,4.3-4.3,6.7c1.3-0.5,3.5-1.1,3,1.3
	c1.3,0,1.3-1.3,2.7-1.9c1.6-0.5,1.6,0.5,2.7,0.8c1.6,0.3,4-1.9,4.8,0.5c0.8,0,1.6,0.3,2.4,0.3c-1.3-0.5-2.4-2.2-4-3
	c-1.6-0.8-2.4-0.8-4.3-0.8c0-0.5-0.3-1.1,0-1.3c-1.1-0.3-2.2,0-3.2,0.5c0.3-3.2,2.4-6.5,3.2-9.7L523.5,475.2z"/>
<path fill="#72CED3" d="M507.9,500.5c2.7-1.3,2.7,0,3.8,1.9c1.6,3,1.3,0,4,0.8c2.2,0.5,0.8,3.2,2.4,4c1.3,0.5,3.2-2.2,5.1-1.3
	c1.9,1.1,0.8,4.8,3.2,0.5c1.1-1.9,1.6-4.8,4.6-4c1.1,0.3,1.1,1.9,2.2,1.6c0.5,0,1.3-1.6,2.2-1.9c1.6-0.5,3.5,0.5,4.6,1.3
	c-0.3-1.1-1.3-2.4-2.4-3c-1.9-1.1-1.3-0.3-3.2-0.3c-3,0-3.8-1.3-6.2,1.3c-2.4-4.3-3,1.1-6.2,0.5c-1.6-0.3-0.5-1.3-1.6-2.4
	c-1.1-1.3-1.9-0.3-3.2-0.3c-0.5,0-1.3,0.5-1.6,0.3c-0.8-0.5,0-1.1-0.5-1.6c-1.3-0.8-0.5-1.1-2.7-1.1c-2.7,0-3.5,1.6-3.8,4.3
	L507.9,500.5z"/>
<path fill="#013A4B" d="M502.7,512.6c-0.3-0.8,0.8-1.9,1.9-2.2c2.2-0.5,3.2,0.8,4.6,2.2c3,3,3.2,1.9,6.7,0c1.3-0.5,3-1.1,4.6-0.8
	c1.1,0.3,1.6,1.3,2.7,1.3c2.4,0.3,4.6-3.2,7.3-2.2c1.1,0.3,1.6,1.9,2.7,1.9s1.6-1.6,2.4-1.9c1.6-0.8,3.2-0.8,4.8,0.5
	c3,2.4,3,8.3-0.5,10.2c4.8,0,6.7-8.3,4.3-12.1c-1.1-1.3-4-1.6-5.4-1.9c-1.3-0.5-0.8-0.8-2.7,0c-1.1,0.5-1.9,1.9-3.2,1.9
	c-1.1,0-1.3-0.8-2.4-1.1c-1.6,0-2.4,1.1-3.8,1.3c-1.1,0.3-1.9-0.8-3.2-0.5c-1.3,0.3-1.9,1.6-3.2,1.3c-1.3-0.3-1.3-1.3-2.4-1.6
	c-1.3-0.3-2.7,1.3-4.3,1.1c-1.1-0.3-0.8-1.3-1.6-1.6c-1.1-0.3-2.4,0.5-3.5,0.5c-0.3-1.9-2.7-3-4.3-2.2c-1.6,0.8-2.2,4.3-1.9,5.9
	L502.7,512.6z"/>
<path fill="#0B5B63" d="M390.9,628.9c1.1,0,81.1-11.8,81.1-11.8l-6.2,9.7l-74.9,5.7V628.9z"/>
<path fill="#0B5B63" d="M476.6,603.8l-16.4,33.9h37.7l-16.7-33.9H476.6z"/>
<path fill="#033F42" d="M460.2,637.8l16.4-33.9h4.6l16.7,33.9L479,606.5v31.2c0,0-2.4-31-2.4-30.1c0,0.8-14.5,30.1-14.5,30.1H460.2z
	"/>
<path fill="#033F42" d="M497.9,638.6c0,0.5-0.3,0.8-0.8,0.8H461c-0.5,0-0.8-0.3-0.8-0.8c0-0.5,0.3-0.8,0.8-0.8h36.4
	C497.6,637.8,497.9,638.3,497.9,638.6z"/>
<path fill="#013A4B" d="M553.1,612.2c0,0.5-0.3,0.8-0.8,0.8h-48.5c-0.5,0-0.8-0.3-0.8-0.8c0-0.5,0.3-0.8,0.8-0.8h48.5
	C552.9,611.4,553.1,611.7,553.1,612.2z"/>
<path fill="#013A4B" d="M377.5,576.9c0,1.3-1.1,2.2-2.2,2.2h-22.9c-1.1,0-2.2-1.1-2.2-2.2c0-1.3,1.1-2.2,2.2-2.2h23.2
	C376.7,574.5,377.5,575.6,377.5,576.9z"/>
<path fill="#013A4B" d="M368.3,562.7c0,0.8-0.5,1.3-1.3,1.3c-0.8,0-1.3-0.5-1.3-1.3v-9.4c0-0.8,0.5-1.3,1.3-1.3
	c0.8,0,1.3,0.5,1.3,1.3V562.7z"/>
<path fill="#013A4B" d="M359.4,562.7c0,0.5-0.5,1.1-1.1,1.1s-1.1-0.5-1.1-1.1V553c0-0.5,0.5-1.1,1.1-1.1s1.1,0.5,1.1,1.1V562.7z"/>
<path fill="#013A4B" d="M397.1,639.4c-0.8-1.9-0.3-6.7,2.7-6.2c2.4,0.3,1.9,4,2.2,5.9c0.8-0.5,1.9-0.5,3,0c-0.5-2.2-0.8-5.1,1.6-5.4
	c3.8-0.5,2.4,3.8,2.4,6.2c0.8-0.8,2.4-0.5,3.8-0.5c-0.5-2.2-1.6-7.5,2.4-7c3.2,0.5,2.2,5.9,2.2,8.1c1.1-0.3,2.4-0.3,3.5-0.3
	c-0.5-2.7-2.2-6.5,1.6-8.3c4.9-2.4,4.6,5.4,3.8,7.8c3.2-0.3,7-0.5,10.2-0.3c-1.9-2.4-1.1-8.1,2.2-9.2c4.6-1.6,5.1,6.5,4.3,9.2
	c1.6-0.8,4.6,0,6.7-0.3c-3.2-1.9-1.6-7.3,1.9-8.3c5.1-1.6,4,4.8,4,8.1c1.3,0,2.7,0.5,4,0.8c-5.1,1.3-11,1.6-16.4,1.9
	c-6.2,0.5-12.4,1.1-18.6,0.8c-6.5-0.3-12.7-0.5-19.1-0.5C404.7,641.8,395.2,642.3,397.1,639.4z"/>
<path fill="#013A4B" d="M460.2,641c0,0.8-0.8,1.6-1.6,1.6H395c-0.8,0-1.6-0.8-1.6-1.6c0-0.8,0.8-1.6,1.6-1.6h63.6
	C459.4,639.4,460.2,640.2,460.2,641z"/>
<path fill="#013A4B" d="M385.8,613.3c-1.3,0-1.3,0.8-1.6,1.9c0,2.2,1.3,1.3,1.9,2.4c0.8,1.9-0.8,3-0.5,4.8c0,0.3,1.1,1.1,1.3,1.6
	c0.3,1.1-0.3,1.9-0.3,3c-0.3,1.6-0.3,3.2-0.3,5.1c2.7,0.3,3.2,3,2.7,5.1c-0.3,1.1-1.6,1.9-0.8,3c0.8,0.8,3.8,0.3,4.6,0.8
	c-2.2,1.9-4,3.2-4.9,6.2c-1.1,3.8-1.1,8.3-1.1,12.1c0.3-5.4,0-11-0.3-16.4c-0.3-3,0-7.8-2.7-9.7c-2.7-2.2-7.5-1.6-10.8-1.9
	c-4-0.3-10,0-13.2-1.3c4,0.3,7.5-1.1,11.6-1.6c2.7-0.3,5.9,0.8,8.4-0.5c2.7-1.3,3.5-7,1.9-9.7c-2.2-3-8.6-2.7-11.6-2.7
	c-4.8-0.3-10.2,0.8-14.8-0.8c8.9-4,20.2-0.8,29.6-1.6c1.1,0,3,0,3.8-0.5c1.6-0.8,1.1-0.8,1.1-3c0-3.5,0.8-7.8-0.3-10.8
	c-0.8,3.5-1.1,7.3-1.9,10.8c-0.8,2.4-2.2,2.2-3.8,4L385.8,613.3z"/>
<path fill="#013A4B" d="M363.2,602.8c1.6-0.5,4.6,2.2,5.1,4.3c0.3-4.8,7.8-5.7,11-4c2.2,1.1,4,2.7,4.9,5.1c0.3,1.3,0.8,5.1-0.3,5.9
	c1.6-1.1,3.2-0.5,4.9-1.1c-1.1-5.1,0.5-10-5.1-12.9c-4.6-2.2-10.8-1.1-14.3,2.4c-0.5-3-4.6-3-6.7-3.2c0,1.1,0,3.2,0,3.8L363.2,602.8
	z"/>
<path fill="#72CED3" d="M493.3,579.6c0,1.1-0.8,1.6-1.6,1.6h-31c-0.8,0-1.6-0.8-1.6-1.6c0-0.8,0.8-1.6,1.6-1.6h30.7
	C492.5,577.7,493.3,578.5,493.3,579.6z"/>
<path fill="#72CED3" d="M461.8,581.5c-0.3,0-0.5,8.9-0.8,10.5c0.8-1.6,4-0.8,4.8,0.5c-1.1-3.8,1.1-7.8,4.9-8.9
	c5.4-1.6,6.2,2.7,6.5,7c2.2-3,2.2-5.9,6.5-6.5c4.6-0.5,6.5,2.7,6.2,7c-1.6-1.9-3.8-5.7-7.3-4c-2.7,1.3-2.4,6.2-5.1,4
	c-1.9-1.6-2.7-5.9-6.5-4.8c-3.2,1.1-3.2,6.2-4.3,8.1c0.8,1.3,1.3,3,1.3,4.6c-1.1-1.6-2.7-5.7-4.9-5.4c-3.5,0-3.8,5.9-4,8.3
	c-3.5,0.3-1.1-10.8,1.9-10.5L461.8,581.5z"/>
<path fill="#72CED3" d="M455.1,611.4c0-2.4,0-5.9,1.3-7.8c2.4-2.7,5.7,1.1,6.2,4c-0.8-7,12.7-11.6,14-3.8c1.9-8.1,12.4-4,13.2,2.7
	c1.6-4.3,4-5.4,8.6-5.1c-2.4,1.3-5.1,2.7-6.5,5.4c-1.1,2.7-0.5,6.2-1.6,8.9c-1.6-4.3-1.9-9.1-5.7-12.4c-1.9-1.6-6.2-2.7-6.2,1.1
	c-1.3,0-2.4,0.3-3.8-0.3c0.5-3.5-5.4-2.2-7-0.8c-2.4,2.4-2.4,6.7-2.2,10c-0.8-1.3-3.2-1.1-4.6-0.5c0.3-1.9,0.8-5.9-1.6-6.7
	c-3.2-1.3-3,5.4-3.2,7.3c-0.3-0.3-1.6-1.3-1.3-0.8L455.1,611.4z"/>
<path fill="#72CED3" d="M467.7,599.8c-0.3-4.3,3.2-8.3,7.5-7.8c4,0.5,3.5,3.5,4.6,6.7c0-5.9,3.2-8.1,8.9-8.1
	c5.4-0.3,8.1,5.7,7.5,10.5c-1.3-3.5-3.2-7.3-7.5-7.5c-4.6-0.3-5.7,3-6.7,6.5c-1.3-1.6-3,0-3.5,1.3c1.1-3-0.3-7-3.2-7.5
	c-4-0.8-5.9,3.8-5.7,7c-0.5-1.1-1.3-1.3-1.9-0.5V599.8z"/>
<path fill="#72CED3" d="M475.5,523.9c0,1.6-1.1,2.7-2.7,2.7H434c-1.3,0-2.7-1.1-2.7-2.7c0-1.6,1.1-2.7,2.7-2.7h38.8
	C474.5,521.2,475.5,522.6,475.5,523.9z"/>
<path fill="#72CED3" d="M434.3,613c0,1.1-0.8,1.9-1.9,1.9h-42c-1.1,0-1.9-0.8-1.9-1.9c0-1.1,0.8-1.9,1.9-1.9h42
	C433.5,611.1,434.3,611.9,434.3,613z"/>
<path fill="#013A4B" d="M455.6,555.4c1.1,1.3,2.7,2.4,3.2,4.3c0.5,2.4-0.8,3.8-2.2,5.4c-1.1,1.6-2.2,3.8-1.9,5.9
	c0.3,1.9,1.9,3.2,1.6,5.4c-0.8,3.8-5.1,3.5-4.6,7.3c0.3,1.3,0.8,2.2,0.5,3.8c-0.3,1.9-1.6,3.8-2.2,5.4c-2.2,5.9-2.7,12.4-5.4,18
	c-2.4,5.4-8.4,0.3-12.1,3.5c3.5,1.9,9.7,0.3,13.5,0.3c3.2,0,7.5,0.8,10.2-0.3c-1.9-2.7-2.4-11.3,2.4-11.6c-1.6-3.5-1.1-8.9,2.7-11
	c-1.3-3.5,0-7.8,0.5-11.3c-3.5,0-3-4,0.5-3.5c-1.6-1.9-0.8-6.7-0.8-8.9c0-1.3-0.3-3.2,0.3-4.6c0.5-1.3,1.6-1.9,1.9-3
	c-3.5-2.7-7.3-4-7.8-9.1c-0.3-2.4,0.3-4,1.1-5.9c0.8-1.6,2.7-3.5,2.4-5.1c-6.2-1.6-8.6,18-3.8,18.8L455.6,555.4z"/>
<path fill="#033F42" d="M488.7,619.2l9.2-29.9l12.4,43.1l-14.8,1.6L488.7,619.2z"/>
<path fill="#72CED3" d="M519.5,627.3c-1.3,2.2-2.2,4.8-3.2,7.3c-1.1,2.7-0.8,2.4-3,3.2c-3.2,1.1-7.3,2.2-10.5,2.4
	c3.5,0,7,0,10.2,0.8c0.5,2.4,0.8,5.7,2.2,7.8c0.3-5.1-0.5-14.8,4.3-18.6c1.1-0.8,5.7-1.6,6.7-0.8c1.1,1.1,0.5,6.7,0.8,8.3
	c0.8,0,1.6,0,2.4,0c0-1.6-0.5-4.8,0-6.2c0.8-2.2,2.7-1.1,4.6-1.1c4,0.3,8.4-0.3,12.4,0c0.3,3,1.3,5.7,1.9,8.6
	c1.3-1.6,1.6-5.7,1.6-7.8c1.3,0,5.1-0.8,5.9,0.3c1.1,0.8,1.6,5.7,2.4,7c0.3-3.5,0.3-7.3-0.5-10.8c-3,1.9-7.5,1.1-10.8,1.1
	c-3.8,0-7.5-0.3-11.3-0.3c-3,0-5.9-0.3-8.9-0.5c-2.2,0-5.1-0.8-7-0.5L519.5,627.3z"/>
<path fill="#013A4B" d="M460.2,639.4c0,5.9,0.5,12.6,0.5,18.8c0.8-4.8,0.8-7.3,4.6-9.2c0.8-0.5,2.4,0.3,3.8-0.5
	c1.3-0.8,0.8-3.2,2.7-4c2.4-1.3,8.9-1.3,11.9-1.9c3.8-0.8,10.5-0.5,13.5-2.4c-7-0.5-14.3-0.5-21.3-0.5c-3.8,0-12.7-2.2-15.4,0.5
	v-0.8H460.2z"/>
<path fill="#72CED3" d="M503.6,547.6c-2.7,1.6-3,5.4-1.9,8.1c-4.8-3-8.1,3.8-7.5,8.1c1.1,0.5-0.3,4.6,0.3,6.5
	c0.5,2.7,1.1,5.1,0.8,8.3c-0.5,5.1,0.8,10.2-0.8,15.9c-1.9-1.1-3.8-2.2-6.2-1.9c6.2-7.5-6.2-6.5-7.3-9.7c1.9-0.5,8.1-1.6,9.2-3
	c1.6-2.2-0.8-3.5-1.3-5.7c-1.1-4.3,0.8-9.4-0.3-13.5c3.5,0.5,5.1-3.5,7.3-5.9c1.1-1.3,1.9-3.2,3.2-4.6c0.8-0.8,4.6-3.8,4-2.7H503.6z
	"/>
<path fill="#013A4B" d="M457.8,553c0-0.3-0.5,0-0.3-0.8c3.8-1.9,6.7-0.8,9.4,2.2c2.7-2.2,9.4-4.3,10.5,0.8c2.2-2.4,9.2-5.9,10.5-0.8
	c2.4-2.2,7.5-1.3,7.8,2.7c-0.3-1.9,1.1-4-0.5-5.4c-1.3-1.1-4.3-0.3-5.9-0.3c-1.1-4-8.4-3-10.8-1.1c-2.2-3-7.3-1.3-9.4,0.3
	c-2.2-2.2-14-3-11.6,1.6L457.8,553z"/>
<path fill="#013A4B" d="M457.8,542.8c1.9-4.3,7.3-1.9,9.2,1.1c2.4-2.4,9.4-3.5,10.8,0.8c1.3-3.8,8.6-5.1,9.4-0.3
	c1.6-1.6,5.1-1.6,7,0c-0.8-1.9-3-3.5-4.9-1.9c-1.3-3.2-8.1-4-10.5-2.2c-2.4-3.2-7.5-3.2-9.7,0.3c-2.2-4.6-9.4-2.2-9.7,2.7
	L457.8,542.8z"/>
<path fill="#013A4B" d="M344.6,656.6c0,1.6-1.3,3-3,3c-1.6,0-3-1.3-3-3v-15.1c0-1.6,1.3-3,3-3c1.6,0,3,1.3,3,3V656.6z"/>
<path fill="#013A4B" d="M352.9,657.4c0,1.6-1.1,2.7-2.7,2.7s-2.7-1.3-2.7-2.7v-16.7c0-1.6,1.1-2.7,2.7-2.7s2.7,1.3,2.7,2.7V657.4z"
	/>
<path fill="#013A4B" d="M367.2,657.4c0,1.6-1.1,2.7-2.7,2.7c-1.6,0-2.7-1.3-2.7-2.7v-16.7c0-1.6,1.1-2.7,2.7-2.7
	c1.6,0,2.7,1.3,2.7,2.7V657.4z"/>
<path fill="#013A4B" d="M1893.9,584.9c-0.3-2.7-0.7-5.3-1-8c-0.7-3.3-1-2-3.7-3c-0.3-3,0.7-6,0.7-9.4c0-1.7,0-9.7-2.3-6
	c-0.7-3-3-1.3-3.7,0.7c-0.3-1.3-1.7-2-2.7-1c-1-1.3-1.7,0.7-1.7,1.7c-1.3,0-2.3,0.3-3.7,0.3c0.3-2.7-1.7-1.3-3-1
	c-0.7-2.3-2-3-4.7-2.7c-2,0-4,0.7-5,2c-0.7,1,0.3,2-1,2.7c-0.7,0.3-2.3,0-3-0.7c-0.7-0.7,0.3-2-1-2.3c-1-0.3-1.7,1.3-2.3,1.7
	c-0.3-0.7-0.7-1-1-1.7c0,0-1,1-1.3,1c-0.7,0-0.3-0.7-0.7-0.7c-1-0.3-0.7-2.3-2.3-1.3c-1.7,0.7-0.7,3.7-1,5c-0.7,1.7-2,2.3-3.3,3.7
	c1,0.7,2.3,0.7,2.7,2c0.7,1.3-0.3,4-0.3,5.3c-0.3,0-2-0.7-2.7,0c-1,0.7-0.3,2,0.7,2c-0.3,1-0.7,2-0.7,3c-3.7,0-7.4,0.7-11,0.7
	c-1.7,0-3.3,0.3-4.7-1c-1-1-1.3-3-1.7-4c2.3-1.3,0-4.3-1.3-2c-1,1.7,1,3-0.3,5c-1.3,2.3-9,3.3-9.7,0c4-3.7-6.4-4-7.7-4
	c-0.3-4,0.7-7.7,0.3-11.4c0-2-0.7-4-0.7-6c0-2,0.3-4.3-1.7-5.3c-0.7,0.7-1,1.7-1.3,2.7c-0.3-1-0.3-2-0.3-3c-0.3-1.3-3,2-3,2
	c-1.7,0.3-0.7-1-1.7-2c0,0.3-0.3,1-0.7,1.3c-0.3,0.3-0.3,2.3-2,1.3c-0.3-0.3,0-2.3-0.3-3c-1.3,0-1.3,1.3-1.7,2.3
	c-1-0.3-1-2.3-1.7-2.3c-1-0.3-1,2-1.7,2.3c-0.3-1-1-2-1.7-2.3c-0.3,0.7-0.7,1.3-1,1.7c-1.7-2.3-2.7,0.3-3.7,1.7
	c-0.7-0.7,0-2.3-1-2.7c-1,0-1,2-1,2.7c-1.7,0-0.3-1.7-1-2c-1-0.7-1.7,0.3-1.7,1.3c-0.3,0-0.7,0-0.7,0.3c-0.7-1,0-2.3-1.3-3
	c-2,1.7-1.3,3-3.3,0.3c-1.3,1.3-1,3.3-0.7,5c0.3,2,0.3,4.3,0.3,6.3c0,4-0.3,7.7-0.7,11.7c0,1.7-0.7,3.3-1.3,4.7
	c-0.7,1-1,1.7-1.3,2.3h-4.7c0-4.3,0.3-15.7,0.3-16.4c0.3-0.7,0-18.4,0-18.4v-43.8l-1.7-3.7c0,0,0.3-1.3,0-2.7l-0.7,1.7v1.7l-1.3,3
	l-1-4.3c0,0-0.3-1,0-1.7c0-0.3,0-1.7-1-1l-0.7,2v2.3l-1.3,1.7v2.3h-1.7c0-0.7-0.7-1-1.7-0.3l-2,0.3c0-7.3-0.7-14.7-1.3-22.4
	c-0.7,0-1,0-1.3,0c-0.3-5.3-0.7-10-2.3-15c-2.3,1.7-1,6-1.7,8.7c-0.7,3-3,5-3.3,7.3c0,0,1.7,1,1.7,1.7c0,1-1,1.7-1,2.7
	c0,2-0.7,3.7-0.7,5.7c0,3,0,6,0,9.4c-5.3-7.7-4-17.7-4.7-26.4c-4.4-1-3.7-12.7-3.7-16c-0.3-6,1.3-11.7,1-17.7
	c-6-0.7-4-23.7-2.3-35.1h0.7c2.7,0,5-2,5-4.3c0-2.3-2.3-4.3-5-4.3h-4.7c-2-4.3-2.3-11-3-14c-1.7-8.4-3.3-16.7-3.7-25.4
	c-0.7-14-9.7-43.8-9-57.8c-6.7,4.3-8.4,42.4-11.7,52.4c-4.3,13.4-1.7,28.1-7.4,44.8h-4.3c-2.7,0-5,2-5,4.3c0,2.3,2.3,4.3,5,4.3h1.7
	c0.3,3.3-0.7,7.3-0.7,11c0,6.7,1.7,16-1.3,22.4c-5-1.7-7.7,2.7-3,4.7c-6.4,4.7-0.3,14.7-1,21c0,0.7-0.3,1.3-0.3,2c-1.3-3-2-6-4-8
	c-2.7,6.3-1.7,16.4-1.7,23c0,3.7,0.7,31.7,1,43.1h-4V509l1-1.3c-1-0.7-2-6-2-6v-2.3l-1.3-5l-1.7,7.3l-2-6.3l-2,7.7l-2.7-0.3
	c-1-0.7-1.7,0-1.7,0.3h-1.7v-2.3l-1.3-1.7v-2.3l-0.7-2c-1-0.7-1.3,0.3-1,1c0,0.3,0,1.7,0,1.7l-1,4.3l-1.3-3V497l-0.7-1.7
	c-0.3,1.7,0,2.7,0,2.7l-1.7,3.7v43.8c0,0-0.3,17.7,0,18.4c0.3,0.3,0.3,12,0.3,16.4h-24.1c-0.3-1-0.3-1.3-1.7-1.7
	c1-2.7-2-1.3-2.7-3.7c-0.3-1.7-0.7-5,0-6.7c0.3,0,0.7,0,1,0c0.3-0.7-0.3-1.3-1-1.3c1.3-0.7,0-2.7-0.3-3.7c0-1.7,0.3-3,0.3-4.3h0.3
	c0.3-1-0.7-0.7-1-1.3c-0.3-0.7-0.3-1.3-0.3-2c0-1.7,0-2.7-2-2.7c0,0.7,0,1.3-0.7,1.3c0,1,0.3,2.7-1.3,1.7c0-0.7,0-1.3,0-2
	c-0.7,0-1.7-0.3-2.3,0c-0.3,0.3-0.3,1.7-0.7,2c-1.3,0.7-1-1.3-1.3-2c-0.7,0-1,0.3-1.3,1c-0.7-1-1.3-0.3-1.3,0.3c0,0.7,0.3,2,0.3,2.7
	c0,1.7,0,4-0.3,5.7c-1.3,0-3-0.3-4.3-0.3c-2,0-2.7,0.3-2.7-1.7c0-0.7,0-1.7,0-2.3c0-0.3,0-0.7,0-1s-0.7-0.7-0.7-0.7
	c0-1.7,1-2.7-0.3-4c-0.7,0.3-0.7,1-0.7,1.7c0-0.3-0.7-0.7-0.7-1c-0.3,0.3-0.7,1-1,1.7c0-1.3-0.7-3-1.7-1c-0.3-0.3-0.3-1-0.3-1.7
	c-1,0.3-0.7,2-1.7,2.3l-0.7,0.3c0-0.7-1-3-1.7-2.7c-1,0.3-0.7,3-0.7,3.7c0,3.3-0.3,7-0.7,10.4c0-0.3-0.3-0.3-0.3-0.7
	c-1,1,0.3,1,0.3,2c0.3,0.7,0,1.7,0,2.7c0,1.7-0.3,3.3-0.3,5.3c-1,0-1,0-1.7,0.7c-0.3,0.3,0,0.7-0.3,1c-0.3,0.3-0.7-0.3-1-0.3
	c-1.7,0-3,0.3-4.3,0.7c-1.3,0-3.3-0.7-3.7,1c-0.3,1,0.7,1.3,0.7,2c0,1-0.3,1.3-0.3,2c-1,0-2.3-0.7-3.3-0.7c0-2,0.7-1.7-0.7-2.7
	c-0.7-0.3,0-1-1.3-1c-1,0-0.3,1.7-1.3,0.3c-1-1-0.3-3-0.3-4.3s-0.3-2.7-0.3-4c1.3,0,0.7-1.7,0-2c1-1,0-1.3-0.3-2
	c-0.3-1-0.3-2.3-0.3-3.7c-1-0.3-1.3,1.3-1.7,1.7c-0.3-0.3-0.7-1-1-1.3c-1,1-0.7,3-2.3,2.7c0-2,0-3.7,0-5.7c0-1,0.3-1.7-1-1.7
	c-0.3,0-0.3,1-0.7,1c-0.3,0-0.7-0.3-1-0.7c-1.7-0.7-3-0.3-4.7,0c-3,0.3-0.3-2.3-2.7-3c-1,1.3-0.7,3.3-2.3,3.7c-0.7,0-1.3,0-1.7,0
	c-0.7,0-0.7,0.7-1.7,0.3c-1.3-0.3-2-1.7-3,0.3c-0.7,1-0.7,2.7-0.7,4c-0.3,1.7,0,2.7-1.3,3c-1,0.3-2.7,0.3-3.7,0
	c-1,0-2.7-0.7-2.7,1.3c0,0.7,0.7,1,1,1.7c0,1-0.7,1.3-0.7,2.3c-0.3,1.3,0.3,3,0,4.3c0,3.3,0.3,7-0.3,10.4c-1,7.7-1.3,15.4-1.3,23
	c0,1.7-0.3,3.7-0.3,5.7V647h348.1v-30.4h-2.7c1.7-5.3,2.7-10.4,2.7-16.4C1894.9,594.2,1894.6,589.5,1893.9,584.9z"/>
<path fill="#095B53" d="M1432.8,554.1c-2.1-7.2-4.7-10.7-14.1-8.9c24.8-41.8-61-46.9-56.8,4.3c-14.5-2.6-24.7,9.4-23.5,23.4
	c-11.9-8.1-26.9-3.8-27.3,12.4c-12.4-13.6-32.4-1.7-30.3,15.3c-15.4-0.9-18.3,20.5-10.7,30.3c-6.8,4.3-9.4,9.4-10.2,16.6
	c52.9,2.6,107.9-3.8,159.6-8.1c51.2-4.3,99.8,18.8,151,2.1c-8.1-6-16.2-11.9-26.9-11.1c36.7-15.8-14.1-22.2-25.6-25.6
	c3.4-17.5-9.4-22.6-23.9-17.5c5.1-18.3-11.5-25.6-27.3-21.3c1.7-16.2-20.1-16.2-32.4-16.2L1432.8,554.1z"/>
<path fill="#095B53" d="M1557.4,551.5c0,12.8-25.2,23-56.3,23c-31.1,0-56.3-10.2-56.3-23c0-12.8,25.2-23,56.3-23
	C1531.8,528.5,1557.4,538.7,1557.4,551.5z"/>
<path fill="#095B53" d="M1579.2,638h-318.7v10.7h318.7V638z"/>
<path fill="#095B53" d="M1533.9,510.6c2.6,8.1-10.7,17.9-29,21.7c-18.3,3.8-35,0.4-37.6-7.7c-2.6-8.1,10.7-17.9,29-21.7
	C1514.7,499.5,1531.8,502.5,1533.9,510.6z"/>
<path fill="#6B2705" d="M1500.6,574.5h-4.3v73.3h4.3V574.5z"/>
</svg>
