<svg width="33" height="34" viewBox="0 0 33 34" fill="none" xmlns="http://www.w3.org/2000/svg">
<path d="M2.05527 28.9293C1.77025 28.9293 1.53961 28.6987 1.53961 28.4137V17.5771C1.53961 17.2918 1.77025 17.0615 2.05527 17.0615C2.34054 17.0615 2.57092 17.2918 2.57092 17.5771V28.4137C2.57092 28.6982 2.34054 28.9293 2.05527 28.9293Z" fill="white"/>
<path d="M22.1629 30.4675H3.60233C3.31731 30.4675 3.08667 30.2369 3.08667 29.9519C3.08667 29.6666 3.31731 29.4362 3.60233 29.4362H22.1629C22.4482 29.4362 22.6786 29.6666 22.6786 29.9519C22.6786 30.2369 22.4482 30.4675 22.1629 30.4675Z" fill="white"/>
<path d="M18.0439 4.68769H10.3091C10.0238 4.68769 9.79346 4.4573 9.79346 4.17203C9.79346 3.88701 10.0238 3.65637 10.3091 3.65637H18.0439C18.329 3.65637 18.5596 3.88701 18.5596 4.17203C18.5596 4.4573 18.329 4.68769 18.0439 4.68769Z" fill="white"/>
<path d="M9.79343 5.20334C9.50815 5.20334 9.27777 4.97295 9.27777 4.68768C9.27777 4.1189 9.7403 3.65637 10.3091 3.65637C10.5941 3.65637 10.8247 3.88701 10.8247 4.17203C10.8247 4.4573 10.5941 4.68768 10.3091 4.68768C10.3091 4.97295 10.0784 5.20334 9.79343 5.20334Z" fill="white"/>
<path d="M18.5595 5.20334C18.2742 5.20334 18.0438 4.97295 18.0438 4.68768V4.68667C17.7586 4.68667 17.5282 4.4568 17.5282 4.17152C17.5282 3.88701 17.7586 3.65637 18.0438 3.65637C18.6126 3.65637 19.0751 4.1189 19.0751 4.68768C19.0751 4.97295 18.8445 5.20334 18.5595 5.20334Z" fill="white"/>
<path d="M18.5595 6.75034C18.2742 6.75034 18.0438 6.51996 18.0438 6.23469V4.68771C18.0438 4.40269 18.2742 4.17206 18.5595 4.17206C18.8445 4.17206 19.0751 4.40269 19.0751 4.68771V6.23469C19.0751 6.51996 18.8445 6.75034 18.5595 6.75034Z" fill="white"/>
<path d="M9.79343 6.75034C9.50815 6.75034 9.27777 6.51996 9.27777 6.23469V4.68771C9.27777 4.40269 9.50815 4.17206 9.79343 4.17206C10.0784 4.17206 10.3091 4.40269 10.3091 4.68771V6.23469C10.3091 6.51996 10.0784 6.75034 9.79343 6.75034Z" fill="white"/>
<path d="M18.5596 6.75031H9.79343C9.50815 6.75031 9.27777 6.51992 9.27777 6.23465C9.27777 5.94963 9.50815 5.71899 9.79343 5.71899H18.5596C18.8446 5.71899 19.0752 5.94963 19.0752 6.23465C19.0752 6.51992 18.8446 6.75031 18.5596 6.75031Z" fill="white"/>
<path d="M18.5595 8.81292C18.2742 8.81292 18.0438 8.58254 18.0438 8.29727V6.23465C18.0438 5.94963 18.2742 5.71899 18.5595 5.71899C18.8445 5.71899 19.0751 5.94963 19.0751 6.23465V8.29727C19.0751 8.58254 18.8445 8.81292 18.5595 8.81292Z" fill="white"/>
<path d="M16.4969 8.81292C16.2116 8.81292 15.9812 8.58254 15.9812 8.29727V6.23465C15.9812 5.94963 16.2116 5.71899 16.4969 5.71899C16.7819 5.71899 17.0125 5.94963 17.0125 6.23465V8.29727C17.0125 8.58254 16.7819 8.81292 16.4969 8.81292Z" fill="white"/>
<path d="M11.856 8.81292C11.5708 8.81292 11.3404 8.58254 11.3404 8.29727V6.23465C11.3404 5.94963 11.5708 5.71899 11.856 5.71899C12.1411 5.71899 12.3717 5.94963 12.3717 6.23465V8.29727C12.3717 8.58254 12.1411 8.81292 11.856 8.81292Z" fill="white"/>
<path d="M9.79343 8.81292C9.50815 8.81292 9.27777 8.58254 9.27777 8.29727V6.23465C9.27777 5.94963 9.50815 5.71899 9.79343 5.71899C10.0784 5.71899 10.3091 5.94963 10.3091 6.23465V8.29727C10.3091 8.58254 10.0784 8.81292 9.79343 8.81292Z" fill="white"/>
<path d="M24.2275 7.26599H20.618C20.3329 7.26599 20.1023 7.03561 20.1023 6.75034C20.1023 6.46532 20.3329 6.23468 20.618 6.23468H24.2275C24.5128 6.23468 24.7432 6.46532 24.7432 6.75034C24.7432 7.03561 24.5128 7.26599 24.2275 7.26599Z" fill="white"/>
<path d="M20.6179 8.81296C20.3329 8.81296 20.1023 8.58257 20.1023 8.2973V6.75034C20.1023 6.46532 20.3329 6.23468 20.6179 6.23468C20.9032 6.23468 21.1336 6.46532 21.1336 6.75034V8.2973C21.1336 8.58257 20.9032 8.81296 20.6179 8.81296Z" fill="white"/>
<path d="M7.73481 7.26599H4.12521C3.83994 7.26599 3.60956 7.03561 3.60956 6.75034C3.60956 6.46532 3.83994 6.23468 4.12521 6.23468H7.73481C8.02008 6.23468 8.25046 6.46532 8.25046 6.75034C8.25046 7.03561 8.02008 7.26599 7.73481 7.26599Z" fill="white"/>
<path d="M4.12522 8.81296C3.83994 8.81296 3.60956 8.58257 3.60956 8.2973V6.75034C3.60956 6.46532 3.83994 6.23468 4.12522 6.23468C4.41049 6.23468 4.64087 6.46532 4.64087 6.75034V8.2973C4.64087 8.58257 4.41049 8.81296 4.12522 8.81296Z" fill="white"/>
<path d="M7.73892 8.81296C7.4539 8.81296 7.22327 8.58257 7.22327 8.2973V6.75034C7.22327 6.46532 7.4539 6.23468 7.73892 6.23468C8.0242 6.23468 8.25458 6.46532 8.25458 6.75034V8.2973C8.25458 8.58257 8.0242 8.81296 7.73892 8.81296Z" fill="white"/>
<path d="M15.9813 21.1872H12.3717C12.0864 21.1872 11.856 20.9566 11.856 20.6715V14.4837C11.856 14.1984 12.0864 13.968 12.3717 13.968H15.9813C16.2663 13.968 16.4969 14.1984 16.4969 14.4837V20.6715C16.4969 20.9566 16.2663 21.1872 15.9813 21.1872ZM12.8873 20.1559H15.4656V14.9993H12.8873V20.1559Z" fill="white"/>
<path d="M14.1765 19.1246C13.8912 19.1246 13.6608 18.894 13.6608 18.6089V16.5463C13.6608 16.261 13.8912 16.0306 14.1765 16.0306C14.4615 16.0306 14.6921 16.261 14.6921 16.5463V18.6089C14.6921 18.894 14.4615 19.1246 14.1765 19.1246Z" fill="white"/>
<path d="M27.837 18.0933C27.552 18.0933 27.3214 17.8626 27.3214 17.5776V10.8756C27.3214 10.5906 27.552 10.3599 27.837 10.3599C28.1223 10.3599 28.3526 10.5906 28.3526 10.8756V17.5776C28.3526 17.8626 28.1223 18.0933 27.837 18.0933Z" fill="white"/>
<path d="M27.8371 18.0933H15.9705C15.6852 18.0933 15.4548 17.8626 15.4548 17.5776C15.4548 17.2923 15.6852 17.062 15.9705 17.062H27.8376C28.1229 17.062 28.3533 17.2923 28.3533 17.5776C28.3533 17.8626 28.1224 18.0933 27.8371 18.0933Z" fill="white"/>
<path d="M24.2274 8.81296C23.9424 8.81296 23.7118 8.58257 23.7118 8.2973V6.75034C23.7118 6.46532 23.9424 6.23468 24.2274 6.23468C24.5127 6.23468 24.7431 6.46532 24.7431 6.75034V8.2973C24.7431 8.58257 24.5127 8.81296 24.2274 8.81296Z" fill="white"/>
<path d="M27.837 11.3912C27.552 11.3912 27.3214 11.1608 27.3214 10.8756C27.3214 9.73799 26.3963 8.81293 25.2588 8.81293C24.9737 8.81293 24.7431 8.58254 24.7431 8.29727C24.7431 8.01225 24.9737 7.78162 25.2588 7.78162C26.9651 7.78162 28.3527 9.1692 28.3527 10.8756C28.3527 11.1608 28.1223 11.3912 27.837 11.3912Z" fill="white"/>
<path d="M0.515656 18.0933C0.230384 18.0933 0 17.8626 0 17.5776V10.8756C0 10.5906 0.230384 10.3599 0.515656 10.3599C0.800929 10.3599 1.03131 10.5906 1.03131 10.8756V17.5776C1.03131 17.8626 0.800929 18.0933 0.515656 18.0933Z" fill="white"/>
<path d="M12.382 18.0933H0.515656C0.230384 18.0933 0 17.8626 0 17.5776C0 17.2923 0.230384 17.062 0.515656 17.062H12.382C12.6671 17.062 12.8977 17.2923 12.8977 17.5776C12.8977 17.8626 12.6666 18.0933 12.382 18.0933Z" fill="white"/>
<path d="M0.515656 11.3912C0.230384 11.3912 0 11.1608 0 10.8756C0 9.1692 1.38759 7.78162 3.09394 7.78162C3.37921 7.78162 3.60959 8.01225 3.60959 8.29727C3.60959 8.58254 3.37921 8.81293 3.09394 8.81293C1.95637 8.81293 1.03131 9.73799 1.03131 10.8756C1.03131 11.1608 0.800929 11.3912 0.515656 11.3912Z" fill="white"/>
<path d="M3.60224 30.4675C2.46467 30.4675 1.53961 29.5424 1.53961 28.4049C1.53961 28.1196 1.77025 27.8892 2.05527 27.8892C2.34054 27.8892 2.57092 28.1196 2.57092 28.4049C2.57092 28.9737 3.03345 29.4362 3.60224 29.4362C3.88751 29.4362 4.11789 29.6666 4.11789 29.9518C4.11789 30.2369 3.88751 30.4675 3.60224 30.4675Z" fill="white"/>
<path d="M25.2588 8.81293H3.0939C2.80863 8.81293 2.57825 8.58255 2.57825 8.29727C2.57825 8.01225 2.80863 7.78162 3.0939 7.78162H25.2588C25.5441 7.78162 25.7745 8.01225 25.7745 8.29727C25.7745 8.58255 25.5441 8.81293 25.2588 8.81293Z" fill="white"/>
<path d="M30.9373 21.1819H22.6888C22.4035 21.1819 22.1732 20.9515 22.1732 20.6662C22.1732 20.3812 22.4035 20.1506 22.6888 20.1506H30.9373C31.2223 20.1506 31.453 20.3812 31.453 20.6662C31.453 20.9515 31.2223 21.1819 30.9373 21.1819Z" fill="white"/>
<path d="M26.8131 30.4655C26.5278 30.4655 26.2974 30.2349 26.2974 29.9498V19.1193C26.2974 18.8343 26.5278 18.6036 26.8131 18.6036C27.0981 18.6036 27.3288 18.8343 27.3288 19.1193V29.9498C27.3288 30.2349 27.0981 30.4655 26.8131 30.4655Z" fill="white"/>
<path d="M29.906 30.4655H23.7201C23.4349 30.4655 23.2045 30.2348 23.2045 29.9498C23.2045 29.6645 23.4349 29.4341 23.7201 29.4341H29.906C30.191 29.4341 30.4216 29.6645 30.4216 29.9498C30.4216 30.2348 30.191 30.4655 29.906 30.4655Z" fill="white"/>
<path d="M22.6888 27.8867C21.5513 27.8867 20.6262 26.9614 20.6262 25.8241C20.6262 25.5388 20.8566 25.3084 21.1419 25.3084C21.4271 25.3084 21.6575 25.5388 21.6575 25.8241C21.6575 26.3926 22.1201 26.8554 22.6888 26.8554C23.2576 26.8554 23.7201 26.3926 23.7201 25.8241C23.7201 25.5388 23.9505 25.3084 24.2358 25.3084C24.5211 25.3084 24.7514 25.5388 24.7514 25.8241C24.7514 26.9614 23.8264 27.8867 22.6888 27.8867Z" fill="white"/>
<path d="M24.2358 26.3397H21.1419C20.8566 26.3397 20.6262 26.1091 20.6262 25.8241C20.6262 25.5388 20.8566 25.3084 21.1419 25.3084H24.2358C24.5211 25.3084 24.7514 25.5388 24.7514 25.8241C24.7514 26.1091 24.5211 26.3397 24.2358 26.3397Z" fill="white"/>
<path d="M21.1419 26.3397C21.0928 26.3397 21.0434 26.3324 20.9938 26.3181C20.7211 26.236 20.5663 25.9487 20.6479 25.676L22.1948 20.5184C22.2764 20.2455 22.5625 20.0914 22.8369 20.1722C23.1096 20.2543 23.2644 20.5416 23.1829 20.8143L21.6359 25.9719C21.5689 26.1957 21.3642 26.3397 21.1419 26.3397Z" fill="white"/>
<path d="M24.2358 26.3397C24.0135 26.3397 23.8088 26.1957 23.7418 25.9719L22.1949 20.8143C22.1133 20.5416 22.2681 20.2543 22.5408 20.1722C22.8138 20.0914 23.1013 20.2455 23.1829 20.5184L24.7299 25.676C24.8114 25.9487 24.6566 26.236 24.3839 26.3181C24.3343 26.3329 24.2849 26.3397 24.2358 26.3397Z" fill="white"/>
<path d="M30.9373 27.8867C29.7998 27.8867 28.8747 26.9614 28.8747 25.8241C28.8747 25.5388 29.1051 25.3084 29.3904 25.3084C29.6754 25.3084 29.906 25.5388 29.906 25.8241C29.906 26.3926 30.3685 26.8554 30.9373 26.8554C31.5061 26.8554 31.9686 26.3926 31.9686 25.8241C31.9686 25.5388 32.199 25.3084 32.4843 25.3084C32.7693 25.3084 33 25.5388 33 25.8241C33 26.9614 32.0749 27.8867 30.9373 27.8867Z" fill="white"/>
<path d="M32.4843 26.3397H29.3904C29.1051 26.3397 28.8747 26.1091 28.8747 25.8241C28.8747 25.5388 29.1051 25.3084 29.3904 25.3084H32.4843C32.7693 25.3084 33 25.5388 33 25.8241C33 26.1091 32.7693 26.3397 32.4843 26.3397Z" fill="white"/>
<path d="M29.3903 26.3397C29.3412 26.3397 29.2919 26.3324 29.2423 26.3181C28.9696 26.236 28.8148 25.9487 28.8963 25.676L30.4433 20.5184C30.5246 20.2455 30.8119 20.0914 31.0854 20.1722C31.358 20.2543 31.5126 20.5416 31.4313 20.8143L29.8843 25.9719C29.8174 26.1957 29.6124 26.3397 29.3903 26.3397Z" fill="white"/>
<path d="M32.4842 26.3397C32.2619 26.3397 32.0572 26.1957 31.9902 25.9719L30.4433 20.8143C30.3617 20.5416 30.5165 20.2543 30.7892 20.1722C31.0632 20.0914 31.3492 20.2455 31.4313 20.5184L32.9782 25.676C33.0596 25.9487 32.905 26.236 32.6323 26.3181C32.5827 26.3329 32.5331 26.3397 32.4842 26.3397Z" fill="white"/>
</svg>
