<svg width="172" height="172" viewBox="0 0 172 172" fill="none" xmlns="http://www.w3.org/2000/svg">
<path d="M165.443 112.532L165.436 112.551L165.429 112.57L165.153 113.398L164.883 114.209C163.316 118.541 161.388 122.754 159.161 126.724C158.371 128.12 157.596 129.428 156.71 130.727L156.702 130.739L156.694 130.751C155.652 132.344 154.572 133.962 153.44 135.45L153.412 135.487L153.386 135.526C153.181 135.832 152.975 136.092 152.726 136.402L152.663 136.481L152.611 136.568C152.477 136.79 152.341 136.975 152.112 137.261L152.105 137.27L152.099 137.278C146.44 144.556 139.51 150.823 131.724 155.952C130.954 156.425 130.158 156.915 129.416 157.408C128.881 157.705 128.324 158.015 127.706 158.385L127.694 158.392L127.682 158.399C126.754 158.979 125.758 159.507 124.706 160.063L124.692 160.071L124.679 160.078C124.115 160.391 123.621 160.664 123.14 160.877L123.128 160.883L123.115 160.889C122.822 161.026 122.519 161.163 122.213 161.302C121.622 161.57 121.017 161.844 120.439 162.134C120.352 162.177 120.247 162.224 120.101 162.288L120.087 162.295C119.97 162.346 119.825 162.411 119.684 162.48C119.499 162.559 119.298 162.639 119.079 162.727L119.071 162.73C118.846 162.819 118.602 162.917 118.369 163.017C118.174 163.1 117.962 163.185 117.728 163.279L117.719 163.282C117.495 163.372 117.25 163.47 117.019 163.569L116.892 163.623L116.778 163.699C116.774 163.702 116.754 163.713 116.697 163.739C116.652 163.76 116.63 163.769 116.572 163.795C116.358 163.843 116.202 163.921 116.141 163.951C116.092 163.975 116.036 164.006 115.976 164.042C107.097 167.376 97.3892 169.34 87.3257 169.522H86.1109H86.1087H86.1065H86.1044H86.1022H86.1001H86.0979H86.0957H86.0936H86.0914H86.0893H86.0871H86.085H86.0828H86.0806H86.0785H86.0763H86.0742H86.072H86.0698H86.0677H86.0655H86.0634H86.0612H86.0591H86.0569H86.0547H86.0526H86.0504H86.0483H86.0461H86.0439H86.0418H86.0396H86.0375H86.0353H86.0331H86.031H86.0288H86.0267H86.0245H86.0224H86.0202H86.018H86.0159H86.0137H86.0116H86.0094H86.0072H86.0051H86.0029H86.0008H85.9986H85.9965H85.9943H85.9921H85.99H85.9878H85.9857H85.9835H85.9813H85.9792H85.977H85.9749H85.9727H85.9706H85.9684H85.9662H85.9641H85.9619H85.9598H85.9576H85.9554H85.9533H85.9511H85.949H85.9468H85.9446H85.9425H85.9403H85.9382H85.936H85.9339H85.9317H85.9295H85.9274H85.9252H85.9231H85.9209H85.9187H85.9166H85.9144H85.9123H85.9101H85.908H85.9058H85.9036H85.9015H85.8993H85.8972H85.895H85.8928H85.8907H85.8885H85.8864H85.8842H85.882H85.8799H85.8777H85.8756H85.8734H85.8713H85.8691H85.8669H85.8648H85.8626H85.8605H85.8583H85.8561H85.854H85.8518H85.8497H85.8475H85.8454H85.8432H85.841H85.8389H85.8367H85.8346H85.8324H85.8302H85.8281H85.8259H85.8238H85.8216H85.8195H85.8173H85.8151H85.813H85.8108H85.8087H85.8065H85.8043H85.8022H85.8H85.7979H85.7957H85.7935H85.7914H85.7892H85.7871H85.7849H85.7828H85.7806H85.7784H85.7763H85.7741H85.772H85.7698H85.7676H85.7655H85.7633H85.7612H85.759H85.7569H85.7547H85.7525H85.7504H85.7482H85.7461H85.7439H85.7417H85.7396H85.7374H85.7353H85.7331H85.7309H85.7288H85.7266H85.7245H85.7223H85.7202H85.718H85.7158H85.7137H85.7115H85.7094H85.7072H85.705H85.7029H85.7007H85.6986H85.6964H85.6943H85.6921H85.6899H85.6878H85.6856H85.6835H85.6813H85.6791H85.677H85.6748H85.6727H85.6705H85.6683H85.6662H85.664H85.6619H85.6597H85.6576H85.6554H85.6532H85.6511H85.6489H85.6468H85.6446H85.6424H85.6403H85.6381H85.636H85.6338H85.6316H85.6295H85.6273H85.6252H85.623H85.6209H85.6187H85.6165H85.6144H85.6122H85.6101H85.6079H85.6057H85.6036H85.6014H85.5993H85.5971H85.5949H85.5928H85.5906H85.5885H85.5863H85.5842H85.582H85.5798H85.5777H85.5755H85.5734H85.5712H85.569H85.5669H85.5647H85.5626H85.5604H85.5583H85.5561H85.5539H85.5518H85.5496H85.5475H85.5453H85.5431H85.541H85.5388H85.5367H85.5345H85.5323H85.5302H85.528H85.5259H85.5237H85.5216H85.5194H85.5172H85.5151H85.5129H85.5108H85.5086H85.5064H85.5043H85.5021H85.5H85.4978H85.4957H85.4935H85.4913H85.4892H85.487H85.4849H85.4827H85.4805H85.4784H85.4762H85.4741H85.4719H85.4697H85.4676H85.4654H85.4633H85.4611H85.459H85.4568H85.4546H85.4525H85.4503H85.4482H85.446H85.4438H85.4417H85.4395H85.4374H85.4352H85.4331H85.4309H85.4287H85.4266H85.4244H85.4223H85.4201H85.4179H85.4158H85.4136H85.4115H85.4093H85.4072H85.405H85.4028H85.4007H85.3985H85.3964H85.3942H85.392H85.3899H85.3877H85.3856H85.3834H85.3812H85.3791H85.3769H85.3748H85.3726H85.3705H85.3683H85.3661H85.364H85.3618H85.3597H85.3575H85.3553H85.3532H85.351H85.3489H85.3467H85.3446H85.3424H85.3402H85.3381H85.3359H85.3338H85.3316H85.3294H85.3273H85.3251H85.323H85.3208H85.3186H85.3165H85.3143H85.3122H85.31H85.3079H85.3057H85.3035H85.3014H85.2992H85.2971H85.2949H85.2927H85.2906H85.2884H85.2863H85.2841H85.282H85.2798H85.2776H85.2755H85.2733H85.2712H85.269H85.2668H85.2647H85.2625H85.2604H85.2582H85.256H85.2539H85.2517H85.2496H85.2474H85.2453H85.2431H85.2409H85.2388H85.2366H85.2345H85.2323H85.2301H85.228H85.2258H85.2237H85.2215H85.2193H85.2172H85.215H85.2129H85.2107H85.2086H85.2064H85.2042H85.2021H85.1999H85.1978H85.1956H85.1934H85.1913H85.1891H85.187H85.1848H85.1827H85.1805H85.1783H85.1762H85.174H85.1719H85.1697H85.1675H85.1654H85.1632H85.1611H85.1589H85.1567H85.1546H85.1524H85.1503H85.1481H85.146H85.1438H85.1416H85.1395H85.1373H85.1352H85.133H85.1308H85.1287H85.1265H85.1244H85.1222H85.12H85.1179H85.1157H85.1136H85.1114H85.1093H85.1071H85.1049H85.1028H85.1006H85.0985H85.0963H85.0941H85.092H85.0898H85.0877H85.0855H85.0834H85.0812H85.079H85.0769H85.0747H85.0726H85.0704H85.0682H85.0661H85.0639H85.0618H85.0596H85.0574H85.0553H85.0531H85.051H85.0488H85.0467H85.0445H85.0423H85.0402H85.038H85.0359H85.0337H85.0315H85.0294H85.0272H85.0251H85.0229H85.0208H85.0186H85.0164H85.0143H85.0121H85.01H85.0078H85.0056H85.0049H85.0042H85.0035H85.0028H85.002H85.0013H85.0006H84.9999H84.9992H84.9985H84.9977H84.997H84.9963H84.9956H84.9949H84.9941H84.9934H84.9927H84.992H84.9913H84.9905H84.9898H84.9891H84.9884H84.9877H84.9869H84.9862H84.9855H84.9848H84.9841H84.9833H84.9826H84.9819H84.9812H84.9805H84.9797H84.979H84.9783H84.9776H84.9769H84.9761H84.9754H84.9747H84.974H84.9733H84.9725H84.9718H84.9711H84.9704H84.9697H84.9689H84.9682H84.9675H84.9668H84.9661H84.9654H84.9646H84.9639H84.9632H84.9625H84.9618H84.961H84.9603H84.9596H84.9589H84.9582H84.9574H84.9567H84.956H84.9553H84.9546H84.9538H84.9531H84.9524H84.9517H84.951H84.9502H84.9495H84.9488H84.9481H84.9474H84.9466H84.9459H84.9452H84.9445H84.9438H84.943H84.9423H84.9416H84.9409H84.9402H84.9395H84.9387H84.938H84.9373H84.9366H84.9359H84.9351H84.9344H84.9337H84.933H84.9323H84.9315H84.9308H84.9301H84.9294H84.9287H84.9279H84.9272H84.9265H84.9258H84.9251H84.9243H84.9236H84.9229H84.9222H84.9215H84.9207H84.92H84.9193H84.9186H84.9179H84.9171H84.9164H84.9157H84.915H84.9143H84.9136H84.9128H84.9121H84.9114H84.9107H84.91H84.9092H84.9085H84.9078H84.9071H84.9064H84.9056H84.9049H84.9042H84.9035H84.9028H84.902H84.9013H84.9006H84.8999H84.8992H84.8984H84.8977H84.897H84.8963H84.8956H84.8948H84.8941H84.8934H84.8927H84.892H84.8912H84.8905H84.8898H84.8891H84.8884H84.8876H84.8869H84.8862H84.8855H84.8848H84.884H84.8833H84.8826H84.8819H84.8812H84.8805H84.8797H84.879H84.8783H84.8776H84.8769H84.8761H84.8754H84.8747H84.874H84.8733H84.8725H84.8718H84.8711H84.8704H84.8697H84.8689H84.8682H84.8675H84.8668H84.8661H84.8653H84.8646H84.8639H84.8632H84.8625H84.8617H84.861H84.8603H84.8596H84.8589H84.8581H84.8574H84.8567H84.856H84.8553H84.8546H84.8538H84.8531H84.8524H84.8517H84.851H84.8502H84.8495H84.8488H84.8481H84.8474H84.8466H84.8459H84.8452H84.8445H84.8438H84.843H84.8423H84.8416H84.8409H84.8402H84.8394H84.8387H84.838H84.8373H84.8366H84.8358H84.8351H84.8344H84.8337H84.833H84.8322H84.8315H84.8308H84.8301H84.8294H84.8287H84.8279H84.8272H84.8265H84.8258H84.8251H84.8243H84.8236H84.8229H84.8222H84.8215H84.8207H84.82H84.8193H84.8186H84.8179H84.8171H84.8164H84.8157H84.815H84.8143H84.8135H84.8128H84.8121H84.8114H84.8107H84.8099H84.8092H84.8085H84.8078H84.8071H84.8063H84.8056H84.8049H84.8042H84.8035H84.8027H84.802H84.8013H84.8006H84.7999H84.7991H84.7984H84.7977H84.797H84.7963H84.7956H84.7948H84.7941H84.7934H84.7927H84.792H84.7912H84.7905H84.7898H84.7891H84.7884H84.7876H84.7869H84.7862H84.7855H84.7848H84.784H84.7833H84.7826H84.7819H84.7812H84.7804H84.7797H84.779H84.7783H84.7776H84.7768H84.7761H84.7754H84.7747H84.774H84.7732H84.7725H84.7718H84.7711H84.7704H84.7697H84.7689H84.7682H84.7675H84.7668H84.7661H84.7653H84.7646H84.7639H84.7632H84.7625H84.7617H84.761H84.7603H84.7596H84.7589H84.7581H84.7574H84.7567H84.756H84.7553H84.7545H84.7538H84.7531H84.7524H84.7517H84.7509H84.7502H84.7495H84.7488H84.7481H84.7473H84.7466H84.7459H84.7452H84.7445H84.7438H84.743H84.7423H84.7416H84.7409H84.7402H84.7394H84.7387H84.738H84.7373H84.7366H84.7358H84.7351H84.7344H84.7337H84.733H84.7322H84.7315H84.7308H84.7301H84.7294H84.7286H84.7279H84.7272H84.7265H84.7258H84.725H84.7243H84.7236H84.7229H84.7222H84.7214H84.7207H84.72H84.7193H84.7186H84.7178H84.7171H84.7164H84.7157H84.715H84.7142H84.7135H84.7128H84.7121H84.7114H84.7107H84.7099H84.7092H84.7085H84.7078H84.7071H84.7063H84.7056H84.7049H84.7042H84.7035H84.7027H84.702H84.7013H84.7006H84.6999H84.6991H84.6984H84.6977H84.697H84.6963H84.6955H84.6948H84.6941H84.6934H84.6927H84.6919H84.6912H84.6905H84.6898H84.6891H84.6883H84.6876H84.6869H84.6862H84.6855H84.6848H84.684H84.6833H84.6826H84.6819H84.6812H84.6804H84.6797H84.679H84.6783H84.6776H84.6768H84.6761H84.6754H84.6747H84.674H84.6732H84.6725H84.6718H84.6711H84.6704H84.6696H84.6689H84.6682H84.6675H84.6668H84.666H84.6653H84.6646H84.6639H84.6632H84.6624H84.6617H84.661H84.6603H84.6596H84.6588H84.6581H84.6574H84.6567H84.656H84.6553H84.6545H84.6538H84.6531H84.6524H84.6516H84.6509C74.4755 169.34 64.7935 167.418 55.8384 163.883L55.7742 163.851C55.6929 163.811 55.6194 163.782 55.5617 163.761C55.5539 163.758 55.5462 163.755 55.5387 163.753L55.4838 163.698L55.148 163.586C54.767 163.459 54.4978 163.367 54.2391 163.238L54.0882 163.162L54.0427 163.117L53.7571 163.003C53.6429 162.957 53.536 162.92 53.4559 162.893C53.435 162.886 53.4165 162.879 53.3996 162.874C53.3428 162.854 53.3051 162.841 53.2657 162.827C53.2397 162.817 53.2223 162.81 53.2117 162.806L53.1023 162.724L52.9444 162.654C51.4202 161.984 49.9818 161.325 48.6133 160.611L48.6019 160.606L48.5903 160.6C48.2124 160.411 47.9255 160.266 47.6463 160.08L47.5737 160.031L47.496 159.992C44.5457 158.488 41.7235 156.807 39.0261 154.89L39.017 154.884C38.696 154.66 38.3617 154.437 38.0442 154.225L38.0372 154.221C37.7507 154.03 37.4776 153.848 37.2179 153.668C37.2093 153.659 37.2004 153.65 37.1912 153.641L37.0862 153.536L36.9627 153.454C36.9633 153.454 36.9596 153.452 36.9504 153.445C36.941 153.438 36.9285 153.429 36.9107 153.415C36.9047 153.41 36.797 153.326 36.7612 153.298C36.6408 153.206 36.4518 153.066 36.2109 152.943C36.2069 152.94 36.2018 152.937 36.1952 152.932L36.188 152.928C36.1564 152.906 36.1001 152.869 36.0259 152.826C35.5624 152.478 35.141 152.158 34.7238 151.794L34.6886 151.763L34.6515 151.734C30.9779 148.906 27.5483 145.78 24.4214 142.357C24.2404 142.147 24.0868 141.979 23.9471 141.825C23.7244 141.581 23.5372 141.376 23.3315 141.102L23.2675 141.017L23.1921 140.941C22.9521 140.702 22.755 140.457 22.5045 140.145C22.3572 139.961 22.2125 139.798 22.0943 139.665L22.0859 139.656C21.96 139.514 21.8625 139.404 21.7677 139.286C21.6614 139.153 21.5332 139.006 21.4312 138.888C21.3957 138.848 21.3633 138.81 21.3362 138.779C21.2101 138.632 21.1185 138.517 21.0464 138.409L20.9639 138.286L20.8589 138.181C20.8543 138.176 20.8504 138.172 20.8469 138.169L20.8215 138.118L20.7191 137.991C18.4232 135.154 16.3168 132.206 14.4555 129.086L14.3597 128.926L14.2943 128.86C7.89716 118.295 3.76997 106.182 2.5669 93.1704C2.54282 92.8129 2.51404 92.4825 2.48666 92.1681C2.43447 91.5688 2.38733 91.0276 2.38733 90.4674V90.3187L2.35815 90.173C2.33065 90.0356 2.32593 89.8771 2.32593 89.5471V89.513L2.32438 89.4789C2.26282 88.1257 2.20312 86.7473 2.20312 85.4366C2.20312 76.0346 3.77106 67.0544 6.60724 58.613L6.60826 58.61C6.97986 57.496 7.32676 56.4596 7.78389 55.4319L7.79996 55.3958L7.8141 55.3589C16.3784 33.0011 34.2947 15.2778 56.7369 6.83857L56.8097 6.81118L56.8793 6.77641C56.8778 6.77718 56.9111 6.76145 57.0092 6.73421C57.0548 6.72155 57.1054 6.70879 57.1671 6.69382C57.183 6.68995 57.2022 6.68535 57.223 6.68036C57.2696 6.66916 57.3245 6.65597 57.3707 6.64443L57.4265 6.63048L57.4812 6.61229C57.6155 6.56755 57.7268 6.52305 57.8018 6.49307L57.8094 6.49C57.888 6.4586 57.9272 6.44329 57.9724 6.42824L57.4995 5.00845L57.9724 6.42823L58.3408 6.30553L58.3532 6.30137L58.3656 6.297L59.3068 5.96509C59.5665 5.90866 59.7875 5.82806 59.9196 5.77989C59.9283 5.77669 59.9367 5.77363 59.9447 5.77073C60.1319 5.70271 60.1741 5.6916 60.2008 5.68715L60.3168 5.66783L60.4284 5.63067C60.6106 5.56999 60.7471 5.52492 60.9319 5.47876L61.0484 5.44965L61.1588 5.40236C61.4577 5.27438 61.8262 5.17866 62.3441 5.0493L62.3779 5.04086L62.4113 5.03085L64.242 4.48208C67.4176 3.58469 70.7248 2.9231 74.0466 2.44037L74.0587 2.4385C77.9713 1.83705 82.0088 1.53564 86.1109 1.53564C93.5945 1.53564 100.831 2.50037 107.763 4.36754L107.955 4.41916H107.972C108.221 4.51865 108.442 4.53804 108.561 4.54143C108.629 4.55695 108.707 4.578 108.809 4.60693C108.825 4.61147 108.842 4.61648 108.861 4.62187C108.96 4.6506 109.097 4.68998 109.243 4.72478C109.356 4.7654 109.452 4.78951 109.514 4.80365L109.625 4.91462L110.07 5.00358C110.142 5.01805 110.228 5.04244 110.394 5.0922L110.413 5.09806C110.544 5.13721 110.734 5.19444 110.939 5.23823C110.967 5.24666 111.016 5.26379 111.127 5.30541L111.146 5.31247C111.245 5.34988 111.411 5.41204 111.594 5.46192C111.836 5.542 112.053 5.6108 112.257 5.67525C112.727 5.82417 113.125 5.94994 113.58 6.13835C113.895 6.27771 114.219 6.39683 114.493 6.49768L114.512 6.50478C114.812 6.61531 115.057 6.70605 115.281 6.80545L115.326 6.82515L115.371 6.84194C131.712 12.8668 145.587 23.8956 155.303 37.9448C158.738 42.9434 161.634 48.3672 163.927 54.0351L163.927 54.0355C167.122 61.9279 169.172 70.481 169.776 79.3321C169.897 81.5751 169.957 83.5693 169.957 85.6206C169.957 92.7853 168.993 99.8362 167.304 106.47C166.758 108.529 166.158 110.566 165.443 112.532ZM55.2281 163.755H55.2265C55.2076 163.755 55.2112 163.754 55.2281 163.755Z" fill="url(#paint0_radial)" stroke="white" stroke-width="3"/>
<path d="M52.1252 140.283C53.0224 142.347 52.1252 145.218 51.5869 146.922C50.959 148.716 50.6001 153.112 52.9327 153.381C56.6109 153.83 57.6875 150.331 57.4183 146.474C57.1492 142.616 56.5212 139.655 56.5212 139.655L52.1252 140.283Z" fill="#DDAC9E"/>
<path d="M51.5871 146.922C51.4973 148.806 51.8562 151.318 53.3813 151.856C54.8167 152.394 57.239 148.268 57.5979 147.101C58.0464 148.178 57.7773 153.292 55.4447 155.086C53.1122 156.88 51.6768 157.06 51.1385 156.342C50.6002 155.534 49.4339 151.677 50.3311 149.524C51.2282 147.37 51.5871 146.922 51.5871 146.922Z" fill="black"/>
<path d="M45.6658 76.2277C44.3201 80.2648 43.1538 82.3282 43.8715 91.6584C44.9481 106.73 47.1909 116.15 47.1909 116.15C47.1909 116.15 48.7161 136.156 50.9589 143.782C52.7532 145.307 58.4948 143.154 58.4948 143.154C58.4948 143.154 56.1623 120.008 55.8034 115.791C55.624 112.562 57.508 92.6453 57.508 90.851C57.508 89.0567 57.7771 75.3306 57.7771 75.3306L45.6658 76.2277Z" fill="black"/>
<path d="M63.5191 142.975C63.5191 145.307 62.9808 149.793 63.7882 152.664C64.0573 153.651 63.0705 156.342 60.9174 156.252C58.6745 156.252 57.1494 154.189 57.2391 152.574C57.4185 148.537 58.854 144.32 59.1231 142.257C59.3025 140.373 63.5191 142.975 63.5191 142.975Z" fill="#EAC3B7"/>
<path d="M65.2232 67.4359C68.1837 72.6393 71.0545 83.6741 70.606 91.7483C70.1574 99.8225 67.1969 110.678 67.5557 118.752C68.0043 126.737 65.1334 142.167 64.4157 144.859C63.698 147.55 56.7901 145.128 56.7901 145.128C56.1621 140.194 58.0461 126.019 57.4181 115.971C57.1489 111.396 56.7004 91.7483 56.4312 90.6717C56.0724 89.0569 56.3415 67.3462 56.3415 67.3462L65.2232 67.4359Z" fill="#232121"/>
<path d="M57.239 151.318C57.239 153.112 59.7509 155.804 60.9172 155.535C62.0835 155.266 63.5189 153.023 63.7881 151.856C64.9543 154.817 63.6983 159.841 60.9172 159.841C58.2258 159.931 56.7007 156.432 56.7007 154.907C56.7007 153.471 57.239 151.318 57.239 151.318Z" fill="#232121"/>
<path d="M56.4314 90.6717C56.7005 91.7483 57.1491 111.396 57.4182 115.971C58.0462 126.109 56.0725 140.283 56.7902 145.128C56.7902 145.128 58.8536 145.846 60.8273 146.025C61.545 140.552 62.801 130.594 63.5187 118.573C64.2364 105.295 63.6084 82.3284 62.9804 67.4359L56.4314 67.3462C56.3416 67.3462 56.0725 89.0569 56.4314 90.6717Z" fill="black"/>
<path d="M82.8968 95.1575C82.8968 95.1575 85.4985 110.229 84.6911 111.037C83.8837 111.844 73.8357 118.752 72.7592 118.752C71.6826 118.752 70.3369 98.3872 70.3369 98.3872L82.8968 95.1575Z" fill="black"/>
<path d="M68.4532 97.5796C68.0047 98.387 66.8384 114.805 67.5561 115.881C68.2738 116.958 72.8492 119.021 72.8492 118.752C73.1183 117.047 71.3241 98.5664 71.3241 98.5664L68.4532 97.5796Z" fill="black"/>
<path d="M68.4531 97.5794C68.4531 97.5794 79.2188 93.004 80.1159 93.4526C81.1924 93.8114 82.6279 94.0806 82.897 95.2469C83.7941 97.3103 84.4221 100.181 83.9736 101.078C83.525 101.975 81.1924 105.384 80.1159 106.102C79.5776 106.461 72.2211 104.936 72.2211 104.936C72.2211 104.936 71.6828 99.8222 70.7857 99.284C69.9783 98.4765 68.4531 97.5794 68.4531 97.5794Z" fill="#232121"/>
<path d="M72.3105 96.9515C72.3105 96.9515 72.3105 96.8618 72.3105 96.7721C72.3105 96.0544 72.3105 92.0173 74.1048 90.3127C74.4637 89.9538 74.9122 89.7744 75.2711 89.7744C76.9757 89.8641 77.8728 92.2864 78.5905 94.2601C78.6802 94.4395 78.5905 94.7087 78.3214 94.7984C78.1419 94.8881 77.8728 94.7984 77.7831 94.5292C77.1551 92.5555 75.9888 90.4024 75.2711 90.5818C75.0917 90.5818 74.9122 90.6716 74.6431 90.9407C73.2077 92.107 73.0283 96.2338 73.118 96.8618V96.9515C73.118 97.1309 72.9385 97.4001 72.7591 97.4001C72.49 97.3104 72.3105 97.2206 72.3105 96.9515Z" fill="black"/>
<path d="M76.0787 87.2625C76.0787 86.9934 76.0787 86.0962 75.989 85.0197C76.1684 76.3175 74.105 64.2061 74.105 64.2061C73.9256 52.8125 73.5667 45.9046 70.7856 43.0337C69.3502 41.5086 69.709 41.5086 68.1839 41.2395C66.9279 40.7012 63.7879 40.8806 62.2628 38.0995C61.9039 36.0361 61.4554 33.2549 61.4554 32.8064L58.764 32.627L55.9828 32.8064C55.9828 33.6138 55.2651 39.9835 55.2651 39.9835L56.6108 54.8759C56.6108 59.7204 58.6742 57.5673 59.392 57.7467C60.4685 58.0159 64.8645 53.7096 65.4028 52.4536C66.2999 50.0314 67.2868 51.8257 68.0942 52.0051C68.9016 52.0948 70.0679 65.6415 70.1576 66.2695C70.1576 66.2695 71.593 77.6632 72.4901 81.9694L72.6696 82.8665C72.9387 85.2888 73.5667 86.5448 73.3873 87.2625C73.2078 87.9802 72.5799 89.0568 72.7593 89.8642C72.849 90.4025 72.849 91.3893 73.0284 92.3762C72.6696 92.2865 72.3107 92.107 72.3107 92.107C72.3107 92.107 72.0416 92.0173 72.0416 92.2865C71.9519 93.0939 73.2078 93.6322 73.8358 93.6322C74.5535 93.5425 76.3478 92.9145 76.4375 92.2865C76.617 91.6585 76.0787 87.9802 76.0787 87.2625ZM74.105 92.2865C74.0153 92.3762 73.8358 92.3762 73.6564 92.3762C73.8358 91.8379 73.9256 91.0305 73.8358 90.6716C73.7461 90.0436 73.9256 89.8642 74.1947 90.223C74.4638 90.6716 74.2844 92.0173 74.105 92.2865Z" fill="#EAC3B7"/>
<path d="M72.939 84.9299L73.2081 86.8139C73.2081 86.8139 75.7201 87.083 76.9761 86.5448C76.8864 84.7505 76.8864 84.7505 76.8864 84.7505L72.939 84.9299Z" fill="#C0D9F2"/>
<path d="M58.1364 44.7381L54.189 38.9964C54.189 38.9964 54.9964 31.8194 54.9964 30.8325L58.1364 30.6531L61.1866 30.8325C61.1866 31.8194 62.5323 39.5347 62.5323 39.5347L58.4952 43.9307L58.1364 44.7381Z" fill="#EAC3B7"/>
<path d="M52.1251 69.2299C46.5629 69.4093 37.0532 66.9871 37.0532 65.2825C37.0532 61.7837 39.5652 48.4164 41.7183 45.3661C42.9743 43.5718 44.7686 41.4187 46.3834 41.1496C47.9086 40.5216 53.8297 40.701 54.3679 34.8696C54.3679 34.8696 57.7771 35.6771 57.5976 36.6639C57.4182 37.6507 57.4182 58.554 56.3416 58.8231C55.2651 59.0923 47.3703 55.9523 46.832 54.5169C45.8451 52.0049 47.1909 52.9918 46.3834 53.0815C45.576 53.1712 43.5126 62.322 43.2435 62.95C42.9743 63.578 53.2017 66.1797 54.3679 66.0002L52.1251 69.2299Z" fill="#DDAC9E"/>
<path d="M50.5094 27.2436C51.2271 32.5367 55.5334 37.1121 58.0453 37.1121C60.9162 37.1121 64.5944 34.1516 65.671 27.4231C66.5681 21.8608 65.1327 16.2986 58.1351 16.2986C51.6757 16.2986 49.7917 21.6814 50.5094 27.2436Z" fill="#EAC3B7"/>
<path d="M51.9036 22.0661H51.9658C53.3963 21.6929 55.3244 21.5685 56.2574 21.5685C56.444 21.5685 56.5684 21.4441 56.5684 21.2575C56.5684 21.0709 56.444 20.9465 56.2574 20.9465C55.2622 20.9465 53.2719 21.1331 51.8414 21.5063C51.6548 21.5685 51.5926 21.6929 51.6548 21.8795C51.6548 22.0039 51.7792 22.0661 51.9036 22.0661Z" fill="#431E41"/>
<path d="M65.1514 21.9413C65.2757 21.9413 65.4001 21.8169 65.4623 21.6925C65.5245 21.5059 65.4001 21.3815 65.2136 21.3193C63.783 20.9461 62.2903 20.8217 60.7354 20.8839C60.5488 20.8839 60.4244 21.0083 60.4244 21.1949C60.4244 21.3815 60.5488 21.5059 60.7354 21.5059C62.1659 21.4437 63.5964 21.5681 65.027 21.9413C65.0892 21.9413 65.1514 21.9413 65.1514 21.9413Z" fill="#431E41"/>
<path d="M49.7925 26.7955C49.3439 21.2333 50.9587 15.8505 57.5078 15.7607V36.5743H57.4181C54.8164 36.5743 50.4205 33.7932 49.7925 26.7955Z" fill="#DDAC9E"/>
<path d="M59.9302 20.516C61.2759 23.028 62.9804 21.4131 63.7879 25.0914C64.057 26.3474 64.7747 29.1285 63.8776 31.1022C62.7113 33.7039 66.2101 26.168 66.2101 26.168C66.2101 26.168 68.1838 19.888 63.6084 16.9275C61.1862 15.4023 60.289 16.9275 60.289 17.376C60.289 17.6452 59.9302 20.516 59.9302 20.516Z" fill="#232121"/>
<path d="M51.7662 39.5352C52.5737 41.15 55.4445 40.3426 56.5211 41.4191C57.0593 45.2768 57.0593 46.2637 58.2256 46.3534C58.8536 50.2111 59.4816 80.2651 59.4816 80.2651L43.5126 81.88C43.5126 81.88 46.1143 69.4995 47.2806 67.0772C48.5366 64.655 46.9217 55.7733 45.3966 53.979C45.3966 53.979 46.9217 45.4562 42.436 43.2134C46.1143 42.2266 51.7662 39.5352 51.7662 39.5352Z" fill="#C0D9F2"/>
<path d="M64.2365 39.894C63.1599 42.1369 59.6611 40.3426 58.5845 41.3295C57.7771 42.1369 58.5845 45.546 57.3285 45.9946C56.7902 49.7625 56.252 79.368 56.252 79.368L70.6958 81.5211C70.6958 81.5211 69.1707 71.2938 67.4661 67.7052C65.4924 63.6681 66.6587 55.9528 68.2736 53.8894C68.2736 53.8894 66.569 49.4037 70.8753 42.9443C70.2473 41.15 64.2365 39.894 64.2365 39.894Z" fill="white"/>
<path d="M52.1253 22.4892C50.1516 27.872 51.6767 30.2943 52.9327 31.1914C52.5739 31.3708 50.959 31.8194 50.959 30.4737C51.0488 31.1914 51.4076 32.5371 53.2019 33.0754C52.3047 33.9725 50.959 34.3314 50.6899 33.8828C50.8693 34.2417 52.3945 34.8697 52.3945 34.8697C52.3945 34.8697 50.8693 36.3948 47.7294 34.2417C44.8585 32.1783 42.1671 28.5897 42.7054 23.6555C43.6922 25.36 44.5894 25.1806 44.9482 24.6423C44.1408 24.5526 44.1408 22.6686 44.1408 22.6686C44.1408 22.6686 45.6659 23.7452 46.6528 22.1304C47.7294 20.4258 48.8059 17.4652 52.3047 15.7607C53.8299 15.1327 52.1253 22.4892 52.1253 22.4892Z" fill="black"/>
<path d="M62.9803 22.6688C64.954 28.0516 63.7878 31.0121 62.5318 31.9093C62.8906 32.0887 64.2363 32.5372 64.326 31.1915C64.2363 31.9093 63.3392 32.8064 61.5449 33.3447C62.4421 34.2418 64.0569 33.883 64.326 33.5241C64.0569 33.883 62.8009 34.5109 62.8009 34.5109C62.8009 34.5109 64.5952 35.7669 67.7352 33.5241C70.5163 31.9093 71.862 29.7561 71.3237 24.8219C70.6957 25.5396 69.4397 25.6293 69.4397 25.5396C70.2471 25.4499 70.9648 24.463 70.9648 24.463C70.9648 24.463 69.2603 24.2836 68.2734 22.6688C67.1969 20.9642 66.1203 18.0037 62.6215 16.2991C61.0066 15.5814 62.9803 22.6688 62.9803 22.6688Z" fill="#232121"/>
<path d="M61.9935 20.6953C59.0329 25.1809 53.8296 21.0541 52.0353 23.9249C51.1382 25.2706 49.3439 28.5003 50.5999 31.5506C51.3176 33.4346 48.8953 26.5266 48.8953 26.5266C48.8953 26.5266 46.5628 19.6187 52.0353 16.0302C54.4576 14.4153 59.6609 13.7873 62.2626 16.2993C62.4421 16.4787 61.9935 20.6953 61.9935 20.6953Z" fill="black"/>
<path d="M49.4338 40.3423C46.4733 41.3291 42.9744 42.1366 42.167 42.8543C42.167 42.8543 45.3967 53.5302 45.7555 54.8759C46.1144 56.2216 47.7292 63.5781 47.1013 66.0901C46.4733 68.6021 41.0007 82.0591 41.0904 83.0459C41.2699 84.0328 51.5869 84.7505 54.0092 83.9431C56.5212 83.1357 57.6875 80.2648 57.6875 78.65C57.6875 76.9454 57.8669 58.5541 57.8669 58.5541C57.8669 58.5541 53.0223 46.8017 52.0355 45.0971C50.9589 43.3028 49.4338 40.3423 49.4338 40.3423Z" fill="black"/>
<path d="M51.7666 38.5481L47.7295 40.7909V45.5458L50.5106 44.828L49.5238 48.3269C49.5238 48.3269 49.1649 47.968 52.3946 51.108C53.6506 52.2743 57.9568 60.3485 57.9568 60.3485C57.9568 60.3485 56.8803 55.1451 55.714 51.6463C54.458 47.7886 53.7403 45.0075 53.3814 43.2132C52.9329 41.1498 51.7666 38.5481 51.7666 38.5481Z" fill="#232121"/>
<path d="M52.8429 37.3818L56.7006 41.3292L52.5737 45.7252L51.228 38.7275L52.8429 37.3818Z" fill="white"/>
<path d="M65.1338 40.3423C68.0943 41.3291 70.9651 42.2263 71.7726 42.8543C71.7726 42.8543 69.1709 53.5302 68.9017 54.8759C68.5429 56.2216 66.928 63.5781 67.556 66.0901C68.184 68.602 73.208 81.0722 73.0285 82.0591C72.8491 83.0459 63.0703 84.7505 60.5584 83.9431C58.0464 83.1356 56.8801 80.2648 56.8801 78.65C56.8801 77.0351 56.7007 58.5541 56.7007 58.5541C56.7007 58.5541 61.5452 46.8017 62.5321 45.0971C63.5189 43.3925 65.1338 40.3423 65.1338 40.3423Z" fill="#232121"/>
<path d="M62.8009 38.6377L66.7483 40.8805V45.6354L63.9672 44.9176L64.9541 48.4165C64.9541 48.4165 65.3129 48.0576 62.0832 51.1976C60.8272 52.3639 56.521 60.4381 56.521 60.4381C56.521 60.4381 57.5976 55.2347 58.7638 51.7359C60.0198 47.8782 60.7375 45.0971 61.0964 43.3028C61.545 41.2394 62.8009 38.6377 62.8009 38.6377Z" fill="black"/>
<path d="M58.1362 41.1497L62.3528 37.8303L64.9545 39.5349L62.4425 45.1868L58.1362 41.1497Z" fill="white"/>
<path d="M60.2893 75.5101C60.1996 76.0483 59.6613 76.4072 59.123 76.2278L46.8323 73.3569C46.294 73.2672 45.9351 72.729 46.1145 72.1907L50.8694 52.1845C50.9591 51.6463 51.4974 51.2874 52.0356 51.4668L64.3264 54.3377C64.8647 54.4274 65.2235 54.9657 65.0441 55.504L60.2893 75.5101Z" fill="#BA1111"/>
<path d="M44.8584 68.9609C44.9481 69.0506 52.9326 70.2169 53.0223 70.3066C54.2783 70.7552 55.1755 70.9346 56.1623 70.7552C57.5977 70.5757 58.9434 70.3963 60.3788 70.8449C61.8143 71.2037 62.0834 71.2037 62.1731 70.9346C62.3525 70.6654 61.4554 70.3963 60.648 70.1272C59.9303 69.7683 58.2257 69.5889 58.4949 69.4992C58.764 69.4095 61.904 70.2169 62.3525 70.3066C62.8011 70.3963 63.9674 70.3066 63.4291 69.9477C62.9805 69.5889 60.02 68.602 59.5714 68.4226C59.1229 68.2432 63.2497 69.4095 63.5188 69.4992C63.8777 69.4992 63.8777 69.1403 63.2497 68.8712C62.8011 68.6917 60.1097 67.7049 59.8406 67.6152C59.6611 67.6152 60.7377 67.7049 61.0966 67.7946C61.7245 67.974 61.9937 68.0638 62.3525 68.1535C63.0702 68.3329 63.6085 68.0638 62.8011 67.7049C61.9937 67.346 61.5451 67.0769 61.1863 66.9872C60.9171 66.8975 60.02 66.8078 59.0331 66.8078C58.6743 66.8078 56.5212 67.1666 55.5343 67.0769C52.2149 66.7181 45.7555 64.3855 45.3967 64.3855L44.8584 68.9609Z" fill="#DDAC9E"/>
<path d="M53.7402 66.0005L55.0859 66.6285L53.9196 71.5627L51.6768 71.2936L53.471 66.5388L53.7402 66.0005Z" fill="white"/>
<path d="M42.6156 43.1235C41.539 42.7646 40.3727 41.9572 39.2962 46.5326C38.2196 51.108 35.887 66.6285 37.143 68.0639C38.399 69.589 50.6001 73.5364 52.3046 73.6261C52.8429 71.6524 54.1886 65.821 54.1886 65.821C54.1886 65.821 45.8452 63.2193 45.7555 62.2325C45.6658 61.2456 46.2938 55.1451 46.2938 53.8891C46.2938 52.6331 42.6156 43.1235 42.6156 43.1235Z" fill="black"/>
<path d="M71.593 42.8544C72.9387 42.1367 75.0022 45.7252 75.5404 51.1081C76.0787 56.4909 77.1553 68.4228 77.4244 74.1644C77.6936 79.9061 78.0524 85.4683 78.0524 85.4683C78.0524 85.4683 73.2976 86.3655 72.849 85.8272C72.3108 85.2889 70.6959 72.4599 70.3371 69.1405C69.9782 65.8211 69.1708 55.9526 68.9016 54.876C68.6325 53.7995 70.4268 43.4824 71.593 42.8544Z" fill="black"/>
<path d="M72.3105 96.9516C72.3105 96.9516 72.3105 96.8619 72.3105 96.7722C72.3105 96.0545 72.3105 92.0174 74.1048 90.3128C74.2842 90.1334 74.5534 90.1334 74.6431 90.3128C74.8225 90.4922 74.7328 90.7614 74.6431 90.8511C73.2077 92.0174 73.0283 96.1442 73.118 96.7722V96.8619C73.118 97.0413 72.9385 97.3105 72.7591 97.3105C72.49 97.3105 72.3105 97.2207 72.3105 96.9516Z" fill="black"/>
<path d="M99.2246 152.574C99.2246 152.574 98.5069 155.535 99.5834 156.97C100.391 158.136 102.454 159.572 105.056 159.123C107.658 158.585 108.465 156.432 108.645 155.355C108.824 154.279 108.375 152.574 108.375 152.574H99.2246Z" fill="#2B2B2B"/>
<path d="M99.9424 144.679C99.8527 149.075 98.0584 154.637 99.6733 156.163C101.288 157.688 102.634 158.226 104.518 157.957C106.402 157.688 107.389 156.701 108.286 154.458C109.183 152.215 107.478 149.883 107.299 145.845C107.119 141.808 99.9424 144.679 99.9424 144.679Z" fill="black"/>
<path d="M85.4084 95.0673C84.9598 94.9776 84.6907 94.6187 84.7804 94.2598C85.0495 92.1964 86.4849 91.1199 87.9203 90.6713C88.2792 90.5816 88.7278 90.761 88.9072 91.1199C88.9969 91.4787 88.8175 91.9273 88.4586 92.1067C87.2924 92.5553 86.5746 93.0039 86.3055 94.4393C86.2158 94.7981 85.9467 95.0673 85.5878 95.0673C85.4981 95.0673 85.4981 95.0673 85.4084 95.0673Z" fill="#823A38"/>
<path d="M124.345 67.8842C126.229 72.5493 126.587 90.3126 125.062 103.77C123.448 117.944 124.793 116.868 124.793 116.868C124.793 116.868 123.806 143.961 121.564 154.727C116.27 154.099 108.734 155.534 108.734 155.534C108.734 155.534 108.465 153.65 108.734 145.128C109.093 137.143 110.17 126.288 110.17 118.393C110.17 108.973 109.004 94.7983 108.376 87.5315C107.748 80.2647 108.914 67.3459 108.914 67.3459L124.345 67.8842Z" fill="black"/>
<path d="M121.025 158.854C119.41 156.701 118.154 152.484 118.782 148.626L112.323 148.806C112.323 148.806 112.413 149.254 112.413 150.062L111.336 149.434C110.708 152.843 109.362 154.099 110.17 156.521C110.529 157.598 111.336 158.854 112.054 159.841C112.054 159.93 112.054 160.02 112.054 160.02C111.067 166.121 116.988 166.838 120.038 166.479C123.986 165.941 123.627 162.173 121.025 158.854Z" fill="black"/>
<path d="M96.5332 73.8053C93.483 87.4418 96.3538 96.772 95.9052 117.496C96.5332 127.813 95.4567 137.771 96.5332 150.152C103.621 151.228 108.465 149.254 108.465 149.254C108.465 149.254 107.658 126.108 107.568 121.892C107.478 117.675 111.964 91.6583 111.964 91.6583L112.861 67.1665L96.5332 73.8053Z" fill="black"/>
<path d="M121.653 154.637C123.896 143.872 124.793 116.599 124.793 116.599C124.793 116.599 124.614 117.765 125.062 103.501C125.69 86.9932 126.139 72.2802 124.344 67.6151L117.526 67.3459C118.872 78.3807 121.025 98.2074 119.949 113.279C119.051 126.557 116.629 147.012 116.091 154.637C119.41 154.458 119.859 155.176 121.653 154.637Z" fill="#2B2B2B"/>
<path d="M111.156 34.5106L104.787 32.0883C104.787 32.0883 106.581 23.0272 106.581 22.1301L110.887 21.7712L115.104 21.9507C115.104 22.8478 116.629 30.8323 116.629 30.8323L111.156 34.5106Z" fill="#EAC3B7"/>
<path d="M115.911 26.6156C115.373 27.3333 112.502 31.5498 110.797 31.3704C109.182 31.191 106.401 27.7819 105.863 26.5259C105.415 26.9744 103.71 28.3201 103.71 28.3201L111.066 45.3657L117.885 28.9481L115.911 26.6156Z" fill="#D8D8D8"/>
<path d="M105.863 26.5259C106.401 27.6922 109.182 30.7424 110.797 30.9218C110.887 30.9218 110.977 45.3657 110.977 45.3657L103.71 28.4099C103.71 28.3202 105.415 26.9744 105.863 26.5259Z" fill="white"/>
<path d="M109.721 33.4342H110.977V30.2942H108.555V31.6399L109.721 33.4342Z" fill="#0042A3"/>
<path d="M109.631 32.9854L107.478 52.9915L110.797 55.5932H110.887L111.067 32.9854H109.631Z" fill="#0042A3"/>
<path d="M111.874 33.4342H110.887V30.2942H113.309V31.6399L111.874 33.4342Z" fill="#0E85DD"/>
<path d="M112.053 32.9854L114.206 52.9915L110.797 55.5932L110.887 32.9854H112.053Z" fill="#0E85DD"/>
<path d="M109.542 33.4342H112.053V33.165H109.631L109.542 33.4342Z" fill="#0E85DD"/>
<path d="M103.531 15.5813C104.248 20.9641 107.747 25.8087 110.349 25.8087C116.27 25.7189 117.346 22.4893 117.616 15.4916C117.885 9.66022 117.795 4.27741 110.708 4.27741C104.069 4.18769 102.813 9.92936 103.531 15.5813Z" fill="#EAC3B7"/>
<path d="M103.619 15.4915C103.709 9.9293 103.978 4.27734 110.617 4.27734L110.706 25.8983C106.221 25.8983 103.529 22.6686 103.619 15.4915Z" fill="#DDAC9E"/>
<path d="M116.001 17.1061H112.143C111.695 17.1061 111.336 16.7472 111.336 16.2986V14.9529C111.336 14.5044 111.695 14.1455 112.143 14.1455H116.001C116.45 14.1455 116.808 14.5044 116.808 14.9529V16.2986C116.808 16.6575 116.539 17.1061 116.001 17.1061ZM116.18 14.8632C116.18 14.7735 116.091 14.6838 116.001 14.6838H112.143C112.054 14.6838 111.964 14.7735 111.964 14.8632V16.2089C111.964 16.2986 112.054 16.3883 112.143 16.3883H116.001C116.091 16.3883 116.18 16.2986 116.18 16.2089V14.8632Z" fill="#823A38"/>
<path d="M111.785 14.7739H109.452V15.5813H111.785V14.7739Z" fill="#823A38"/>
<path d="M117.885 14.5046L116.629 15.6709V14.5943L117.885 13.7869V14.5046Z" fill="#823A38"/>
<path d="M108.913 17.1058H105.055C104.606 17.1058 104.248 16.747 104.248 16.2984V14.9527C104.248 14.5041 104.606 14.1453 105.055 14.1453H108.913C109.361 14.1453 109.72 14.5041 109.72 14.9527V16.2984C109.72 16.6572 109.451 17.1058 108.913 17.1058ZM109.092 14.863C109.092 14.7733 109.002 14.6835 108.913 14.6835H105.055C104.965 14.6835 104.965 14.7733 104.965 14.863V16.2087C104.965 16.2984 105.055 16.3881 105.055 16.3881H108.913C109.002 16.3881 109.092 16.2984 109.092 16.2087V14.863Z" fill="#4F2018"/>
<path d="M104.518 14.5053L103.262 13.7876V14.4156L104.518 15.6716V14.5053Z" fill="#4F2018"/>
<path d="M103.89 15.6708C103.89 14.3251 105.056 13.2485 104.607 12.3514C104.159 11.3645 103.71 10.288 103.979 9.12171C104.697 6.60973 107.568 5.53316 108.375 5.26402C109.183 4.99488 108.465 3.73889 108.465 3.73889C108.465 3.73889 107.03 3.38004 105.684 4.18746C104.338 4.99488 103.441 5.62288 102.364 7.86571C101.288 10.1086 101.198 12.0823 101.378 13.5177C101.647 14.9531 102.095 15.3119 102.095 15.3119H103.262L103.89 15.6708Z" fill="#4F2018"/>
<path d="M108.196 5.89197C109.183 7.05825 112.592 7.50681 113.22 6.60968C113.668 5.98168 114.476 6.34054 115.283 6.69939C117.077 7.68624 117.436 8.65982 117.436 10.2747C117.436 11.7998 117.436 15.4016 117.436 15.4016L118.961 15.8502C118.961 15.8502 120.845 13.6073 120.487 10.9159C120.128 8.31424 119.32 8.31424 118.961 7.05825C118.603 5.89197 119.141 5.89197 117.975 4.63598C116.808 3.4697 112.323 2.48285 110.887 2.57257C109.452 2.66228 108.106 2.66228 107.927 3.37999C107.747 4.36684 108.196 5.89197 108.196 5.89197Z" fill="#823A38"/>
<path d="M117.257 15.1323C118.064 14.7734 118.692 14.0557 118.961 15.4014C119.231 16.7471 118.513 18.7208 117.975 19.2591C117.436 19.7974 116.629 19.9768 116.629 19.7077C116.539 19.4385 117.257 15.1323 117.257 15.1323Z" fill="#EAC3B7"/>
<path d="M103.979 15.1323C103.172 14.7734 102.544 14.0557 102.275 15.4014C102.006 16.7471 102.723 18.7208 103.262 19.2591C103.8 19.7974 104.607 19.9768 104.607 19.7077C104.697 19.4385 103.979 15.1323 103.979 15.1323Z" fill="#DDAC9E"/>
<path d="M107.388 87.6212C107.388 87.6212 93.9312 85.9166 93.9312 85.2886C93.9312 74.8819 95.9947 64.5648 96.0844 62.0528C96.1741 58.7334 96.5329 49.0443 95.9947 47.6986C95.5461 46.2632 90.881 42.9438 90.881 42.9438C90.881 42.9438 89.0867 33.3445 93.4827 32.4473C97.3404 31.7296 97.6992 30.8325 104.428 27.9617L105.145 30.2045C105.145 30.3839 105.235 30.4736 105.235 30.5634C105.325 32.8062 105.684 35.4079 106.85 37.7404C108.016 40.073 108.913 43.213 109.99 44.5587C111.067 46.3529 112.502 45.9941 112.502 45.9941L112.592 53.0815L111.605 71.9213L107.837 87.352L107.388 87.6212Z" fill="black"/>
<path d="M112.592 86.5445L109.901 69.3195L109.811 45.4557C109.811 45.4557 114.297 40.2523 116.629 30.3838L116.45 27.8718C122.371 30.7427 124.345 31.1912 128.113 32.8958C129.997 33.7032 129.907 36.0358 129.907 36.0358C129.907 36.0358 126.049 47.3397 125.601 48.6854C125.152 50.1208 124.524 58.823 124.614 62.1424C124.703 64.1161 127.933 79.4571 127.933 86.1856L112.592 86.5445Z" fill="#2B2B2B"/>
<path d="M110.17 30.2938L107.119 33.703L105.146 29.4864L104.607 27.6922L105.684 26.5259L110.17 30.2938Z" fill="#D8D8D8"/>
<path d="M111.964 30.3838L114.745 33.6135L117.257 27.9615L115.732 26.3467L111.964 30.3838Z" fill="white"/>
<path d="M105.504 26.4365C105.504 26.2571 102.454 29.1279 102.454 29.1279L101.916 34.6902L105.145 34.2416L101.736 37.3816L111.336 47.1604C111.336 47.1604 106.76 34.0622 105.863 31.4605C104.876 28.3205 105.504 26.4365 105.504 26.4365Z" fill="#2B2B2B"/>
<path d="M116.449 26.4365C116.449 26.2571 119.5 29.1279 119.5 29.1279L120.038 34.6902L116.808 34.2416L118.423 36.3947L109.9 45.9941C109.9 45.9941 114.835 33.4342 115.911 30.9222C116.988 28.5 116.449 26.4365 116.449 26.4365Z" fill="black"/>
<path d="M118.961 68.0635L126.677 70.6652L126.856 74.7023L119.141 72.908L118.961 68.0635Z" fill="black"/>
<path d="M101.647 69.1401L93.9314 71.7418L93.752 75.7789L101.467 74.0744L101.647 69.1401Z" fill="#2B2B2B"/>
<path d="M90.9708 120.994C90.9708 121.264 90.8811 121.353 90.7914 121.353L80.1155 117.226C80.0258 117.226 79.936 117.047 79.936 116.868L81.192 95.1569C81.192 94.9775 82.448 94.6187 81.9097 94.6187L91.6885 95.6952C91.7782 95.6952 91.8679 95.8746 91.8679 96.0541L90.9708 120.994Z" fill="#4F2018"/>
<path d="M90.3428 121.353C90.3428 121.353 97.8787 120.008 97.8787 119.38C97.9684 117.585 96.0844 97.3101 95.7256 96.0541C95.3667 94.7982 91.1502 95.9644 91.1502 95.9644L90.3428 121.353Z" fill="#823A38"/>
<path d="M95.1874 95.6057L85.5881 93.632C85.5881 93.632 81.1921 93.4526 80.7436 96.0543C80.295 98.656 79.667 104.308 79.667 104.308C79.667 104.308 82.6275 107.089 83.7041 107.358C84.7807 107.627 90.3429 105.295 90.4326 104.757C90.7018 103.142 91.24 97.4897 92.0475 96.5029C93.2137 95.2469 95.1874 95.6057 95.1874 95.6057Z" fill="#823A38"/>
<path d="M88.1899 85.9168C87.1134 87.442 85.678 90.1334 85.7677 91.2997C85.8574 92.4659 87.2928 92.9145 88.5488 94.0808C89.8945 95.2471 91.5093 93.6322 91.9579 93.2734C92.4065 92.9145 91.6888 93.1836 91.2402 92.1071C90.7916 90.9408 88.9077 92.0174 88.9974 91.4791C89.0871 91.0305 90.4328 90.6717 90.4328 90.6717C90.4328 90.6717 90.8814 92.7351 91.4196 93.1836C91.8682 93.6322 92.5859 94.4396 92.4065 93.0939C92.1373 90.6717 91.9579 89.954 92.4065 88.9671C92.8551 87.9803 92.4065 85.7374 92.4065 84.7506C92.4065 83.7637 91.9579 81.8797 91.9579 81.8797L88.1899 81.6106V85.9168Z" fill="#DDAC9E"/>
<path d="M86.8442 82.7766V86.8137L93.8419 86.5446L93.3933 82.5972L86.8442 82.7766Z" fill="#D8D8D8"/>
<path d="M133.405 83.7633C133.763 86.2753 134.84 91.1198 134.302 91.9272C133.763 92.7347 132.777 94.2598 132.238 94.6187C131.7 94.9775 129.457 96.5026 129.098 95.9644C128.739 95.4261 131.431 93.5421 131.431 93.5421C131.431 93.5421 131.879 91.2095 131.879 90.6713C131.879 90.133 130.803 88.0696 130.803 89.2358C130.803 90.4021 130.893 92.9141 130.444 92.9141C129.547 92.9141 129.367 90.6713 129.188 89.6844C129.009 88.6976 128.022 87.1724 129.188 84.0325L129.367 82.3279L132.777 81.1616L133.405 83.7633Z" fill="#DDAC9E"/>
<path d="M133.495 82.1475L134.841 86.1846L128.022 86.4537L128.471 82.5063L133.495 82.1475Z" fill="#D8D8D8"/>
<path d="M91.1502 34.6903C87.2028 45.2765 87.2925 65.1929 86.6645 70.486C86.0365 75.7791 85.9468 84.6608 85.9468 84.6608C85.9468 84.6608 94.649 85.4682 94.7387 85.1991C95.0078 84.4813 95.6358 70.0375 95.4564 64.2958C95.277 58.5541 98.2375 52.0947 97.4301 48.1474C94.4696 34.4212 91.1502 34.6903 91.1502 34.6903Z" fill="black"/>
<path d="M92.0475 95.6056C91.4195 92.5554 90.4327 91.9274 89.1767 91.9274C88.7281 91.9274 88.459 91.5685 88.459 91.2096C88.459 90.7611 88.8178 90.4919 89.1767 90.4919C91.2401 90.4919 92.9447 92.1068 93.4829 95.4262C93.5727 95.8748 93.3035 96.2336 92.8549 96.3233H92.7652C92.4064 96.2336 92.1372 95.9645 92.0475 95.6056Z" fill="#823A38"/>
<path d="M129.637 34.4209C132.598 38.7271 133.046 47.1602 134.751 63.6675C135.02 65.7309 135.289 72.28 135.379 84.1222C135.379 85.737 127.215 85.0193 127.215 85.0193L126.138 66.3589L124.254 52.4533L125.51 42.9437L129.637 34.4209Z" fill="black"/>
<defs>
<radialGradient id="paint0_radial" cx="0" cy="0" r="1" gradientUnits="userSpaceOnUse" gradientTransform="translate(86.0802 85.5286) rotate(90) scale(85.493 85.377)">
<stop stop-color="#23D8CF"/>
<stop offset="1" stop-color="#217C78"/>
</radialGradient>
</defs>
</svg>
