<svg width="171" height="172" viewBox="0 0 171 172" fill="none" xmlns="http://www.w3.org/2000/svg">
<path d="M164.77 113.182L164.763 113.201L164.757 113.22L164.481 114.048L164.21 114.859C162.643 119.191 160.716 123.403 158.488 127.374C157.699 128.77 156.924 130.078 156.038 131.377L156.03 131.389L156.022 131.401C154.98 132.993 153.899 134.612 152.767 136.1L152.739 136.137L152.713 136.175C152.509 136.482 152.302 136.741 152.053 137.052L151.99 137.131L151.938 137.217C151.805 137.44 151.668 137.625 151.439 137.911L151.433 137.919L151.426 137.928C145.767 145.206 138.838 151.473 131.052 156.602C130.282 157.075 129.486 157.565 128.743 158.058C128.208 158.355 127.651 158.664 127.033 159.035L127.022 159.042L127.01 159.049C126.081 159.629 125.086 160.157 124.033 160.713L124.02 160.72L124.007 160.728C123.442 161.041 122.949 161.314 122.468 161.527L122.455 161.533L122.443 161.539C122.149 161.676 121.847 161.813 121.54 161.952C120.949 162.22 120.345 162.494 119.766 162.783C119.68 162.827 119.574 162.874 119.429 162.938L119.415 162.945C119.298 162.996 119.152 163.061 119.012 163.13C118.827 163.209 118.626 163.289 118.406 163.377L118.399 163.38C118.174 163.469 117.929 163.567 117.697 163.667C117.502 163.75 117.289 163.835 117.056 163.929L117.047 163.932C116.822 164.022 116.578 164.12 116.346 164.219L116.22 164.273L116.105 164.349C116.101 164.352 116.082 164.362 116.025 164.389C115.979 164.41 115.958 164.419 115.9 164.445C115.686 164.493 115.529 164.57 115.468 164.601C115.419 164.625 115.364 164.656 115.304 164.692C106.425 168.026 96.7168 169.99 86.6534 170.171H85.4385H85.4363H85.4342H85.432H85.4299H85.4277H85.4255H85.4234H85.4212H85.4191H85.4169H85.4148H85.4126H85.4104H85.4083H85.4061H85.404H85.4018H85.3996H85.3975H85.3953H85.3932H85.391H85.3889H85.3867H85.3845H85.3824H85.3802H85.3781H85.3759H85.3737H85.3716H85.3694H85.3673H85.3651H85.3629H85.3608H85.3586H85.3565H85.3543H85.3522H85.35H85.3478H85.3457H85.3435H85.3414H85.3392H85.337H85.3349H85.3327H85.3306H85.3284H85.3262H85.3241H85.3219H85.3198H85.3176H85.3155H85.3133H85.3111H85.309H85.3068H85.3047H85.3025H85.3003H85.2982H85.296H85.2939H85.2917H85.2896H85.2874H85.2852H85.2831H85.2809H85.2788H85.2766H85.2744H85.2723H85.2701H85.268H85.2658H85.2636H85.2615H85.2593H85.2572H85.255H85.2529H85.2507H85.2485H85.2464H85.2442H85.2421H85.2399H85.2377H85.2356H85.2334H85.2313H85.2291H85.227H85.2248H85.2226H85.2205H85.2183H85.2162H85.214H85.2118H85.2097H85.2075H85.2054H85.2032H85.201H85.1989H85.1967H85.1946H85.1924H85.1903H85.1881H85.1859H85.1838H85.1816H85.1795H85.1773H85.1751H85.173H85.1708H85.1687H85.1665H85.1644H85.1622H85.16H85.1579H85.1557H85.1536H85.1514H85.1492H85.1471H85.1449H85.1428H85.1406H85.1385H85.1363H85.1341H85.132H85.1298H85.1277H85.1255H85.1233H85.1212H85.119H85.1169H85.1147H85.1125H85.1104H85.1082H85.1061H85.1039H85.1018H85.0996H85.0974H85.0953H85.0931H85.091H85.0888H85.0866H85.0845H85.0823H85.0802H85.078H85.0759H85.0737H85.0715H85.0694H85.0672H85.0651H85.0629H85.0607H85.0586H85.0564H85.0543H85.0521H85.0499H85.0478H85.0456H85.0435H85.0413H85.0392H85.037H85.0348H85.0327H85.0305H85.0284H85.0262H85.024H85.0219H85.0197H85.0176H85.0154H85.0133H85.0111H85.0089H85.0068H85.0046H85.0025H85.0003H84.9981H84.996H84.9938H84.9917H84.9895H84.9874H84.9852H84.983H84.9809H84.9787H84.9766H84.9744H84.9722H84.9701H84.9679H84.9658H84.9636H84.9614H84.9593H84.9571H84.955H84.9528H84.9507H84.9485H84.9463H84.9442H84.942H84.9399H84.9377H84.9355H84.9334H84.9312H84.9291H84.9269H84.9247H84.9226H84.9204H84.9183H84.9161H84.914H84.9118H84.9096H84.9075H84.9053H84.9032H84.901H84.8988H84.8967H84.8945H84.8924H84.8902H84.888H84.8859H84.8837H84.8816H84.8794H84.8773H84.8751H84.8729H84.8708H84.8686H84.8665H84.8643H84.8621H84.86H84.8578H84.8557H84.8535H84.8514H84.8492H84.847H84.8449H84.8427H84.8406H84.8384H84.8362H84.8341H84.8319H84.8298H84.8276H84.8254H84.8233H84.8211H84.819H84.8168H84.8147H84.8125H84.8103H84.8082H84.806H84.8039H84.8017H84.7995H84.7974H84.7952H84.7931H84.7909H84.7887H84.7866H84.7844H84.7823H84.7801H84.778H84.7758H84.7736H84.7715H84.7693H84.7672H84.765H84.7628H84.7607H84.7585H84.7564H84.7542H84.7521H84.7499H84.7477H84.7456H84.7434H84.7413H84.7391H84.7369H84.7348H84.7326H84.7305H84.7283H84.7262H84.724H84.7218H84.7197H84.7175H84.7154H84.7132H84.711H84.7089H84.7067H84.7046H84.7024H84.7002H84.6981H84.6959H84.6938H84.6916H84.6895H84.6873H84.6851H84.683H84.6808H84.6787H84.6765H84.6743H84.6722H84.67H84.6679H84.6657H84.6636H84.6614H84.6592H84.6571H84.6549H84.6528H84.6506H84.6484H84.6463H84.6441H84.642H84.6398H84.6376H84.6355H84.6333H84.6312H84.629H84.6269H84.6247H84.6225H84.6204H84.6182H84.6161H84.6139H84.6117H84.6096H84.6074H84.6053H84.6031H84.601H84.5988H84.5966H84.5945H84.5923H84.5902H84.588H84.5858H84.5837H84.5815H84.5794H84.5772H84.5751H84.5729H84.5707H84.5686H84.5664H84.5643H84.5621H84.5599H84.5578H84.5556H84.5535H84.5513H84.5491H84.547H84.5448H84.5427H84.5405H84.5384H84.5362H84.534H84.5319H84.5297H84.5276H84.5254H84.5232H84.5211H84.5189H84.5168H84.5146H84.5124H84.5103H84.5081H84.506H84.5038H84.5017H84.4995H84.4973H84.4952H84.493H84.4909H84.4887H84.4865H84.4844H84.4822H84.4801H84.4779H84.4758H84.4736H84.4714H84.4693H84.4671H84.465H84.4628H84.4606H84.4585H84.4563H84.4542H84.452H84.4498H84.4477H84.4455H84.4434H84.4412H84.4391H84.4369H84.4347H84.4326H84.4304H84.4283H84.4261H84.4239H84.4218H84.4196H84.4175H84.4153H84.4132H84.411H84.4088H84.4067H84.4045H84.4024H84.4002H84.398H84.3959H84.3937H84.3916H84.3894H84.3872H84.3851H84.3829H84.3808H84.3786H84.3765H84.3743H84.3721H84.37H84.3678H84.3657H84.3635H84.3613H84.3592H84.357H84.3549H84.3527H84.3505H84.3484H84.3462H84.3441H84.3419H84.3398H84.3376H84.3354H84.3333H84.3326H84.3318H84.3311H84.3304H84.3297H84.329H84.3282H84.3275H84.3268H84.3261H84.3254H84.3246H84.3239H84.3232H84.3225H84.3218H84.3211H84.3203H84.3196H84.3189H84.3182H84.3175H84.3167H84.316H84.3153H84.3146H84.3139H84.3131H84.3124H84.3117H84.311H84.3103H84.3095H84.3088H84.3081H84.3074H84.3067H84.3059H84.3052H84.3045H84.3038H84.3031H84.3023H84.3016H84.3009H84.3002H84.2995H84.2987H84.298H84.2973H84.2966H84.2959H84.2952H84.2944H84.2937H84.293H84.2923H84.2915H84.2908H84.2901H84.2894H84.2887H84.288H84.2872H84.2865H84.2858H84.2851H84.2844H84.2836H84.2829H84.2822H84.2815H84.2808H84.28H84.2793H84.2786H84.2779H84.2772H84.2764H84.2757H84.275H84.2743H84.2736H84.2728H84.2721H84.2714H84.2707H84.27H84.2692H84.2685H84.2678H84.2671H84.2664H84.2656H84.2649H84.2642H84.2635H84.2628H84.2621H84.2613H84.2606H84.2599H84.2592H84.2585H84.2577H84.257H84.2563H84.2556H84.2549H84.2541H84.2534H84.2527H84.252H84.2513H84.2505H84.2498H84.2491H84.2484H84.2477H84.2469H84.2462H84.2455H84.2448H84.2441H84.2433H84.2426H84.2419H84.2412H84.2405H84.2397H84.239H84.2383H84.2376H84.2369H84.2362H84.2354H84.2347H84.234H84.2333H84.2326H84.2318H84.2311H84.2304H84.2297H84.229H84.2282H84.2275H84.2268H84.2261H84.2254H84.2246H84.2239H84.2232H84.2225H84.2218H84.221H84.2203H84.2196H84.2189H84.2182H84.2174H84.2167H84.216H84.2153H84.2146H84.2138H84.2131H84.2124H84.2117H84.211H84.2103H84.2095H84.2088H84.2081H84.2074H84.2066H84.2059H84.2052H84.2045H84.2038H84.2031H84.2023H84.2016H84.2009H84.2002H84.1995H84.1987H84.198H84.1973H84.1966H84.1959H84.1951H84.1944H84.1937H84.193H84.1923H84.1915H84.1908H84.1901H84.1894H84.1887H84.1879H84.1872H84.1865H84.1858H84.1851H84.1843H84.1836H84.1829H84.1822H84.1815H84.1807H84.18H84.1793H84.1786H84.1779H84.1772H84.1764H84.1757H84.175H84.1743H84.1736H84.1728H84.1721H84.1714H84.1707H84.17H84.1692H84.1685H84.1678H84.1671H84.1664H84.1656H84.1649H84.1642H84.1635H84.1628H84.162H84.1613H84.1606H84.1599H84.1592H84.1584H84.1577H84.157H84.1563H84.1556H84.1548H84.1541H84.1534H84.1527H84.152H84.1513H84.1505H84.1498H84.1491H84.1484H84.1477H84.1469H84.1462H84.1455H84.1448H84.1441H84.1433H84.1426H84.1419H84.1412H84.1405H84.1397H84.139H84.1383H84.1376H84.1369H84.1361H84.1354H84.1347H84.134H84.1333H84.1325H84.1318H84.1311H84.1304H84.1297H84.1289H84.1282H84.1275H84.1268H84.1261H84.1254H84.1246H84.1239H84.1232H84.1225H84.1217H84.121H84.1203H84.1196H84.1189H84.1182H84.1174H84.1167H84.116H84.1153H84.1146H84.1138H84.1131H84.1124H84.1117H84.111H84.1102H84.1095H84.1088H84.1081H84.1074H84.1066H84.1059H84.1052H84.1045H84.1038H84.103H84.1023H84.1016H84.1009H84.1002H84.0994H84.0987H84.098H84.0973H84.0966H84.0958H84.0951H84.0944H84.0937H84.093H84.0923H84.0915H84.0908H84.0901H84.0894H84.0887H84.0879H84.0872H84.0865H84.0858H84.0851H84.0843H84.0836H84.0829H84.0822H84.0815H84.0807H84.08H84.0793H84.0786H84.0779H84.0771H84.0764H84.0757H84.075H84.0743H84.0735H84.0728H84.0721H84.0714H84.0707H84.0699H84.0692H84.0685H84.0678H84.0671H84.0664H84.0656H84.0649H84.0642H84.0635H84.0628H84.062H84.0613H84.0606H84.0599H84.0592H84.0584H84.0577H84.057H84.0563H84.0556H84.0548H84.0541H84.0534H84.0527H84.052H84.0512H84.0505H84.0498H84.0491H84.0484H84.0476H84.0469H84.0462H84.0455H84.0448H84.044H84.0433H84.0426H84.0419H84.0412H84.0405H84.0397H84.039H84.0383H84.0376H84.0368H84.0361H84.0354H84.0347H84.034H84.0333H84.0325H84.0318H84.0311H84.0304H84.0297H84.0289H84.0282H84.0275H84.0268H84.0261H84.0253H84.0246H84.0239H84.0232H84.0225H84.0217H84.021H84.0203H84.0196H84.0189H84.0181H84.0174H84.0167H84.016H84.0153H84.0145H84.0138H84.0131H84.0124H84.0117H84.0109H84.0102H84.0095H84.0088H84.0081H84.0073H84.0066H84.0059H84.0052H84.0045H84.0038H84.003H84.0023H84.0016H84.0009H84.0002H83.9994H83.9987H83.998H83.9973H83.9966H83.9958H83.9951H83.9944H83.9937H83.993H83.9922H83.9915H83.9908H83.9901H83.9894H83.9886H83.9879H83.9872H83.9865H83.9858H83.985H83.9843H83.9836H83.9829H83.9822H83.9814H83.9807H83.98H83.9793H83.9786C73.8032 169.99 64.1211 168.068 55.166 164.533L55.1018 164.501C55.0206 164.461 54.9471 164.431 54.8894 164.411C54.8815 164.408 54.8739 164.405 54.8663 164.403L54.8114 164.348L54.4756 164.236C54.0946 164.109 53.8254 164.017 53.5668 163.888L53.4159 163.812L53.3703 163.767L53.0847 163.653C52.9705 163.607 52.8637 163.57 52.7835 163.543C52.7627 163.536 52.7441 163.529 52.7272 163.523C52.6704 163.504 52.6327 163.491 52.5934 163.477C52.5674 163.467 52.5499 163.46 52.5393 163.456L52.4299 163.374L52.2721 163.304C50.7479 162.634 49.3095 161.975 47.941 161.261L47.9295 161.255L47.9179 161.25C47.54 161.061 47.2531 160.916 46.9739 160.73L46.9013 160.681L46.8236 160.642C43.8733 159.138 41.0511 157.457 38.3538 155.54L38.3446 155.534C38.0236 155.309 37.6894 155.087 37.3718 154.875L37.3648 154.871C37.0784 154.68 36.8052 154.498 36.5455 154.318C36.5369 154.309 36.528 154.3 36.5189 154.291L36.4139 154.186L36.2903 154.104C36.2909 154.104 36.2873 154.102 36.278 154.095C36.2686 154.088 36.2562 154.079 36.2384 154.065C36.2324 154.06 36.1246 153.975 36.0888 153.948C35.9685 153.855 35.7794 153.716 35.5385 153.593C35.5346 153.59 35.5294 153.587 35.5229 153.582L35.5157 153.577C35.484 153.556 35.4277 153.519 35.3536 153.475C34.8901 153.128 34.4687 152.808 34.0514 152.444L34.0162 152.413L33.9791 152.384C30.3055 149.556 26.8759 146.43 23.749 143.007C23.5681 142.797 23.4144 142.629 23.2747 142.475C23.052 142.231 22.8648 142.026 22.6591 141.752L22.5951 141.667L22.5197 141.591C22.2797 141.351 22.0826 141.107 21.8322 140.795C21.6849 140.611 21.5401 140.448 21.4219 140.315L21.4135 140.306C21.2876 140.164 21.1902 140.054 21.0954 139.936C20.9891 139.803 20.8608 139.656 20.7589 139.538C20.7233 139.498 20.691 139.46 20.6638 139.429C20.5377 139.282 20.4462 139.167 20.374 139.059L20.2916 138.935L20.1865 138.83C20.182 138.826 20.178 138.822 20.1745 138.818L20.1492 138.768L20.0467 138.641C17.7508 135.804 15.6444 132.856 13.7832 129.736L13.6874 129.576L13.6219 129.51C7.2248 118.945 3.09761 106.832 1.89454 93.8203C1.87045 93.4628 1.84168 93.1324 1.8143 92.818C1.7621 92.2187 1.71496 91.6775 1.71496 91.1173V90.9686L1.68579 90.8229C1.65829 90.6855 1.65356 90.527 1.65356 90.197V90.1629L1.65201 90.1288C1.59046 88.7757 1.53076 87.3972 1.53076 86.0865C1.53076 76.6845 3.0987 67.7043 5.93488 59.2629L5.93589 59.2599C6.30749 58.1459 6.65439 57.1095 7.11152 56.0818L7.12759 56.0457L7.14174 56.0088C15.706 33.651 33.6224 15.9277 56.0646 7.48847L56.1374 7.46108L56.207 7.42631C56.2054 7.42708 56.2387 7.41135 56.3369 7.38411C56.3825 7.37145 56.433 7.35869 56.4947 7.34372C56.5107 7.33985 56.5298 7.33525 56.5506 7.33026C56.5972 7.31907 56.6521 7.30587 56.6983 7.29433L56.7542 7.28038L56.8088 7.26219C56.9431 7.21745 57.0544 7.17295 57.1294 7.14298L57.1371 7.1399C57.2156 7.1085 57.2548 7.09319 57.3 7.07814L56.8271 5.65835L57.3 7.07813L57.6684 6.95543L57.6809 6.95128L57.6933 6.94691L58.6344 6.615C58.8942 6.55856 59.1151 6.47796 59.2472 6.42979C59.256 6.42659 59.2644 6.42353 59.2723 6.42063C59.4595 6.35262 59.5017 6.3415 59.5284 6.33706L59.6444 6.31774L59.756 6.28057C59.9382 6.21989 60.0747 6.17482 60.2595 6.12866L60.3761 6.09955L60.4865 6.05227C60.7854 5.92428 61.1539 5.82856 61.6717 5.6992L61.7055 5.69076L61.7389 5.68075L63.5696 5.13198C66.7452 4.23459 70.0524 3.573 73.3742 3.09027L73.3864 3.0884C77.2989 2.48695 81.3364 2.18555 85.4385 2.18555C92.9222 2.18555 100.159 3.15027 107.091 5.01744L107.283 5.06906H107.299C107.549 5.16855 107.769 5.18794 107.888 5.19133C107.957 5.20685 108.035 5.2279 108.136 5.25683C108.152 5.26137 108.17 5.26638 108.188 5.27177C108.288 5.30051 108.424 5.33989 108.57 5.37468C108.684 5.4153 108.78 5.43941 108.841 5.45355L108.952 5.56453L109.398 5.65349C109.47 5.66795 109.555 5.69234 109.721 5.74211L109.741 5.74796C109.871 5.78712 110.062 5.84434 110.267 5.88813C110.295 5.89656 110.344 5.9137 110.455 5.95531L110.473 5.96237C110.573 5.99979 110.739 6.06194 110.921 6.11182C111.163 6.19191 111.381 6.2607 111.584 6.32515C112.055 6.47407 112.453 6.59985 112.907 6.78825C113.223 6.92762 113.547 7.04674 113.821 7.14758L113.84 7.15468C114.14 7.26522 114.385 7.35595 114.609 7.45536L114.653 7.47505L114.699 7.49184C131.039 13.5167 144.915 24.5455 154.631 38.5947C158.066 43.5933 160.961 49.0171 163.254 54.685L163.254 54.6854C166.45 62.5778 168.5 71.1309 169.103 79.982C169.225 82.2251 169.285 84.2192 169.285 86.2705C169.285 93.4352 168.321 100.486 166.632 107.12C166.086 109.179 165.485 111.216 164.77 113.182ZM54.5558 164.404H54.5542C54.5352 164.404 54.5389 164.404 54.5558 164.404Z" fill="url(#paint0_radial)" stroke="white" stroke-width="3"/>
<path d="M85.899 149.116V148.74C86.8781 148.74 87.8573 148.664 88.7611 148.589V148.966C87.8573 149.041 86.8781 149.041 85.899 149.116ZM82.9615 149.116C81.9823 149.116 81.0032 149.041 80.024 148.966V148.589C81.0032 148.664 81.9823 148.74 82.8862 148.74L82.9615 149.116ZM91.6986 148.664L91.6233 148.287C92.6025 148.212 93.5063 148.061 94.4855 147.91L94.5608 148.287C93.657 148.438 92.6778 148.589 91.6986 148.664ZM77.1618 148.664C76.1827 148.589 75.2035 148.438 74.2997 148.287L74.375 147.91C75.3541 148.061 76.258 148.212 77.2371 148.287L77.1618 148.664ZM97.423 147.76L97.3476 147.383C98.3268 147.157 99.2307 146.93 100.134 146.704L100.21 147.081C99.306 147.307 98.4021 147.533 97.423 147.76ZM71.4375 147.684C70.5336 147.458 69.5545 147.232 68.5753 147.006L68.6506 146.629C69.5545 146.855 70.5336 147.081 71.4375 147.307V147.684ZM103.072 146.252L102.997 145.875C103.901 145.574 104.804 145.272 105.708 144.971L105.859 145.347C104.88 145.649 103.976 145.95 103.072 146.252ZM65.8638 146.252C64.9599 145.95 64.0561 145.649 63.1523 145.272L63.3029 144.895C64.2067 145.197 65.1106 145.574 66.0144 145.875L65.8638 146.252ZM108.495 144.217L108.344 143.915C109.248 143.538 110.077 143.161 110.981 142.709L111.131 143.011C110.303 143.463 109.399 143.84 108.495 144.217ZM60.3654 144.217C59.4616 143.84 58.5577 143.463 57.7292 143.011L57.8798 142.709C58.7084 143.161 59.6122 143.538 60.5161 143.915L60.3654 144.217ZM113.767 141.729L113.617 141.428C114.445 140.975 115.274 140.523 116.102 139.995L116.328 140.297C115.425 140.749 114.596 141.201 113.767 141.729ZM55.1683 141.654C54.3398 141.201 53.436 140.674 52.6828 140.222L52.9087 139.92C53.7372 140.448 54.5658 140.9 55.3943 141.352L55.1683 141.654ZM118.739 138.638L118.513 138.337C119.341 137.809 120.094 137.206 120.848 136.679L121.074 136.98C120.32 137.583 119.492 138.111 118.739 138.638ZM50.1972 138.638C49.3687 138.111 48.6155 137.508 47.8623 136.98L48.0882 136.679C48.8414 137.282 49.6699 137.809 50.4231 138.337L50.1972 138.638ZM123.408 135.171L123.182 134.869C123.936 134.266 124.689 133.663 125.367 132.985L125.593 133.286C124.915 133.965 124.162 134.568 123.408 135.171ZM45.5273 135.171C44.7741 134.568 44.0209 133.889 43.343 133.286L43.569 132.985C44.2469 133.663 45.0001 134.266 45.7533 134.869L45.5273 135.171ZM127.702 131.327L127.476 131.1C128.154 130.422 128.832 129.744 129.509 128.99L129.811 129.216C129.057 129.894 128.38 130.648 127.702 131.327ZM41.2341 131.251C40.5562 130.573 39.8783 129.894 39.2004 129.14L39.5017 128.914C40.1796 129.593 40.8575 130.347 41.5354 131.025L41.2341 131.251ZM131.618 127.03L131.317 126.804C131.92 126.05 132.522 125.296 133.125 124.542L133.426 124.768C132.899 125.522 132.296 126.276 131.618 127.03ZM37.3174 126.954C36.7149 126.201 36.1123 125.447 35.5097 124.693L35.811 124.467C36.4136 125.221 37.0161 125.974 37.6187 126.728L37.3174 126.954ZM135.158 122.356L134.857 122.13C135.384 121.301 135.912 120.547 136.439 119.718L136.74 119.944C136.213 120.773 135.686 121.602 135.158 122.356ZM33.7774 122.356C33.2501 121.527 32.7229 120.773 32.1957 119.944L32.4969 119.718C33.0242 120.547 33.5514 121.376 34.0787 122.13L33.7774 122.356ZM138.171 117.456L137.87 117.306C138.322 116.476 138.774 115.572 139.226 114.743L139.527 114.893C139.15 115.723 138.698 116.627 138.171 117.456ZM30.7646 117.381C30.3126 116.552 29.8607 115.647 29.4088 114.818L29.7101 114.667C30.162 115.497 30.6139 116.401 31.0659 117.23L30.7646 117.381ZM140.807 112.255L140.506 112.104C140.883 111.2 141.259 110.371 141.561 109.466L141.862 109.617C141.561 110.446 141.184 111.351 140.807 112.255ZM28.2037 112.18C27.8271 111.275 27.4505 110.371 27.0739 109.466L27.3752 109.315C27.7518 110.22 28.053 111.124 28.505 112.029L28.2037 112.18ZM142.841 106.828L142.464 106.677C142.766 105.772 143.067 104.868 143.293 103.888L143.67 103.963C143.444 104.943 143.142 105.923 142.841 106.828ZM26.0947 106.752C25.7934 105.848 25.4922 104.868 25.2662 103.963L25.6428 103.888C25.8688 104.792 26.17 105.772 26.4713 106.677L26.0947 106.752ZM144.423 101.174L144.046 101.099C144.272 100.119 144.423 99.2142 144.649 98.2343L145.025 98.3096C144.799 99.2896 144.573 100.27 144.423 101.174ZM24.5883 101.099C24.3623 100.119 24.2117 99.2142 23.9857 98.2343L24.3624 98.1589C24.513 99.0634 24.739 100.043 24.8896 101.023L24.5883 101.099ZM145.402 95.4452L145.025 95.3698C145.176 94.3898 145.251 93.4853 145.327 92.5053H145.703C145.628 93.5606 145.477 94.5406 145.402 95.4452ZM23.6091 95.3698C23.4585 94.3898 23.3832 93.4099 23.3079 92.5053H23.6845C23.7598 93.4853 23.8351 94.3898 23.9857 95.3698H23.6091ZM145.854 89.6408H145.477C145.477 88.9624 145.477 88.284 145.477 87.6809C145.477 86.701 145.477 85.721 145.402 84.8164H145.779C145.854 85.7964 145.854 86.7763 145.854 87.7563C145.854 88.3593 145.854 89.0378 145.854 89.6408ZM23.1572 89.5654C23.1572 88.9624 23.1572 88.284 23.1572 87.6809C23.1572 87.3794 23.1572 87.0025 23.1572 86.701H23.5338C23.5338 87.0025 23.5338 87.3794 23.5338 87.6809C23.5338 88.284 23.5338 88.9624 23.5338 89.5654H23.1572ZM23.6091 83.7611H23.2325C23.3079 82.7811 23.3832 81.8012 23.4585 80.8966L23.8351 80.972C23.7598 81.8766 23.6091 82.8565 23.6091 83.7611ZM145.251 81.8766C145.176 80.8966 145.025 79.992 144.95 79.0121L145.327 78.9367C145.477 79.9167 145.553 80.8966 145.703 81.8012L145.251 81.8766ZM24.2117 78.0321L23.8351 77.9568C23.9857 76.9768 24.1364 76.0722 24.3624 75.0923L24.739 75.1677C24.513 76.1476 24.3623 77.1276 24.2117 78.0321ZM144.423 76.1476C144.272 75.243 144.046 74.2631 143.82 73.2831L144.197 73.2078C144.423 74.1877 144.649 75.0923 144.799 76.0722L144.423 76.1476ZM25.4168 72.3786L25.0402 72.3032C25.2662 71.3986 25.5675 70.4187 25.8688 69.5141L26.2454 69.5895C25.8688 70.494 25.6428 71.474 25.4168 72.3786ZM143.067 70.5694C142.766 69.6648 142.54 68.6849 142.163 67.7803L142.54 67.6296C142.841 68.5341 143.142 69.4387 143.444 70.4187L143.067 70.5694ZM27.0739 66.8757L26.6973 66.725C26.9986 65.8204 27.3752 64.9158 27.7518 64.0113L28.053 64.162C27.7518 65.0666 27.4505 65.9712 27.0739 66.8757ZM141.184 65.0666C140.807 64.162 140.431 63.2575 140.054 62.4283L140.355 62.2775C140.732 63.1821 141.109 64.0866 141.485 64.9912L141.184 65.0666ZM29.3335 61.5237L29.0322 61.3729C29.4841 60.4684 29.8607 59.6392 30.3126 58.81L30.6139 58.9607C30.162 59.7899 29.7101 60.6191 29.3335 61.5237ZM138.774 59.7899C138.322 58.9607 137.87 58.0562 137.418 57.227L137.719 57.0762C138.171 57.9054 138.698 58.81 139.075 59.6392L138.774 59.7899ZM32.045 56.3978L31.7437 56.247C32.271 55.4178 32.7229 54.5886 33.3255 53.7594L33.6267 53.9856C33.0242 54.8148 32.4969 55.644 32.045 56.3978ZM135.912 54.8148C135.384 53.9856 134.857 53.2318 134.33 52.4026L134.631 52.1764C135.158 52.9303 135.761 53.7594 136.288 54.5886L135.912 54.8148ZM35.2085 51.6488L34.9072 51.4226C35.5097 50.6688 36.037 49.8396 36.7149 49.0858L37.0161 49.312C36.4136 50.0658 35.811 50.8196 35.2085 51.6488ZM132.598 50.0658C131.995 49.312 131.392 48.5582 130.79 47.8043L131.091 47.5782C131.694 48.332 132.372 49.0858 132.974 49.8396L132.598 50.0658ZM38.8238 47.1259L38.5226 46.8998C39.2004 46.146 39.803 45.4675 40.4809 44.7891L40.7068 45.0152C40.1796 45.6937 39.5017 46.3721 38.8238 47.1259ZM128.832 45.6937C128.154 45.0152 127.476 44.3368 126.798 43.6584L127.024 43.4322C127.702 44.1107 128.38 44.7891 129.057 45.4675L128.832 45.6937ZM42.8911 42.98L42.6652 42.6784C43.343 42 44.0963 41.397 44.8495 40.7185L45.0754 41.02C44.3222 41.6985 43.569 42.3015 42.8911 42.98ZM124.614 41.6985C123.86 41.0954 123.107 40.417 122.429 39.8139L122.655 39.5124C123.408 40.1155 124.162 40.7185 124.915 41.397L124.614 41.6985ZM47.335 39.2109L47.1091 38.9094C47.8623 38.3063 48.6908 37.7033 49.444 37.1756L49.6699 37.4771C48.8414 38.0802 48.0882 38.6832 47.335 39.2109ZM120.094 38.0802C119.341 37.5525 118.513 36.9495 117.684 36.4218L117.91 36.1203C118.739 36.6479 119.492 37.1756 120.32 37.7787L120.094 38.0802ZM52.0802 35.8941L51.8542 35.5926C52.6828 35.0649 53.5113 34.6127 54.3398 34.085L54.4904 34.3865C53.6619 34.9142 52.8334 35.4418 52.0802 35.8941ZM115.274 34.9142C114.445 34.4619 113.617 33.9342 112.713 33.4819L112.864 33.1804C113.692 33.6327 114.596 34.085 115.424 34.6127L115.274 34.9142ZM57.0513 33.105L56.9007 32.8035C57.7292 32.3512 58.633 31.9743 59.5369 31.522L59.6875 31.8236C58.859 32.2005 57.9552 32.6528 57.0513 33.105ZM110.152 32.2758C109.248 31.8989 108.42 31.522 107.516 31.1451L107.667 30.8436C108.57 31.2205 109.474 31.5974 110.303 31.9743L110.152 32.2758ZM62.3991 30.6928L62.2484 30.3913C63.1523 30.0144 64.0561 29.7129 64.96 29.4114L65.1106 29.7883C64.2067 30.0144 63.3029 30.3913 62.3991 30.6928ZM104.804 30.0898C103.901 29.7883 102.997 29.4867 102.093 29.1852L102.168 28.8083C103.072 29.1098 104.051 29.4114 104.955 29.7129L104.804 30.0898ZM67.8221 28.8837L67.7468 28.5068C68.6506 28.2806 69.6298 27.9791 70.5336 27.753L70.609 28.1299C69.7051 28.356 68.8013 28.6576 67.8221 28.8837ZM99.306 28.4314C98.4021 28.2053 97.423 27.9791 96.5191 27.8284L96.5944 27.4515C97.5736 27.6022 98.4774 27.8284 99.4566 28.0545L99.306 28.4314ZM73.4711 27.6022L73.3958 27.2253C74.375 27.0746 75.2788 26.9238 76.258 26.773L76.3333 27.1499C75.4295 27.2253 74.4503 27.3761 73.4711 27.6022ZM93.657 27.3007C92.6778 27.1499 91.7739 27.0746 90.7948 26.9238V26.5469C91.7739 26.6223 92.7531 26.773 93.657 26.9238V27.3007ZM79.1955 26.8484V26.4715C80.1746 26.3961 81.1538 26.3207 82.133 26.3207V26.6976C81.1538 26.6976 80.1746 26.773 79.1955 26.8484ZM87.8573 26.6976C86.8781 26.6223 85.899 26.6223 84.9951 26.6223V26.2454C85.9743 26.2454 86.9535 26.3207 87.9326 26.3207L87.8573 26.6976Z" fill="#A2B7E0"/>
<path d="M84.4684 145.724H84.3177V145.347H84.4684C84.9203 145.347 85.3722 145.347 85.7488 145.347V145.724C85.3722 145.724 84.9203 145.724 84.4684 145.724ZM82.8867 145.724C82.4347 145.724 81.9075 145.724 81.4556 145.649V145.272C81.9075 145.272 82.4347 145.347 82.8867 145.347V145.724ZM87.2552 145.649V145.272C87.7072 145.272 88.2344 145.196 88.6863 145.196V145.573C88.2344 145.649 87.7072 145.649 87.2552 145.649ZM80.0245 145.573C79.5726 145.573 79.0453 145.498 78.5934 145.423V145.046C79.0453 145.121 79.5726 145.121 80.0245 145.196V145.573ZM90.1174 145.498V145.121C90.5693 145.046 91.0966 145.046 91.5485 144.97L91.6238 145.347C91.0966 145.347 90.6446 145.423 90.1174 145.498ZM77.087 145.272C76.6351 145.196 76.1078 145.121 75.6559 145.046L75.7312 144.669C76.1832 144.744 76.7104 144.82 77.1623 144.895L77.087 145.272ZM93.0549 145.121L92.9796 144.744C93.4315 144.669 93.9587 144.593 94.4107 144.518L94.486 144.895C94.034 144.97 93.5068 145.046 93.0549 145.121ZM74.2248 144.82C73.7729 144.744 73.2457 144.669 72.7938 144.518L72.8691 144.141C73.321 144.217 73.8482 144.292 74.3002 144.443L74.2248 144.82ZM95.9171 144.593L95.8417 144.217C96.2937 144.141 96.8209 143.99 97.2728 143.915L97.3481 144.292C96.8209 144.443 96.369 144.518 95.9171 144.593ZM71.3627 144.292C70.9107 144.217 70.3835 144.066 69.9316 143.915L70.0069 143.538C70.4588 143.689 70.9107 143.764 71.438 143.915L71.3627 144.292ZM98.7039 143.99L98.6286 143.613C99.0805 143.463 99.5324 143.387 100.06 143.237L100.135 143.613C99.6831 143.764 99.2311 143.84 98.7039 143.99ZM68.5758 143.538C68.1239 143.387 67.672 143.237 67.2201 143.086L67.2954 142.709C67.7473 142.86 68.1992 143.01 68.6511 143.086L68.5758 143.538ZM101.566 143.237L101.491 142.86C101.943 142.709 102.395 142.558 102.847 142.407L102.997 142.784C102.47 142.935 102.018 143.086 101.566 143.237ZM65.789 142.634C65.337 142.483 64.8851 142.332 64.4332 142.181L64.5838 141.804C65.0358 141.955 65.4877 142.106 65.9396 142.257L65.789 142.634ZM104.278 142.257L104.127 141.88C104.579 141.729 105.031 141.578 105.483 141.352L105.633 141.654C105.257 141.955 104.73 142.106 104.278 142.257ZM63.0774 141.654C62.6255 141.503 62.1736 141.277 61.7217 141.126L61.8723 140.824C62.3242 141.051 62.7762 141.201 63.2281 141.352L63.0774 141.654ZM106.989 141.201L106.838 140.9C107.29 140.749 107.742 140.523 108.194 140.297L108.345 140.598C107.893 140.824 107.441 141.051 106.989 141.201ZM60.3659 140.523C59.914 140.297 59.4621 140.146 59.0855 139.92L59.2361 139.618C59.688 139.844 60.0646 140.071 60.5165 140.221L60.3659 140.523ZM109.701 139.995L109.55 139.694C110.002 139.468 110.454 139.241 110.83 139.015L110.981 139.317C110.529 139.543 110.153 139.769 109.701 139.995ZM57.805 139.241C57.3531 139.015 56.9765 138.789 56.5246 138.563L56.6752 138.261C57.1271 138.488 57.5037 138.714 57.9557 138.94L57.805 139.241ZM112.262 138.638L112.111 138.337C112.563 138.111 112.939 137.885 113.391 137.658L113.542 137.96C113.09 138.186 112.713 138.412 112.262 138.638ZM55.2441 137.809C54.7922 137.583 54.4156 137.281 53.9637 137.055L54.1896 136.754C54.5662 136.98 55.0182 137.281 55.3948 137.508L55.2441 137.809ZM114.822 137.206L114.596 136.905C114.973 136.678 115.425 136.377 115.802 136.151L116.028 136.452C115.651 136.678 115.199 136.98 114.822 137.206ZM52.7586 136.302C52.382 136 51.93 135.774 51.5534 135.472L51.7794 135.171C52.156 135.472 52.6079 135.698 52.9845 136L52.7586 136.302ZM117.233 135.623L117.007 135.322C117.383 135.02 117.835 134.794 118.212 134.492L118.438 134.794C118.061 135.095 117.609 135.322 117.233 135.623ZM50.3483 134.643C49.9717 134.342 49.5951 134.04 49.2185 133.739L49.4445 133.437C49.8211 133.739 50.1977 134.04 50.5743 134.266L50.3483 134.643ZM119.568 133.889L119.342 133.588C119.718 133.286 120.095 132.985 120.471 132.683L120.697 132.985C120.396 133.362 119.944 133.663 119.568 133.889ZM48.0887 132.909C47.7121 132.608 47.3355 132.306 46.9589 132.005L47.1849 131.703C47.5615 132.005 47.9381 132.306 48.3147 132.608L48.0887 132.909ZM121.827 132.08L121.601 131.779C121.978 131.477 122.354 131.176 122.731 130.799L122.957 131.1C122.58 131.477 122.204 131.779 121.827 132.08ZM45.8291 131.025C45.4525 130.723 45.0759 130.346 44.7746 130.045L45.0006 129.743C45.3772 130.045 45.6785 130.422 46.0551 130.723L45.8291 131.025ZM124.012 130.196L123.786 129.894C124.162 129.593 124.463 129.216 124.84 128.914L125.066 129.14C124.765 129.517 124.388 129.819 124.012 130.196ZM43.7201 128.99C43.3435 128.613 43.0423 128.311 42.6657 127.934L42.8916 127.708C43.1929 128.085 43.5695 128.387 43.8708 128.763L43.7201 128.99ZM126.12 128.16L125.895 127.934C126.196 127.557 126.572 127.256 126.874 126.879L127.175 127.105C126.798 127.407 126.422 127.783 126.12 128.16ZM41.7618 126.954C41.4605 126.577 41.0839 126.2 40.7826 125.899L41.0839 125.673C41.3852 126.05 41.6865 126.427 42.0631 126.728L41.7618 126.954ZM128.079 125.974L127.778 125.748C128.079 125.371 128.38 124.994 128.681 124.617L128.983 124.844C128.757 125.296 128.38 125.673 128.079 125.974ZM39.8035 124.768C39.5022 124.391 39.2009 124.014 38.8996 123.638L39.2009 123.411C39.5022 123.788 39.8035 124.165 40.1048 124.542L39.8035 124.768ZM129.962 123.788L129.661 123.562C129.962 123.185 130.263 122.808 130.564 122.431L130.866 122.658C130.564 123.034 130.263 123.411 129.962 123.788ZM37.9958 122.431C37.6945 122.055 37.3932 121.678 37.1673 121.225L37.4686 120.999C37.7698 121.376 37.9958 121.753 38.2971 122.205L37.9958 122.431ZM131.694 121.451L131.393 121.225C131.694 120.848 131.92 120.472 132.221 120.019L132.523 120.245C132.297 120.622 131.995 121.075 131.694 121.451ZM36.3388 120.095C36.0375 119.718 35.8115 119.265 35.5102 118.889L35.8115 118.662C36.0375 119.039 36.3388 119.492 36.64 119.868L36.3388 120.095ZM133.351 119.039L133.05 118.813C133.276 118.436 133.577 117.984 133.803 117.607L134.104 117.833C133.878 118.21 133.577 118.662 133.351 119.039ZM34.757 117.607C34.5311 117.155 34.2298 116.778 34.0038 116.326L34.3051 116.175C34.5311 116.627 34.757 117.004 35.0583 117.456L34.757 117.607ZM134.858 116.552L134.556 116.401C134.782 115.949 135.008 115.572 135.234 115.119L135.536 115.27C135.31 115.723 135.084 116.175 134.858 116.552ZM33.3259 115.119C33.1 114.667 32.874 114.29 32.6481 113.838L32.9493 113.687C33.1753 114.14 33.4013 114.516 33.6272 114.969L33.3259 115.119ZM136.213 113.989L135.912 113.838C136.138 113.386 136.364 113.009 136.515 112.557L136.816 112.707C136.665 113.16 136.439 113.612 136.213 113.989ZM31.9702 112.481C31.7442 112.029 31.5936 111.577 31.3676 111.124L31.6689 110.974C31.8949 111.426 32.0455 111.878 32.2715 112.255L31.9702 112.481ZM137.494 111.426L137.193 111.275C137.419 110.823 137.569 110.37 137.795 109.918L138.096 110.069C137.87 110.521 137.644 110.974 137.494 111.426ZM30.8404 109.843C30.6897 109.391 30.4638 108.938 30.3131 108.486L30.6144 108.335C30.7651 108.787 30.991 109.24 31.1417 109.692L30.8404 109.843ZM138.624 108.712L138.322 108.561C138.473 108.109 138.699 107.657 138.85 107.204L139.226 107.355C138.925 107.808 138.774 108.26 138.624 108.712ZM29.7859 107.054C29.6353 106.601 29.4846 106.149 29.334 105.697L29.7106 105.546C29.8612 105.998 30.0119 106.451 30.1625 106.903L29.7859 107.054ZM139.603 105.998L139.226 105.848C139.377 105.395 139.527 104.943 139.678 104.491L140.055 104.566C139.904 105.094 139.753 105.546 139.603 105.998ZM28.8821 104.34C28.7314 103.888 28.5808 103.435 28.5055 102.908L28.8821 102.832C29.0327 103.285 29.108 103.737 29.2587 104.189L28.8821 104.34ZM140.431 103.209L140.055 103.134C140.205 102.682 140.281 102.229 140.431 101.702L140.808 101.777C140.657 102.229 140.582 102.757 140.431 103.209ZM28.1288 101.475C27.9782 101.023 27.9029 100.496 27.8276 100.043L28.2042 99.9679C28.2795 100.42 28.4301 100.872 28.5055 101.4L28.1288 101.475ZM141.109 100.345L140.733 100.269C140.808 99.8171 140.959 99.2894 141.034 98.8372L141.41 98.9125C141.335 99.4402 141.26 99.8925 141.109 100.345ZM27.5263 98.6864C27.451 98.2341 27.3756 97.7065 27.3003 97.2542L27.6769 97.1788C27.7522 97.6311 27.8276 98.1587 27.9029 98.611L27.5263 98.6864ZM141.712 97.4803L141.335 97.4049C141.41 96.9526 141.486 96.425 141.561 95.9727L141.938 96.0481C141.862 96.5757 141.787 97.028 141.712 97.4803ZM26.999 95.8219C26.9237 95.3696 26.8484 94.842 26.8484 94.3897L27.225 94.3143C27.3003 94.7666 27.3756 95.2943 27.3756 95.7465L26.999 95.8219ZM142.088 94.6158L141.712 94.5404C141.787 94.0882 141.787 93.5605 141.862 93.1082H142.239C142.239 93.7113 142.164 94.1635 142.088 94.6158ZM26.6978 92.8821C26.6224 92.4298 26.6224 91.9021 26.6224 91.4498H26.999C26.999 91.9021 27.0744 92.4298 27.0744 92.8821H26.6978ZM142.39 91.7514H142.013C142.013 91.2991 142.088 90.7714 142.088 90.3191H142.465C142.465 90.7714 142.39 91.2237 142.39 91.7514ZM26.4718 90.0176C26.4718 89.5653 26.4718 89.0376 26.3965 88.5854H26.7731C26.7731 89.0376 26.7731 89.5653 26.8484 90.0176H26.4718ZM142.54 88.8115H142.164C142.164 88.4346 142.164 88.0577 142.164 87.6808C142.164 87.2285 142.164 86.7008 142.164 86.2485H142.54C142.54 86.7008 142.54 87.2285 142.54 87.6808C142.54 88.0577 142.54 88.4346 142.54 88.8115ZM26.8484 87.0777H26.4718C26.4718 86.6254 26.4718 86.0978 26.4718 85.6455H26.8484C26.8484 86.0978 26.8484 86.6254 26.8484 87.0777ZM142.088 84.7409C142.088 84.2886 142.013 83.761 142.013 83.3087H142.39C142.39 83.761 142.465 84.2886 142.465 84.7409H142.088ZM26.9237 84.2132H26.5471C26.5471 83.761 26.6224 83.2333 26.6224 82.781H26.999C26.999 83.2333 26.9237 83.6856 26.9237 84.2132ZM141.862 81.8764C141.787 81.4241 141.787 80.8965 141.712 80.4442L142.088 80.3688C142.164 80.8211 142.239 81.3488 142.239 81.8011L141.862 81.8764ZM27.1497 81.3488L26.7731 81.2734C26.8484 80.8211 26.8484 80.2934 26.9237 79.8411L27.3756 79.9165C27.3003 80.3688 27.225 80.8211 27.1497 81.3488ZM141.486 79.012C141.41 78.5597 141.335 78.032 141.26 77.5797L141.636 77.5043C141.712 77.9566 141.787 78.4843 141.862 78.9366L141.486 79.012ZM27.5263 78.4843L27.225 78.4089C27.3003 77.9566 27.3756 77.429 27.451 76.9767L27.8276 77.052C27.6769 77.5043 27.6016 77.9566 27.5263 78.4843ZM141.034 76.1475C140.959 75.6952 140.808 75.1675 140.733 74.7152L141.109 74.6399C141.185 75.0921 141.335 75.6198 141.41 76.0721L141.034 76.1475ZM28.0535 75.6198L27.6769 75.5444C27.7522 75.0921 27.9029 74.5645 27.9782 74.1122L28.3548 74.1876C28.2795 74.6399 28.2042 75.1675 28.0535 75.6198ZM140.356 73.3584C140.205 72.9061 140.13 72.4538 139.979 71.9261L140.356 71.8508C140.507 72.3031 140.582 72.7553 140.733 73.283L140.356 73.3584ZM28.7314 72.8307L28.3548 72.7553C28.5054 72.303 28.5808 71.8508 28.7314 71.3231L29.108 71.3985C29.0327 71.8508 28.8821 72.303 28.7314 72.8307ZM139.603 70.5693C139.452 70.117 139.302 69.6647 139.151 69.2124L139.527 69.0617C139.678 69.514 139.829 69.9662 139.979 70.4185L139.603 70.5693ZM29.5599 70.0416L29.1833 69.9662C29.334 69.514 29.4846 69.0617 29.6353 68.6094L30.0119 68.7601C29.8612 69.137 29.7106 69.5893 29.5599 70.0416ZM138.699 67.8556C138.548 67.4033 138.322 66.951 138.172 66.4987L138.473 66.3479C138.624 66.8002 138.85 67.2525 139 67.7048L138.699 67.8556ZM30.5391 67.3279L30.1625 67.1771C30.3131 66.7248 30.5391 66.2726 30.6897 65.8203L30.991 65.971C30.8404 66.4233 30.6897 66.8756 30.5391 67.3279ZM137.569 65.1419C137.343 64.6896 137.193 64.2373 136.967 63.785L137.268 63.6342C137.494 64.0865 137.644 64.5388 137.87 64.9911L137.569 65.1419ZM31.5936 64.6142L31.2923 64.4634C31.5183 64.0111 31.6689 63.5588 31.8949 63.1066L32.1961 63.2573C31.9702 63.7096 31.8195 64.1619 31.5936 64.6142ZM136.364 62.5035C136.138 62.0512 135.912 61.5989 135.686 61.222L135.987 61.0713C136.213 61.5236 136.439 61.9005 136.665 62.3528L136.364 62.5035ZM32.7987 61.9758L32.4974 61.8251C32.7234 61.3728 32.9493 60.9959 33.1753 60.5436L33.4766 60.6944C33.2506 61.1467 33.0247 61.5989 32.7987 61.9758ZM135.084 59.9406C134.858 59.4883 134.632 59.1114 134.406 58.6591L134.707 58.5083C134.933 58.9606 135.159 59.3375 135.46 59.7898L135.084 59.9406ZM34.1545 59.4883L33.8532 59.3375C34.0791 58.8852 34.3051 58.5083 34.6064 58.056L34.9077 58.2068C34.6817 58.5837 34.3804 59.036 34.1545 59.4883ZM133.577 57.3776C133.351 57.0007 133.05 56.5484 132.824 56.1715L133.125 55.9454C133.427 56.3223 133.652 56.7746 133.878 57.1515L133.577 57.3776ZM35.6609 57.0007L35.3596 56.7746C35.5856 56.3977 35.8868 55.9454 36.1128 55.5685L36.4141 55.7946C36.1881 56.1715 35.8868 56.5484 35.6609 57.0007ZM131.995 54.9654C131.694 54.5885 131.468 54.1362 131.167 53.7593L131.468 53.5332C131.769 53.9101 132.071 54.287 132.297 54.7393L131.995 54.9654ZM37.2426 54.5885L36.9413 54.3624C37.2426 53.9855 37.4686 53.6086 37.7698 53.1563L38.0711 53.3824C37.7698 53.7593 37.5439 54.2116 37.2426 54.5885ZM130.338 52.6286C130.037 52.2517 129.736 51.8748 129.435 51.4979L129.736 51.2717C130.037 51.6486 130.338 52.0256 130.64 52.4025L130.338 52.6286ZM38.975 52.2517L38.6737 52.0256C38.975 51.6486 39.2762 51.2717 39.5775 50.8948L39.8788 51.121C39.5775 51.4979 39.2762 51.8748 38.975 52.2517ZM128.531 50.3672C128.229 49.9903 127.928 49.6134 127.552 49.3118L127.853 49.0857C128.154 49.4626 128.455 49.8395 128.832 50.2164L128.531 50.3672ZM40.7826 49.9903L40.4814 49.7641C40.7826 49.3872 41.0839 49.0103 41.4605 48.7088L41.7618 48.9349C41.3852 49.3118 41.0839 49.6134 40.7826 49.9903ZM126.572 48.2565C126.271 47.8796 125.895 47.5781 125.593 47.2012L125.819 46.975C126.196 47.3519 126.497 47.6535 126.798 48.0304L126.572 48.2565ZM42.741 47.8796L42.4397 47.6535C42.741 47.2766 43.1176 46.975 43.4189 46.5981L43.6448 46.8243C43.4189 47.2012 43.0423 47.5027 42.741 47.8796ZM124.539 46.1458C124.162 45.8443 123.861 45.4674 123.484 45.1659L123.71 44.8644C124.087 45.1659 124.388 45.5428 124.765 45.8443L124.539 46.1458ZM44.7746 45.8443L44.5487 45.6182C44.9253 45.3166 45.2265 44.9397 45.6031 44.6382L45.8291 44.9397C45.4525 45.1659 45.1512 45.4674 44.7746 45.8443ZM122.43 44.1859C122.053 43.8844 121.677 43.5829 121.3 43.2814L121.526 42.9798C121.903 43.2814 122.279 43.5829 122.656 43.9598L122.43 44.1859ZM46.8836 43.8844L46.6576 43.5829C47.0342 43.2814 47.4108 42.9798 47.7874 42.6783L48.0134 42.9798C47.6368 43.2814 47.2602 43.5829 46.8836 43.8844ZM120.245 42.3768C119.869 42.0753 119.492 41.7737 119.116 41.4722L119.342 41.1707C119.718 41.4722 120.095 41.7737 120.471 42.0753L120.245 42.3768ZM49.1432 42.0753L48.9172 41.7737C49.2938 41.4722 49.6704 41.1707 50.047 40.8692L50.273 41.1707C49.8964 41.4722 49.5198 41.7737 49.1432 42.0753ZM117.911 40.643C117.534 40.3415 117.157 40.1154 116.705 39.8138L116.931 39.5123C117.308 39.8138 117.76 40.04 118.137 40.3415L117.911 40.643ZM51.4781 40.3415L51.2522 40.04C51.6288 39.7384 52.0807 39.5123 52.4573 39.2108L52.6832 39.5123C52.3066 39.8138 51.8547 40.04 51.4781 40.3415ZM115.5 38.9846C115.124 38.7585 114.672 38.457 114.295 38.2308L114.446 37.9293C114.898 38.1554 115.274 38.457 115.651 38.6831L115.5 38.9846ZM53.8884 38.7585L53.7377 38.457C54.1143 38.2308 54.5663 37.9293 55.0182 37.7032L55.1688 38.0047C54.7169 38.2308 54.265 38.457 53.8884 38.7585ZM113.09 37.5524C112.638 37.3263 112.262 37.1001 111.81 36.874L111.96 36.5724C112.412 36.7986 112.789 37.0247 113.241 37.2509L113.09 37.5524ZM56.3739 37.2509L56.2233 36.9494C56.6752 36.7232 57.0518 36.4971 57.5037 36.2709L57.6544 36.5724C57.2025 36.7986 56.8259 37.0247 56.3739 37.2509ZM110.529 36.1202C110.077 35.894 109.701 35.6679 109.249 35.5171L109.399 35.2156C109.851 35.4417 110.303 35.6679 110.68 35.8186L110.529 36.1202ZM58.9348 35.894L58.7842 35.5925C59.2361 35.3664 59.688 35.1402 60.0646 34.9894L60.2153 35.291C59.8387 35.5171 59.3867 35.6679 58.9348 35.894ZM107.893 34.9141C107.441 34.6879 106.989 34.5372 106.537 34.311L106.688 34.0095C107.14 34.1603 107.592 34.3864 108.044 34.6125L107.893 34.9141ZM61.571 34.6879L61.4204 34.3864C61.8723 34.1603 62.3242 34.0095 62.7762 33.8587L62.9268 34.1603C62.4749 34.311 62.023 34.4618 61.571 34.6879ZM105.257 33.7833C104.805 33.6326 104.353 33.4064 103.901 33.2557L104.052 32.8788C104.504 33.0295 104.955 33.1803 105.407 33.4064L105.257 33.7833ZM64.2826 33.6326L64.1319 33.2557C64.5838 33.1049 65.0358 32.9542 65.4877 32.728L65.6383 33.1049C65.1864 33.2557 64.7345 33.4064 64.2826 33.6326ZM102.545 32.8034C102.093 32.6526 101.641 32.5019 101.189 32.3511L101.265 31.9742C101.717 32.125 102.169 32.2757 102.621 32.4265L102.545 32.8034ZM66.9941 32.6526L66.9188 32.2757C67.3707 32.125 67.8226 31.9742 68.2745 31.8234L68.3499 32.2003C67.8979 32.3511 67.446 32.5019 66.9941 32.6526ZM99.7584 31.9742C99.3065 31.8234 98.8545 31.7481 98.3273 31.5973L98.4026 31.2204C98.8546 31.3712 99.3818 31.4465 99.8337 31.5973L99.7584 31.9742ZM69.7809 31.8234L69.7056 31.4465C70.1575 31.2958 70.6095 31.2204 71.1367 31.0696L71.212 31.4465C70.6848 31.5973 70.2329 31.7481 69.7809 31.8234ZM96.9715 31.2958C96.5196 31.2204 96.0677 31.0696 95.5405 30.9943L95.6158 30.6173C96.0677 30.6927 96.5949 30.8435 97.0469 30.9189L96.9715 31.2958ZM72.5678 31.2204L72.4925 30.8435C72.9444 30.7681 73.4716 30.6173 73.9236 30.542L73.9989 30.9189C73.547 30.9943 73.0197 31.0696 72.5678 31.2204ZM94.1094 30.7681C93.6574 30.6927 93.1302 30.6173 92.6783 30.542L92.7536 30.1651C93.2055 30.2404 93.7328 30.3158 94.1847 30.3912L94.1094 30.7681ZM75.43 30.6927L75.3546 30.3158C75.8066 30.2404 76.3338 30.1651 76.7857 30.0897L76.861 30.4666C76.4091 30.542 75.8819 30.6173 75.43 30.6927ZM91.2472 30.3158C90.7953 30.2404 90.268 30.2404 89.8161 30.1651V29.7882C90.268 29.8635 90.7953 29.8635 91.2472 29.9389V30.3158ZM78.2921 30.3158L78.2168 29.9389C78.6687 29.8635 79.196 29.8635 79.6479 29.7882V30.1651C79.2713 30.1651 78.744 30.2404 78.2921 30.3158ZM88.385 30.0897C87.9331 30.0897 87.4059 30.0143 86.9539 30.0143V29.6374C87.4059 29.6374 87.9331 29.7128 88.385 29.7128V30.0897ZM81.1543 30.0143V29.6374C81.6062 29.6374 82.1335 29.562 82.5854 29.562V29.9389C82.1335 30.0143 81.6815 30.0143 81.1543 30.0143ZM85.5229 29.9389C85.2216 29.9389 84.845 29.9389 84.5437 29.9389H84.0918V29.562H84.5437C84.9203 29.562 85.2216 29.562 85.5982 29.562L85.5229 29.9389Z" fill="#A2B7E0"/>
<path d="M84.4681 152.433C48.7664 152.433 19.7681 123.411 19.7681 87.6808C19.7681 51.9502 48.7664 22.9285 84.4681 22.9285C120.17 22.9285 149.168 51.9502 149.168 87.6808C149.168 123.411 120.17 152.433 84.4681 152.433ZM84.4681 23.6069C49.2183 23.6069 20.4459 52.3271 20.4459 87.6808C20.4459 123.034 49.143 151.755 84.4681 151.755C119.718 151.755 148.49 123.034 148.49 87.6808C148.49 52.3271 119.793 23.6069 84.4681 23.6069Z" fill="#A2B7E0"/>
<path d="M49.8209 69.8153H36.7905V62.1265H49.2184L49.8209 69.8153Z" fill="#C5D5E6"/>
<path d="M48.2395 57.5283H37.77V75.1675H48.2395V57.5283Z" fill="#D4A47D"/>
<path opacity="0.3" d="M49.8213 65.5187C49.2187 65.971 48.6161 66.4987 48.2395 66.7248C48.0889 66.8002 47.9383 66.8756 47.8629 66.951H44.3982C43.419 66.7248 39.9543 63.3327 39.9543 63.3327C39.9543 63.3327 38.5232 60.9958 37.77 58.1314V57.5283H48.2395V64.7649C48.5408 64.991 49.1434 65.2172 49.8213 65.5187Z" fill="#A88F7B"/>
<path d="M42.9671 39.7383C34.7572 39.7383 34.23 46.3718 34.23 52.2515C34.23 56.1713 36.7909 60.2419 36.7909 60.2419C36.7909 60.2419 40.2556 63.5587 41.2348 63.8602H44.6995C45.4527 63.6341 48.4655 60.845 48.4655 60.845C48.4655 60.845 51.629 56.4729 51.629 52.2515C51.7043 46.3718 51.7043 39.7383 42.9671 39.7383Z" fill="#FFC89F"/>
<path d="M46.9587 40.3416C46.7328 42.1507 46.6575 43.8845 47.0341 45.6182C46.1302 45.3921 45.1511 45.3921 44.1719 45.5428C42.1382 45.769 39.502 46.8243 37.5437 45.9951C37.4684 45.9197 37.3931 46.0705 37.3931 46.1459C37.9203 47.6535 40.6318 47.4274 41.9123 47.352C43.3434 47.2012 44.7745 47.0505 46.2055 47.2012C46.9587 47.2766 47.5613 47.8043 48.0885 48.3319C48.1639 48.4827 48.2392 48.5581 48.3145 48.7088C49.5196 50.7441 49.6703 53.9855 48.8417 56.247C48.3145 57.7546 46.6575 58.9607 45.4523 60.3175C44.1719 61.9005 41.9123 62.4282 39.6527 62.8051C40.3306 63.4081 41.0084 63.8604 41.385 63.9358H44.8498C45.603 63.7097 48.6158 60.9206 48.6158 60.9206C48.6158 60.9206 51.7792 56.5485 51.7792 52.3271C51.7039 47.4274 51.7039 42.1507 46.9587 40.3416Z" fill="#F0B990"/>
<path d="M35.4349 52.4777C35.7362 53.7592 35.3596 54.8899 34.6817 55.0407C34.0038 55.1914 33.1753 54.2869 32.874 53.0054C32.5728 51.7239 32.9494 50.5932 33.6272 50.4424C34.3051 50.2917 35.1336 51.1962 35.4349 52.4777Z" fill="#FFC89F"/>
<path d="M50.5742 52.4777C50.273 53.7592 50.6496 54.8899 51.3274 55.0407C52.0053 55.1914 52.8338 54.2869 53.1351 53.0054C53.4364 51.7239 53.0598 50.5932 52.3819 50.4424C51.704 50.2917 50.8755 51.1962 50.5742 52.4777Z" fill="#F0B990"/>
<path d="M52.3065 42.6029C51.1767 39.06 47.2601 37.7785 42.9668 38.0046C38.6736 37.7785 34.8322 39.06 33.6271 42.6029C33.1752 43.8843 33.6271 49.161 34.0037 50.5179C34.1544 51.2717 34.9076 55.0407 35.2089 52.327C35.2089 51.7994 35.5855 47.1257 36.188 46.2965C37.3178 44.4874 39.0502 44.412 39.954 45.0151C40.9332 45.6181 41.7617 45.6935 42.9668 45.6181C44.172 45.6935 44.9252 45.6181 45.9796 45.0151C46.9588 44.412 48.6158 44.4874 49.7457 46.2965C50.2729 47.1257 50.6495 51.7994 50.7248 52.327C50.9508 55.0407 51.704 51.2717 51.9299 50.4425C52.3065 49.161 52.6831 43.8843 52.3065 42.6029Z" fill="#1A222B"/>
<path d="M51.5527 41.0953C49.745 38.3062 45.1505 35.9694 39.2755 37.1001C35.9614 37.7785 35.2082 40.1153 35.1329 40.1907C32.4214 41.6983 33.8525 45.3166 35.8861 45.6935C36.338 45.7689 36.7147 46.0704 37.0159 46.1458C37.7691 46.3719 38.5977 46.3719 39.4262 46.2966C42.0624 46.0704 45.0752 45.3166 47.7114 45.7689C49.2931 46.0704 51.1008 46.8242 52.3059 48.4072C52.3059 48.558 52.9085 43.2813 51.5527 41.0953Z" fill="#1A222B"/>
<path d="M50.9507 88.3591H37.6944C38.5229 83.5347 39.0501 79.9918 38.8242 79.5395C38.1463 78.258 37.3931 77.2027 36.4893 76.1474C36.9412 74.4136 37.6944 72.9814 39.1255 71.5491C39.954 70.7199 41.6864 68.2324 42.9668 68.157C44.2472 68.2324 45.9043 70.7199 46.8081 71.5491C48.2392 72.906 48.9924 74.4136 49.4443 76.1474C49.2184 76.4489 49.8963 81.5748 50.9507 88.3591Z" fill="#C5D5E6"/>
<path d="M46.2054 88.3592H39.8032L41.2343 70.4939L42.5901 71.7C42.6654 71.7754 42.816 71.8508 42.9667 71.8508C43.1173 71.8508 43.268 71.7754 43.3433 71.7L44.699 70.4939L46.2054 88.3592Z" fill="#FF4140"/>
<path d="M46.1302 68.8354L42.9668 67.8555L39.8786 68.8354C39.502 69.0616 39.502 69.8154 39.8786 70.0415L40.5565 70.4184L42.5148 71.5491C42.6655 71.6245 42.8161 71.6999 43.0421 71.6999C43.1927 71.6999 43.4187 71.6245 43.5693 71.5491L45.5277 70.343L46.1302 69.9661C46.5068 69.8154 46.5068 69.0616 46.1302 68.8354Z" fill="#CC2221"/>
<path d="M42.9666 67.9309C42.8913 67.9309 36.7903 62.2019 36.7903 62.2019L35.4346 66.7248L37.4682 75.2428L42.9666 67.9309Z" fill="white"/>
<path d="M42.9668 67.9309C43.0421 67.9309 49.1431 62.2019 49.1431 62.2019L50.4988 66.7248L48.4652 75.2428L42.9668 67.9309Z" fill="white"/>
<path d="M40.1047 88.3591L40.2553 86.173C39.1255 83.007 37.0919 73.7352 37.0919 73.7352L35.8114 65.2925L22.0278 71.2476L16.4541 88.3591H40.1047Z" fill="#17283D"/>
<path d="M69.2538 88.3591L64.8852 70.6445L50.0471 65.2925L50.3484 73.9613L47.5615 88.3591H69.2538Z" fill="#17283D"/>
<path d="M31.5184 75.7706L36.9414 88.3593H40.4815L35.9623 64.9158L29.8613 70.494L34.7571 72.6046L31.5184 75.7706Z" fill="#15202E"/>
<path d="M54.4156 75.7706L49.0679 88.3593H45.5278L50.047 64.9158L56.148 70.494L51.2522 72.6046L54.4156 75.7706Z" fill="#15202E"/>
<path d="M43.1926 39.4369C43.042 39.3615 42.8914 39.3615 42.7407 39.2862C44.7744 40.7184 46.6574 42.4522 48.1638 44.4121C47.8625 43.4321 47.4859 42.5275 47.034 41.623C47.9378 41.9999 48.8417 43.0552 49.5949 43.6583C48.6157 41.4722 47.034 39.8892 45.0756 38.6831C45.8289 39.5123 46.5821 40.2661 47.4106 41.0953C46.7327 40.643 45.9795 40.1907 45.3016 39.7384C45.6782 40.2661 46.0548 40.7938 46.5067 41.2461C45.5276 40.5676 44.3978 39.8892 43.1926 39.4369Z" fill="#494948"/>
<path d="M132.372 26.0191V50.9702C132.372 51.4979 131.996 51.8748 131.468 51.8748H92.8291C92.3019 51.8748 91.9253 51.4979 91.9253 50.9702V26.0191C91.9253 25.4914 92.3019 25.1145 92.8291 25.1145H131.468C131.92 25.1145 132.372 25.4914 132.372 26.0191Z" fill="#1A222B"/>
<path d="M130.64 26.0191V50.9702C130.64 51.4979 130.263 51.8748 129.736 51.8748H91.0967C90.5695 51.8748 90.1929 51.4979 90.1929 50.9702V26.0191C90.1929 25.4914 90.5695 25.1145 91.0967 25.1145H129.736C130.263 25.1145 130.64 25.4914 130.64 26.0191Z" fill="#2C3540"/>
<path d="M129.209 49.6134C129.209 50.1411 128.832 50.518 128.305 50.518H92.5279C92.0006 50.518 91.624 50.1411 91.624 49.6134V27.376C91.624 26.8483 92.0006 26.4714 92.5279 26.4714H128.305C128.832 26.4714 129.209 26.8483 129.209 27.376V49.6134Z" fill="#E4E8ED"/>
<path d="M126.573 39.0599C126.573 43.6582 119.191 47.4272 110.153 47.4272C101.114 47.4272 93.7329 43.6582 93.7329 39.0599C93.7329 34.4617 101.114 30.6926 110.153 30.6926C119.266 30.6926 126.573 34.4617 126.573 39.0599Z" fill="#16405E"/>
<path d="M100.06 36.9494C100.06 35.4418 100.964 34.9895 102.094 34.9895C103.148 34.9895 104.429 35.1403 105.031 35.291V36.4217C104.353 36.3464 102.847 36.3464 102.546 36.3464C101.943 36.3464 101.566 36.3464 101.566 37.1002V37.4771C101.566 38.0801 101.792 38.2309 102.395 38.2309H103.6C105.107 38.2309 105.408 39.3616 105.408 40.2662V40.7185C105.408 42.4522 104.353 42.7537 103.299 42.7537C102.018 42.7537 101.19 42.6784 100.361 42.4522V41.3215C100.738 41.3969 102.018 41.3969 102.998 41.3969C103.449 41.3969 103.901 41.3215 103.901 40.7185V40.3416C103.901 39.8893 103.751 39.6631 103.223 39.6631H102.094C100.286 39.6631 100.135 38.3063 100.135 37.6278V36.9494H100.06Z" fill="white"/>
<path d="M106.161 35.0649H109.475C110.68 35.0649 111.508 35.5926 111.508 37.4018C111.508 39.2863 110.755 39.5124 110.303 39.5878L111.734 42.5277H110.077L108.797 39.6632L107.517 39.5124V42.5277H106.085V35.0649H106.161ZM109.324 38.5325C109.851 38.5325 110.077 38.3817 110.077 37.4771C110.077 36.6479 109.776 36.4218 109.324 36.4218H107.592V38.5325H109.324Z" fill="white"/>
<path d="M113.015 35.0649H115.049L116.329 40.1909L117.61 35.0649H119.643L120.321 42.603H118.89L118.363 37.5525L117.158 42.603H115.576L114.296 37.5525L113.844 42.603H112.413L113.015 35.0649Z" fill="white"/>
<path opacity="0.3" d="M91.624 49.6134V27.376C91.624 26.8483 92.0006 26.4714 92.5279 26.4714H128.305L91.624 49.6134Z" fill="white"/>
<path d="M103.975 51.8748H75.0522V52.4024C75.0522 54.5885 76.8599 56.3976 79.0442 56.3976H103.975H128.379C130.563 56.3976 132.371 54.5885 132.371 52.4024V51.8748H103.975Z" fill="#1A222B"/>
<path d="M89.1382 51.8748H74.6768V52.4024C74.6768 54.5885 76.4844 56.3976 78.6687 56.3976H89.1382H113.542C115.726 56.3976 117.534 54.5885 117.534 52.4024V51.8748H89.1382Z" fill="#1A222B"/>
<path d="M67.3706 117.758V123.487C67.3706 125.673 64.4331 127.482 60.4411 128.085C59.5373 128.236 58.6335 128.311 57.6543 128.311C56.3739 128.311 55.0934 128.16 53.9636 127.934C50.4236 127.18 47.938 125.522 47.938 123.487V117.758C47.938 119.793 50.4236 121.451 53.9636 122.205C55.0934 122.431 56.3739 122.582 57.6543 122.582C58.6335 122.582 59.5373 122.507 60.4411 122.356C64.4331 121.753 67.3706 119.868 67.3706 117.758Z" fill="#15202E"/>
<path d="M57.6543 112.933C52.3066 112.933 47.938 115.119 47.938 117.758C47.938 120.396 52.3066 122.582 57.6543 122.582C63.002 122.582 67.3706 120.396 67.3706 117.758C67.3706 115.044 63.002 112.933 57.6543 112.933Z" fill="#16405E"/>
<path d="M67.3706 110.069V115.798C67.3706 117.984 64.4331 119.793 60.4411 120.396C59.5373 120.547 58.6335 120.622 57.6543 120.622C56.3739 120.622 55.0934 120.472 53.9636 120.246C50.4236 119.492 47.938 117.833 47.938 115.798V110.069C47.938 112.104 50.4236 113.763 53.9636 114.517C55.0934 114.743 56.3739 114.893 57.6543 114.893C58.6335 114.893 59.5373 114.818 60.4411 114.667C64.4331 114.14 67.3706 112.255 67.3706 110.069Z" fill="#15202E"/>
<path d="M57.6543 105.32C52.3066 105.32 47.938 107.506 47.938 110.144C47.938 112.783 52.3066 114.969 57.6543 114.969C63.002 114.969 67.3706 112.783 67.3706 110.144C67.3706 107.431 63.002 105.32 57.6543 105.32Z" fill="#16405E"/>
<path d="M67.3706 102.456V108.185C67.3706 110.371 64.4331 112.18 60.4411 112.783C59.5373 112.934 58.6335 113.009 57.6543 113.009C56.3739 113.009 55.0934 112.858 53.9636 112.632C50.4236 111.878 47.938 110.22 47.938 108.185V102.456C47.938 104.491 50.4236 106.149 53.9636 106.903C55.0934 107.129 56.3739 107.28 57.6543 107.28C58.6335 107.28 59.5373 107.205 60.4411 107.054C64.4331 106.526 67.3706 104.642 67.3706 102.456Z" fill="#15202E"/>
<path d="M57.6543 97.6311C52.3066 97.6311 47.938 99.8172 47.938 102.455C47.938 105.094 52.3066 107.28 57.6543 107.28C63.002 107.28 67.3706 105.094 67.3706 102.455C67.3706 99.8172 63.002 97.6311 57.6543 97.6311Z" fill="#16405E"/>
<path d="M57.6544 99.2141C54.0391 99.2141 51.1016 100.646 51.1016 102.456C51.1016 104.265 54.0391 105.697 57.6544 105.697C61.2698 105.697 64.2073 104.265 64.2073 102.456C64.2073 100.646 61.2698 99.2141 57.6544 99.2141Z" fill="#17283D"/>
<path d="M60.3657 107.054V112.783C59.4619 112.934 58.558 113.009 57.5789 113.009C56.2984 113.009 55.018 112.858 53.8882 112.632V106.903C55.018 107.129 56.2984 107.28 57.5789 107.28C58.558 107.28 59.5372 107.205 60.3657 107.054Z" fill="#17283D"/>
<path d="M60.3657 114.743V120.472C59.4619 120.622 58.558 120.698 57.5789 120.698C56.2984 120.698 55.018 120.547 53.8882 120.321V114.592C55.018 114.818 56.2984 114.969 57.5789 114.969C58.558 114.893 59.5372 114.818 60.3657 114.743Z" fill="#17283D"/>
<path d="M57.6541 122.507C58.6332 122.507 59.5371 122.431 60.4409 122.281V128.01C59.5371 128.16 58.6332 128.236 57.6541 128.236C56.3736 128.236 55.0932 128.085 53.9634 127.859V122.13C55.0932 122.431 56.2983 122.507 57.6541 122.507Z" fill="#17283D"/>
<path d="M44.0215 117.758V123.487C44.0215 125.673 41.084 127.482 37.092 128.085C36.1882 128.236 35.2843 128.311 34.3052 128.311C33.0247 128.311 31.7443 128.16 30.6145 127.934C27.0744 127.18 24.5889 125.522 24.5889 123.487V117.758C24.5889 119.793 27.0744 121.451 30.6145 122.205C31.7443 122.431 33.0247 122.582 34.3052 122.582C35.2843 122.582 36.1882 122.507 37.092 122.356C41.084 121.753 44.0215 119.868 44.0215 117.758Z" fill="#14B0BF"/>
<path d="M34.3052 112.933C28.9574 112.933 24.5889 115.119 24.5889 117.758C24.5889 120.396 28.9574 122.582 34.3052 122.582C39.6529 122.582 44.0215 120.396 44.0215 117.758C44.0215 115.044 39.6529 112.933 34.3052 112.933Z" fill="#17C5CC"/>
<path d="M44.0215 110.069V115.798C44.0215 117.984 41.084 119.793 37.092 120.396C36.1882 120.547 35.2843 120.622 34.3052 120.622C33.0247 120.622 31.7443 120.472 30.6145 120.246C27.0744 119.492 24.5889 117.833 24.5889 115.798V110.069C24.5889 112.104 27.0744 113.763 30.6145 114.517C31.7443 114.743 33.0247 114.893 34.3052 114.893C35.2843 114.893 36.1882 114.818 37.092 114.667C41.084 114.14 44.0215 112.255 44.0215 110.069Z" fill="#14B0BF"/>
<path d="M34.3052 105.32C28.9574 105.32 24.5889 107.506 24.5889 110.144C24.5889 112.783 28.9574 114.969 34.3052 114.969C39.6529 114.969 44.0215 112.783 44.0215 110.144C44.0215 107.431 39.6529 105.32 34.3052 105.32Z" fill="#17C5CC"/>
<path d="M44.0215 102.456V108.185C44.0215 110.371 41.084 112.18 37.092 112.783C36.1882 112.934 35.2843 113.009 34.3052 113.009C33.0247 113.009 31.7443 112.858 30.6145 112.632C27.0744 111.878 24.5889 110.22 24.5889 108.185V102.456C24.5889 104.491 27.0744 106.149 30.6145 106.903C31.7443 107.129 33.0247 107.28 34.3052 107.28C35.2843 107.28 36.1882 107.205 37.092 107.054C41.084 106.526 44.0215 104.642 44.0215 102.456Z" fill="#14B0BF"/>
<path d="M34.3052 97.6311C28.9574 97.6311 24.5889 99.8172 24.5889 102.455C24.5889 105.094 28.9574 107.28 34.3052 107.28C39.6529 107.28 44.0215 105.094 44.0215 102.455C44.0215 99.8172 39.6529 97.6311 34.3052 97.6311Z" fill="#17C5CC"/>
<path d="M34.3053 99.2141C30.6899 99.2141 27.7524 100.646 27.7524 102.456C27.7524 104.265 30.6899 105.697 34.3053 105.697C37.9207 105.697 40.8582 104.265 40.8582 102.456C40.8582 100.646 37.9207 99.2141 34.3053 99.2141Z" fill="#22DDDD"/>
<path d="M37.0918 107.054V112.783C36.188 112.934 35.2841 113.009 34.305 113.009C33.0245 113.009 31.7441 112.858 30.6143 112.632V106.903C31.7441 107.129 33.0245 107.28 34.305 107.28C35.2841 107.28 36.188 107.205 37.0918 107.054Z" fill="#1AB9C1"/>
<path d="M37.0918 114.743V120.472C36.188 120.622 35.2841 120.698 34.305 120.698C33.0245 120.698 31.7441 120.547 30.6143 120.321V114.592C31.7441 114.818 33.0245 114.969 34.305 114.969C35.2841 114.893 36.188 114.818 37.0918 114.743Z" fill="#1AB9C1"/>
<path d="M34.305 122.507C35.2841 122.507 36.188 122.431 37.0918 122.281V128.01C36.188 128.16 35.2841 128.236 34.305 128.236C33.0245 128.236 31.7441 128.085 30.6143 127.859V122.13C31.7441 122.431 33.0245 122.507 34.305 122.507Z" fill="#1AB9C1"/>
<path d="M56.2231 125.221V130.95C56.2231 133.136 53.2857 134.945 49.2937 135.548C48.3898 135.699 47.486 135.774 46.5068 135.774C45.2264 135.774 43.9459 135.623 42.8161 135.397C39.2761 134.643 36.7905 132.985 36.7905 130.95V125.221C36.7905 127.256 39.2761 128.914 42.8161 129.668C43.9459 129.894 45.2264 130.045 46.5068 130.045C47.486 130.045 48.3898 129.97 49.2937 129.819C53.2857 129.291 56.2231 127.407 56.2231 125.221Z" fill="#C5D5E6"/>
<path d="M46.5068 120.396C41.1591 120.396 36.7905 122.582 36.7905 125.221C36.7905 127.859 41.1591 130.045 46.5068 130.045C51.8546 130.045 56.2231 127.859 56.2231 125.221C56.2231 122.582 51.9299 120.396 46.5068 120.396Z" fill="#97B0CC"/>
<path d="M56.2231 117.607V123.336C56.2231 125.522 53.2857 127.331 49.2937 127.934C48.3898 128.085 47.486 128.161 46.5068 128.161C45.2264 128.161 43.9459 128.01 42.8161 127.784C39.2761 127.03 36.7905 125.371 36.7905 123.336V117.607C36.7905 119.642 39.2761 121.301 42.8161 122.055C43.9459 122.281 45.2264 122.432 46.5068 122.432C47.486 122.432 48.3898 122.356 49.2937 122.205C53.2857 121.602 56.2231 119.793 56.2231 117.607Z" fill="#C5D5E6"/>
<path d="M46.5068 112.783C41.1591 112.783 36.7905 114.969 36.7905 117.607C36.7905 120.245 41.1591 122.431 46.5068 122.431C51.8546 122.431 56.2231 120.245 56.2231 117.607C56.2231 114.969 51.9299 112.783 46.5068 112.783Z" fill="#97B0CC"/>
<path d="M56.2231 109.994V115.723C56.2231 117.909 53.2857 119.718 49.2937 120.321C48.3898 120.472 47.486 120.547 46.5068 120.547C45.2264 120.547 43.9459 120.396 42.8161 120.17C39.2761 119.416 36.7905 117.758 36.7905 115.723V109.994C36.7905 112.029 39.2761 113.687 42.8161 114.441C43.9459 114.667 45.2264 114.818 46.5068 114.818C47.486 114.818 48.3898 114.743 49.2937 114.592C53.2857 113.989 56.2231 112.18 56.2231 109.994Z" fill="#C5D5E6"/>
<path d="M46.5068 105.169C41.1591 105.169 36.7905 107.355 36.7905 109.994C36.7905 112.632 41.1591 114.818 46.5068 114.818C51.8546 114.818 56.2231 112.632 56.2231 109.994C56.2231 107.355 51.9299 105.169 46.5068 105.169Z" fill="white"/>
<path d="M46.507 106.903C43.0422 106.903 40.2554 108.335 40.2554 109.993C40.2554 111.727 43.0422 113.084 46.507 113.084C49.9717 113.084 52.8339 111.727 52.8339 109.993C52.8339 108.26 50.047 106.903 46.507 106.903Z" fill="#C5D5E6"/>
<path d="M49.2935 114.592V120.321C48.3896 120.472 47.4858 120.547 46.5066 120.547C45.2262 120.547 43.9457 120.396 42.8159 120.17V114.441C43.9457 114.667 45.2262 114.818 46.5066 114.818C47.4858 114.818 48.3896 114.743 49.2935 114.592Z" fill="white"/>
<path d="M49.2935 122.205V127.934C48.3896 128.085 47.4858 128.16 46.5066 128.16C45.2262 128.16 43.9457 128.01 42.8159 127.783V122.054C43.9457 122.281 45.2262 122.431 46.5066 122.431C47.4858 122.431 48.3896 122.356 49.2935 122.205Z" fill="white"/>
<path d="M46.5066 130.045C47.4858 130.045 48.3896 129.969 49.2935 129.819V135.548C48.3896 135.698 47.4858 135.774 46.5066 135.774C45.2262 135.774 43.9457 135.623 42.8159 135.397V129.668C44.021 129.894 45.2262 130.045 46.5066 130.045Z" fill="white"/>
<path d="M134.933 116.853H126.497V118.512H134.933H143.444V116.853H134.933Z" fill="#1A222B"/>
<path d="M133.803 105.546H129.284V116.853H133.803H138.322V105.546H133.803Z" fill="#1A222B"/>
<path d="M129.284 116.853H120.848V118.512H129.284H137.795V116.853H129.284Z" fill="#2C3540"/>
<path d="M130.037 105.546H125.518V116.853H130.037H134.556V105.546H130.037Z" fill="#1A222B"/>
<path opacity="0.5" d="M134.481 105.546H125.518V113.537H134.481V105.546Z" fill="#2C3540"/>
<path d="M149.394 89.6407V110.973C149.394 111.426 149.018 111.727 148.641 111.727H115.575C115.124 111.727 114.822 111.35 114.822 110.973V89.6407C114.822 89.1884 115.199 88.8869 115.575 88.8869H148.641C149.018 88.8115 149.394 89.1884 149.394 89.6407Z" fill="#1A222B"/>
<path d="M147.963 89.6407V110.973C147.963 111.426 147.586 111.727 147.21 111.727H114.144C113.692 111.727 113.391 111.35 113.391 110.973V89.6407C113.391 89.1884 113.768 88.8869 114.144 88.8869H147.135C147.586 88.8115 147.963 89.1884 147.963 89.6407Z" fill="#2C3540"/>
<path d="M146.682 109.767C146.682 110.22 146.306 110.521 145.929 110.521H115.425C114.973 110.521 114.671 110.144 114.671 109.767V90.7714C114.671 90.3191 115.048 90.0176 115.425 90.0176H145.929C146.381 90.0176 146.682 90.3945 146.682 90.7714V109.767Z" fill="#E4E8ED"/>
<path opacity="0.3" d="M114.596 109.767V90.7714C114.596 90.3191 114.973 90.0176 115.349 90.0176H145.854L114.596 109.767Z" fill="white"/>
<path d="M135.535 90.8474H115.048V108.939H135.535V90.8474Z" fill="white"/>
<path d="M146.231 90.8467H135.987V108.938H146.231V90.8467Z" fill="white"/>
<path d="M146.231 90.8467H135.987V94.3142H146.231V90.8467Z" fill="#C5D5E6"/>
<path d="M145.327 95.3696H136.891V96.6511H145.327V95.3696Z" fill="#C5D5E6"/>
<path d="M145.327 97.6309H136.891V98.9123H145.327V97.6309Z" fill="#C5D5E6"/>
<path d="M135.535 90.8474H115.048V94.3149H135.535V90.8474Z" fill="#FF4140"/>
<path d="M118.137 96.275C118.137 95.672 117.609 95.1443 117.007 95.1443C116.404 95.1443 115.877 95.672 115.877 96.275C115.877 96.878 116.404 97.4057 117.007 97.4057C117.685 97.4057 118.137 96.878 118.137 96.275Z" fill="#E4E8ED"/>
<path d="M120.923 96.274C120.923 95.671 120.396 95.1433 119.793 95.1433C119.191 95.1433 118.664 95.671 118.664 96.274C118.664 96.8771 119.191 97.4047 119.793 97.4047C120.396 97.4047 120.923 96.8771 120.923 96.274Z" fill="#E4E8ED"/>
<path d="M123.71 96.274C123.71 95.671 123.183 95.1433 122.58 95.1433C121.978 95.1433 121.451 95.671 121.451 96.274C121.451 96.8771 121.978 97.4047 122.58 97.4047C123.183 97.4047 123.71 96.8771 123.71 96.274Z" fill="#E4E8ED"/>
<path d="M126.422 96.274C126.422 95.671 125.894 95.1433 125.292 95.1433C124.689 95.1433 124.162 95.671 124.162 96.274C124.162 96.8771 124.689 97.4047 125.292 97.4047C125.97 97.4047 126.422 96.8771 126.422 96.274Z" fill="#C5D5E6"/>
<path d="M129.209 96.274C129.209 95.671 128.682 95.1433 128.079 95.1433C127.476 95.1433 126.949 95.671 126.949 96.274C126.949 96.8771 127.476 97.4047 128.079 97.4047C128.682 97.4047 129.209 96.8771 129.209 96.274Z" fill="#C5D5E6"/>
<path d="M131.995 96.274C131.995 95.671 131.468 95.1433 130.866 95.1433C130.263 95.1433 129.736 95.671 129.736 96.274C129.736 96.8771 130.263 97.4047 130.866 97.4047C131.468 97.4047 131.995 96.8771 131.995 96.274Z" fill="#FF4140"/>
<path d="M134.707 96.274C134.707 95.671 134.18 95.1433 133.577 95.1433C132.975 95.1433 132.447 95.671 132.447 96.274C132.447 96.8771 132.975 97.4047 133.577 97.4047C134.255 97.4047 134.707 96.8771 134.707 96.274Z" fill="#FF4140"/>
<path d="M118.137 99.6664C118.137 99.0633 117.609 98.5356 117.007 98.5356C116.404 98.5356 115.877 99.0633 115.877 99.6664C115.877 100.269 116.404 100.797 117.007 100.797C117.685 100.797 118.137 100.269 118.137 99.6664Z" fill="#C5D5E6"/>
<path d="M120.923 99.6664C120.923 99.0633 120.396 98.5356 119.793 98.5356C119.191 98.5356 118.664 99.0633 118.664 99.6664C118.664 100.269 119.191 100.797 119.793 100.797C120.396 100.797 120.923 100.269 120.923 99.6664Z" fill="#C5D5E6"/>
<path d="M123.71 99.6664C123.71 99.0633 123.183 98.5356 122.58 98.5356C121.978 98.5356 121.451 99.0633 121.451 99.6664C121.451 100.269 121.978 100.797 122.58 100.797C123.183 100.797 123.71 100.269 123.71 99.6664Z" fill="#F4CD25"/>
<path d="M126.422 99.6664C126.422 99.0633 125.894 98.5356 125.292 98.5356C124.689 98.5356 124.162 99.0633 124.162 99.6664C124.162 100.269 124.689 100.797 125.292 100.797C125.97 100.797 126.422 100.269 126.422 99.6664Z" fill="#C5D5E6"/>
<path d="M129.209 99.6664C129.209 99.0633 128.682 98.5356 128.079 98.5356C127.476 98.5356 126.949 99.0633 126.949 99.6664C126.949 100.269 127.476 100.797 128.079 100.797C128.682 100.797 129.209 100.269 129.209 99.6664Z" fill="#C5D5E6"/>
<path d="M131.995 99.6664C131.995 99.0633 131.468 98.5356 130.866 98.5356C130.263 98.5356 129.736 99.0633 129.736 99.6664C129.736 100.269 130.263 100.797 130.866 100.797C131.468 100.797 131.995 100.269 131.995 99.6664Z" fill="#FF4140"/>
<path d="M134.707 99.6664C134.707 99.0633 134.18 98.5356 133.577 98.5356C132.975 98.5356 132.447 99.0633 132.447 99.6664C132.447 100.269 132.975 100.797 133.577 100.797C134.255 100.797 134.707 100.269 134.707 99.6664Z" fill="#FF4140"/>
<path d="M118.137 103.058C118.137 102.455 117.609 101.928 117.007 101.928C116.404 101.928 115.877 102.455 115.877 103.058C115.877 103.661 116.404 104.189 117.007 104.189C117.685 104.189 118.137 103.661 118.137 103.058Z" fill="#F4CD25"/>
<path d="M120.923 103.058C120.923 102.455 120.396 101.928 119.793 101.928C119.191 101.928 118.664 102.455 118.664 103.058C118.664 103.661 119.191 104.189 119.793 104.189C120.396 104.189 120.923 103.661 120.923 103.058Z" fill="#F4CD25"/>
<path d="M123.71 103.058C123.71 102.455 123.183 101.928 122.58 101.928C121.978 101.928 121.451 102.455 121.451 103.058C121.451 103.661 121.978 104.189 122.58 104.189C123.183 104.189 123.71 103.661 123.71 103.058Z" fill="#C5D5E6"/>
<path d="M126.422 103.058C126.422 102.455 125.894 101.928 125.292 101.928C124.689 101.928 124.162 102.455 124.162 103.058C124.162 103.661 124.689 104.189 125.292 104.189C125.97 104.189 126.422 103.661 126.422 103.058Z" fill="#F4CD25"/>
<path d="M129.209 103.058C129.209 102.455 128.682 101.928 128.079 101.928C127.476 101.928 126.949 102.455 126.949 103.058C126.949 103.661 127.476 104.189 128.079 104.189C128.682 104.189 129.209 103.661 129.209 103.058Z" fill="#C5D5E6"/>
<path d="M131.995 103.058C131.995 102.455 131.468 101.928 130.866 101.928C130.263 101.928 129.736 102.455 129.736 103.058C129.736 103.661 130.263 104.189 130.866 104.189C131.468 104.189 131.995 103.661 131.995 103.058Z" fill="#FF4140"/>
<path d="M134.707 103.058C134.707 102.455 134.18 101.928 133.577 101.928C132.975 101.928 132.447 102.455 132.447 103.058C132.447 103.661 132.975 104.189 133.577 104.189C134.255 104.189 134.707 103.661 134.707 103.058Z" fill="#FF4140"/>
<path d="M118.137 106.451C118.137 105.847 117.609 105.32 117.007 105.32C116.404 105.32 115.877 105.847 115.877 106.451C115.877 107.054 116.404 107.581 117.007 107.581C117.685 107.581 118.137 107.054 118.137 106.451Z" fill="#C5D5E6"/>
<path d="M120.923 106.451C120.923 105.847 120.396 105.32 119.793 105.32C119.191 105.32 118.664 105.847 118.664 106.451C118.664 107.054 119.191 107.581 119.793 107.581C120.396 107.581 120.923 107.054 120.923 106.451Z" fill="#C5D5E6"/>
<path d="M123.71 106.451C123.71 105.847 123.183 105.32 122.58 105.32C121.978 105.32 121.451 105.847 121.451 106.451C121.451 107.054 121.978 107.581 122.58 107.581C123.183 107.581 123.71 107.054 123.71 106.451Z" fill="#F4CD25"/>
<path d="M126.422 106.451C126.422 105.847 125.894 105.32 125.292 105.32C124.689 105.32 124.162 105.847 124.162 106.451C124.162 107.054 124.689 107.581 125.292 107.581C125.97 107.581 126.422 107.054 126.422 106.451Z" fill="#C5D5E6"/>
<path d="M129.209 106.451C129.209 105.847 128.682 105.32 128.079 105.32C127.476 105.32 126.949 105.847 126.949 106.451C126.949 107.054 127.476 107.581 128.079 107.581C128.682 107.581 129.209 107.054 129.209 106.451Z" fill="#C5D5E6"/>
<path d="M131.995 106.451C131.995 105.847 131.468 105.32 130.866 105.32C130.263 105.32 129.736 105.847 129.736 106.451C129.736 107.054 130.263 107.581 130.866 107.581C131.468 107.581 131.995 107.054 131.995 106.451Z" fill="#FF4140"/>
<path d="M134.707 106.451C134.707 105.847 134.18 105.32 133.577 105.32C132.975 105.32 132.447 105.847 132.447 106.451C132.447 107.054 132.975 107.581 133.577 107.581C134.255 107.581 134.707 107.054 134.707 106.451Z" fill="#E4E8ED"/>
<path d="M120.019 92.2042C120.019 91.7519 120.396 91.6765 120.546 91.6765C120.546 91.6765 121.149 91.6765 121.526 91.7519V92.2042H120.697C120.546 92.2042 120.546 92.2796 120.546 92.3549V92.5057H121.375V92.958H120.546V93.1087C120.546 93.2595 120.622 93.2595 120.697 93.2595H121.45V93.7118C121.149 93.7872 120.546 93.7872 120.546 93.7872C120.32 93.7872 119.944 93.7872 119.944 93.3349V92.2042H120.019Z" fill="white"/>
<path d="M122.279 91.676L122.655 93.1083L123.032 91.676H123.635L122.957 93.8621H122.279L121.676 91.676H122.279Z" fill="white"/>
<path d="M123.634 92.2037C123.634 91.7514 124.011 91.676 124.162 91.676C124.162 91.676 124.764 91.676 125.141 91.7514V92.2037H124.312C124.162 92.2037 124.162 92.2791 124.162 92.3545V92.5052H124.99V92.9575H124.162V93.1083C124.162 93.259 124.237 93.259 124.312 93.259H125.065V93.7113C124.764 93.7867 124.162 93.7867 124.162 93.7867C123.936 93.7867 123.559 93.7867 123.559 93.3344V92.2037H123.634Z" fill="white"/>
<path d="M125.367 91.676H125.97L126.572 92.8067V91.676H127.175V93.8621H126.572L125.97 92.8067V93.8621H125.367V91.676Z" fill="white"/>
<path d="M127.25 91.676H128.907V92.2037H128.38V93.8621H127.777V92.2037H127.25V91.676Z" fill="white"/>
<path d="M129.133 92.2791C129.133 91.9022 129.359 91.676 129.735 91.676C130.187 91.676 130.413 91.676 130.639 91.7514V92.2037C130.413 92.2037 130.112 92.2037 129.961 92.2037C129.811 92.2037 129.735 92.2037 129.735 92.3545C129.735 92.4298 129.735 92.5052 129.886 92.5052H130.187C130.639 92.5052 130.715 92.8821 130.715 93.1083V93.1836C130.715 93.7113 130.413 93.8621 130.112 93.8621C129.585 93.8621 129.51 93.8621 129.208 93.7867V93.3344C129.359 93.3344 129.735 93.3344 129.961 93.3344C130.112 93.3344 130.112 93.3344 130.112 93.1836V93.1083C130.112 93.0329 130.112 92.9575 129.961 92.9575H129.66C129.133 92.9575 129.058 92.5052 129.058 92.3545V92.2791H129.133Z" fill="white"/>
<path d="M136.966 91.7515H137.494L138.096 92.8068V91.7515H138.623V93.7867H138.096L137.494 92.8068V93.7867H136.966V91.7515Z" fill="white"/>
<path d="M139.602 91.7515C140.054 91.7515 140.431 91.8268 140.431 92.8068C140.431 93.7114 140.054 93.7867 139.602 93.7867C139.075 93.7867 138.774 93.7114 138.774 92.8068C138.774 91.8268 139.151 91.7515 139.602 91.7515ZM139.602 93.3345C139.828 93.3345 139.904 93.2591 139.904 92.8068C139.904 92.3545 139.828 92.2791 139.602 92.2791C139.376 92.2791 139.301 92.3545 139.301 92.8068C139.301 93.1837 139.376 93.3345 139.602 93.3345Z" fill="white"/>
<path d="M140.582 91.7515H142.163V92.2038H141.636V93.7867H141.109V92.2038H140.582V91.7515Z" fill="white"/>
<path d="M142.239 92.2038C142.239 91.7515 142.54 91.7515 142.766 91.7515C142.766 91.7515 143.369 91.7515 143.67 91.8269V92.2791H142.917C142.766 92.2791 142.766 92.3545 142.766 92.4299V92.5807H143.519V93.0329H142.766V93.1837C142.766 93.3345 142.841 93.3345 142.917 93.3345H143.67V93.7867C143.369 93.8621 142.766 93.8621 142.766 93.8621C142.615 93.8621 142.239 93.8621 142.239 93.4098V92.2038Z" fill="white"/>
<path d="M143.82 92.2791C143.82 91.9022 144.046 91.7515 144.348 91.7515C144.724 91.7515 145.026 91.7515 145.176 91.8269V92.2791C145.026 92.2791 144.724 92.2791 144.498 92.2791C144.348 92.2791 144.272 92.2791 144.272 92.4299C144.272 92.5053 144.272 92.5807 144.423 92.5807H144.649C145.101 92.5807 145.176 92.9576 145.176 93.1837V93.2591C145.176 93.7867 144.875 93.8621 144.574 93.8621C144.046 93.8621 143.971 93.8621 143.745 93.7867V93.3345C143.82 93.3345 144.197 93.3345 144.498 93.3345C144.649 93.3345 144.649 93.3345 144.649 93.1837V93.1083C144.649 93.0329 144.649 92.9576 144.498 92.9576H144.272C143.745 92.9576 143.745 92.5053 143.745 92.3545V92.2791H143.82Z" fill="white"/>
<path d="M145.327 68.4585C145.176 68.4585 145.026 68.4585 144.875 68.4585C143.971 65.8955 141.41 64.011 138.624 64.011C135.761 64.011 133.276 65.8201 132.372 68.4585C132.221 68.4585 132.071 68.4585 131.92 68.4585C128.681 68.4585 125.97 71.0968 125.97 74.4136C125.97 77.6549 128.606 80.3687 131.92 80.3687H138.624H145.327C148.566 80.3687 151.277 77.7303 151.277 74.4136C151.277 71.0968 148.566 68.4585 145.327 68.4585Z" fill="#97B0CC"/>
<path d="M143.143 68.4585C142.992 68.4585 142.842 68.4585 142.691 68.4585C141.787 65.8955 139.226 64.011 136.439 64.011C133.577 64.011 131.092 65.8201 130.188 68.4585C130.037 68.4585 129.887 68.4585 129.736 68.4585C126.497 68.4585 123.786 71.0968 123.786 74.4136C123.786 77.6549 126.422 80.3687 129.736 80.3687H136.439H143.143C146.382 80.3687 149.093 77.7303 149.093 74.4136C149.093 71.0968 146.457 68.4585 143.143 68.4585Z" fill="white"/>
<path d="M93.5818 83.6855H92.8286V89.6406H93.5818V83.6855Z" fill="white"/>
<path d="M106.386 84.0626H80.0244V77.5044H80.7776V83.3087H105.633V77.5044H106.386V84.0626Z" fill="white"/>
<path d="M93.4311 95.1436L84.0161 101.551V101.626H93.4311H102.921V101.551L93.4311 95.1436Z" fill="#F4CD25"/>
<path d="M102.922 101.551V88.8115V88.7361L93.4312 95.1435L102.922 101.551Z" fill="#F4CD25"/>
<path d="M84.0161 88.8101V101.625L93.4311 95.1421L84.0161 88.8101Z" fill="#F4CD25"/>
<path d="M102.921 88.7361H84.0161V88.8115L93.4311 97.1788L102.921 88.7361Z" fill="#D9A60F"/>
<path d="M102.921 88.7361H84.0161V88.8115L93.4311 96.2742L102.921 88.7361Z" fill="#F4CD25"/>
<path d="M80.3257 72.2278L70.9106 78.6352H80.3257H89.816L80.3257 72.2278Z" fill="#F4CD25"/>
<path d="M89.816 78.6351V65.8957V65.8203L80.3257 72.2277L89.816 78.6351Z" fill="#F4CD25"/>
<path d="M70.9106 65.8203V65.8957V78.6351L80.3257 72.2277L70.9106 65.8203Z" fill="#F4CD25"/>
<path d="M89.816 65.8203H70.9106L80.3257 74.263L89.816 65.8203Z" fill="#D9A60F"/>
<path d="M89.816 65.8203H70.9106L80.3257 73.3584L89.816 65.8203Z" fill="#F4CD25"/>
<path d="M105.558 72.2278L96.1431 78.6352H105.558H115.048L105.558 72.2278Z" fill="#F4CD25"/>
<path d="M115.048 78.6351V65.8957V65.8203L105.558 72.2277L115.048 78.6351Z" fill="#F4CD25"/>
<path d="M96.1431 65.8203V65.8957V78.6351L105.558 72.2277L96.1431 65.8203Z" fill="#F4CD25"/>
<path d="M115.048 65.8203H96.1431L105.558 74.263L115.048 65.8203Z" fill="#D9A60F"/>
<path d="M115.048 65.8203H96.1431L105.558 73.3584L115.048 65.8203Z" fill="#F4CD25"/>
<path d="M98.3272 113.687C98.5532 113.838 98.7038 113.913 98.7038 113.913L99.909 110.672C98.7791 109.466 96.1429 108.26 96.1429 108.26L95.9923 107.581C97.7247 106.3 96.5949 104.642 96.3689 104.415C96.1429 104.189 95.5404 104.717 95.5404 104.717L93.2808 107.28L94.2599 110.747C94.7118 111.275 97.4234 113.084 98.3272 113.687Z" fill="#FFC89F"/>
<path d="M98.7793 114.29L99.7585 116.703L106.462 115.798L105.558 112.557C104.805 112.707 99.5325 114.064 98.7793 114.29Z" fill="#FFC89F"/>
<path d="M105.257 111.652L105.709 109.466C105.633 108.712 105.182 104.34 104.278 101.702L103.901 100.27C103.75 99.6665 103.073 99.2142 102.47 99.4403C102.018 99.5911 101.717 99.968 101.642 100.345L101.566 100.119C101.416 99.4403 100.662 99.0634 99.9845 99.2142C99.4572 99.3649 99.1559 99.7418 99.0806 100.27L99.0053 100.043C98.7793 99.3649 98.1015 98.9127 97.4236 99.1388C96.7457 99.3649 96.3691 100.043 96.5197 100.722C96.5197 100.722 96.5197 100.722 96.4444 100.722L94.6367 94.9928C94.4108 94.3144 93.6575 93.9375 92.9797 94.1636C92.3018 94.3898 91.9252 95.1436 92.1511 95.822C92.1511 95.822 95.4652 106.602 95.5406 106.752L96.4444 109.541L96.2938 112.029C96.4444 112.104 98.6287 113.763 98.6287 113.763L99.8338 116.778L106.537 115.873L105.257 111.652Z" fill="#FFC89F"/>
<path d="M106.387 115.798L105.257 111.652L105.709 109.466C105.634 108.712 105.182 104.34 104.278 101.702L103.901 100.27C103.751 99.7419 103.299 99.365 102.771 99.365C103.6 100.345 102.997 101.702 103.374 102.833C103.751 104.34 103.977 105.848 104.353 107.355C104.579 108.109 104.654 108.788 104.579 109.541C104.353 110.672 103.826 111.803 102.696 112.104C101.265 112.557 99.9092 113.009 98.7041 113.838L99.8339 116.627L106.387 115.798Z" fill="#F0B990"/>
<path d="M106.161 111.954L98.252 114.441L99.3064 119.944L109.098 116.853L106.161 111.954Z" fill="#FF4140"/>
<path d="M109.098 116.853L106.161 111.954L105.332 112.18C105.935 115.346 102.319 117.532 99.0054 118.21L99.3067 119.944L109.098 116.853Z" fill="#CC2221"/>
<path d="M108.797 132.985L104.805 132.306L88.2344 135.548L101.641 148.287L106.537 146.252L108.797 145.423V132.985Z" fill="#D4A47D"/>
<path opacity="0.3" d="M104.805 132.306L102.696 132.683C103.826 135.849 104.052 138.94 102.244 141.654C101.717 142.181 100.21 142.181 99.7583 141.654C97.2727 139.618 94.7118 136.075 91.699 137.131C91.3224 137.282 90.9458 137.508 90.6445 137.734L101.641 148.212L106.612 146.176L108.872 145.347V132.834L104.805 132.306Z" fill="#A88F7B"/>
<path d="M73.6972 132.909L79.045 133.663C79.045 133.663 86.2004 132.608 89.6651 133.362L90.9456 135.623L98.7036 142.634C98.7036 142.634 97.875 144.217 96.218 145.724C95.2388 146.629 85.9744 148.513 84.0914 146.704C82.811 145.498 79.6475 146.93 79.6475 146.93L74.4504 144.744L71.061 144.066L73.6972 132.909Z" fill="#FFC89F"/>
<path d="M84.7697 146.101C84.0918 145.573 84.0165 144.593 84.5438 143.915C85.071 143.237 86.0502 143.161 86.728 143.689L90.4187 146.93C91.0966 147.458 91.1719 148.438 90.6447 149.116C90.1174 149.795 89.1383 149.87 88.4604 149.342L88.0085 149.041L84.7697 146.101Z" fill="#FFC89F"/>
<path d="M89.2888 146.93C88.6109 146.402 88.5356 145.422 89.0628 144.744C89.59 144.066 90.5692 143.99 91.2471 144.518L94.9378 147.759C95.6157 148.287 95.691 149.267 95.1637 149.945C94.6365 150.624 93.6573 150.699 92.9794 150.172L92.5275 149.87L89.2888 146.93Z" fill="#FFC89F"/>
<path d="M92.678 146.026C91.9248 145.423 91.8494 144.367 92.452 143.614C93.0546 142.86 94.1091 142.784 94.8623 143.387L98.8542 146.855C99.6074 147.458 99.6828 148.513 99.0802 149.267C98.4776 150.021 97.4232 150.096 96.6699 149.493L96.218 149.116L92.678 146.026Z" fill="#FFC89F"/>
<path d="M96.8961 145.347C96.1429 144.744 96.0676 143.689 96.6701 142.935C97.2727 142.181 88.5356 133.286 89.2888 133.889L103.072 146.177C103.826 146.78 103.901 147.835 103.298 148.589C102.696 149.343 101.641 149.418 100.888 148.815L100.436 148.513L96.8961 145.347Z" fill="#FFC89F"/>
<path d="M102.319 137.658C100.361 137.131 97.3482 137.206 97.3482 137.206L92.2264 136.302C89.2136 139.543 86.1255 140.372 84.7697 140.297C83.7152 140.221 83.2633 138.638 83.3386 138.412C84.4684 136.377 92.603 131.326 92.603 131.326L102.244 132.985L102.319 137.658Z" fill="#D4A47D"/>
<path d="M111.282 138.337L109.625 130.573L104.051 131.779L105.708 139.543L107.29 147.232L112.939 146.026L111.282 138.337Z" fill="white"/>
<path d="M71.4378 130.723L69.7807 137.583L68.0483 144.518L73.0948 145.724L74.7518 138.865L76.4842 131.929L71.4378 130.723Z" fill="white"/>
<path d="M81.606 147.91C81.4553 148.589 80.7775 148.966 80.0243 148.815C79.2711 148.664 78.8191 147.986 78.9698 147.307L79.4217 145.121C79.5723 144.443 80.2502 144.066 81.0034 144.217C81.7566 144.368 82.2085 145.046 82.0579 145.724L81.606 147.91Z" fill="#D4A47D"/>
<path d="M84.3927 148.362C84.2421 149.116 83.4889 149.644 82.7357 149.418C81.9825 149.267 81.5306 148.513 81.6812 147.759L82.2084 145.272C82.3591 144.518 83.1123 143.99 83.8655 144.141C84.6187 144.292 85.0706 145.046 84.92 145.799L84.3927 148.362Z" fill="#D4A47D"/>
<path d="M87.1042 148.89C86.9535 149.568 86.2003 150.021 85.4471 149.87C84.6939 149.719 84.242 149.041 84.3926 148.362L84.8446 146.101C84.9952 145.422 85.7484 144.97 86.5016 145.121C87.2548 145.272 87.7067 145.95 87.5561 146.628L87.1042 148.89Z" fill="#D4A47D"/>
<path d="M89.59 149.493C89.4394 150.096 88.8369 150.398 88.0837 150.247C87.4058 150.096 86.9539 149.493 87.0292 148.965L87.4058 147.081C87.5564 146.478 88.159 146.176 88.9122 146.327C89.59 146.478 90.042 147.081 89.9666 147.608L89.59 149.493Z" fill="#D4A47D"/>
<path d="M113.391 137.658L111.659 129.517L105.708 130.799L107.441 138.94L109.173 147.156L115.199 145.875L113.391 137.658Z" fill="#14B0BF"/>
<path d="M110.755 129.668L105.708 130.723L107.441 138.94L108.947 145.8C113.466 142.709 108.646 134.643 110.755 129.668Z" fill="#14B0BF"/>
<path d="M115.199 145.875L113.466 137.734L111.734 129.517L110.83 129.743C108.721 134.718 113.542 142.784 108.947 145.875L109.249 147.156L115.199 145.875Z" fill="#0B7885"/>
<path d="M70.082 129.065L68.199 136.829L66.2407 144.518L71.8897 145.95L73.7727 138.186L75.7311 130.497L70.082 129.065Z" fill="#17283D"/>
<path d="M74.2247 130.12C73.0949 134.945 71.4378 141.88 66.6926 142.634L66.2407 144.518L71.8897 145.95L73.7727 138.262L75.6558 130.573L74.2247 130.12Z" fill="#15202E"/>
<path d="M63.2276 34.9895C64.1315 34.1603 65.1859 33.4065 66.2404 32.9542C66.0898 32.6527 66.0145 32.4265 65.9391 32.125C65.7885 31.6727 65.7132 31.2958 65.6379 30.8435C63.9055 30.9943 62.3238 31.7481 61.1187 32.8788L63.2276 34.9895Z" fill="white"/>
<path d="M68.8016 35.8939L71.7391 32.954C71.5884 32.8033 71.4378 32.7279 71.2872 32.5771C69.7808 32.5017 68.2743 32.7279 66.8433 33.2556C67.3705 34.1601 67.9731 35.0647 68.8016 35.8939Z" fill="white"/>
<path d="M66.7676 38.5322L69.5544 41.3213C70.3829 40.4921 71.0608 39.5121 71.5128 38.4568C70.5336 38.0045 69.5544 37.3261 68.8012 36.5723L66.7676 38.5322Z" fill="white"/>
<path d="M69.1025 36.1955C69.8557 36.9493 70.7596 37.5523 71.7387 38.0046C72.266 36.5724 72.4919 35.0648 72.4166 33.5571C72.3413 33.4064 72.1907 33.331 72.1153 33.2556L69.1025 36.1955Z" fill="white"/>
<path d="M63.6798 40.9444C62.9266 40.1906 62.0228 39.5875 61.0436 39.1353C60.5164 40.4921 60.3657 41.9244 60.441 43.3566C60.5917 43.5074 60.667 43.6581 60.8176 43.8089L63.6798 40.9444Z" fill="white"/>
<path d="M72.3417 37.5524C72.2664 37.7785 72.191 38.0046 72.1157 38.2308C72.7936 38.5323 73.4715 38.7585 74.1494 38.8338C74.1494 38.7585 74.1494 38.6077 74.1494 38.5323C74.1494 36.9493 73.6975 35.4417 72.7936 34.2356C72.8689 35.2909 72.7183 36.4216 72.3417 37.5524Z" fill="white"/>
<path d="M69.5546 41.9243C68.6507 42.8289 67.5209 43.5073 66.3911 44.035C66.5418 44.3365 66.6924 44.7134 66.7677 45.0149C66.9184 45.3918 66.9937 45.7687 67.069 46.1457C68.8767 45.9949 70.5337 45.2411 71.7388 44.035L69.5546 41.9243Z" fill="white"/>
<path d="M63.6045 35.2909L66.4667 38.1554L68.5003 36.1201C67.6718 35.2909 67.0692 34.311 66.542 33.2556C65.4122 33.7833 64.433 34.4617 63.6045 35.2909Z" fill="white"/>
<path d="M66.6924 32.7279C66.9184 32.6525 67.069 32.5772 67.295 32.5018C68.3494 32.1249 69.4792 31.9741 70.609 31.9741C69.4039 31.2203 67.9728 30.6926 66.3911 30.6926C66.3158 30.6926 66.1652 30.6926 66.0898 30.6926C66.2405 31.4464 66.4664 32.1249 66.6924 32.7279Z" fill="white"/>
<path d="M72.8686 38.9846C72.5674 38.9092 72.2661 38.7584 71.9648 38.6077C71.4376 39.7384 70.7597 40.7183 69.9312 41.6229L72.1154 43.809C73.2452 42.6029 73.9984 41.0199 74.1491 39.2861C73.6972 39.2107 73.2452 39.06 72.8686 38.9846Z" fill="white"/>
<path d="M60.5166 39.3615C60.5919 39.2107 60.5919 39.06 60.6672 38.9092C60.0646 38.6077 59.3867 38.4569 58.7842 38.3062C58.7842 38.3815 58.7842 38.3815 58.7842 38.4569C58.7842 40.0399 59.2361 41.4722 60.0646 42.6783C59.9893 41.5475 60.1399 40.4922 60.5166 39.3615Z" fill="white"/>
<path d="M65.9395 44.1858C65.7888 44.2612 65.6382 44.3366 65.4876 44.3366C64.3578 44.7135 63.3033 44.8642 62.0981 44.8642C63.3033 45.6934 64.8097 46.2211 66.3914 46.2211C66.4667 46.2211 66.4667 46.2211 66.542 46.2211C66.4667 45.5426 66.2408 44.8642 65.9395 44.1858Z" fill="white"/>
<path d="M65.7885 43.809C65.3366 42.9045 64.734 42.0753 63.9808 41.2461L61.1187 44.1106C61.194 44.186 61.3446 44.3367 61.4199 44.4121C63.0017 44.5629 64.4327 44.3367 65.7885 43.809Z" fill="white"/>
<path d="M59.9136 38.2307C60.2149 38.3061 60.5162 38.4569 60.8175 38.5322C61.3447 37.3261 62.0226 36.2708 62.9264 35.2908L60.8175 33.1802C59.6123 34.3863 58.8591 36.0447 58.7085 37.8538C59.1604 38.0046 59.537 38.0799 59.9136 38.2307Z" fill="white"/>
<path d="M69.2534 41.6228L66.4665 38.8337L64.2822 40.9444C65.0354 41.7736 65.7133 42.6782 66.1652 43.6581C67.295 43.2058 68.3495 42.452 69.2534 41.6228Z" fill="white"/>
<path d="M61.1938 38.683C62.173 39.1353 63.1522 39.8137 63.9807 40.6429L66.0897 38.5322L63.2275 35.6677C62.399 36.5723 61.7211 37.6276 61.1938 38.683Z" fill="white"/>
<path d="M70.4584 51.0454H66.3158H62.2485V50.2162V49.4624H66.3158H70.4584V50.2162V51.0454Z" fill="white"/>
<path d="M67.3705 48.9349V47.8042C66.9939 47.8796 66.6926 47.8796 66.316 47.8796C65.9394 47.8796 65.6381 47.8796 65.2615 47.8042V48.9349H63.9058V49.2364H65.2615H67.3705H68.7263V48.9349H67.3705Z" fill="white"/>
<path d="M72.944 32.1249L72.7933 31.9741L72.1155 32.6526L72.2661 32.8033C75.2789 35.9693 75.2789 41.0198 72.1155 44.1858C70.5337 45.7688 68.4248 46.598 66.3911 46.598C64.4328 46.598 62.3238 45.7689 60.8174 44.412L60.6668 44.2612L59.9136 45.015L60.0642 45.1658C61.7966 46.7488 64.2068 47.6534 66.3911 47.6534C68.726 47.6534 71.061 46.7488 72.8687 44.9397C74.601 43.2059 75.5802 40.9445 75.5802 38.5323C75.5049 36.1201 74.601 33.8586 72.944 32.1249Z" fill="white"/>
<path d="M80.7027 115.119H81.4559V114.14C81.4559 112.783 82.5857 111.652 83.9414 111.652H84.3934C85.7491 111.652 86.8789 112.783 86.8789 114.14V115.119H87.6321C87.8581 115.119 88.0087 115.12 88.2347 115.195V114.064C88.2347 111.953 86.5023 110.22 84.3934 110.22H83.9414C81.8325 110.22 80.1001 111.953 80.1001 114.064V115.195C80.3261 115.12 80.4767 115.119 80.7027 115.119Z" fill="white"/>
<path d="M87.7072 115.27H80.7025C79.648 115.27 78.7441 116.175 78.7441 117.23V122.808C78.7441 123.864 79.5727 124.768 80.7025 124.768H87.7072C88.7617 124.768 89.6656 123.939 89.6656 122.808V117.23C89.5903 116.175 88.7617 115.27 87.7072 115.27ZM84.8451 122.431V123.336H83.64V122.431C83.414 122.281 83.2634 121.979 83.2634 121.678C83.2634 121.15 83.7153 120.698 84.2425 120.698C84.7698 120.698 85.2217 121.15 85.2217 121.678C85.1464 121.979 84.9957 122.281 84.8451 122.431Z" fill="white"/>
<path d="M125.292 134.115L122.656 138.714H134.481L131.845 134.115H125.292Z" fill="white"/>
<path d="M136.138 140.146H120.999C120.848 140.146 120.697 140.071 120.622 139.92C120.547 139.769 120.547 139.618 120.622 139.468L126.196 129.743V126.804C126.196 126.577 126.422 126.351 126.648 126.351H130.489C130.715 126.351 130.941 126.577 130.941 126.804V129.743L136.514 139.468C136.59 139.618 136.59 139.769 136.514 139.92C136.439 140.071 136.289 140.146 136.138 140.146ZM121.752 139.241H135.309L130.037 130.12C129.962 130.045 129.962 129.97 129.962 129.894V127.256H127.024V129.894C127.024 129.97 127.024 130.045 126.949 130.12L121.752 139.241Z" fill="white"/>
<path d="M124.915 125.296V127.331H126.723H130.413H132.146V125.296H124.915Z" fill="white"/>
<defs>
<radialGradient id="paint0_radial" cx="0" cy="0" r="1" gradientUnits="userSpaceOnUse" gradientTransform="translate(85.4078 86.1785) rotate(90) scale(85.493 85.377)">
<stop stop-color="#23D8CF"/>
<stop offset="1" stop-color="#217C78"/>
</radialGradient>
</defs>
</svg>
