<svg width="172" height="172" viewBox="0 0 172 172" fill="none" xmlns="http://www.w3.org/2000/svg">
<path d="M165.146 113.182L165.139 113.201L165.133 113.22L164.857 114.048L164.586 114.859C163.019 119.191 161.092 123.403 158.864 127.374C158.075 128.77 157.3 130.078 156.414 131.377L156.406 131.389L156.398 131.401C155.356 132.993 154.275 134.612 153.143 136.1L153.115 136.137L153.089 136.175C152.885 136.482 152.678 136.741 152.429 137.052L152.366 137.131L152.314 137.217C152.181 137.44 152.044 137.625 151.815 137.911L151.809 137.919L151.802 137.928C146.143 145.206 139.214 151.473 131.428 156.602C130.658 157.075 129.862 157.565 129.119 158.058C128.584 158.355 128.027 158.664 127.409 159.035L127.398 159.042L127.386 159.049C126.457 159.629 125.462 160.157 124.409 160.713L124.396 160.72L124.383 160.728C123.818 161.041 123.325 161.314 122.844 161.527L122.831 161.533L122.819 161.539C122.525 161.676 122.223 161.813 121.916 161.952C121.325 162.22 120.721 162.494 120.142 162.783C120.056 162.827 119.95 162.874 119.805 162.938L119.791 162.945C119.674 162.996 119.528 163.061 119.388 163.13C119.203 163.209 119.002 163.289 118.782 163.377L118.775 163.38C118.55 163.469 118.305 163.567 118.073 163.667C117.878 163.75 117.665 163.835 117.432 163.929L117.423 163.932C117.198 164.022 116.954 164.12 116.722 164.219L116.596 164.273L116.481 164.349C116.477 164.352 116.458 164.362 116.401 164.389C116.355 164.41 116.334 164.419 116.276 164.445C116.062 164.493 115.905 164.57 115.844 164.601C115.795 164.625 115.74 164.656 115.68 164.692C106.801 168.026 97.0928 169.99 87.0294 170.171H85.8145H85.8123H85.8102H85.808H85.8058H85.8037H85.8015H85.7994H85.7972H85.7951H85.7929H85.7907H85.7886H85.7864H85.7843H85.7821H85.7799H85.7778H85.7756H85.7735H85.7713H85.7691H85.767H85.7648H85.7627H85.7605H85.7584H85.7562H85.754H85.7519H85.7497H85.7476H85.7454H85.7432H85.7411H85.7389H85.7368H85.7346H85.7325H85.7303H85.7281H85.726H85.7238H85.7217H85.7195H85.7173H85.7152H85.713H85.7109H85.7087H85.7065H85.7044H85.7022H85.7001H85.6979H85.6958H85.6936H85.6914H85.6893H85.6871H85.685H85.6828H85.6806H85.6785H85.6763H85.6742H85.672H85.6698H85.6677H85.6655H85.6634H85.6612H85.6591H85.6569H85.6547H85.6526H85.6504H85.6483H85.6461H85.6439H85.6418H85.6396H85.6375H85.6353H85.6332H85.631H85.6288H85.6267H85.6245H85.6224H85.6202H85.618H85.6159H85.6137H85.6116H85.6094H85.6072H85.6051H85.6029H85.6008H85.5986H85.5965H85.5943H85.5921H85.59H85.5878H85.5857H85.5835H85.5813H85.5792H85.577H85.5749H85.5727H85.5705H85.5684H85.5662H85.5641H85.5619H85.5598H85.5576H85.5554H85.5533H85.5511H85.549H85.5468H85.5446H85.5425H85.5403H85.5382H85.536H85.5339H85.5317H85.5295H85.5274H85.5252H85.5231H85.5209H85.5187H85.5166H85.5144H85.5123H85.5101H85.5079H85.5058H85.5036H85.5015H85.4993H85.4972H85.495H85.4928H85.4907H85.4885H85.4864H85.4842H85.482H85.4799H85.4777H85.4756H85.4734H85.4713H85.4691H85.4669H85.4648H85.4626H85.4605H85.4583H85.4561H85.454H85.4518H85.4497H85.4475H85.4454H85.4432H85.441H85.4389H85.4367H85.4346H85.4324H85.4302H85.4281H85.4259H85.4238H85.4216H85.4194H85.4173H85.4151H85.413H85.4108H85.4087H85.4065H85.4043H85.4022H85.4H85.3979H85.3957H85.3935H85.3914H85.3892H85.3871H85.3849H85.3828H85.3806H85.3784H85.3763H85.3741H85.372H85.3698H85.3676H85.3655H85.3633H85.3612H85.359H85.3568H85.3547H85.3525H85.3504H85.3482H85.3461H85.3439H85.3417H85.3396H85.3374H85.3353H85.3331H85.3309H85.3288H85.3266H85.3245H85.3223H85.3202H85.318H85.3158H85.3137H85.3115H85.3094H85.3072H85.305H85.3029H85.3007H85.2986H85.2964H85.2943H85.2921H85.2899H85.2878H85.2856H85.2835H85.2813H85.2791H85.277H85.2748H85.2727H85.2705H85.2683H85.2662H85.264H85.2619H85.2597H85.2576H85.2554H85.2532H85.2511H85.2489H85.2468H85.2446H85.2424H85.2403H85.2381H85.236H85.2338H85.2316H85.2295H85.2273H85.2252H85.223H85.2209H85.2187H85.2165H85.2144H85.2122H85.2101H85.2079H85.2057H85.2036H85.2014H85.1993H85.1971H85.1949H85.1928H85.1906H85.1885H85.1863H85.1842H85.182H85.1798H85.1777H85.1755H85.1734H85.1712H85.169H85.1669H85.1647H85.1626H85.1604H85.1583H85.1561H85.1539H85.1518H85.1496H85.1475H85.1453H85.1431H85.141H85.1388H85.1367H85.1345H85.1323H85.1302H85.128H85.1259H85.1237H85.1216H85.1194H85.1172H85.1151H85.1129H85.1108H85.1086H85.1064H85.1043H85.1021H85.1H85.0978H85.0956H85.0935H85.0913H85.0892H85.087H85.0849H85.0827H85.0805H85.0784H85.0762H85.0741H85.0719H85.0697H85.0676H85.0654H85.0633H85.0611H85.059H85.0568H85.0546H85.0525H85.0503H85.0482H85.046H85.0438H85.0417H85.0395H85.0374H85.0352H85.0331H85.0309H85.0287H85.0266H85.0244H85.0223H85.0201H85.0179H85.0158H85.0136H85.0115H85.0093H85.0071H85.005H85.0028H85.0007H84.9985H84.9964H84.9942H84.992H84.9899H84.9877H84.9856H84.9834H84.9812H84.9791H84.9769H84.9748H84.9726H84.9705H84.9683H84.9661H84.964H84.9618H84.9597H84.9575H84.9553H84.9532H84.951H84.9489H84.9467H84.9445H84.9424H84.9402H84.9381H84.9359H84.9338H84.9316H84.9294H84.9273H84.9251H84.923H84.9208H84.9186H84.9165H84.9143H84.9122H84.91H84.9079H84.9057H84.9035H84.9014H84.8992H84.8971H84.8949H84.8927H84.8906H84.8884H84.8863H84.8841H84.882H84.8798H84.8776H84.8755H84.8733H84.8712H84.869H84.8668H84.8647H84.8625H84.8604H84.8582H84.856H84.8539H84.8517H84.8496H84.8474H84.8453H84.8431H84.8409H84.8388H84.8366H84.8345H84.8323H84.8301H84.828H84.8258H84.8237H84.8215H84.8194H84.8172H84.815H84.8129H84.8107H84.8086H84.8064H84.8042H84.8021H84.7999H84.7978H84.7956H84.7934H84.7913H84.7891H84.787H84.7848H84.7827H84.7805H84.7783H84.7762H84.774H84.7719H84.7697H84.7675H84.7654H84.7632H84.7611H84.7589H84.7568H84.7546H84.7524H84.7503H84.7481H84.746H84.7438H84.7416H84.7395H84.7373H84.7352H84.733H84.7308H84.7287H84.7265H84.7244H84.7222H84.7201H84.7179H84.7157H84.7136H84.7114H84.7093H84.7085H84.7078H84.7071H84.7064H84.7057H84.7049H84.7042H84.7035H84.7028H84.7021H84.7013H84.7006H84.6999H84.6992H84.6985H84.6977H84.697H84.6963H84.6956H84.6949H84.6942H84.6934H84.6927H84.692H84.6913H84.6906H84.6898H84.6891H84.6884H84.6877H84.687H84.6862H84.6855H84.6848H84.6841H84.6834H84.6826H84.6819H84.6812H84.6805H84.6798H84.679H84.6783H84.6776H84.6769H84.6762H84.6754H84.6747H84.674H84.6733H84.6726H84.6718H84.6711H84.6704H84.6697H84.669H84.6683H84.6675H84.6668H84.6661H84.6654H84.6646H84.6639H84.6632H84.6625H84.6618H84.661H84.6603H84.6596H84.6589H84.6582H84.6575H84.6567H84.656H84.6553H84.6546H84.6539H84.6531H84.6524H84.6517H84.651H84.6503H84.6495H84.6488H84.6481H84.6474H84.6467H84.6459H84.6452H84.6445H84.6438H84.6431H84.6423H84.6416H84.6409H84.6402H84.6395H84.6387H84.638H84.6373H84.6366H84.6359H84.6352H84.6344H84.6337H84.633H84.6323H84.6316H84.6308H84.6301H84.6294H84.6287H84.628H84.6272H84.6265H84.6258H84.6251H84.6244H84.6236H84.6229H84.6222H84.6215H84.6208H84.62H84.6193H84.6186H84.6179H84.6172H84.6164H84.6157H84.615H84.6143H84.6136H84.6128H84.6121H84.6114H84.6107H84.61H84.6093H84.6085H84.6078H84.6071H84.6064H84.6057H84.6049H84.6042H84.6035H84.6028H84.6021H84.6013H84.6006H84.5999H84.5992H84.5985H84.5977H84.597H84.5963H84.5956H84.5949H84.5941H84.5934H84.5927H84.592H84.5913H84.5905H84.5898H84.5891H84.5884H84.5877H84.5869H84.5862H84.5855H84.5848H84.5841H84.5834H84.5826H84.5819H84.5812H84.5805H84.5798H84.579H84.5783H84.5776H84.5769H84.5762H84.5754H84.5747H84.574H84.5733H84.5726H84.5718H84.5711H84.5704H84.5697H84.569H84.5682H84.5675H84.5668H84.5661H84.5654H84.5646H84.5639H84.5632H84.5625H84.5618H84.561H84.5603H84.5596H84.5589H84.5582H84.5574H84.5567H84.556H84.5553H84.5546H84.5538H84.5531H84.5524H84.5517H84.551H84.5503H84.5495H84.5488H84.5481H84.5474H84.5467H84.5459H84.5452H84.5445H84.5438H84.5431H84.5423H84.5416H84.5409H84.5402H84.5395H84.5387H84.538H84.5373H84.5366H84.5359H84.5351H84.5344H84.5337H84.533H84.5323H84.5315H84.5308H84.5301H84.5294H84.5287H84.5279H84.5272H84.5265H84.5258H84.5251H84.5244H84.5236H84.5229H84.5222H84.5215H84.5208H84.52H84.5193H84.5186H84.5179H84.5172H84.5164H84.5157H84.515H84.5143H84.5136H84.5128H84.5121H84.5114H84.5107H84.51H84.5092H84.5085H84.5078H84.5071H84.5064H84.5056H84.5049H84.5042H84.5035H84.5028H84.502H84.5013H84.5006H84.4999H84.4992H84.4985H84.4977H84.497H84.4963H84.4956H84.4949H84.4941H84.4934H84.4927H84.492H84.4913H84.4905H84.4898H84.4891H84.4884H84.4877H84.4869H84.4862H84.4855H84.4848H84.4841H84.4833H84.4826H84.4819H84.4812H84.4805H84.4797H84.479H84.4783H84.4776H84.4769H84.4761H84.4754H84.4747H84.474H84.4733H84.4725H84.4718H84.4711H84.4704H84.4697H84.4689H84.4682H84.4675H84.4668H84.4661H84.4653H84.4646H84.4639H84.4632H84.4625H84.4618H84.461H84.4603H84.4596H84.4589H84.4582H84.4574H84.4567H84.456H84.4553H84.4546H84.4538H84.4531H84.4524H84.4517H84.451H84.4502H84.4495H84.4488H84.4481H84.4474H84.4466H84.4459H84.4452H84.4445H84.4438H84.443H84.4423H84.4416H84.4409H84.4402H84.4394H84.4387H84.438H84.4373H84.4366H84.4359H84.4351H84.4344H84.4337H84.433H84.4323H84.4315H84.4308H84.4301H84.4294H84.4287H84.4279H84.4272H84.4265H84.4258H84.4251H84.4243H84.4236H84.4229H84.4222H84.4215H84.4207H84.42H84.4193H84.4186H84.4179H84.4171H84.4164H84.4157H84.415H84.4143H84.4135H84.4128H84.4121H84.4114H84.4107H84.41H84.4092H84.4085H84.4078H84.4071H84.4063H84.4056H84.4049H84.4042H84.4035H84.4028H84.402H84.4013H84.4006H84.3999H84.3992H84.3984H84.3977H84.397H84.3963H84.3956H84.3948H84.3941H84.3934H84.3927H84.392H84.3912H84.3905H84.3898H84.3891H84.3884H84.3876H84.3869H84.3862H84.3855H84.3848H84.384H84.3833H84.3826H84.3819H84.3812H84.3804H84.3797H84.379H84.3783H84.3776H84.3769H84.3761H84.3754H84.3747H84.374H84.3733H84.3725H84.3718H84.3711H84.3704H84.3697H84.3689H84.3682H84.3675H84.3668H84.3661H84.3653H84.3646H84.3639H84.3632H84.3625H84.3617H84.361H84.3603H84.3596H84.3589H84.3581H84.3574H84.3567H84.356H84.3553H84.3545C74.1791 169.99 64.4971 168.068 55.542 164.533L55.4778 164.501C55.3965 164.461 55.323 164.431 55.2653 164.411C55.2575 164.408 55.2498 164.405 55.2423 164.403L55.1874 164.348L54.8516 164.236C54.4706 164.109 54.2014 164.017 53.9427 163.888L53.7918 163.812L53.7463 163.767L53.4607 163.653C53.3465 163.607 53.2396 163.57 53.1595 163.543C53.1387 163.536 53.1201 163.529 53.1032 163.523C53.0464 163.504 53.0087 163.491 52.9694 163.477C52.9434 163.467 52.9259 163.46 52.9153 163.456L52.8059 163.374L52.648 163.304C51.1238 162.634 49.6855 161.975 48.3169 161.261L48.3055 161.255L48.2939 161.25C47.916 161.061 47.6291 160.916 47.3499 160.73L47.2773 160.681L47.1996 160.642C44.2493 159.138 41.4271 157.457 38.7297 155.54L38.7206 155.534C38.3996 155.309 38.0653 155.087 37.7478 154.875L37.7408 154.871C37.4543 154.68 37.1812 154.498 36.9215 154.318C36.9129 154.309 36.904 154.3 36.8948 154.291L36.7898 154.186L36.6663 154.104C36.6669 154.104 36.6632 154.102 36.654 154.095C36.6446 154.088 36.6321 154.079 36.6143 154.065C36.6083 154.06 36.5006 153.975 36.4648 153.948C36.3444 153.855 36.1554 153.716 35.9145 153.593C35.9105 153.59 35.9054 153.587 35.8988 153.582L35.8917 153.577C35.86 153.556 35.8037 153.519 35.7295 153.475C35.266 153.128 34.8446 152.808 34.4274 152.444L34.3922 152.413L34.3551 152.384C30.6815 149.556 27.2519 146.43 24.125 143.007C23.944 142.797 23.7904 142.629 23.6507 142.475C23.428 142.231 23.2408 142.026 23.0351 141.752L22.9711 141.667L22.8957 141.591C22.6557 141.351 22.4586 141.107 22.2081 140.795C22.0608 140.611 21.9161 140.448 21.7979 140.315L21.7895 140.306C21.6636 140.164 21.5661 140.054 21.4713 139.936C21.3651 139.803 21.2368 139.656 21.1349 139.538C21.0993 139.498 21.0669 139.46 21.0398 139.429C20.9137 139.282 20.8221 139.167 20.75 139.059L20.6675 138.935L20.5625 138.83C20.5579 138.826 20.554 138.822 20.5505 138.818L20.5251 138.768L20.4227 138.641C18.1268 135.804 16.0204 132.856 14.1591 129.736L14.0634 129.576L13.9979 129.51C7.60077 118.945 3.47359 106.832 2.27052 93.8203C2.24643 93.4628 2.21766 93.1324 2.19027 92.818C2.13808 92.2187 2.09094 91.6775 2.09094 91.1173V90.9686L2.06177 90.8229C2.03427 90.6855 2.02954 90.527 2.02954 90.197V90.1629L2.02799 90.1288C1.96643 88.7757 1.90674 87.3972 1.90674 86.0865C1.90674 76.6845 3.47467 67.7043 6.31085 59.2629L6.31187 59.2599C6.68347 58.1459 7.03037 57.1095 7.4875 56.0818L7.50357 56.0457L7.51771 56.0088C16.082 33.651 33.9983 15.9277 56.4405 7.48847L56.5134 7.46108L56.583 7.42631C56.5814 7.42708 56.6147 7.41135 56.7128 7.38411C56.7584 7.37145 56.809 7.35869 56.8707 7.34372C56.8867 7.33985 56.9058 7.33525 56.9266 7.33026C56.9732 7.31907 57.0281 7.30587 57.0743 7.29433L57.1301 7.28038L57.1848 7.26219C57.3191 7.21745 57.4304 7.17295 57.5054 7.14298L57.5131 7.1399C57.5916 7.1085 57.6308 7.09319 57.676 7.07814L57.2031 5.65835L57.676 7.07813L58.0444 6.95543L58.0569 6.95128L58.0692 6.94691L59.0104 6.615C59.2701 6.55856 59.4911 6.47796 59.6232 6.42979C59.632 6.42659 59.6403 6.42353 59.6483 6.42063C59.8355 6.35262 59.8777 6.3415 59.9044 6.33706L60.0204 6.31774L60.132 6.28057C60.3142 6.21989 60.4507 6.17482 60.6355 6.12866L60.752 6.09955L60.8625 6.05227C61.1613 5.92428 61.5298 5.82856 62.0477 5.6992L62.0815 5.69076L62.1149 5.68075L63.9456 5.13198C67.1212 4.23459 70.4284 3.573 73.7502 3.09027L73.7623 3.0884C77.6749 2.48695 81.7124 2.18555 85.8145 2.18555C93.2981 2.18555 100.535 3.15027 107.467 5.01744L107.659 5.06906H107.675C107.925 5.16855 108.145 5.18794 108.264 5.19133C108.333 5.20685 108.411 5.2279 108.512 5.25683C108.528 5.26137 108.545 5.26638 108.564 5.27177C108.664 5.30051 108.8 5.33989 108.946 5.37468C109.06 5.4153 109.156 5.43941 109.217 5.45355L109.328 5.56453L109.774 5.65349C109.846 5.66795 109.931 5.69234 110.097 5.74211L110.117 5.74796C110.247 5.78712 110.438 5.84434 110.643 5.88813C110.671 5.89656 110.72 5.9137 110.831 5.95531L110.849 5.96237C110.949 5.99979 111.115 6.06194 111.297 6.11182C111.539 6.19191 111.757 6.2607 111.96 6.32515C112.431 6.47407 112.829 6.59985 113.283 6.78825C113.599 6.92762 113.923 7.04674 114.197 7.14758L114.216 7.15468C114.516 7.26522 114.761 7.35595 114.985 7.45536L115.029 7.47505L115.075 7.49184C131.415 13.5167 145.291 24.5455 155.007 38.5947C158.442 43.5933 161.337 49.0171 163.63 54.685L163.63 54.6854C166.826 62.5778 168.876 71.1309 169.479 79.982C169.601 82.2251 169.661 84.2192 169.661 86.2705C169.661 93.4352 168.697 100.486 167.008 107.12C166.462 109.179 165.861 111.216 165.146 113.182ZM54.9317 164.404H54.9301C54.9112 164.404 54.9148 164.404 54.9317 164.404Z" fill="url(#paint0_radial)" stroke="white" stroke-width="3"/>
<path d="M31.1652 147.982C1.25603 147.982 -0.83524 115.633 17.3155 102.419C35.4662 89.2052 37.5574 77.8733 24.1812 67.2863C10.8049 56.6994 15.2636 32.1533 43.8313 32.1533C72.3989 32.1533 81.9477 25.958 79.2646 16.4689C76.5814 6.97985 86.2092 4.6272 104.597 4.6272C122.984 4.6272 142.2 9.37172 135.887 25.0561C129.574 40.7405 132.849 47.6808 147.132 55.4446C161.416 63.2084 169.742 85.1665 159.049 102.459C148.316 119.711 159.246 124.613 163.902 131.788C168.558 138.964 163.192 148.375 154.866 148.375C146.541 148.375 31.1652 147.982 31.1652 147.982Z" fill="#00A99D"/>
<path d="M115.921 143.395V143.356C115.921 143.277 115.961 143.199 115.961 143.12V143.081C115.961 143.003 116 142.924 116 142.846C116 142.807 116 142.807 116 142.767C116 142.689 116.039 142.571 116.039 142.493C116.039 142.454 116.039 142.415 116.039 142.415C116.039 142.297 116.079 142.219 116.079 142.101C116.079 142.062 116.079 142.022 116.079 142.022C116.079 141.905 116.118 141.826 116.118 141.709C116.118 141.67 116.118 141.63 116.158 141.591C116.197 141.474 116.197 141.356 116.237 141.238C116.237 141.199 116.237 141.16 116.276 141.121C116.316 141.003 116.316 140.846 116.355 140.728C116.355 140.689 116.355 140.65 116.355 140.611C116.395 140.493 116.395 140.376 116.434 140.258C116.434 140.219 116.434 140.14 116.473 140.101C116.513 139.944 116.513 139.827 116.552 139.67C116.552 139.591 116.552 139.552 116.592 139.474C116.631 139.317 116.631 139.199 116.671 139.042C116.671 138.964 116.71 138.925 116.71 138.846C116.71 138.729 116.75 138.572 116.789 138.454C116.789 138.376 116.789 138.337 116.829 138.258C116.868 138.101 116.868 137.945 116.908 137.748C116.908 137.67 116.908 137.631 116.947 137.552C116.986 137.396 116.986 137.199 117.026 137.003C117.026 136.964 117.026 136.886 117.065 136.847C117.105 136.69 117.105 136.533 117.144 136.376C117.144 136.298 117.144 136.258 117.184 136.18C117.223 135.984 117.223 135.827 117.263 135.631C117.263 135.553 117.263 135.474 117.302 135.435C117.342 135.239 117.342 135.043 117.381 134.847C117.381 134.808 117.381 134.729 117.42 134.69C117.46 134.533 117.46 134.337 117.499 134.18C117.499 134.141 117.499 134.063 117.539 134.023V133.984C118.959 122.456 119.827 105.282 112.567 106.693C108.227 107.517 107.674 115.947 106.412 122.652C104.952 130.259 102.86 138.297 102.979 138.886C103.058 139.356 88.8528 138.062 81.7504 138.101C81.5531 138.101 81.3558 138.101 81.1585 138.101C81.1191 137.67 81.0796 137.356 81.0402 137.396C80.8034 137.435 77.3706 137.474 77.0944 137.748C76.5814 138.258 76.5025 146.179 76.9365 146.336C77.3706 146.532 81.198 146.924 81.1585 146.61C81.1585 146.571 81.1585 146.493 81.1585 146.414C81.8293 146.493 82.6579 146.61 83.5655 146.689C84.8676 146.806 86.4065 146.924 88.0242 147.041C88.4188 147.081 88.8528 147.081 89.2869 147.12C90.3523 147.198 91.4571 147.277 92.5619 147.316C93.6667 147.394 94.811 147.434 95.9158 147.512C102.15 147.826 108.029 148.061 109.45 148.022C110.752 147.983 111.975 147.865 112.962 147.473C113.356 147.316 113.711 147.159 114.027 146.924C114.224 146.806 114.422 146.649 114.579 146.453C114.856 146.179 115.132 145.826 115.329 145.434C115.605 144.963 115.803 144.414 115.961 143.787C115.961 143.748 116 143.669 116 143.63V143.591C115.882 143.512 115.882 143.473 115.921 143.395Z" fill="#89BFD3"/>
<path d="M110.002 114.104C110.002 114.104 108.74 141.042 107.911 143.042C107.043 145.042 80.5666 143.356 80.5666 143.356C80.5666 143.356 80.4877 145.277 80.5272 146.689C80.8428 146.689 81.0007 146.649 81.0007 146.571C81.0007 146.532 81.0007 146.453 81.0007 146.375C81.6714 146.453 82.5001 146.571 83.4076 146.649C84.7097 146.767 86.2486 146.885 87.8663 147.002C88.2609 147.041 88.695 147.041 89.129 147.081C90.1944 147.159 91.2992 147.238 92.404 147.277C93.5088 147.355 94.6531 147.394 95.758 147.473C101.992 147.786 107.872 148.022 109.292 147.983C110.594 147.943 111.817 147.826 112.804 147.434C113.198 147.277 113.554 147.12 113.869 146.885C114.066 146.767 114.264 146.61 114.422 146.414C114.698 146.14 114.974 145.787 115.171 145.395C115.447 144.924 115.645 144.375 115.803 143.748C115.803 143.709 115.842 143.63 115.842 143.591V143.552C115.842 143.473 115.882 143.434 115.882 143.356V143.316C115.882 143.238 115.921 143.16 115.921 143.081V143.042C115.921 142.964 115.96 142.885 115.96 142.807C115.96 142.767 115.96 142.767 115.96 142.728C115.96 142.65 116 142.532 116 142.454C116 142.415 116 142.375 116 142.375C116 142.258 116.039 142.179 116.039 142.062C116.039 142.022 116.039 141.983 116.039 141.983C116.039 141.866 116.079 141.787 116.079 141.67C116.079 141.63 116.079 141.591 116.118 141.552C116.158 141.434 116.158 141.317 116.197 141.199C116.197 141.16 116.197 141.121 116.237 141.081C116.276 140.964 116.276 140.807 116.316 140.689C116.316 140.65 116.316 140.611 116.316 140.572C116.355 140.454 116.355 140.336 116.394 140.219C116.394 140.18 116.394 140.101 116.434 140.062C116.473 139.905 116.473 139.787 116.513 139.631C116.513 139.552 116.513 139.513 116.552 139.435C116.592 139.278 116.592 139.16 116.631 139.003C116.631 139.003 116.631 139.003 116.631 138.964L118.052 118.888L110.002 114.104Z" fill="#719DAE"/>
<path d="M52.0779 145.12L85.5778 148.1L85.6961 149.903L52.1173 146.766L52.0779 145.12Z" fill="#717171"/>
<path d="M97.8255 147.834L85.5972 148.129L85.6402 149.893L97.8686 149.598L97.8255 147.834Z" fill="#5E5F5F"/>
<path d="M52.0779 145.12C52.0779 145.12 67.8216 144.963 68.8476 145.081C69.8735 145.198 97.8492 147.786 97.8492 147.786L85.6172 148.1L52.0779 145.12Z" fill="#505252"/>
<path d="M107.082 143.944C107.082 143.944 101.795 143.591 101.243 143.669C100.651 143.748 94.1008 140.258 93.5878 139.944C93.0749 139.631 87.2351 141.473 86.7616 141.787C86.2881 142.101 86.4854 142.885 87.3929 142.767C88.3004 142.65 91.5755 141.983 91.8911 141.905C92.2462 141.826 95.324 142.846 95.5607 143.081C95.7975 143.316 92.4041 142.963 91.8911 142.963C91.3782 143.003 86.9194 144.218 86.4065 144.454C85.854 144.728 85.8146 145.747 86.8405 145.787C87.8269 145.826 89.5631 145.277 89.5631 145.277C89.5631 145.277 87.9848 145.865 87.4718 146.022C86.9983 146.179 87.3534 147.159 88.5766 146.963C89.7998 146.806 91.8122 146.218 92.2462 146.179C92.6408 146.179 95.324 146.453 95.6002 146.649C95.8764 146.845 93.6667 147.277 93.0749 147.355C92.483 147.434 90.1155 147.159 89.9971 147.551C89.8393 147.943 90.4312 148.296 91.1809 148.453C91.9306 148.61 92.6014 148.61 93.1538 148.767C93.7062 148.884 95.6002 148.414 95.8764 148.492C96.1526 148.571 97.6915 149.276 99.2303 149.394C100.769 149.512 101.716 149.002 103.137 148.884C104.557 148.767 106.135 148.963 106.135 148.963L107.082 143.944Z" fill="#F7C8B4"/>
<path d="M127.601 97.5571C131.073 97.9884 139.675 106.654 140.306 108.536C140.937 110.418 140.069 145.198 139.99 146.179C139.912 147.12 112.015 147.159 110.949 146.924C109.923 146.728 110.002 112.653 109.963 109.948C109.963 107.203 116.316 99.949 116.316 99.949L127.601 97.5571Z" fill="#A2D0E2"/>
<path d="M117.342 115.594C117.342 115.594 118.644 119.711 119.038 120.299C119.433 120.888 120.419 120.809 120.735 120.809C121.051 120.809 122.471 117.79 123.063 115.869C123.655 113.947 119.985 110.85 119.985 110.85L117.342 115.594Z" fill="#4D4D4D"/>
<path opacity="0.47" d="M117.381 116.653C117.381 116.653 117.618 118.574 118.091 118.927C118.565 119.241 119.985 110.85 119.985 110.85C119.985 110.85 123.655 118.966 124.405 119.123C125.115 119.28 130.836 102.655 131.034 101.91C131.191 101.204 129.376 98.2239 129.376 98.2239L120.893 110.85L117.736 111.203L117.381 116.653Z" fill="#719EAF"/>
<path d="M127.561 96.1848C129.021 96.3809 130.481 101.008 130.481 101.361C130.481 101.714 123.379 118.613 122.905 118.77C122.432 118.888 119.946 110.85 119.946 110.85C119.946 110.85 117.697 118.378 117.065 118.104C116.434 117.829 114.106 104.654 113.948 103.086C113.79 101.478 115.487 98.5767 116.513 97.7925C117.578 96.9298 127.561 96.1848 127.561 96.1848Z" fill="#C6DBE4"/>
<path d="M125.825 82.6177C125.983 86.3035 127.64 98.851 127.64 98.851C127.64 98.851 120.419 110.81 119.946 110.81C119.472 110.81 116.355 100.655 116.316 99.9097C116.316 99.2039 114.737 88.068 114.737 88.068L125.825 82.6177Z" fill="#F7C8B4"/>
<path d="M126.378 88.6954C126.101 86.1859 125.865 83.8724 125.825 82.6177L114.777 88.1072C114.777 88.1072 115.763 95.126 116.158 98.3805C118.723 97.5178 123.655 95.0868 126.378 88.6954Z" fill="#F5B299"/>
<path d="M119.038 120.3C119.038 120.3 116.908 141.003 117.065 142.571C117.223 144.101 120.025 148.61 120.025 148.61C120.025 148.61 122.116 144.571 122.59 143.473C123.024 142.375 121.366 120.535 120.735 119.241C120.104 117.947 119.038 120.3 119.038 120.3Z" fill="#4D4D4D"/>
<path d="M133.283 118.849C131.941 123.279 132.612 140.689 132.612 140.689L114.146 142.963L135.256 146.806L138.688 134.494L133.283 118.849Z" fill="#82BBD0"/>
<path d="M99.033 70.8154C99.033 70.8154 101.164 77.2067 101.992 82.1473C102.86 87.1271 107.95 92.9303 111.778 94.6164C115.645 96.3025 118.683 95.4006 121.445 93.4009C124.207 91.4011 125.154 90.4208 125.864 88.8524C126.535 87.3232 127.048 84.3039 127.048 84.3039C127.048 84.3039 130.994 83.5589 131.783 79.2065C132.572 74.8541 130.876 73.1288 127.245 75.403C127.245 75.403 127.956 68.6195 128.311 66.3845C128.666 64.1103 122.353 61.3263 115.171 61.4831C110.042 61.6008 97.0206 63.7966 99.033 70.8154Z" fill="#F7C8B4"/>
<path d="M123.892 70.5016C127.482 67.051 126.89 64.7768 126.022 63.6788C125.549 63.4044 124.996 63.1691 124.365 62.9338C120.814 63.4828 103.452 66.2276 103.452 66.2276C103.452 66.2276 100.532 68.3842 98.8357 69.7173C98.8752 70.0702 98.9146 70.4623 99.033 70.8545C99.033 70.8545 99.8616 73.4032 100.73 76.54C102.9 76.0695 105.504 75.2853 107.004 74.1874C107.004 74.1874 105.425 75.3637 105.82 75.599C106.214 75.795 118.486 75.7166 123.892 70.5016Z" fill="#F5B299"/>
<path d="M101.124 75.0893C104.32 74.1874 112.212 71.7171 116.947 68.1882C116.947 68.1882 113.238 72.1485 108.385 73.7953C108.385 73.7953 119.827 73.913 123.734 67.9921C123.734 67.9921 124.049 76.4225 125.47 82.2649C125.47 82.2649 125.47 80.1867 125.983 78.1477C126.377 76.5793 127.482 75.2461 128.942 74.5403L130.481 74.4227C130.481 74.4227 134.111 66.8158 131.586 62.777C131.586 62.777 128.627 54.8956 116.829 55.1309C105.031 55.3662 99.0725 60.5028 97.8493 65.9139C96.6261 71.325 95.6791 72.3053 94.1797 73.6385C94.1797 73.6385 94.8505 74.6188 96.8234 75.1285C98.2439 75.5206 99.7038 75.4814 101.124 75.0893Z" fill="#534741"/>
<path d="M107.714 79.9514C107.832 81.2454 107.28 82.3825 106.451 82.4609C105.662 82.5393 104.873 81.5199 104.754 80.2259C104.636 78.9319 105.189 77.7948 106.017 77.7164C106.846 77.638 107.595 78.6575 107.714 79.9514Z" fill="#333333"/>
<path d="M119.314 78.3046C119.433 79.5986 118.88 80.7357 118.052 80.8141C117.263 80.8925 116.473 79.873 116.355 78.5791C116.237 77.2851 116.789 76.148 117.618 76.0696C118.446 75.9912 119.196 76.9714 119.314 78.3046Z" fill="#333333"/>
<path d="M112.094 82.2256C112.094 82.2256 111.581 84.6567 110.989 85.3625C110.397 86.0683 111.304 86.7349 113.277 86.8917C113.277 86.8917 112.251 86.3427 111.896 85.7938C111.502 85.2448 112.173 84.6567 112.094 82.2256Z" fill="#F5B299"/>
<path d="M109.963 89.7935C109.963 89.7935 114.422 89.7543 118.92 88.2251C118.92 88.2251 118.052 92.2246 114.54 92.5775C110.989 92.9304 109.963 89.7935 109.963 89.7935Z" fill="#F08D84"/>
<path d="M116.947 89.8326C118.407 89.3228 118.289 89.2052 118.21 88.4602C114.737 89.5189 111.383 89.7542 110.318 89.7934C110.476 90.1855 110.673 90.656 110.949 90.7344C111.383 90.8521 115.369 90.3815 116.947 89.8326Z" fill="white"/>
<path d="M107.161 79.2456C107.161 79.6377 106.964 79.9514 106.688 79.9514C106.412 79.9514 106.175 79.6769 106.175 79.2848C106.175 78.8927 106.372 78.579 106.648 78.579C106.925 78.5398 107.161 78.8535 107.161 79.2456Z" fill="white"/>
<path d="M118.801 77.5987C118.801 77.9908 118.604 78.3045 118.328 78.3045C118.052 78.3045 117.815 78.03 117.815 77.6379C117.815 77.2458 118.012 76.9321 118.288 76.9321C118.565 76.9321 118.801 77.2458 118.801 77.5987Z" fill="white"/>
<path d="M105.859 76.0696C105.938 76.5401 105.346 77.0106 104.557 77.1283C103.768 77.2459 103.058 76.9714 102.979 76.5401C102.9 76.0696 103.492 75.599 104.281 75.4814C105.07 75.3638 105.78 75.599 105.859 76.0696Z" fill="#534741"/>
<path d="M119.512 74.2265C119.512 74.697 118.88 75.0891 118.052 75.1284C117.223 75.1676 116.592 74.7755 116.552 74.3049C116.552 73.8344 117.184 73.4423 118.012 73.4031C118.841 73.4031 119.472 73.7952 119.512 74.2265Z" fill="#534741"/>
<path d="M108.345 84.892C108.424 85.4802 107.674 86.0684 106.688 86.2252C105.662 86.3821 104.794 86.0292 104.676 85.441C104.597 84.8528 105.346 84.2647 106.333 84.1078C107.359 83.9902 108.266 84.3431 108.345 84.892Z" fill="#F29F91"/>
<path d="M121.129 82.9707C121.169 83.5588 120.38 84.1078 119.393 84.1862C118.367 84.2646 117.499 83.8725 117.46 83.2844C117.42 82.6962 118.21 82.1472 119.196 82.0688C120.222 81.9904 121.09 82.3825 121.129 82.9707Z" fill="#F29F91"/>
<path d="M127.561 98.1846C126.851 99.2825 120.972 108.301 120.695 108.223C120.38 108.144 116.631 101.008 116.276 99.008C116.316 99.4785 116.355 99.7922 116.355 99.9099C116.355 100.616 119.512 110.811 119.985 110.811C120.459 110.811 127.679 98.8512 127.679 98.8512C127.679 98.8512 127.601 98.6159 127.561 98.1846Z" fill="#F5B299"/>
<path d="M138.531 107.87C134.23 108.928 132.928 117.672 133.125 124.809C133.322 131.945 134.032 140.964 134.151 141.552C134.269 142.14 110.555 141.356 106.135 142.297C106.135 142.297 106.412 149.198 106.885 150.257C107.359 151.315 134.072 151.315 137.307 151.119C140.543 150.923 143.029 150.021 143.66 146.414C144.291 142.807 148.75 105.36 138.531 107.87Z" fill="#91CBE0"/>
<path d="M137.268 151.119C140.503 150.923 142.989 150.021 143.62 146.414C143.818 145.355 144.331 141.238 144.725 136.102C143.936 144.689 141.569 147.59 140.424 147.394C139.28 147.198 138.609 146.532 138.609 146.532C138.609 146.532 140.424 149.355 136.597 149.551C132.769 149.786 109.647 149.865 109.686 148.963C109.726 148.218 109.331 143.356 109.174 141.944C108.029 142.022 107.082 142.101 106.451 142.218L106.648 148.963C106.727 149.551 106.806 149.982 106.885 150.217C107.319 151.315 134.032 151.315 137.268 151.119Z" fill="#74C3DE"/>
<path d="M104.478 141.826C104.754 141.513 108.187 141.317 108.424 141.277C108.661 141.238 108.818 145.551 108.818 145.551L107.24 145.826L108.818 146.179C108.818 146.179 108.897 150.61 108.937 150.923C108.976 151.237 105.149 150.962 104.715 150.806C104.281 150.61 104.005 142.375 104.478 141.826Z" fill="#B6E2EA"/>
<path d="M137.268 151.119C140.503 150.923 142.989 150.021 143.621 146.414C143.818 145.355 144.331 141.238 144.725 136.102C143.936 144.689 141.569 147.59 140.425 147.394C139.28 147.198 138.609 146.532 138.609 146.532C138.609 146.532 140.425 149.355 136.597 149.551C132.77 149.786 109.647 149.865 109.687 148.963C109.726 148.218 109.332 143.356 109.174 141.944C108.03 142.022 107.083 142.101 106.451 142.218L106.648 148.963C106.727 149.551 106.806 149.982 106.885 150.217C107.319 151.315 134.032 151.315 137.268 151.119Z" fill="#74C3DE"/>
<path d="M107.082 143.944C107.082 143.944 105.149 143.826 103.531 143.748C103.571 144.61 103.65 146.179 103.61 147.159C103.571 148.531 100.966 149.08 99.033 148.688C97.0996 148.296 96.3104 147.59 94.7321 148.218C93.1538 148.845 90.2339 148.178 90.2339 148.178C90.4706 148.335 90.7863 148.492 91.1809 148.57C91.9306 148.727 92.6014 148.727 93.1538 148.884C93.7062 149.002 95.6002 148.531 95.8764 148.61C96.1526 148.688 97.6915 149.394 99.2303 149.512C100.769 149.629 101.716 149.119 103.137 149.002C104.557 148.884 106.135 149.08 106.135 149.08L107.082 143.944Z" fill="#F5B299"/>
<path d="M104.478 141.826C104.754 141.513 108.187 141.317 108.424 141.277C108.661 141.238 108.818 145.551 108.818 145.551L107.24 145.826L108.818 146.179C108.818 146.179 108.897 150.61 108.937 150.923C108.976 151.237 105.149 150.962 104.715 150.806C104.281 150.61 104.005 142.375 104.478 141.826Z" fill="#B6E2EA"/>
<path d="M116 94.8125L115.882 94.1067C115.921 94.1067 121.011 93.3617 124.286 90.1856C127.561 87.0095 128.192 81.9513 128.232 81.9121L128.587 81.9513L128.903 81.7944C129.061 82.0689 128.587 83.9903 128.192 85.0882C127.64 86.6958 126.614 88.9701 124.799 90.6953C121.327 94.0283 116.197 94.7733 116 94.8125Z" fill="#999999"/>
<path d="M117.184 95.7928L114.027 96.4202C113.238 96.5771 112.449 96.0673 112.291 95.2831C112.133 94.4989 112.646 93.7147 113.435 93.5578L116.592 92.9305C117.381 92.7736 118.17 93.2834 118.328 94.0676C118.486 94.8518 117.973 95.636 117.184 95.7928Z" fill="#666666"/>
<path d="M116.592 92.9302L113.435 93.5576C112.646 93.7144 112.133 94.4986 112.291 95.2829C112.33 95.4397 112.37 95.5573 112.449 95.675C112.725 95.8318 113.08 95.871 113.396 95.8318L116.552 95.2044C117.342 95.0476 117.855 94.2634 117.697 93.4792C117.657 93.3223 117.618 93.2047 117.539 93.087C117.263 92.891 116.947 92.8518 116.592 92.9302Z" fill="#717171"/>
<path d="M107.359 56.621C107.359 56.621 118.052 53.6017 123.694 60.4244C129.337 67.2471 128.745 79.0888 128.745 79.0888L130.757 78.3438L129.929 70.188L125.154 59.2481C125.154 59.2873 117.539 52.6214 107.359 56.621Z" fill="#CCCCCC"/>
<path d="M107.359 56.6235C107.359 56.6235 128.232 49.1734 129.258 75.6408L130.876 76.3074C130.876 76.3074 130.757 55.1727 115.526 55.3687C115.487 55.3687 110.081 55.2119 107.359 56.6235Z" fill="white"/>
<path d="M133.717 79.7556C133.204 82.6573 131.27 84.7747 129.376 84.4218C127.482 84.1081 126.377 81.4809 126.89 78.5793C127.403 75.6777 129.337 73.5603 131.231 73.9132C133.125 74.2269 134.23 76.854 133.717 79.7556Z" fill="#CCCCCC"/>
<path d="M131.231 73.8738C130.678 73.7954 130.165 73.8738 129.652 74.1483C128.745 74.9717 127.995 76.3833 127.719 77.9909C127.206 80.8926 128.311 83.5197 130.205 83.8334C130.757 83.9118 131.27 83.8334 131.783 83.5589C132.691 82.7355 133.44 81.3239 133.717 79.7162C134.23 76.8538 133.125 74.2267 131.231 73.8738Z" fill="#F2F2F2"/>
<path d="M133.44 79.0104C133.322 80.7749 132.296 82.1472 131.152 82.0688C130.007 81.9904 129.218 80.5004 129.337 78.6967C129.455 76.9322 130.481 75.5598 131.625 75.6382C132.77 75.7558 133.559 77.2459 133.44 79.0104Z" fill="#CCCCCC"/>
<path d="M133.125 78.9713C133.046 80.226 132.336 81.1671 131.547 81.1279C130.757 81.0887 130.205 80.03 130.284 78.7752C130.363 77.5205 131.073 76.5794 131.862 76.6186C132.651 76.6578 133.243 77.7165 133.125 78.9713Z" fill="white"/>
<path d="M104.399 59.4441C104.399 59.4441 101.085 61.3262 100.098 64.9728C99.1119 68.6195 96.9812 72.1877 96.9812 72.1877C96.9812 72.1877 100.098 71.7563 104.163 68.5018L102.939 71.2858C102.939 71.2858 107.714 70.0703 112.646 64.7768L111.107 69.0116C111.107 69.0116 116.316 67.4039 118.801 65.9923C118.801 65.9923 118.012 69.3645 115.961 70.8937C115.961 70.8937 121.998 68.541 124.207 65.4826C124.207 65.4826 121.564 67.0118 119.788 67.6392L122.471 62.6986C122.471 62.6986 116.395 65.6394 114.224 66.11L115.724 61.2086L106.175 67.9529L107.556 63.9926L100.532 68.9331C100.532 68.8939 100.848 63.326 104.399 59.4441Z" fill="#60524B"/>
<path d="M139.912 107.791C142.674 109.085 143.502 114.379 143.936 117.908C144.41 121.476 144.173 120.652 143.66 120.574C143.108 120.535 139.714 120.26 139.714 120.26L143.502 121.397L137.307 123.005C137.307 123.005 143.502 121.476 143.818 122.848C144.094 123.907 144.686 131.357 144.725 135.709C145.554 124.495 145.633 108.536 139.912 107.791Z" fill="#74C3DE"/>
<path d="M26.3118 107.203L83.4076 108.615L84.4729 149.943L27.2588 146.257L26.3118 107.203Z" fill="#717171"/>
<path d="M83.4075 108.615C83.4075 108.615 84.9463 108.968 85.1042 109.046C85.262 109.124 86.0906 149.904 86.0906 149.904L84.4728 149.943L83.4075 108.615Z" fill="#606161"/>
<path d="M84.473 149.943L83.4076 108.615L76.5025 108.458C87.0772 110.654 86.4064 145.473 58.5491 145.826C30.6917 146.218 27.101 139.67 26.8643 130.651L27.2588 146.257L84.473 149.943Z" fill="#686969"/>
<path d="M57.3654 130.455C56.9313 130.651 56.734 131.435 56.8919 131.984C57.0497 132.416 55.7476 133.788 53.459 133.317C51.9991 133.043 50.7364 132.063 50.0262 130.769C48.9608 128.73 49.9078 127.122 50.3813 127.122C50.9732 127.122 51.6834 126.73 51.7229 126.259C51.7623 125.789 49.7894 124.377 49.3948 124.299C49.0003 124.22 48.3295 125.71 48.3295 125.71C45.8831 130.769 50.4997 133.67 50.4997 133.67C50.4997 133.67 54.5638 137.278 58.7859 133.553C58.7859 133.553 60.0485 132.494 59.8512 132.141C59.6934 131.788 57.7994 130.259 57.3654 130.455Z" fill="white"/>
<path d="M50.6575 124.025L50.3418 123.515C50.3813 123.476 51.5255 122.77 52.8277 123.672C54.1298 124.573 53.8141 125.867 53.8141 125.907L53.2222 125.75C53.2222 125.711 53.459 124.809 52.512 124.142C51.4861 123.515 50.6969 123.985 50.6575 124.025Z" fill="white"/>
<path d="M50.2236 122.691L49.908 122.182C49.9869 122.142 51.6047 121.201 53.5776 122.574C55.5505 123.985 55.1953 125.789 55.1559 125.868L54.564 125.75C54.564 125.671 54.8797 124.26 53.2224 123.083C51.5652 121.946 50.2236 122.691 50.2236 122.691Z" fill="white"/>
<path d="M49.8289 121.319L49.5527 120.77C49.6317 120.731 51.644 119.711 54.3272 121.554C56.9708 123.436 56.6552 125.632 56.6157 125.711L56.0239 125.593C56.0239 125.514 56.3001 123.672 53.972 122.025C51.6046 120.456 49.9079 121.28 49.8289 121.319Z" fill="white"/>
<path d="M94.4953 31.0161H58.5885C55.7081 31.0161 53.3406 33.3688 53.3406 36.2312V53.0919C53.3406 55.9543 55.7081 58.3069 58.5885 58.3069H79.6196C79.6196 58.3069 79.3829 67.796 91.8122 67.0118C91.8122 67.0118 87.3929 63.7573 88.3399 58.3069H94.4953C97.3758 58.3069 99.7432 55.9543 99.7432 53.0919V36.2312C99.7432 33.3296 97.3758 31.0161 94.4953 31.0161Z" fill="white"/>
<path d="M59.0709 48.641C60.0909 48.641 60.7609 47.871 60.8009 46.661C60.8009 46.571 60.7509 46.521 60.6709 46.521H60.0309C59.9509 46.521 59.9009 46.561 59.9009 46.651C59.8809 47.381 59.5709 47.791 59.0609 47.791C58.5609 47.791 58.2709 47.451 58.2709 46.891V43.171C58.2709 42.611 58.5609 42.271 59.0609 42.271C59.5209 42.271 59.8309 42.641 59.8509 43.341C59.8509 43.431 59.9009 43.471 59.9809 43.471H60.6209C60.7109 43.471 60.7509 43.421 60.7509 43.341C60.7209 42.171 60.0509 41.421 59.0709 41.421C58.0509 41.421 57.3609 42.141 57.3609 43.221V46.841C57.3609 47.921 58.0509 48.641 59.0709 48.641ZM62.8858 48.641C63.8558 48.641 64.4858 47.961 64.4858 47.011V45.051C64.4858 44.101 63.8558 43.421 62.8858 43.421C61.9258 43.421 61.2858 44.101 61.2858 45.051V47.011C61.2858 47.961 61.9258 48.641 62.8858 48.641ZM62.8858 47.831C62.4258 47.831 62.1558 47.511 62.1558 47.041V45.021C62.1558 44.551 62.4258 44.231 62.8858 44.231C63.3458 44.231 63.6258 44.551 63.6258 45.021V47.041C63.6258 47.511 63.3458 47.831 62.8858 47.831ZM65.4999 48.531H66.0799C66.1699 48.531 66.2199 48.481 66.2199 48.391V45.021C66.2199 44.551 66.4799 44.231 66.9199 44.231C67.3599 44.231 67.6199 44.551 67.6199 45.021V48.391C67.6199 48.481 67.6699 48.531 67.7599 48.531H68.3399C68.4299 48.531 68.4799 48.481 68.4799 48.391V45.051C68.4799 44.101 67.8499 43.421 66.9199 43.421C65.9899 43.421 65.3599 44.101 65.3599 45.051V48.391C65.3599 48.481 65.4099 48.531 65.4999 48.531ZM71.434 47.751H71.324C70.814 47.751 70.554 47.431 70.554 46.801V44.311H71.324C71.404 44.311 71.454 44.261 71.454 44.181V43.661C71.454 43.581 71.404 43.531 71.324 43.531H70.554V42.241C70.554 42.151 70.504 42.101 70.424 42.101H69.844C69.754 42.101 69.704 42.151 69.704 42.241V43.531H69.144C69.064 43.531 69.014 43.581 69.014 43.661V44.181C69.014 44.261 69.064 44.311 69.144 44.311H69.704V46.791C69.704 47.891 70.294 48.561 71.284 48.561H71.434C71.524 48.561 71.574 48.511 71.574 48.431V47.881C71.574 47.801 71.524 47.751 71.434 47.751ZM73.6756 48.631C74.6356 48.631 75.2356 47.971 75.2356 47.051V45.041C75.2356 44.101 74.6256 43.421 73.6756 43.421C72.7856 43.421 72.1956 44.041 72.1356 44.911C72.1356 44.991 72.1856 45.051 72.2656 45.051H72.8456C72.9356 45.051 72.9756 45.021 72.9856 44.931C73.0156 44.521 73.2456 44.241 73.6656 44.241C74.1156 44.241 74.3856 44.551 74.3856 45.001V45.551H73.6356C72.6956 45.551 72.0556 46.191 72.0556 47.021C72.0556 47.961 72.7056 48.631 73.6756 48.631ZM73.6656 47.811C73.1956 47.811 72.9156 47.501 72.9156 47.021C72.9156 46.631 73.1956 46.321 73.6656 46.321H74.3856V47.051C74.3856 47.511 74.1256 47.811 73.6656 47.811ZM77.6023 48.641C78.5123 48.641 79.1223 47.991 79.1823 47.051C79.1823 46.951 79.1323 46.901 79.0523 46.901H78.4523C78.3723 46.901 78.3323 46.941 78.3223 47.041C78.2823 47.531 78.0123 47.821 77.5923 47.821C77.1423 47.821 76.8723 47.511 76.8723 47.041V45.021C76.8723 44.551 77.1423 44.241 77.5823 44.241C77.9923 44.241 78.2423 44.501 78.2823 44.951C78.2923 45.041 78.3423 45.081 78.4223 45.081H79.0123C79.1023 45.081 79.1523 45.031 79.1423 44.951C79.0823 44.041 78.4823 43.421 77.5823 43.421C76.6423 43.421 76.0123 44.101 76.0123 45.051V47.011C76.0123 47.961 76.6523 48.641 77.6023 48.641ZM81.9125 47.751H81.8025C81.2925 47.751 81.0325 47.431 81.0325 46.801V44.311H81.8025C81.8825 44.311 81.9325 44.261 81.9325 44.181V43.661C81.9325 43.581 81.8825 43.531 81.8025 43.531H81.0325V42.241C81.0325 42.151 80.9825 42.101 80.9025 42.101H80.3225C80.2325 42.101 80.1825 42.151 80.1825 42.241V43.531H79.6225C79.5425 43.531 79.4925 43.581 79.4925 43.661V44.181C79.4925 44.261 79.5425 44.311 79.6225 44.311H80.1825V46.791C80.1825 47.891 80.7725 48.561 81.7625 48.561H81.9125C82.0025 48.561 82.0525 48.511 82.0525 48.431V47.881C82.0525 47.801 82.0025 47.751 81.9125 47.751ZM85.1009 41.531C85.0209 41.531 84.9709 41.581 84.9709 41.671V46.801C84.9709 47.881 85.6409 48.641 86.6809 48.641C87.7209 48.641 88.4009 47.881 88.4009 46.801V41.671C88.4009 41.581 88.3509 41.531 88.2609 41.531H87.6309C87.5509 41.531 87.4909 41.581 87.4909 41.671V46.841C87.4909 47.411 87.1809 47.791 86.6809 47.791C86.1809 47.791 85.8709 47.411 85.8709 46.841V41.671C85.8709 41.581 85.8209 41.531 85.7409 41.531H85.1009ZM90.8154 48.641C91.7454 48.641 92.3654 48.021 92.3654 47.211C92.3654 45.531 90.0554 45.801 90.0554 44.841C90.0554 44.481 90.3254 44.231 90.7354 44.231C91.1654 44.231 91.3954 44.511 91.4254 44.901C91.4354 44.981 91.4854 45.031 91.5654 45.031H92.1554C92.2554 45.031 92.2854 44.961 92.2854 44.891C92.2554 44.111 91.7854 43.421 90.7154 43.421C89.8154 43.421 89.2054 44.021 89.2054 44.821C89.2054 46.461 91.5054 46.191 91.5054 47.201C91.5054 47.561 91.2654 47.821 90.8054 47.821C90.2854 47.821 90.0454 47.541 90.0054 47.031C89.9954 46.931 89.9354 46.901 89.8654 46.901H89.2854C89.1754 46.901 89.1454 46.971 89.1454 47.051C89.1754 47.931 89.7754 48.641 90.8154 48.641ZM93.5329 47.031H94.1329C94.2129 47.031 94.2629 46.981 94.2629 46.891V41.661C94.2629 41.581 94.2129 41.531 94.1329 41.531H93.5329C93.4429 41.531 93.3929 41.581 93.3929 41.661V46.891C93.3929 46.981 93.4429 47.031 93.5329 47.031ZM93.8329 48.641C94.1429 48.641 94.3829 48.401 94.3829 48.091C94.3829 47.771 94.1429 47.541 93.8329 47.541C93.5129 47.541 93.2829 47.771 93.2829 48.091C93.2829 48.401 93.5129 48.641 93.8329 48.641Z" fill="#58B7B3"/>
<path d="M41.1876 95.0477C41.1086 94.8124 40.9903 94.5379 40.8719 94.3419L41.4243 93.2832L40.5168 92.3813L39.6092 91.4795L38.5439 92.0284C38.3071 91.9108 38.0704 91.7932 37.8336 91.7148L37.4785 90.5776H36.2159H34.9532L34.5981 91.7148C34.3613 91.7932 34.0851 91.9108 33.8878 92.0284L32.8225 91.4795L31.9149 92.3813L31.0074 93.2832L31.5598 94.3419C31.4414 94.5772 31.3231 94.8124 31.2441 95.0477L30.0999 95.4006V96.6553V97.9101L31.2441 98.263C31.3231 98.4983 31.4414 98.7727 31.5598 98.9688L31.0074 100.027L31.9149 100.929L32.8225 101.831L33.8878 101.282C34.1246 101.4 34.3613 101.518 34.5981 101.596L34.9532 102.733H36.2159H37.4785L37.8336 101.596C38.0704 101.518 38.3466 101.4 38.5439 101.282L39.6092 101.831L40.5168 100.929L41.4243 100.027L40.8719 98.9688C40.9903 98.7335 41.1086 98.4983 41.1876 98.263L42.3318 97.9101V96.6553V95.4006L41.1876 95.0477ZM36.2159 99.0864C34.8743 99.0864 33.7695 97.9885 33.7695 96.6553C33.7695 95.3222 34.8743 94.2243 36.2159 94.2243C37.5574 94.2243 38.6622 95.3222 38.6622 96.6553C38.6622 97.9885 37.5969 99.0864 36.2159 99.0864Z" fill="white"/>
<path d="M48.9607 90.2247C48.8818 90.0287 48.8423 89.8718 48.724 89.715L49.1185 88.97L48.4478 88.3034L47.777 87.6368L47.0273 88.0289C46.8694 87.9505 46.6722 87.8721 46.5143 87.7936L46.2776 86.9702H45.3306H44.3836L44.1468 87.7936C43.9496 87.8721 43.7917 87.9113 43.6339 88.0289L42.8842 87.6368L42.2134 88.3034L41.5426 88.97L41.9372 89.715C41.8583 89.8718 41.7794 90.0679 41.7004 90.2247L40.8718 90.46V91.4011V92.3421L41.7004 92.5774C41.7794 92.7734 41.8188 92.9303 41.9372 93.0871L41.5426 93.8321L42.2134 94.4987L42.8842 95.1653L43.6339 94.7732C43.7917 94.8516 43.989 94.93 44.1468 95.0085L44.3836 95.8319H45.3306H46.2776L46.5143 95.0085C46.7116 94.93 46.8694 94.8908 47.0273 94.7732L47.777 95.1653L48.4478 94.4987L49.1185 93.8321L48.724 93.0871C48.8029 92.9303 48.8818 92.7342 48.9607 92.5774L49.7893 92.3421V91.4011V90.46L48.9607 90.2247ZM45.3306 93.1655C44.3441 93.1655 43.555 92.3813 43.555 91.4011C43.555 90.4208 44.3441 89.6366 45.3306 89.6366C46.317 89.6366 47.1062 90.4208 47.1062 91.4011C47.1062 92.3813 46.317 93.1655 45.3306 93.1655Z" fill="white"/>
<path d="M39.1358 93.6361C39.1358 93.989 38.8596 94.3026 38.465 94.3026C38.1099 94.3026 37.7942 94.0282 37.7942 93.6361C37.7942 93.2832 38.0704 92.9695 38.465 92.9695C38.8596 93.0087 39.1358 93.2832 39.1358 93.6361Z" fill="white"/>
<path d="M113.435 40.8188C113.435 41.1325 113.198 41.3677 112.883 41.3677H109.371C109.213 41.3677 109.055 41.2893 108.976 41.1717C108.779 40.9364 108.779 40.6227 109.016 40.3875L111.936 37.7603C112.212 37.4858 112.37 37.1722 112.37 36.8193C112.37 36.5056 112.251 36.1919 112.054 35.9566C111.778 35.6821 111.462 35.5253 111.107 35.5253C110.791 35.5253 110.476 35.6429 110.239 35.839L109.923 36.1135C109.687 36.3095 109.371 36.3095 109.134 36.0743C108.937 35.839 108.937 35.5253 109.174 35.29L109.489 35.0156C109.923 34.5842 110.515 34.3882 111.107 34.3882C111.738 34.3882 112.409 34.6627 112.883 35.1724C113.317 35.6037 113.514 36.1919 113.514 36.7801C113.514 37.4074 113.238 38.074 112.725 38.5445L110.831 40.2306H112.962C113.198 40.2698 113.435 40.5051 113.435 40.8188Z" fill="white"/>
<path d="M119.788 39.5248C119.788 39.8385 119.551 40.0738 119.235 40.0738H119.117V40.8188C119.117 41.1325 118.88 41.3677 118.565 41.3677C118.249 41.3677 118.012 41.1325 118.012 40.8188V40.0738H114.895C114.777 40.0738 114.658 40.0346 114.54 39.9561C114.303 39.7601 114.264 39.4464 114.461 39.2111L118.131 34.6627C118.131 34.6627 118.131 34.6627 118.17 34.6234L118.21 34.5842C118.249 34.5842 118.249 34.545 118.249 34.545L118.288 34.5058C118.328 34.5058 118.328 34.4666 118.367 34.4666C118.367 34.4274 118.407 34.4274 118.407 34.4274C118.407 34.4274 118.446 34.4274 118.486 34.3882H118.525C118.565 34.3882 118.565 34.3882 118.604 34.3882C118.604 34.3882 118.604 34.3882 118.644 34.3882C118.644 34.3882 118.644 34.3882 118.683 34.3882C118.723 34.3882 118.723 34.3882 118.762 34.3882C118.801 34.3882 118.801 34.3882 118.801 34.3882C118.801 34.3882 118.841 34.3882 118.88 34.4274H118.92C118.959 34.4666 118.959 34.4666 118.959 34.4666C118.999 34.4666 118.999 34.5058 118.999 34.5058C118.999 34.5058 119.038 34.5058 119.038 34.545C119.078 34.5842 119.078 34.5842 119.078 34.5842L119.117 34.6234L119.157 34.6627C119.157 34.6627 119.157 34.7019 119.196 34.7019C119.196 34.7411 119.196 34.7411 119.235 34.7803V34.8195C119.235 34.8587 119.235 34.8587 119.235 34.8979C119.235 34.9371 119.235 34.9371 119.235 34.9371V34.9763V38.9759H119.354C119.551 38.9759 119.788 39.2111 119.788 39.5248ZM118.052 36.5448L116.079 38.9759H118.052V36.5448Z" fill="white"/>
<path d="M108.897 44.8192V43.0155C108.897 42.9371 108.976 42.8586 109.055 42.8586C109.134 42.8586 109.213 42.9371 109.213 43.0155V43.7605H110.002V43.0155C110.002 42.9371 110.081 42.8586 110.16 42.8586C110.239 42.8586 110.318 42.9371 110.318 43.0155V44.8192C110.318 44.8976 110.239 44.976 110.16 44.976C110.081 44.976 110.002 44.8976 110.002 44.8192V44.0742H109.213V44.8192C109.213 44.8976 109.134 44.976 109.055 44.976C108.976 44.976 108.897 44.8976 108.897 44.8192Z" fill="white"/>
<path d="M112.686 43.093C112.883 43.289 113.001 43.5635 113.001 43.8772C113.001 44.1909 112.883 44.4654 112.686 44.6614C112.488 44.8575 112.252 44.9751 111.936 44.9751C111.66 44.9751 111.384 44.8575 111.186 44.6614C110.989 44.4654 110.871 44.1909 110.871 43.8772C110.871 43.5635 110.989 43.289 111.186 43.093C111.384 42.8969 111.66 42.7793 111.936 42.7793C112.212 42.7793 112.488 42.8969 112.686 43.093ZM112.646 43.8772C112.646 43.6812 112.567 43.4851 112.449 43.3283C112.331 43.1714 112.133 43.093 111.975 43.093C111.778 43.093 111.62 43.1714 111.462 43.3283C111.344 43.4459 111.265 43.6419 111.265 43.8772C111.265 44.0733 111.344 44.2693 111.462 44.4262C111.581 44.583 111.778 44.6614 111.975 44.6614C112.173 44.6614 112.331 44.583 112.449 44.4262C112.567 44.2693 112.646 44.0733 112.646 43.8772Z" fill="white"/>
<path d="M114.343 44.975C113.83 44.975 113.435 44.5829 113.435 44.0731V42.9752C113.435 42.8968 113.514 42.8184 113.593 42.8184C113.672 42.8184 113.751 42.8968 113.751 42.9752V44.0731C113.751 44.3868 113.988 44.6221 114.303 44.6221C114.619 44.6221 114.856 44.3868 114.856 44.0731V42.9752C114.856 42.8968 114.935 42.8184 115.014 42.8184C115.093 42.8184 115.171 42.8968 115.171 42.9752V44.0731C115.25 44.5829 114.816 44.975 114.343 44.975Z" fill="white"/>
<path d="M117.302 44.7005C117.342 44.7789 117.302 44.8965 117.184 44.8965C117.184 44.8965 117.144 44.8965 117.105 44.8965C117.065 44.8965 117.026 44.8965 116.986 44.8573C116.947 44.8181 116.908 44.7789 116.908 44.7397C116.868 44.6613 116.829 44.5436 116.829 44.3868C116.829 44.3476 116.829 44.3084 116.789 44.2692C116.789 44.23 116.75 44.1907 116.71 44.1907C116.631 44.1515 116.552 44.1123 116.552 44.1123H116.197V44.7789C116.197 44.8573 116.118 44.9358 116.039 44.9358C115.961 44.9358 115.882 44.8573 115.882 44.7789V42.9752C115.882 42.8968 115.961 42.8184 116.039 42.8184H116.592C116.947 42.8184 117.263 43.0928 117.263 43.4849C117.263 43.681 117.184 43.8771 117.026 43.9947C117.065 44.0339 117.105 44.0731 117.144 44.1123C117.223 44.1907 117.263 44.3084 117.263 44.426C117.263 44.5044 117.263 44.5829 117.263 44.6221C117.223 44.6221 117.263 44.6613 117.302 44.7005ZM116.868 43.4849C116.868 43.2889 116.71 43.1713 116.552 43.1713H116.158V43.7986H116.552C116.71 43.7986 116.868 43.6418 116.868 43.4849Z" fill="white"/>
<path d="M117.736 44.4262C117.776 44.3477 117.894 44.3477 117.973 44.387C118.091 44.5046 118.328 44.6222 118.565 44.6222C118.723 44.6222 118.841 44.583 118.959 44.5046C119.038 44.4262 119.078 44.3477 119.078 44.2693C119.078 44.2301 119.078 44.1909 119.038 44.1909C119.038 44.1517 118.999 44.1125 118.959 44.1125C118.881 44.0733 118.723 43.9948 118.525 43.9556C118.368 43.9164 118.249 43.8772 118.131 43.838C118.012 43.7988 117.894 43.7204 117.855 43.6027C117.815 43.5243 117.776 43.4459 117.776 43.3675C117.776 43.1714 117.894 43.0146 118.012 42.9361C118.17 42.8185 118.328 42.7793 118.525 42.7793C118.802 42.7793 119.038 42.9361 119.196 43.0146C119.275 43.0538 119.275 43.1714 119.236 43.2498C119.196 43.3283 119.078 43.3283 118.999 43.289C118.841 43.1714 118.683 43.093 118.486 43.093C118.328 43.093 118.21 43.1322 118.131 43.2106C118.052 43.289 118.012 43.3283 118.012 43.4067C118.012 43.4459 118.012 43.4851 118.052 43.4851C118.052 43.5243 118.091 43.5243 118.131 43.5635C118.21 43.6027 118.368 43.6812 118.525 43.6812C118.683 43.7204 118.841 43.7596 118.959 43.7988C119.078 43.8772 119.196 43.9556 119.275 44.0341C119.315 44.1125 119.354 44.1909 119.354 44.3085C119.354 44.5046 119.236 44.6614 119.078 44.7791C118.92 44.8967 118.723 44.9359 118.525 44.9359C118.21 44.9359 117.934 44.7791 117.736 44.6222C117.697 44.6222 117.657 44.5046 117.736 44.4262Z" fill="white"/>
<path d="M122.116 33.4863L121.327 34.1137C122.629 35.7214 123.3 37.6427 123.3 39.7209C123.3 44.6614 119.235 48.7002 114.264 48.7002C109.292 48.7002 105.228 44.6614 105.228 39.7209C105.228 34.8587 109.134 30.9376 113.948 30.7416L113.711 31.7218L116.789 30.7416L114.422 28.585L114.145 29.7221C108.661 29.7613 104.202 34.1921 104.202 39.6817C104.202 45.1712 108.7 49.6412 114.224 49.6412C119.748 49.6412 124.247 45.1712 124.247 39.6817C124.325 37.4466 123.536 35.2508 122.116 33.4863Z" fill="white"/>
<path d="M84.6307 91.7146C83.7627 89.9501 81.4741 88.6953 78.8304 88.6953C75.3976 88.6953 72.6355 90.7735 72.6355 93.3222C72.6355 94.5769 73.3063 95.7141 74.3716 96.5375L73.4641 99.0078L76.6997 97.6746C77.0548 97.7922 77.4494 97.8315 77.8045 97.9099C77.765 97.6746 77.765 97.4786 77.765 97.2433C77.765 94.2633 80.8428 91.8322 84.6307 91.7146ZM76.384 94.1456C75.9105 94.1456 75.5159 93.7535 75.5159 93.283C75.5159 92.8125 75.9105 92.4204 76.384 92.4204C76.8575 92.4204 77.2521 92.8125 77.2521 93.283C77.2521 93.7535 76.8575 94.1456 76.384 94.1456Z" fill="white"/>
<path d="M91.0624 97.2433C91.0624 94.8514 88.616 92.8516 85.4594 92.6164C85.2621 92.6164 85.0648 92.5771 84.8675 92.5771C81.4347 92.5771 78.6726 94.6553 78.6726 97.204C78.6726 97.5569 78.7515 97.9491 78.8304 98.2627C79.4618 100.302 81.9476 101.831 84.8675 101.831C85.6172 101.831 86.3275 101.713 86.9983 101.556L90.2338 102.89L89.3263 100.419C90.4311 99.6351 91.0624 98.498 91.0624 97.2433ZM81.632 98.302C81.1585 98.302 80.7639 97.9098 80.7639 97.4393C80.7639 96.9688 81.1585 96.5767 81.632 96.5767C82.1055 96.5767 82.5 96.9688 82.5 97.4393C82.5395 97.9098 82.1449 98.302 81.632 98.302ZM84.8675 98.302C84.394 98.302 83.9994 97.9098 83.9994 97.4393C83.9994 96.9688 84.394 96.5767 84.8675 96.5767C85.341 96.5767 85.7356 96.9688 85.7356 97.4393C85.7356 97.9098 85.341 98.302 84.8675 98.302ZM88.0636 98.302C87.5901 98.302 87.1955 97.9098 87.1955 97.4393C87.1955 96.9688 87.5901 96.5767 88.0636 96.5767C88.5371 96.5767 88.9317 96.9688 88.9317 97.4393C88.9712 97.9098 88.5766 98.302 88.0636 98.302Z" fill="white"/>
<path d="M60.5219 91.8323H54.0113C53.7746 91.8323 53.6562 92.146 53.8535 92.3028L60.5614 98.1844L67.2693 92.3028C67.4665 92.146 67.3482 91.8323 67.1114 91.8323H60.5219Z" fill="white"/>
<path d="M60.5219 99.0863L53.301 92.7341V99.8313C53.301 100.459 53.814 101.008 54.4848 101.008H60.5219H66.5589C67.1903 101.008 67.7427 100.498 67.7427 99.8313V92.7341L60.5219 99.0863Z" fill="white"/>
<path d="M149.342 146.767H14.3955V152.845H149.342V146.767Z" fill="#F37A88"/>
<path d="M134.624 162.216H26.4303C21.4192 162.216 17.355 158.177 17.355 153.197V152.844H143.739V153.197C143.7 158.177 139.635 162.216 134.624 162.216Z" fill="#DB6D63"/>
<path d="M143.7 152.844H17.3154V154.648H143.7V152.844Z" fill="#C56259"/>
<path d="M25.4438 146.767H18.4597V152.884H25.4438V146.767Z" fill="#F15B6A"/>
<path d="M51.0914 146.767H34.3218V152.884H51.0914V146.767Z" fill="#F15B6A"/>
<path d="M74.9241 146.767H67.2693V152.884H74.9241V146.767Z" fill="#F15B6A"/>
<path d="M136.715 146.767H132.888V152.884H136.715V146.767Z" fill="#F15B6A"/>
<path d="M116.276 146.767H113.514V152.884H116.276V146.767Z" fill="#F15B6A"/>
<path d="M121.248 146.767H117.381V152.884H121.248V146.767Z" fill="#F15B6A"/>
<path d="M30.1788 146.767H26.667V152.845H30.1788V146.767Z" fill="#F591A1"/>
<path d="M65.3754 146.767H55.6687V152.845H65.3754V146.767Z" fill="#F591A1"/>
<path d="M86.0908 146.767H79.6196V152.845H86.0908V146.767Z" fill="#F591A1"/>
<path d="M110.002 146.767H105.07V152.845H110.002V146.767Z" fill="#F591A1"/>
<path d="M130.047 146.767H122.234V152.845H130.047V146.767Z" fill="#F591A1"/>
<path d="M99.3093 146.767H87.8665V152.845H99.3093V146.767Z" fill="#F591A1"/>
<path d="M32.9407 146.767H31.2046V152.845H32.9407V146.767Z" fill="#F591A1"/>
<path d="M146.462 68.0312C141.766 68.0312 137.978 71.7955 137.978 76.4616C137.978 81.1277 141.766 84.892 146.462 84.892C151.157 84.892 154.945 81.1277 154.945 76.4616C154.984 71.8347 151.157 68.0312 146.462 68.0312ZM151.315 75.8734C151.275 75.05 151.196 74.2266 151.039 73.4816C152.42 74.0697 153.406 74.8932 153.682 75.8734H151.315ZM150.131 75.8734H147.093V72.6581C148.04 72.6974 148.908 72.8542 149.697 73.0503C149.934 73.9129 150.092 74.854 150.131 75.8734ZM147.093 71.4818V69.3252C147.921 69.5997 148.671 70.5015 149.224 71.7171C148.553 71.5995 147.803 71.4818 147.093 71.4818ZM145.87 69.3252V71.4818C145.12 71.521 144.41 71.5995 143.739 71.7171C144.291 70.4623 145.041 69.5997 145.87 69.3252ZM145.87 72.6581V75.8734H142.831C142.871 74.854 143.029 73.9129 143.265 73.0503C144.055 72.815 144.962 72.6974 145.87 72.6581ZM141.648 75.8734H139.28C139.556 74.9324 140.543 74.0697 141.924 73.4816C141.766 74.2658 141.687 75.05 141.648 75.8734ZM141.648 77.0498C141.687 77.8732 141.766 78.6966 141.924 79.4416C140.543 78.8535 139.556 78.03 139.28 77.0498H141.648ZM142.831 77.0498H145.87V80.2651C144.923 80.2259 144.055 80.069 143.265 79.873C143.029 79.0495 142.871 78.0693 142.831 77.0498ZM145.87 81.4806V83.6372C145.041 83.3627 144.291 82.4609 143.739 81.2454C144.41 81.363 145.12 81.4414 145.87 81.4806ZM147.093 83.598V81.4414C147.843 81.4022 148.553 81.3238 149.224 81.2061C148.671 82.4609 147.921 83.3235 147.093 83.598ZM147.093 80.3043V77.089H150.131C150.092 78.1085 149.934 79.0495 149.697 79.9122C148.868 80.1082 148 80.2651 147.093 80.3043ZM151.315 77.0498H153.682C153.406 77.9908 152.42 78.8535 151.039 79.4416C151.196 78.6966 151.275 77.9124 151.315 77.0498ZM153.012 73.2463C152.341 72.7758 151.552 72.3837 150.644 72.1092C150.368 71.2858 149.973 70.5408 149.539 69.9134C151.039 70.58 152.262 71.7563 153.012 73.2463ZM143.423 69.9134C142.989 70.5408 142.634 71.2466 142.318 72.1092C141.411 72.4229 140.622 72.7758 139.951 73.2463C140.701 71.7563 141.924 70.58 143.423 69.9134ZM139.951 79.7161C140.622 80.1867 141.411 80.5788 142.318 80.8532C142.595 81.6767 142.989 82.4217 143.423 83.0491C141.924 82.3433 140.701 81.1669 139.951 79.7161ZM149.539 83.0491C149.973 82.4217 150.328 81.7159 150.644 80.8532C151.552 80.5396 152.341 80.1867 153.012 79.7161C152.262 81.1669 151.039 82.3433 149.539 83.0491Z" fill="white"/>
<path d="M59.3778 62.8162H56.6947C56.2606 62.8162 55.9055 62.4633 55.9055 62.0319V61.9927C55.9055 61.5614 56.2606 61.2085 56.6947 61.2085H59.3778C59.8119 61.2085 60.167 61.5614 60.167 61.9927V62.0711C60.167 62.4632 59.8119 62.8162 59.3778 62.8162Z" fill="white"/>
<path d="M64.7836 62.8162H62.1004C61.6664 62.8162 61.3113 62.4633 61.3113 62.0319V61.9927C61.3113 61.5614 61.6664 61.2085 62.1004 61.2085H64.7836C65.2176 61.2085 65.5727 61.5614 65.5727 61.9927V62.0711C65.5727 62.4632 65.2176 62.8162 64.7836 62.8162Z" fill="white"/>
<path d="M70.1893 62.8162H67.5062C67.0722 62.8162 66.717 62.4633 66.717 62.0319V61.9927C66.717 61.5614 67.0722 61.2085 67.5062 61.2085H70.1893C70.6234 61.2085 70.9785 61.5614 70.9785 61.9927V62.0711C70.939 62.4632 70.5839 62.8162 70.1893 62.8162Z" fill="white"/>
<path d="M147.251 93.793H144.568C144.134 93.793 143.779 93.4401 143.779 93.0087V92.9695C143.779 92.5382 144.134 92.1853 144.568 92.1853H147.251C147.685 92.1853 148.04 92.5382 148.04 92.9695V93.048C148.04 93.4401 147.685 93.793 147.251 93.793Z" fill="white"/>
<path d="M152.657 93.793H149.973C149.539 93.793 149.184 93.4401 149.184 93.0087V92.9695C149.184 92.5382 149.539 92.1853 149.973 92.1853H152.657C153.091 92.1853 153.446 92.5382 153.446 92.9695V93.048C153.446 93.4401 153.091 93.793 152.657 93.793Z" fill="white"/>
<path d="M15.9738 130.573H13.2906C12.8566 130.573 12.5015 130.22 12.5015 129.789V129.71C12.5015 129.279 12.8566 128.926 13.2906 128.926H15.9738C16.4078 128.926 16.7629 129.279 16.7629 129.71V129.789C16.7629 130.22 16.4078 130.573 15.9738 130.573Z" fill="white"/>
<path d="M21.3795 130.573H18.6964C18.2623 130.573 17.9072 130.22 17.9072 129.789V129.71C17.9072 129.279 18.2623 128.926 18.6964 128.926H21.3795C21.8136 128.926 22.1687 129.279 22.1687 129.71V129.789C22.1292 130.22 21.7741 130.573 21.3795 130.573Z" fill="white"/>
<path d="M158.062 93.793H155.379C154.945 93.793 154.59 93.4401 154.59 93.0087V92.9695C154.59 92.5382 154.945 92.1853 155.379 92.1853H158.062C158.496 92.1853 158.852 92.5382 158.852 92.9695V93.048C158.852 93.4401 158.496 93.793 158.062 93.793Z" fill="white"/>
<path d="M75.5556 62.8162H72.8724C72.4384 62.8162 72.0833 62.4633 72.0833 62.0319V61.9927C72.0833 61.5614 72.4384 61.2085 72.8724 61.2085H75.5556C75.9896 61.2085 76.3447 61.5614 76.3447 61.9927V62.0711C76.3447 62.4632 75.9896 62.8162 75.5556 62.8162Z" fill="white"/>
<path d="M51.4467 67.5215H48.7635C48.3295 67.5215 47.9744 67.1686 47.9744 66.7373V66.698C47.9744 66.2667 48.3295 65.9138 48.7635 65.9138H51.4467C51.8807 65.9138 52.2358 66.2667 52.2358 66.698V66.7765C52.2358 67.1686 51.8807 67.5215 51.4467 67.5215Z" fill="#009388"/>
<path d="M56.8524 67.5215H54.1693C53.7352 67.5215 53.3801 67.1686 53.3801 66.7373V66.698C53.3801 66.2667 53.7352 65.9138 54.1693 65.9138H56.8524C57.2865 65.9138 57.6416 66.2667 57.6416 66.698V66.7765C57.6416 67.1686 57.2865 67.5215 56.8524 67.5215Z" fill="#009388"/>
<path d="M62.2582 67.5215H59.5751C59.141 67.5215 58.7859 67.1686 58.7859 66.7373V66.698C58.7859 66.2667 59.141 65.9138 59.5751 65.9138H62.2582C62.6922 65.9138 63.0474 66.2667 63.0474 66.698V66.7765C63.0079 67.1686 62.6922 67.5215 62.2582 67.5215Z" fill="#009388"/>
<path d="M67.6244 67.5215H64.9413C64.5072 67.5215 64.1521 67.1686 64.1521 66.7373V66.698C64.1521 66.2667 64.5072 65.9138 64.9413 65.9138H67.6244C68.0584 65.9138 68.4136 66.2667 68.4136 66.698V66.7765C68.4136 67.1686 68.0584 67.5215 67.6244 67.5215Z" fill="#009388"/>
<path d="M143.581 89.5189H140.898C140.464 89.5189 140.109 89.166 140.109 88.7347V88.6563C140.109 88.225 140.464 87.8721 140.898 87.8721H143.581C144.015 87.8721 144.37 88.225 144.37 88.6563V88.7347C144.37 89.166 144.015 89.5189 143.581 89.5189Z" fill="#009388"/>
<path d="M148.947 89.5189H146.264C145.83 89.5189 145.475 89.166 145.475 88.7347V88.6563C145.475 88.225 145.83 87.8721 146.264 87.8721H148.947C149.381 87.8721 149.737 88.225 149.737 88.6563V88.7347C149.737 89.166 149.381 89.5189 148.947 89.5189Z" fill="#009388"/>
<path d="M154.353 89.5189H151.67C151.236 89.5189 150.881 89.166 150.881 88.7347V88.6563C150.881 88.225 151.236 87.8721 151.67 87.8721H154.353C154.787 87.8721 155.142 88.225 155.142 88.6563V88.7347C155.142 89.166 154.787 89.5189 154.353 89.5189Z" fill="#009388"/>
<path d="M159.759 89.5189H157.076C156.642 89.5189 156.287 89.166 156.287 88.7347V88.6563C156.287 88.225 156.642 87.8721 157.076 87.8721H159.759C160.193 87.8721 160.548 88.225 160.548 88.6563V88.7347C160.548 89.166 160.193 89.5189 159.759 89.5189Z" fill="#009388"/>
<path d="M11.4362 126.534H8.75303C8.31899 126.534 7.96387 126.181 7.96387 125.75V125.671C7.96387 125.24 8.31899 124.887 8.75303 124.887H11.4362C11.8702 124.887 12.2253 125.24 12.2253 125.671V125.75C12.2253 126.22 11.8702 126.534 11.4362 126.534Z" fill="#009388"/>
<path d="M16.8419 126.534H14.1588C13.7248 126.534 13.3696 126.181 13.3696 125.75V125.671C13.3696 125.24 13.7248 124.887 14.1588 124.887H16.8419C17.276 124.887 17.6311 125.24 17.6311 125.671V125.75C17.6311 126.22 17.276 126.534 16.8419 126.534Z" fill="#009388"/>
<path d="M22.2477 126.534H19.5646C19.1305 126.534 18.7754 126.181 18.7754 125.75V125.671C18.7754 125.24 19.1305 124.887 19.5646 124.887H22.2477C22.6817 124.887 23.0369 125.24 23.0369 125.671V125.75C23.0369 126.22 22.6817 126.534 22.2477 126.534Z" fill="#009388"/>
<path d="M82.1056 28.6244H79.4225C78.9884 28.6244 78.6333 28.2715 78.6333 27.8402V27.7618C78.6333 27.3304 78.9884 26.9775 79.4225 26.9775H82.1056C82.5397 26.9775 82.8948 27.3304 82.8948 27.7618V27.8402C82.8948 28.2715 82.5397 28.6244 82.1056 28.6244Z" fill="white"/>
<path d="M87.5114 28.6244H84.8282C84.3942 28.6244 84.0391 28.2715 84.0391 27.8402V27.7618C84.0391 27.3304 84.3942 26.9775 84.8282 26.9775H87.5114C87.9454 26.9775 88.3005 27.3304 88.3005 27.7618V27.8402C88.3005 28.2715 87.9454 28.6244 87.5114 28.6244Z" fill="white"/>
<path d="M92.9171 28.6244H90.234C89.7999 28.6244 89.4448 28.2715 89.4448 27.8402V27.7618C89.4448 27.3304 89.7999 26.9775 90.234 26.9775H92.9171C93.3512 26.9775 93.7063 27.3304 93.7063 27.7618V27.8402C93.6668 28.2715 93.3512 28.6244 92.9171 28.6244Z" fill="white"/>
<path d="M98.2834 28.6244H95.6002C95.1662 28.6244 94.811 28.2715 94.811 27.8402V27.7618C94.811 27.3304 95.1662 26.9775 95.6002 26.9775H98.2834C98.7174 26.9775 99.0725 27.3304 99.0725 27.7618V27.8402C99.0725 28.2715 98.7174 28.6244 98.2834 28.6244Z" fill="white"/>
<path d="M100.888 19.8018V21.7623" stroke="white" stroke-width="2" stroke-miterlimit="10" stroke-linecap="round" stroke-linejoin="round"/>
<path d="M100.888 19.8018V21.7623" stroke="white" stroke-width="2" stroke-miterlimit="10" stroke-linecap="round" stroke-linejoin="round"/>
<path d="M101.874 20.782H99.8618" stroke="white" stroke-width="2" stroke-miterlimit="10" stroke-linecap="round" stroke-linejoin="round"/>
<path d="M101.874 20.782H99.8618" stroke="white" stroke-width="2" stroke-miterlimit="10" stroke-linecap="round" stroke-linejoin="round"/>
<path d="M42.2925 45.6812V47.6809" stroke="white" stroke-width="2" stroke-miterlimit="10" stroke-linecap="round" stroke-linejoin="round"/>
<path d="M42.2925 45.6812V47.6809" stroke="white" stroke-width="2" stroke-miterlimit="10" stroke-linecap="round" stroke-linejoin="round"/>
<path d="M43.3183 46.7007H41.3059" stroke="white" stroke-width="2" stroke-miterlimit="10" stroke-linecap="round" stroke-linejoin="round"/>
<path d="M43.3183 46.7007H41.3059" stroke="white" stroke-width="2" stroke-miterlimit="10" stroke-linecap="round" stroke-linejoin="round"/>
<path d="M136.716 92.6167V94.6165" stroke="white" stroke-width="2" stroke-miterlimit="10" stroke-linecap="round" stroke-linejoin="round"/>
<path d="M136.716 92.6167V94.6165" stroke="white" stroke-width="2" stroke-miterlimit="10" stroke-linecap="round" stroke-linejoin="round"/>
<path d="M137.741 93.5969H135.729" stroke="white" stroke-width="2" stroke-miterlimit="10" stroke-linecap="round" stroke-linejoin="round"/>
<path d="M137.741 93.5969H135.729" stroke="white" stroke-width="2" stroke-miterlimit="10" stroke-linecap="round" stroke-linejoin="round"/>
<path d="M17.3157 116.771V118.77" stroke="white" stroke-width="2" stroke-miterlimit="10" stroke-linecap="round" stroke-linejoin="round"/>
<path d="M17.3157 116.771V118.77" stroke="white" stroke-width="2" stroke-miterlimit="10" stroke-linecap="round" stroke-linejoin="round"/>
<path d="M18.302 117.79H16.3291" stroke="white" stroke-width="2" stroke-miterlimit="10" stroke-linecap="round" stroke-linejoin="round"/>
<path d="M18.302 117.79H16.3291" stroke="white" stroke-width="2" stroke-miterlimit="10" stroke-linecap="round" stroke-linejoin="round"/>
<path d="M87.8667 80.1084V82.1082" stroke="white" stroke-width="2" stroke-miterlimit="10" stroke-linecap="round" stroke-linejoin="round"/>
<path d="M87.8667 80.1084V82.1082" stroke="white" stroke-width="2" stroke-miterlimit="10" stroke-linecap="round" stroke-linejoin="round"/>
<path d="M88.853 81.1279H86.8801" stroke="white" stroke-width="2" stroke-miterlimit="10" stroke-linecap="round" stroke-linejoin="round"/>
<path d="M88.853 81.1279H86.8801" stroke="white" stroke-width="2" stroke-miterlimit="10" stroke-linecap="round" stroke-linejoin="round"/>
<path d="M150.329 134.729V136.729" stroke="white" stroke-width="2" stroke-miterlimit="10" stroke-linecap="round" stroke-linejoin="round"/>
<path d="M150.329 134.729V136.729" stroke="white" stroke-width="2" stroke-miterlimit="10" stroke-linecap="round" stroke-linejoin="round"/>
<path d="M151.315 135.749H149.303" stroke="white" stroke-width="2" stroke-miterlimit="10" stroke-linecap="round" stroke-linejoin="round"/>
<path d="M151.315 135.749H149.303" stroke="white" stroke-width="2" stroke-miterlimit="10" stroke-linecap="round" stroke-linejoin="round"/>
<path d="M20.9456 86.3037C24.9553 86.3037 28.2059 83.0735 28.2059 79.0888C28.2059 75.1042 24.9553 71.874 20.9456 71.874C16.9358 71.874 13.6853 75.1042 13.6853 79.0888C13.6853 83.0735 16.9358 86.3037 20.9456 86.3037Z" fill="#00A99D"/>
<path d="M74.8583 21.1769C75.639 17.8667 73.5716 14.5543 70.2406 13.7785C66.9095 13.0026 63.5763 15.0571 62.7955 18.3672C62.0148 21.6774 64.0822 24.9898 67.4132 25.7657C70.7442 26.5415 74.0775 24.4871 74.8583 21.1769Z" fill="#00A99D"/>
<path d="M56.6157 27.801C58.5116 27.801 60.0486 26.2737 60.0486 24.3896C60.0486 22.5056 58.5116 20.9783 56.6157 20.9783C54.7198 20.9783 53.1829 22.5056 53.1829 24.3896C53.1829 26.2737 54.7198 27.801 56.6157 27.801Z" fill="#00A99D"/>
<defs>
<radialGradient id="paint0_radial" cx="0" cy="0" r="1" gradientUnits="userSpaceOnUse" gradientTransform="translate(85.7838 86.1785) rotate(90) scale(85.493 85.377)">
<stop stop-color="#23D8CF"/>
<stop offset="1" stop-color="#217C78"/>
</radialGradient>
</defs>
</svg>
