<svg width="172" height="173" viewBox="0 0 172 173" fill="none" xmlns="http://www.w3.org/2000/svg">
<path d="M165.539 113.182L165.532 113.201L165.525 113.22L165.249 114.048L164.979 114.859C163.412 119.191 161.484 123.403 159.257 127.374C158.467 128.77 157.693 130.078 156.806 131.377L156.798 131.389L156.79 131.401C155.748 132.993 154.668 134.612 153.536 136.1L153.508 136.137L153.482 136.175C153.277 136.482 153.071 136.741 152.822 137.052L152.759 137.131L152.707 137.217C152.573 137.44 152.437 137.625 152.208 137.911L152.201 137.919L152.195 137.928C146.536 145.206 139.606 151.473 131.82 156.602C131.051 157.075 130.255 157.565 129.512 158.058C128.977 158.355 128.42 158.664 127.802 159.035L127.79 159.042L127.779 159.049C126.85 159.629 125.854 160.157 124.802 160.713L124.788 160.72L124.775 160.728C124.211 161.041 123.717 161.314 123.237 161.527L123.224 161.533L123.211 161.539C122.918 161.676 122.615 161.813 122.309 161.952C121.718 162.22 121.114 162.494 120.535 162.783C120.448 162.827 120.343 162.874 120.197 162.938L120.183 162.945C120.067 162.996 119.921 163.061 119.78 163.13C119.595 163.209 119.394 163.289 119.175 163.377L119.167 163.38C118.943 163.469 118.698 163.567 118.466 163.667C118.271 163.75 118.058 163.835 117.824 163.929L117.815 163.932C117.591 164.022 117.347 164.12 117.115 164.219L116.988 164.273L116.874 164.349C116.87 164.352 116.851 164.362 116.793 164.389C116.748 164.41 116.726 164.419 116.669 164.445C116.454 164.493 116.298 164.57 116.237 164.601C116.188 164.625 116.132 164.656 116.073 164.692C107.194 168.026 97.4854 169.99 87.4219 170.171H86.2071H86.2049H86.2027H86.2006H86.1984H86.1963H86.1941H86.1919H86.1898H86.1876H86.1855H86.1833H86.1812H86.179H86.1768H86.1747H86.1725H86.1704H86.1682H86.166H86.1639H86.1617H86.1596H86.1574H86.1553H86.1531H86.1509H86.1488H86.1466H86.1445H86.1423H86.1401H86.138H86.1358H86.1337H86.1315H86.1293H86.1272H86.125H86.1229H86.1207H86.1186H86.1164H86.1142H86.1121H86.1099H86.1078H86.1056H86.1034H86.1013H86.0991H86.097H86.0948H86.0927H86.0905H86.0883H86.0862H86.084H86.0819H86.0797H86.0775H86.0754H86.0732H86.0711H86.0689H86.0667H86.0646H86.0624H86.0603H86.0581H86.056H86.0538H86.0516H86.0495H86.0473H86.0452H86.043H86.0408H86.0387H86.0365H86.0344H86.0322H86.03H86.0279H86.0257H86.0236H86.0214H86.0193H86.0171H86.0149H86.0128H86.0106H86.0085H86.0063H86.0041H86.002H85.9998H85.9977H85.9955H85.9934H85.9912H85.989H85.9869H85.9847H85.9826H85.9804H85.9782H85.9761H85.9739H85.9718H85.9696H85.9674H85.9653H85.9631H85.961H85.9588H85.9567H85.9545H85.9523H85.9502H85.948H85.9459H85.9437H85.9415H85.9394H85.9372H85.9351H85.9329H85.9307H85.9286H85.9264H85.9243H85.9221H85.92H85.9178H85.9156H85.9135H85.9113H85.9092H85.907H85.9048H85.9027H85.9005H85.8984H85.8962H85.8941H85.8919H85.8897H85.8876H85.8854H85.8833H85.8811H85.8789H85.8768H85.8746H85.8725H85.8703H85.8681H85.866H85.8638H85.8617H85.8595H85.8574H85.8552H85.853H85.8509H85.8487H85.8466H85.8444H85.8422H85.8401H85.8379H85.8358H85.8336H85.8315H85.8293H85.8271H85.825H85.8228H85.8207H85.8185H85.8163H85.8142H85.812H85.8099H85.8077H85.8055H85.8034H85.8012H85.7991H85.7969H85.7948H85.7926H85.7904H85.7883H85.7861H85.784H85.7818H85.7796H85.7775H85.7753H85.7732H85.771H85.7689H85.7667H85.7645H85.7624H85.7602H85.7581H85.7559H85.7537H85.7516H85.7494H85.7473H85.7451H85.743H85.7408H85.7386H85.7365H85.7343H85.7322H85.73H85.7278H85.7257H85.7235H85.7214H85.7192H85.717H85.7149H85.7127H85.7106H85.7084H85.7063H85.7041H85.7019H85.6998H85.6976H85.6955H85.6933H85.6911H85.689H85.6868H85.6847H85.6825H85.6804H85.6782H85.676H85.6739H85.6717H85.6696H85.6674H85.6652H85.6631H85.6609H85.6588H85.6566H85.6544H85.6523H85.6501H85.648H85.6458H85.6437H85.6415H85.6393H85.6372H85.635H85.6329H85.6307H85.6285H85.6264H85.6242H85.6221H85.6199H85.6178H85.6156H85.6134H85.6113H85.6091H85.607H85.6048H85.6026H85.6005H85.5983H85.5962H85.594H85.5918H85.5897H85.5875H85.5854H85.5832H85.5811H85.5789H85.5767H85.5746H85.5724H85.5703H85.5681H85.5659H85.5638H85.5616H85.5595H85.5573H85.5551H85.553H85.5508H85.5487H85.5465H85.5444H85.5422H85.54H85.5379H85.5357H85.5336H85.5314H85.5292H85.5271H85.5249H85.5228H85.5206H85.5184H85.5163H85.5141H85.512H85.5098H85.5077H85.5055H85.5033H85.5012H85.499H85.4969H85.4947H85.4925H85.4904H85.4882H85.4861H85.4839H85.4818H85.4796H85.4774H85.4753H85.4731H85.471H85.4688H85.4666H85.4645H85.4623H85.4602H85.458H85.4558H85.4537H85.4515H85.4494H85.4472H85.4451H85.4429H85.4407H85.4386H85.4364H85.4343H85.4321H85.4299H85.4278H85.4256H85.4235H85.4213H85.4192H85.417H85.4148H85.4127H85.4105H85.4084H85.4062H85.404H85.4019H85.3997H85.3976H85.3954H85.3932H85.3911H85.3889H85.3868H85.3846H85.3825H85.3803H85.3781H85.376H85.3738H85.3717H85.3695H85.3673H85.3652H85.363H85.3609H85.3587H85.3566H85.3544H85.3522H85.3501H85.3479H85.3458H85.3436H85.3414H85.3393H85.3371H85.335H85.3328H85.3307H85.3285H85.3263H85.3242H85.322H85.3199H85.3177H85.3155H85.3134H85.3112H85.3091H85.3069H85.3047H85.3026H85.3004H85.2983H85.2961H85.294H85.2918H85.2896H85.2875H85.2853H85.2832H85.281H85.2788H85.2767H85.2745H85.2724H85.2702H85.2681H85.2659H85.2637H85.2616H85.2594H85.2573H85.2551H85.2529H85.2508H85.2486H85.2465H85.2443H85.2421H85.24H85.2378H85.2357H85.2335H85.2314H85.2292H85.227H85.2249H85.2227H85.2206H85.2184H85.2162H85.2141H85.2119H85.2098H85.2076H85.2055H85.2033H85.2011H85.199H85.1968H85.1947H85.1925H85.1903H85.1882H85.186H85.1839H85.1817H85.1796H85.1774H85.1752H85.1731H85.1709H85.1688H85.1666H85.1644H85.1623H85.1601H85.158H85.1558H85.1536H85.1515H85.1493H85.1472H85.145H85.1429H85.1407H85.1385H85.1364H85.1342H85.1321H85.1299H85.1277H85.1256H85.1234H85.1213H85.1191H85.117H85.1148H85.1126H85.1105H85.1083H85.1062H85.104H85.1018H85.1011H85.1004H85.0997H85.099H85.0982H85.0975H85.0968H85.0961H85.0954H85.0946H85.0939H85.0932H85.0925H85.0918H85.091H85.0903H85.0896H85.0889H85.0882H85.0874H85.0867H85.086H85.0853H85.0846H85.0838H85.0831H85.0824H85.0817H85.081H85.0803H85.0795H85.0788H85.0781H85.0774H85.0767H85.0759H85.0752H85.0745H85.0738H85.0731H85.0723H85.0716H85.0709H85.0702H85.0695H85.0687H85.068H85.0673H85.0666H85.0659H85.0651H85.0644H85.0637H85.063H85.0623H85.0615H85.0608H85.0601H85.0594H85.0587H85.0579H85.0572H85.0565H85.0558H85.0551H85.0544H85.0536H85.0529H85.0522H85.0515H85.0508H85.05H85.0493H85.0486H85.0479H85.0472H85.0464H85.0457H85.045H85.0443H85.0436H85.0428H85.0421H85.0414H85.0407H85.04H85.0392H85.0385H85.0378H85.0371H85.0364H85.0356H85.0349H85.0342H85.0335H85.0328H85.032H85.0313H85.0306H85.0299H85.0292H85.0285H85.0277H85.027H85.0263H85.0256H85.0248H85.0241H85.0234H85.0227H85.022H85.0213H85.0205H85.0198H85.0191H85.0184H85.0177H85.0169H85.0162H85.0155H85.0148H85.0141H85.0133H85.0126H85.0119H85.0112H85.0105H85.0097H85.009H85.0083H85.0076H85.0069H85.0061H85.0054H85.0047H85.004H85.0033H85.0025H85.0018H85.0011H85.0004H84.9997H84.9989H84.9982H84.9975H84.9968H84.9961H84.9954H84.9946H84.9939H84.9932H84.9925H84.9918H84.991H84.9903H84.9896H84.9889H84.9882H84.9874H84.9867H84.986H84.9853H84.9846H84.9838H84.9831H84.9824H84.9817H84.981H84.9802H84.9795H84.9788H84.9781H84.9774H84.9766H84.9759H84.9752H84.9745H84.9738H84.973H84.9723H84.9716H84.9709H84.9702H84.9695H84.9687H84.968H84.9673H84.9666H84.9659H84.9651H84.9644H84.9637H84.963H84.9623H84.9615H84.9608H84.9601H84.9594H84.9587H84.9579H84.9572H84.9565H84.9558H84.9551H84.9543H84.9536H84.9529H84.9522H84.9515H84.9507H84.95H84.9493H84.9486H84.9479H84.9471H84.9464H84.9457H84.945H84.9443H84.9436H84.9428H84.9421H84.9414H84.9407H84.9399H84.9392H84.9385H84.9378H84.9371H84.9364H84.9356H84.9349H84.9342H84.9335H84.9328H84.932H84.9313H84.9306H84.9299H84.9292H84.9284H84.9277H84.927H84.9263H84.9256H84.9248H84.9241H84.9234H84.9227H84.922H84.9212H84.9205H84.9198H84.9191H84.9184H84.9176H84.9169H84.9162H84.9155H84.9148H84.914H84.9133H84.9126H84.9119H84.9112H84.9105H84.9097H84.909H84.9083H84.9076H84.9069H84.9061H84.9054H84.9047H84.904H84.9033H84.9025H84.9018H84.9011H84.9004H84.8997H84.8989H84.8982H84.8975H84.8968H84.8961H84.8953H84.8946H84.8939H84.8932H84.8925H84.8917H84.891H84.8903H84.8896H84.8889H84.8881H84.8874H84.8867H84.886H84.8853H84.8846H84.8838H84.8831H84.8824H84.8817H84.881H84.8802H84.8795H84.8788H84.8781H84.8774H84.8766H84.8759H84.8752H84.8745H84.8738H84.873H84.8723H84.8716H84.8709H84.8702H84.8694H84.8687H84.868H84.8673H84.8666H84.8658H84.8651H84.8644H84.8637H84.863H84.8622H84.8615H84.8608H84.8601H84.8594H84.8587H84.8579H84.8572H84.8565H84.8558H84.855H84.8543H84.8536H84.8529H84.8522H84.8515H84.8507H84.85H84.8493H84.8486H84.8479H84.8471H84.8464H84.8457H84.845H84.8443H84.8435H84.8428H84.8421H84.8414H84.8407H84.8399H84.8392H84.8385H84.8378H84.8371H84.8363H84.8356H84.8349H84.8342H84.8335H84.8327H84.832H84.8313H84.8306H84.8299H84.8291H84.8284H84.8277H84.827H84.8263H84.8256H84.8248H84.8241H84.8234H84.8227H84.822H84.8212H84.8205H84.8198H84.8191H84.8184H84.8176H84.8169H84.8162H84.8155H84.8148H84.814H84.8133H84.8126H84.8119H84.8112H84.8104H84.8097H84.809H84.8083H84.8076H84.8068H84.8061H84.8054H84.8047H84.804H84.8032H84.8025H84.8018H84.8011H84.8004H84.7997H84.7989H84.7982H84.7975H84.7968H84.7961H84.7953H84.7946H84.7939H84.7932H84.7924H84.7917H84.791H84.7903H84.7896H84.7889H84.7881H84.7874H84.7867H84.786H84.7853H84.7845H84.7838H84.7831H84.7824H84.7817H84.7809H84.7802H84.7795H84.7788H84.7781H84.7773H84.7766H84.7759H84.7752H84.7745H84.7737H84.773H84.7723H84.7716H84.7709H84.7701H84.7694H84.7687H84.768H84.7673H84.7665H84.7658H84.7651H84.7644H84.7637H84.763H84.7622H84.7615H84.7608H84.7601H84.7594H84.7586H84.7579H84.7572H84.7565H84.7558H84.755H84.7543H84.7536H84.7529H84.7522H84.7514H84.7507H84.75H84.7493H84.7486H84.7478H84.7471C74.5717 169.99 64.8897 168.068 55.9346 164.533L55.8704 164.501C55.7891 164.461 55.7156 164.431 55.6579 164.411C55.6501 164.408 55.6424 164.405 55.6349 164.403L55.58 164.348L55.2442 164.236C54.8632 164.109 54.594 164.017 54.3353 163.888L54.1844 163.812L54.1389 163.767L53.8533 163.653C53.7391 163.607 53.6322 163.57 53.552 163.543C53.5312 163.536 53.5126 163.529 53.4958 163.523C53.439 163.504 53.4013 163.491 53.3619 163.477C53.3359 163.467 53.3185 163.46 53.3079 163.456L53.1985 163.374L53.0406 163.304C51.5164 162.634 50.078 161.975 48.7095 161.261L48.6981 161.255L48.6865 161.25C48.3086 161.061 48.0217 160.916 47.7425 160.73L47.6699 160.681L47.5922 160.642C44.6419 159.138 41.8196 157.457 39.1223 155.54L39.1132 155.534C38.7922 155.309 38.4579 155.087 38.1404 154.875L38.1334 154.871C37.8469 154.68 37.5738 154.498 37.3141 154.318C37.3054 154.309 37.2966 154.3 37.2874 154.291L37.1824 154.186L37.0589 154.104C37.0595 154.104 37.0558 154.102 37.0466 154.095C37.0372 154.088 37.0247 154.079 37.0069 154.065C37.0009 154.06 36.8932 153.975 36.8574 153.948C36.737 153.855 36.548 153.716 36.3071 153.593C36.3031 153.59 36.2979 153.587 36.2914 153.582L36.2842 153.577C36.2526 153.556 36.1963 153.519 36.1221 153.475C35.6586 153.128 35.2372 152.808 34.82 152.444L34.7848 152.413L34.7477 152.384C31.0741 149.556 27.6445 146.43 24.5176 143.007C24.3366 142.797 24.183 142.629 24.0433 142.475C23.8206 142.231 23.6334 142.026 23.4276 141.752L23.3637 141.667L23.2882 141.591C23.0483 141.351 22.8512 141.107 22.6007 140.795C22.4534 140.611 22.3086 140.448 22.1905 140.315L22.1821 140.306C22.0562 140.164 21.9587 140.054 21.8639 139.936C21.7576 139.803 21.6294 139.656 21.5274 139.538C21.4919 139.498 21.4595 139.46 21.4324 139.429C21.3063 139.282 21.2147 139.167 21.1426 139.059L21.0601 138.935L20.9551 138.83C20.9505 138.826 20.9466 138.822 20.943 138.818L20.9177 138.768L20.8153 138.641C18.5194 135.804 16.413 132.856 14.5517 129.736L14.4559 129.576L14.3904 129.51C7.99335 118.945 3.86616 106.832 2.6631 93.8203C2.63901 93.4628 2.61024 93.1324 2.58285 92.818C2.53066 92.2187 2.48352 91.6775 2.48352 91.1173V90.9686L2.45434 90.8229C2.42684 90.6855 2.42212 90.527 2.42212 90.197V90.1629L2.42057 90.1288C2.35901 88.7757 2.29932 87.3972 2.29932 86.0865C2.29932 76.6845 3.86725 67.7043 6.70343 59.2629L6.70445 59.2599C7.07605 58.1459 7.42295 57.1095 7.88008 56.0818L7.89615 56.0457L7.91029 56.0088C16.4745 33.651 34.3909 15.9277 56.8331 7.48847L56.9059 7.46108L56.9755 7.42631C56.974 7.42708 57.0072 7.41135 57.1054 7.38411C57.151 7.37145 57.2016 7.35869 57.2633 7.34372C57.2792 7.33985 57.2984 7.33525 57.3192 7.33026C57.3658 7.31907 57.4207 7.30587 57.4669 7.29433L57.5227 7.28038L57.5773 7.26219C57.7117 7.21745 57.823 7.17295 57.8979 7.14298L57.9056 7.1399C57.9842 7.1085 58.0233 7.09319 58.0686 7.07814L57.5957 5.65835L58.0686 7.07813L58.437 6.95543L58.4494 6.95128L58.4618 6.94691L59.403 6.615C59.6627 6.55856 59.8837 6.47796 60.0158 6.42979C60.0245 6.42659 60.0329 6.42353 60.0409 6.42063C60.2281 6.35262 60.2703 6.3415 60.297 6.33706L60.413 6.31774L60.5245 6.28057C60.7067 6.21989 60.8433 6.17482 61.0281 6.12866L61.1446 6.09955L61.255 6.05227C61.5539 5.92428 61.9224 5.82856 62.4403 5.6992L62.4741 5.69076L62.5075 5.68075L64.3382 5.13198C67.5137 4.23459 70.821 3.573 74.1428 3.09027L74.1549 3.0884C78.0675 2.48695 82.105 2.18555 86.2071 2.18555C93.6907 2.18555 100.928 3.15027 107.86 5.01744L108.051 5.06906H108.068C108.317 5.16855 108.538 5.18794 108.657 5.19133C108.725 5.20685 108.803 5.2279 108.905 5.25683C108.921 5.26137 108.938 5.26638 108.957 5.27177C109.056 5.30051 109.193 5.33989 109.339 5.37468C109.452 5.4153 109.548 5.43941 109.61 5.45355L109.721 5.56453L110.166 5.65349C110.239 5.66795 110.324 5.69234 110.49 5.74211L110.509 5.74796C110.64 5.78712 110.831 5.84434 111.035 5.88813C111.063 5.89656 111.112 5.9137 111.223 5.95531L111.242 5.96237C111.342 5.99979 111.507 6.06194 111.69 6.11182C111.932 6.19191 112.149 6.2607 112.353 6.32515C112.824 6.47407 113.221 6.59985 113.676 6.78825C113.992 6.92762 114.315 7.04674 114.589 7.14758L114.608 7.15468C114.909 7.26522 115.154 7.35595 115.377 7.45536L115.422 7.47505L115.467 7.49184C131.808 13.5167 145.684 24.5455 155.399 38.5947C158.834 43.5933 161.73 49.0171 164.023 54.685L164.023 54.6854C167.219 62.5778 169.268 71.1309 169.872 79.982C169.993 82.2251 170.053 84.2192 170.053 86.2705C170.053 93.4352 169.09 100.486 167.4 107.12C166.855 109.179 166.254 111.216 165.539 113.182ZM55.3243 164.404H55.3227C55.3038 164.404 55.3074 164.404 55.3243 164.404Z" fill="url(#paint0_radial)" stroke="white" stroke-width="3"/>
<g clip-path="url(#clip0)">
<path d="M103.536 164.895H26.1577C23.5308 164.895 21.3647 162.715 21.3647 160.072V12.3234C21.3647 9.68008 23.5308 7.50049 26.1577 7.50049H103.536C106.163 7.50049 108.329 9.68008 108.329 12.3234V160.118C108.329 162.762 106.163 164.895 103.536 164.895Z" fill="#263238"/>
<path d="M105.426 12.7407V159.33C105.426 160.536 104.458 161.463 103.26 161.463H26.2501C25.144 161.463 24.3145 160.582 24.3145 159.515V12.6016C24.3145 11.6277 25.0057 10.793 25.9735 10.793H45.2375C45.7905 10.793 46.2974 11.164 46.4818 11.6741L47.2652 13.6682C47.4496 14.1783 47.9565 14.5493 48.5096 14.5493H81.2767C81.8297 14.5493 82.3366 14.2247 82.521 13.7146L83.3044 11.7205C83.4888 11.2103 83.9957 10.8393 84.5488 10.8393H103.536C104.596 10.793 105.426 11.7205 105.426 12.7407Z" fill="#02A39B"/>
<path opacity="0.3" d="M105.426 19.9287H24.3145V151.771H105.426V19.9287Z" fill="white"/>
<path opacity="0.6" d="M63.0265 12.0914C63.6373 12.0914 64.1325 11.5931 64.1325 10.9785C64.1325 10.3638 63.6373 9.86548 63.0265 9.86548C62.4156 9.86548 61.9204 10.3638 61.9204 10.9785C61.9204 11.5931 62.4156 12.0914 63.0265 12.0914Z" fill="white"/>
<path opacity="0.6" d="M66.3909 10.9786C66.3909 11.3959 66.0683 11.6742 65.6996 11.6742C65.2848 11.6742 65.0083 11.3496 65.0083 10.9786C65.0083 10.5612 65.3309 10.283 65.6996 10.283C66.0683 10.283 66.3909 10.5612 66.3909 10.9786Z" fill="white"/>
<path opacity="0.6" d="M33.47 16.7078H34.4839V15.3629H33.47V16.7078Z" fill="white"/>
<path opacity="0.6" d="M31.8176 16.6768H32.8315V14.8682H31.8176V16.6768Z" fill="white"/>
<path opacity="0.6" d="M30.1653 16.6921H31.1792V14.4662H30.1653V16.6921Z" fill="white"/>
<path opacity="0.6" d="M28.5589 16.7075H29.5728V14.0178H28.5589V16.7075Z" fill="white"/>
<path opacity="0.6" d="M96.439 14.8733H95.8398V16.2181H96.439V14.8733Z" fill="white"/>
<path opacity="0.6" d="M96.8547 16.7004H101.602V14.3817H96.8547V16.7004Z" fill="white"/>
<path d="M47.4493 65.7003C57.6049 65.7003 65.8376 57.4161 65.8376 47.197C65.8376 36.9778 57.6049 28.6936 47.4493 28.6936C37.2938 28.6936 29.061 36.9778 29.061 47.197C29.061 57.4161 37.2938 65.7003 47.4493 65.7003Z" fill="white"/>
<path d="M38.9233 110.312V106.463C38.9233 106.324 38.8311 106.231 38.6929 106.185L35.9277 105.536C35.6973 105.49 35.4208 105.629 35.3747 105.907C35.3747 105.953 35.3747 105.953 35.3747 106C35.3747 107.252 35.4669 108.133 35.4669 109.71C35.4669 110.683 35.3286 113.559 35.3286 114.903C35.3286 116.248 36.619 116.387 36.7573 115.877C37.3103 113.466 38.0477 111.611 38.739 110.869C38.8311 110.683 38.9233 110.498 38.9233 110.312Z" fill="#263238"/>
<path d="M55.9284 75.0215L57.1727 81.5139C57.1727 81.5139 66.8969 97.3275 66.8969 106.463C66.8969 117.361 38.6001 111.101 38.6001 111.101V106.092C38.6001 106.092 55.5136 107.576 57.0345 105.86C58.8779 103.774 47.4947 87.7281 47.4947 87.7281L55.9284 75.0215Z" fill="#263238"/>
<path opacity="0.2" d="M66.8514 106.509C66.8514 112.537 58.2334 113.326 50.537 112.816C45.3754 112.491 40.6286 111.563 39.1077 111.239C38.7851 111.146 38.5547 111.146 38.5547 111.146V106.138C38.5547 106.138 38.7851 106.138 39.1999 106.184C41.1355 106.323 47.1267 106.787 51.6431 106.694C54.3161 106.648 56.5282 106.416 57.0351 105.859C57.9569 104.839 55.6526 100.434 53.0718 96.26C50.3988 91.9008 47.4493 87.7735 47.4493 87.7735L51.1822 82.2085L55.9291 75.0669L57.1734 81.5593C57.1273 81.5129 66.8514 97.3729 66.8514 106.509Z" fill="white"/>
<path opacity="0.2" d="M51.5969 106.649L50.4908 112.77C45.3292 112.446 40.5824 111.518 39.0615 111.193L39.1537 106.092C41.0893 106.278 47.0805 106.742 51.5969 106.649Z" fill="black"/>
<path opacity="0.2" d="M51.1822 89.1193C51.1822 89.1193 52.7491 92.8756 53.0717 96.2146C50.3987 91.8554 47.4492 87.7281 47.4492 87.7281L51.1822 82.1632L53.1178 81.5139C53.1178 81.5139 53.5326 84.0645 51.1822 89.1193Z" fill="black"/>
<path d="M48.6475 144.073H44.8224C44.6841 144.073 44.5919 144.166 44.5458 144.305L43.9467 147.134C43.9006 147.366 44.0389 147.644 44.3154 147.69C44.3615 147.69 44.3615 147.69 44.4076 147.69C45.6519 147.69 46.5275 147.597 48.0945 147.597C49.0623 147.597 51.9196 147.69 53.2561 147.69C54.5926 147.69 54.7308 146.392 54.2239 146.253C51.8274 145.742 49.984 145 49.2005 144.305C49.0162 144.119 48.8318 144.073 48.6475 144.073Z" fill="#263238"/>
<path d="M38.9693 75.2533C38.9693 75.2533 38.1397 78.4531 38.9693 93.0147C40.2597 115.367 44.3613 145.139 44.3613 145.139L49.1543 144.258C49.1543 144.258 48.5552 99.6926 49.2004 87.4034C49.2004 87.4034 55.975 81.282 55.9289 75.0214C55.8367 68.7609 38.9693 75.2533 38.9693 75.2533Z" fill="#263238"/>
<path opacity="0.2" d="M38.9693 75.2533C38.9693 75.2533 38.1397 78.4531 38.9693 93.0147C40.2597 115.367 44.3613 145.139 44.3613 145.139L49.1543 144.258C49.1543 144.258 48.5552 99.6926 49.2004 87.4034C49.2004 87.4034 55.975 81.282 55.9289 75.0214C55.8367 68.7609 38.9693 75.2533 38.9693 75.2533Z" fill="white"/>
<path d="M55.6984 73.2583H38.9692V75.2524L55.9289 75.0205L55.6984 73.2583Z" fill="#263238"/>
<path d="M44.3467 75.9036H44.9458V72.3327H44.3467V75.9036Z" fill="#263238"/>
<path d="M52.812 75.9036H53.4111V72.3327H52.812V75.9036Z" fill="#263238"/>
<path d="M48.0856 75.1353H51.1733V72.9093H48.0856V75.1353Z" fill="white"/>
<path opacity="0.2" d="M44.3467 75.9036H44.9458V72.3327H44.3467V75.9036Z" fill="white"/>
<path opacity="0.2" d="M52.812 75.9036H53.4111V72.3327H52.812V75.9036Z" fill="white"/>
<path d="M54.0395 44.089C54.0395 44.089 43.4398 43.5788 35.5591 45.5729C35.5591 45.5729 39.0616 63.1952 38.9234 73.2584H55.6986C55.6986 73.2584 56.8047 54.4304 54.0395 44.089Z" fill="#407BFF"/>
<path opacity="0.6" d="M55.6986 73.2594H38.9234C38.9234 72.1464 38.9234 70.987 38.8312 69.7349C38.6929 66.8597 38.3703 63.6135 37.9556 60.5064C37.9095 60.1818 37.8634 59.9036 37.8173 59.5789C37.5408 57.5848 37.2643 55.5908 36.9877 53.8285C36.2504 49.052 35.5591 45.5275 35.5591 45.5275C43.4398 43.5334 54.0395 44.0435 54.0395 44.0435C56.8047 54.4314 55.6986 73.2594 55.6986 73.2594Z" fill="white"/>
<path d="M41.7344 44.7854C43.2552 46.1767 46.9882 45.6665 46.9882 45.6665C46.9882 45.6665 49.2925 45.0173 48.8316 44.2753C47.449 44.0434 46.8038 43.3942 46.5273 42.5595C46.3891 42.0957 46.343 41.5392 46.389 40.9827C46.389 40.7045 46.4351 40.3799 46.4812 40.1016L41.8726 36.6699C42.5178 38.9886 43.2552 43.116 41.7344 44.7854Z" fill="#EBB376"/>
<path opacity="0.2" d="M42.9785 38.896C43.1629 41.6785 45.4211 42.4204 46.5271 42.6059C46.3889 42.1422 46.3428 41.5857 46.3889 41.0292L42.9785 38.896Z" fill="black"/>
<path d="M48.693 29.5747C48.693 29.5747 50.2599 33.6556 48.4165 35.7889C46.573 37.9221 44.8218 30.0384 44.8218 30.0384L48.693 29.5747Z" fill="#263238"/>
<path d="M42.6558 40.5655C44.0845 41.864 45.9279 41.9104 47.3566 41.0757C48.2783 40.5655 49.0157 39.6381 49.3383 38.5251C49.3844 38.3859 49.4305 38.2468 49.4305 38.0613C49.9374 35.2325 49.2922 30.6414 46.2045 29.5748C43.9923 28.7865 41.5959 29.9458 40.8124 32.1718C40.582 32.821 40.5359 33.4703 40.582 34.1195C40.9507 37.2266 41.0428 39.0816 42.6558 40.5655Z" fill="#EBB376"/>
<path d="M45.3751 34.7682C45.3751 34.9999 45.5133 35.2315 45.6974 35.2315C45.8816 35.2315 45.9737 34.9999 45.9737 34.7682C45.9737 34.5366 45.8355 34.3049 45.6514 34.3049C45.4672 34.3049 45.3291 34.5366 45.3751 34.7682Z" fill="#263238"/>
<path d="M48.186 34.6291C48.186 34.8607 48.3242 35.0924 48.5083 35.0924C48.6925 35.0924 48.7846 34.8607 48.7846 34.6291C48.7846 34.3974 48.6464 34.1658 48.4623 34.1658C48.3242 34.1658 48.186 34.3974 48.186 34.6291Z" fill="#263238"/>
<path d="M47.3105 34.8149C47.6331 35.5569 48.094 36.2989 48.6009 36.9018C48.2783 37.18 47.8175 37.2728 47.4027 37.18L47.3105 34.8149Z" fill="#D58745"/>
<path d="M44.4535 33.8875C44.4996 33.8875 44.5457 33.8875 44.5918 33.8411C44.7761 33.5165 45.1448 33.331 45.5135 33.2846C45.6056 33.2846 45.6517 33.2382 45.6517 33.1455C45.6517 33.0527 45.6056 33.0063 45.5135 33.0063C45.0526 33.0063 44.5918 33.2846 44.3613 33.702C44.3152 33.7483 44.3152 33.8411 44.4074 33.8875C44.4074 33.8875 44.4074 33.8875 44.4535 33.8875Z" fill="#263238"/>
<path d="M49.3844 33.6094C49.4305 33.6094 49.4305 33.6094 49.4766 33.6094C49.5687 33.563 49.5687 33.4702 49.5226 33.4239C49.2922 33.0065 48.8774 32.7282 48.4166 32.6355C48.3244 32.6355 48.2783 32.6819 48.2783 32.7746C48.2783 32.8674 48.3244 32.9137 48.4166 32.9137C48.7853 32.9601 49.1079 33.192 49.2922 33.563C49.2922 33.563 49.3383 33.6094 49.3844 33.6094Z" fill="#263238"/>
<path d="M42.7018 30.1777L42.9784 31.5226C42.5636 31.8008 42.3332 32.3573 42.6097 32.8674C43.1627 33.9804 42.7018 35.8354 41.8723 36.6238C41.8723 36.6238 41.7801 36.1137 41.4114 36.2992C40.9967 36.4383 41.3654 39.0352 42.2871 40.1946C42.2871 40.1946 40.7201 38.9889 39.7523 36.3455C38.8767 33.8877 38.7845 32.0327 39.2454 31.0125L42.7018 30.1777Z" fill="#263238"/>
<path d="M39.4302 36.7627C39.7989 37.4583 40.4441 37.9684 41.1815 38.1539C42.1493 38.4786 42.6562 37.5511 42.3797 36.6236C42.1493 35.7889 41.3197 34.5831 40.3058 34.7686C39.338 34.9077 38.9693 35.928 39.4302 36.7627Z" fill="#EBB376"/>
<path d="M43.0247 31.5224C43.0247 31.5224 46.3428 32.7281 48.2785 30.9195C50.168 29.1573 48.0019 26.7458 48.0019 26.7458C48.0019 26.7458 47.3107 27.4878 46.2507 27.5806C45.1907 27.6733 42.7481 27.0241 40.7664 28.0443C38.7848 29.0646 38.0474 31.9398 39.8447 33.2383L43.0247 31.5224Z" fill="#263238"/>
<path d="M45.6514 37.6438C45.6514 37.6438 46.2044 38.5713 47.3105 38.2467" stroke="#263238" stroke-width="0.5" stroke-miterlimit="10" stroke-linecap="round" stroke-linejoin="round"/>
<path d="M48.5094 45.4345L48.0485 47.6605C48.0485 47.6605 50.5832 58.373 51.1363 63.8915L50.2145 64.819L48.7398 63.8915C48.7398 63.8915 48.6015 52.5762 47.3111 47.846L45.0068 45.9447L46.8042 45.3418L48.5094 45.4345Z" fill="#407BFF"/>
<path d="M42.2875 42.6987L46.7118 44.6928L46.9883 43.0697L48.6013 43.6262C49.2004 43.8117 49.5691 44.4146 49.4769 45.0174L49.2926 46.826L47.0344 45.5739L45.9283 47.1507L40.6284 44.5537L42.2875 42.6987Z" fill="#407BFF"/>
<path opacity="0.7" d="M42.2875 42.6987L46.7118 44.6928L46.9883 43.0697L48.6013 43.6262C49.2004 43.8117 49.5691 44.4146 49.4769 45.0174L49.2926 46.826L47.0344 45.5739L45.9283 47.1507L40.6284 44.5537L42.2875 42.6987Z" fill="white"/>
<path d="M40.7198 44.3207C40.7198 44.3207 44.9137 47.7524 49.6144 58.604C49.6144 58.604 49.7988 47.9842 48.877 43.8105L54.0387 44.0424C54.0387 44.0424 57.8177 52.3898 55.9282 70.4758L57.2186 79.5188L51.55 81.8839L50.2596 77.6638L48.9231 81.7911L38.0008 80.3072L38.5999 68.8991C38.5999 68.8991 35.973 50.0247 35.6504 45.48L40.7198 44.3207Z" fill="#263238"/>
<path opacity="0.1" d="M57.2195 79.5197L51.5509 81.8848L50.2605 77.6648L48.924 81.7921L44.6841 81.2356L37.9556 80.3545L38.2321 74.6968L38.5086 68.9464C38.5086 68.9464 38.3703 68.158 38.2321 66.8132C38.0477 65.4219 37.7712 63.4742 37.4947 61.2946C37.3564 60.228 37.2182 59.115 37.0338 57.9557C36.8956 56.7499 36.7112 55.5442 36.573 54.3385C36.1121 50.5821 35.6973 47.1504 35.5591 45.5273L40.352 44.368L40.7207 44.2752C40.7207 44.2752 44.7302 47.5678 49.3388 57.9557C49.431 58.1412 49.5231 58.373 49.6153 58.5585C49.6153 58.5585 49.6153 58.3267 49.6153 57.9557C49.6153 55.6833 49.6614 47.3359 48.8779 43.7188L54.0395 43.9506C54.0395 43.9506 56.1595 48.6808 56.436 58.744C56.4821 59.9498 56.4821 61.2019 56.436 62.5467C56.3899 64.9118 56.2056 67.5552 55.9291 70.4304L57.2195 79.5197Z" fill="white"/>
<path opacity="0.2" d="M51.505 48.6801L52.7032 50.8133C52.7032 50.8133 51.4589 58.9752 49.4772 61.8041V60.1346L41.7809 51.1843L43.1634 49.0511L39.707 49.7467C39.707 49.7467 39.3844 46.4541 40.3983 44.46L40.767 44.3673C40.767 44.3673 44.9147 47.799 49.6616 58.6506C49.6616 58.6506 49.8459 48.0309 48.9242 43.8572C48.9242 43.8572 51.3667 45.202 53.118 48.7265H51.505V48.6801Z" fill="white"/>
<path opacity="0.2" d="M56.4357 62.6396C55.1453 62.4541 53.394 62.1295 51.1819 61.573C51.1819 61.573 44.5455 65.8858 41.5499 66.3959C40.1673 66.6278 39.1074 66.7669 38.2778 66.8133C38.0935 65.422 37.817 63.4743 37.5404 61.2947C37.4022 60.2281 37.2639 59.1151 37.0796 57.9558L39.3378 50.4895L45.0525 57.4457L49.3384 57.9558L49.615 58.0021L56.4357 58.7905C56.4357 60.0426 56.4357 61.2947 56.4357 62.6396Z" fill="black"/>
<path d="M54.0393 44.0898C56.2975 44.6463 63.3026 54.6168 63.1183 58.6978C62.9339 62.7787 45.3291 60.6455 45.3291 60.6455L45.79 58.6514L56.2515 55.1269C56.2515 55.1269 56.0671 52.7618 55.5141 49.933C54.8689 46.5477 54.0393 44.0898 54.0393 44.0898Z" fill="#263238"/>
<path opacity="0.1" d="M63.1183 58.6968C63.0261 60.9228 57.8184 61.2938 53.1176 61.201C51.5968 61.1546 50.122 61.0619 48.8316 60.9691C46.7578 60.83 45.3291 60.6445 45.3291 60.6445L45.79 58.6504L49.4307 57.4447L56.2515 55.1723C56.2515 55.1723 56.0671 52.8073 55.5141 49.9784C55.468 49.7929 55.468 49.6538 55.4219 49.4683C54.7767 46.3612 54.0393 44.1353 54.0393 44.1353C56.2975 44.599 63.3026 54.6159 63.1183 58.6968Z" fill="white"/>
<path opacity="0.2" d="M59.2469 55.0807C59.2469 55.0807 56.5739 58.6979 53.0714 61.2021C51.5505 61.1557 50.0758 61.063 48.7854 60.9703C48.4167 59.9036 48.4628 58.6515 48.4628 58.6515L49.3845 57.4458L56.2052 55.1735C56.2052 55.1735 56.0209 52.8084 55.4678 49.9795C55.4218 49.794 55.4218 49.6549 55.3757 49.4694L55.4218 49.423C55.4218 49.3767 58.4634 51.6954 59.2469 55.0807Z" fill="black"/>
<path d="M46.8038 57.5384C46.8038 57.5384 44.7299 55.8689 43.9004 55.5906C43.0708 55.3124 41.5039 56.5645 41.5039 56.5645L43.5317 59.4861L46.8038 57.5384Z" fill="#EBB376"/>
<path d="M56.1594 57.1674L59.2472 55.0805C59.2472 55.0805 56.8968 53.411 56.6203 53.3647C56.2977 53.3183 54.7769 55.0805 54.7769 55.0805L56.1594 57.1674Z" fill="#EBB376"/>
<path d="M35.559 45.5737C32.5634 47.0576 36.8494 61.4337 40.5823 64.3553C44.3153 67.2769 56.9889 57.1209 56.9889 57.1209L55.0994 54.4312C55.0994 54.4312 45.1909 57.9092 43.9005 57.5846C42.6101 57.26 39.1076 49.7937 37.9554 48.0779C36.8033 46.362 35.1442 45.3418 35.1442 45.3418" fill="#263238"/>
<path opacity="0.1" d="M35.559 45.5737C32.5634 47.0576 36.8494 61.4337 40.5823 64.3553C44.3153 67.2769 56.9889 57.1209 56.9889 57.1209L55.0994 54.4312C55.0994 54.4312 45.1909 57.9092 43.9005 57.5846C42.6101 57.26 39.1076 49.7937 37.9554 48.0779C36.8033 46.362 35.1442 45.3418 35.1442 45.3418" fill="white"/>
<path d="M90.77 38.6177H73.6721C72.4738 38.6177 71.46 37.6439 71.46 36.3917C71.46 35.186 72.4278 34.1658 73.6721 34.1658H90.77C91.9682 34.1658 92.9821 35.1396 92.9821 36.3917C92.9821 37.5975 92.0143 38.6177 90.77 38.6177Z" fill="#407BFF"/>
<path d="M98.5585 43.8579H72.2895C71.8286 43.8579 71.46 43.487 71.46 43.0232C71.46 42.5595 71.8286 42.1885 72.2895 42.1885H98.5585C99.0194 42.1885 99.3881 42.5595 99.3881 43.0232C99.4341 43.487 99.0654 43.8579 98.5585 43.8579Z" fill="#407BFF"/>
<path d="M87.4516 47.7999H72.3354C71.8745 47.7999 71.5059 47.4289 71.5059 46.9651C71.5059 46.5014 71.8745 46.1304 72.3354 46.1304H87.4516C87.9125 46.1304 88.2812 46.5014 88.2812 46.9651C88.2812 47.4289 87.9125 47.7999 87.4516 47.7999Z" fill="#407BFF"/>
<path opacity="0.2" d="M80.1702 58.234H73.5338C72.3817 58.234 71.46 57.3065 71.46 56.1472C71.46 54.9878 72.3817 54.0603 73.5338 54.0603H80.1702C81.3223 54.0603 82.2441 54.9878 82.2441 56.1472C82.2441 57.3065 81.3223 58.234 80.1702 58.234Z" fill="black"/>
<path d="M56.436 71.2651H26.4341V146.948H56.436V71.2651Z" fill="#447D98"/>
<g opacity="0.3">
<path opacity="0.3" d="M48.6016 91.2525H31.5498C31.0889 91.2525 30.7202 90.8815 30.7202 90.4177C30.7202 89.954 31.0889 89.583 31.5498 89.583H48.6016C49.0624 89.583 49.4311 89.954 49.4311 90.4177C49.4311 90.8815 49.0624 91.2525 48.6016 91.2525Z" fill="white"/>
<path opacity="0.3" d="M42.0574 95.1944H31.5498C31.0889 95.1944 30.7202 94.8234 30.7202 94.3596C30.7202 93.8959 31.0889 93.5249 31.5498 93.5249H42.0574C42.5182 93.5249 42.8869 93.8959 42.8869 94.3596C42.8869 94.8234 42.5182 95.1944 42.0574 95.1944Z" fill="white"/>
</g>
<g opacity="0.3">
<path opacity="0.3" d="M43.993 103.078H31.5498C31.0889 103.078 30.7202 102.707 30.7202 102.243C30.7202 101.779 31.0889 101.408 31.5498 101.408H43.993C44.4538 101.408 44.8225 101.779 44.8225 102.243C44.8225 102.707 44.4538 103.078 43.993 103.078Z" fill="white"/>
<path opacity="0.3" d="M46.666 107.066H31.5498C31.0889 107.066 30.7202 106.695 30.7202 106.231C30.7202 105.767 31.0889 105.396 31.5498 105.396H46.666C47.1268 105.396 47.4955 105.767 47.4955 106.231C47.4955 106.695 47.1268 107.066 46.666 107.066Z" fill="white"/>
</g>
<g opacity="0.3">
<path opacity="0.3" d="M48.6016 114.95H31.5498C31.0889 114.95 30.7202 114.579 30.7202 114.115C30.7202 113.651 31.0889 113.28 31.5498 113.28H48.6016C49.0624 113.28 49.4311 113.651 49.4311 114.115C49.4311 114.579 49.0624 114.95 48.6016 114.95Z" fill="white"/>
<path opacity="0.3" d="M37.4488 118.892H31.5498C31.0889 118.892 30.7202 118.521 30.7202 118.057C30.7202 117.593 31.0889 117.222 31.5498 117.222H37.4488C37.9096 117.222 38.2783 117.593 38.2783 118.057C38.2783 118.521 37.9096 118.892 37.4488 118.892Z" fill="white"/>
</g>
<g opacity="0.3">
<path opacity="0.3" d="M39.3844 126.775H31.5498C31.0889 126.775 30.7202 126.404 30.7202 125.94C30.7202 125.477 31.0889 125.106 31.5498 125.106H39.3844C39.8452 125.106 40.2139 125.477 40.2139 125.94C40.2139 126.404 39.8452 126.775 39.3844 126.775Z" fill="white"/>
<path opacity="0.3" d="M46.666 130.763H31.5498C31.0889 130.763 30.7202 130.392 30.7202 129.928C30.7202 129.465 31.0889 129.094 31.5498 129.094H46.666C47.1268 129.094 47.4955 129.465 47.4955 129.928C47.4955 130.392 47.1268 130.763 46.666 130.763Z" fill="white"/>
</g>
<path opacity="0.3" d="M58.1408 146.935H103.121L103.121 71.2524H58.1408L58.1408 146.935Z" fill="white"/>
<g opacity="0.2">
<path opacity="0.2" d="M65.2836 79.3809H77.7269C78.1877 79.3809 78.5564 79.0099 78.5564 78.5462C78.5564 78.0824 78.1877 77.7114 77.7269 77.7114H65.2836C64.8228 77.7114 64.4541 78.0824 64.4541 78.5462C64.4541 79.0099 64.7767 79.3809 65.2836 79.3809Z" fill="black"/>
<path opacity="0.2" d="M94.2723 86.3835H70.7685C70.3077 86.3835 69.939 86.7545 69.939 87.2183C69.939 87.682 70.3077 88.053 70.7685 88.053H94.2723C94.7332 88.053 95.1019 87.682 95.1019 87.2183C95.148 86.7545 94.7332 86.3835 94.2723 86.3835Z" fill="black"/>
<path opacity="0.2" d="M65.2841 92.0411H94.2261C94.687 92.0411 95.0556 91.6701 95.0556 91.2063C95.0556 90.7426 94.687 90.3716 94.2261 90.3716H65.2841C64.8233 90.3716 64.4546 90.7426 64.4546 91.2063C64.4546 91.6701 64.7772 92.0411 65.2841 92.0411Z" fill="black"/>
<path opacity="0.2" d="M94.2724 95.0554H65.2382C64.7774 95.0554 64.4087 95.4264 64.4087 95.8902C64.4087 96.3539 64.7774 96.7249 65.2382 96.7249H94.2724C94.7333 96.7249 95.1019 96.3539 95.1019 95.8902C95.148 95.4264 94.7333 95.0554 94.2724 95.0554Z" fill="black"/>
<path opacity="0.2" d="M65.2841 100.713H94.2261C94.687 100.713 95.0556 100.342 95.0556 99.8782C95.0556 99.4145 94.687 99.0435 94.2261 99.0435H65.2841C64.8233 99.0435 64.4546 99.4145 64.4546 99.8782C64.4546 100.342 64.7772 100.713 65.2841 100.713Z" fill="black"/>
<path opacity="0.2" d="M94.2724 103.774H65.2382C64.7774 103.774 64.4087 104.145 64.4087 104.609C64.4087 105.072 64.7774 105.443 65.2382 105.443H94.2724C94.7333 105.443 95.1019 105.072 95.1019 104.609C95.148 104.145 94.7333 103.774 94.2724 103.774Z" fill="black"/>
<path opacity="0.2" d="M65.2841 109.431H87.7741C88.2349 109.431 88.6036 109.06 88.6036 108.597C88.6036 108.133 88.2349 107.762 87.7741 107.762H65.2841C64.8233 107.762 64.4546 108.133 64.4546 108.597C64.4546 109.06 64.7772 109.431 65.2841 109.431Z" fill="black"/>
<path opacity="0.2" d="M70.8149 118.104H94.2265C94.6874 118.104 95.0561 117.733 95.0561 117.269C95.0561 116.805 94.6874 116.434 94.2265 116.434H70.8149C70.354 116.434 69.9853 116.805 69.9853 117.269C69.9392 117.733 70.3079 118.104 70.8149 118.104Z" fill="black"/>
<path opacity="0.2" d="M94.2724 121.118H65.2382C64.7774 121.118 64.4087 121.489 64.4087 121.952C64.4087 122.416 64.7774 122.787 65.2382 122.787H94.2724C94.7333 122.787 95.1019 122.416 95.1019 121.952C95.148 121.535 94.7333 121.118 94.2724 121.118Z" fill="black"/>
<path opacity="0.2" d="M65.2841 126.775H94.2261C94.687 126.775 95.0556 126.404 95.0556 125.941C95.0556 125.477 94.687 125.106 94.2261 125.106H65.2841C64.8233 125.106 64.4546 125.477 64.4546 125.941C64.4546 126.404 64.7772 126.775 65.2841 126.775Z" fill="black"/>
<path opacity="0.2" d="M88.2812 129.836H65.2382C64.7774 129.836 64.4087 130.207 64.4087 130.671C64.4087 131.135 64.7774 131.506 65.2382 131.506H88.2812C88.7421 131.506 89.1107 131.135 89.1107 130.671C89.1568 130.207 88.7421 129.836 88.2812 129.836Z" fill="black"/>
<path opacity="0.2" d="M94.2724 138.508H65.2382C64.7774 138.508 64.4087 138.879 64.4087 139.343C64.4087 139.807 64.7774 140.178 65.2382 140.178H94.2724C94.7333 140.178 95.1019 139.807 95.1019 139.343C95.148 138.879 94.7333 138.508 94.2724 138.508Z" fill="black"/>
</g>
<g opacity="0.3">
<path opacity="0.3" d="M43.993 79.3809H31.5498C31.0889 79.3809 30.7202 79.0099 30.7202 78.5462C30.7202 78.0824 31.0889 77.7114 31.5498 77.7114H43.993C44.4538 77.7114 44.8225 78.0824 44.8225 78.5462C44.8225 79.0099 44.4538 79.3809 43.993 79.3809Z" fill="white"/>
<path opacity="0.3" d="M37.4488 83.3689H31.5498C31.0889 83.3689 30.7202 82.998 30.7202 82.5342C30.7202 82.0705 31.0889 81.6995 31.5498 81.6995H37.4488C37.9096 81.6995 38.2783 82.0705 38.2783 82.5342C38.2783 82.998 37.9096 83.3689 37.4488 83.3689Z" fill="white"/>
</g>
<path d="M143.308 55.5445L144.414 53.504L147.318 49.284L147.871 45.7595C147.871 45.7595 150.405 46.7334 150.82 47.429C151.235 48.171 151.051 51.9273 150.82 52.3911C150.59 52.8548 147.963 54.6634 147.963 54.6634L146.58 57.3531L143.308 55.5445Z" fill="#EBB376"/>
<path d="M130.497 40.7974C130.497 40.7974 139.852 55.5908 140.958 56.9356C142.064 58.2805 143.262 53.5039 143.262 53.5039L148.009 55.5908C148.009 55.5908 146.673 64.6338 143.032 65.0048C139.391 65.3758 131.603 55.7299 131.603 55.7299L130.497 40.7974Z" fill="#263238"/>
<path opacity="0.1" d="M148.009 55.5908C148.009 55.5908 146.673 64.6338 143.032 65.0048C141.235 65.1903 138.377 62.8715 135.981 60.5065C133.584 58.1414 131.649 55.7299 131.649 55.7299L131.28 50.6287L130.497 40.7974C130.497 40.7974 139.852 55.5908 140.958 56.9356C142.064 58.2805 143.262 53.5039 143.262 53.5039L148.009 55.5908Z" fill="white"/>
<path opacity="0.2" d="M135.935 60.5064C133.538 58.1413 131.603 55.7298 131.603 55.7298L131.234 50.6287C132.294 51.6025 135.566 55.0342 135.935 60.5064Z" fill="black"/>
<path d="M112.339 120.19V115.599C112.339 115.46 112.247 115.321 112.062 115.274L108.744 114.532C108.468 114.486 108.145 114.672 108.099 114.95C108.099 114.996 108.099 115.043 108.099 115.089C108.099 116.573 108.191 117.64 108.191 119.541C108.191 120.7 108.053 124.132 108.053 125.755C108.053 127.332 109.62 127.564 109.758 126.914C110.403 123.993 111.279 121.813 112.108 120.886C112.293 120.654 112.339 120.422 112.339 120.19Z" fill="#263238"/>
<path d="M132.709 77.897L134.183 85.6879C134.183 85.6879 145.843 104.655 145.843 115.599C145.843 128.677 111.924 121.118 111.924 121.118V115.089C111.924 115.089 132.202 116.851 133.999 114.811C136.211 112.307 122.57 93.1077 122.57 93.1077L132.709 77.897Z" fill="#263238"/>
<path opacity="0.2" d="M145.843 115.598C145.843 122.833 135.52 123.76 126.303 123.157C120.127 122.74 114.459 121.673 112.569 121.256C112.154 121.163 111.924 121.117 111.924 121.117V115.088C111.924 115.088 112.2 115.088 112.661 115.135C114.966 115.32 122.155 115.83 127.593 115.784C130.819 115.737 133.446 115.459 134.045 114.81C135.151 113.604 132.386 108.318 129.298 103.309C126.118 98.1152 122.57 93.1532 122.57 93.1532L127.04 86.4753L132.755 77.9424L134.229 85.7333C134.183 85.6869 145.843 104.654 145.843 115.598Z" fill="white"/>
<path opacity="0.2" d="M127.593 115.831L126.302 123.158C120.127 122.741 114.458 121.674 112.569 121.257L112.661 115.135C114.965 115.367 122.155 115.877 127.593 115.831Z" fill="black"/>
<path opacity="0.2" d="M127.04 94.7772C127.04 94.7772 128.93 99.2755 129.298 103.31C126.118 98.1161 122.57 93.1541 122.57 93.1541L127.04 86.4762L129.391 85.7342C129.344 85.6878 129.897 88.7485 127.04 94.7772Z" fill="black"/>
<path d="M123.998 160.629H119.436C119.297 160.629 119.159 160.721 119.113 160.907L118.376 164.292C118.33 164.57 118.514 164.895 118.79 164.942C118.837 164.942 118.883 164.942 118.929 164.942C120.404 164.895 121.463 164.849 123.353 164.849C124.505 164.849 127.962 164.988 129.529 164.988C131.095 164.988 131.326 163.411 130.681 163.272C127.777 162.623 125.611 161.742 124.689 160.907C124.459 160.675 124.229 160.629 123.998 160.629Z" fill="#263238"/>
<path d="M112.385 78.1752C112.385 78.1752 111.371 81.9779 112.385 99.461C113.952 126.265 118.883 161.927 118.883 161.927L124.644 160.861C124.644 160.861 123.906 107.484 124.69 92.7831C124.69 92.7831 132.801 85.4559 132.755 77.9433C132.662 70.3843 112.385 78.1752 112.385 78.1752Z" fill="#263238"/>
<path opacity="0.2" d="M112.385 78.1752C112.385 78.1752 111.371 81.9779 112.385 99.461C113.952 126.265 118.883 161.927 118.883 161.927L124.644 160.861C124.644 160.861 123.906 107.484 124.69 92.7831C124.69 92.7831 132.801 85.4559 132.755 77.9433C132.662 70.3843 112.385 78.1752 112.385 78.1752Z" fill="white"/>
<path d="M132.478 75.7637H112.385V78.1751L132.709 77.8969L132.478 75.7637Z" fill="#263238"/>
<path d="M118.846 78.9229H119.583V74.6564H118.846V78.9229Z" fill="#263238"/>
<path d="M128.963 78.9229H129.701V74.6564H128.963V78.9229Z" fill="#263238"/>
<path d="M123.314 78.02H127.047V75.3303H123.314V78.02Z" fill="white"/>
<path opacity="0.2" d="M118.846 78.9229H119.583V74.6564H118.846V78.9229Z" fill="white"/>
<path opacity="0.2" d="M128.963 78.9229H129.701V74.6564H128.963V78.9229Z" fill="white"/>
<path d="M130.496 40.7975C130.496 40.7975 117.822 40.1946 108.375 42.6061C108.375 42.6061 112.522 63.7528 112.384 75.7637H132.477C132.477 75.7637 133.768 53.2258 130.496 40.7975Z" fill="#407BFF"/>
<path opacity="0.6" d="M132.478 75.7627H112.385C112.385 74.4643 112.385 73.0267 112.292 71.5427C112.108 68.0646 111.739 64.2155 111.233 60.5056C111.186 60.1346 111.14 59.7636 111.094 59.439C110.772 57.0275 110.403 54.6624 110.08 52.5756C109.159 46.8715 108.329 42.6515 108.329 42.6515C117.777 40.24 130.45 40.8429 130.45 40.8429C133.769 53.2248 132.478 75.7627 132.478 75.7627Z" fill="white"/>
<path d="M115.749 41.6786C117.592 43.348 122.017 42.7452 122.017 42.7452C122.017 42.7452 124.782 41.9568 124.229 41.1221C122.57 40.8438 121.786 40.1018 121.464 39.0816C121.279 38.5251 121.233 37.8759 121.279 37.1802C121.325 36.8093 121.372 36.4846 121.418 36.1136L115.887 31.9863C116.671 34.7224 117.546 39.6845 115.749 41.6786Z" fill="#EBB376"/>
<path opacity="0.2" d="M117.224 34.5833C117.454 37.9222 120.173 38.8497 121.51 39.0352C121.325 38.4787 121.279 37.8295 121.325 37.1338L117.224 34.5833Z" fill="black"/>
<path d="M114.09 23.3606C114.09 23.3606 112.569 28.369 114.965 30.7341C117.362 33.0992 118.79 23.5925 118.79 23.5925L114.09 23.3606Z" fill="#263238"/>
<path d="M122.201 36.0209C120.588 37.7368 118.376 37.8759 116.624 37.0411C115.472 36.4846 114.551 35.4644 114.044 34.2123C113.998 34.0268 113.905 33.8877 113.859 33.7022C112.984 30.3632 113.398 24.8447 116.993 23.268C119.528 22.155 122.523 23.3143 123.676 25.9113C123.998 26.6533 124.136 27.4417 124.09 28.23C123.952 31.8936 124.044 34.0732 122.201 36.0209Z" fill="#EBB376"/>
<path d="M118.514 29.2967C118.56 29.575 118.376 29.8532 118.146 29.8532C117.961 29.8532 117.777 29.6213 117.777 29.2967C117.777 28.9721 117.915 28.7402 118.146 28.7402C118.33 28.7402 118.468 29.0185 118.514 29.2967Z" fill="#263238"/>
<path d="M115.104 29.3893C115.15 29.6675 114.965 29.9457 114.735 29.9457C114.551 29.9457 114.366 29.7139 114.366 29.3893C114.366 29.0646 114.504 28.8328 114.735 28.8328C114.919 28.8328 115.104 29.111 115.104 29.3893Z" fill="#263238"/>
<path d="M116.164 29.4822C115.841 30.4097 115.334 31.2908 114.781 32.1255C115.196 32.4038 115.749 32.4965 116.256 32.3574L116.164 29.4822Z" fill="#D58745"/>
<path d="M119.528 28.1836C119.482 28.1836 119.389 28.1836 119.343 28.1372C119.067 27.7662 118.652 27.5807 118.191 27.5807C118.099 27.5807 118.007 27.5344 118.007 27.4416C118.007 27.3489 118.053 27.2561 118.145 27.2561C118.698 27.2561 119.251 27.488 119.62 27.9517C119.666 28.0445 119.666 28.1372 119.62 28.1836C119.574 28.1372 119.574 28.1836 119.528 28.1836Z" fill="#263238"/>
<path d="M113.583 28.2299C113.537 28.2299 113.491 28.2299 113.491 28.2299C113.398 28.1835 113.352 28.0908 113.398 27.998C113.629 27.4879 114.09 27.0705 114.643 26.9778C114.735 26.9778 114.827 27.0242 114.827 27.1169C114.827 27.2097 114.781 27.3024 114.689 27.3024C114.228 27.3952 113.905 27.7198 113.721 28.1371C113.721 28.1835 113.675 28.2299 113.583 28.2299Z" fill="#263238"/>
<path d="M121.279 23.5461L121.049 25.1692C121.556 25.4939 121.878 26.0967 121.602 26.746C121.049 28.0908 121.74 30.2704 122.8 31.1515C122.8 31.1515 122.846 30.5487 123.353 30.6878C123.86 30.8269 123.63 33.934 122.616 35.418C122.616 35.418 124.367 33.8413 125.289 30.595C126.164 27.5807 126.072 25.3547 125.473 24.1954L121.279 23.5461Z" fill="#263238"/>
<path d="M125.75 31.1515C125.335 31.9862 124.644 32.6818 123.768 33.0064C122.616 33.4238 121.924 32.4036 122.201 31.2442C122.431 30.224 123.307 28.74 124.505 28.8328C125.703 28.9255 126.257 30.1312 125.75 31.1515Z" fill="#EBB376"/>
<path d="M115.979 33.2838C116.164 33.7475 116.348 34.6287 116.348 34.6287C116.44 34.6287 116.486 34.6287 116.579 34.6287C117.685 34.5823 118.146 34.2113 118.376 33.7939C118.468 33.562 118.514 33.3302 118.514 33.1447C118.514 32.9128 118.468 32.7737 118.468 32.7737C117.915 33.1447 116.901 33.2838 116.348 33.3302C116.118 33.2838 115.979 33.2838 115.979 33.2838Z" fill="#263238"/>
<path d="M116.347 33.2384L116.485 33.6094C117.499 33.563 118.237 33.3775 118.513 33.0529C118.513 32.821 118.467 32.6819 118.467 32.6819C117.868 33.0993 116.9 33.192 116.347 33.2384Z" fill="white"/>
<path d="M116.579 34.5833C117.685 34.5369 118.146 34.1659 118.376 33.7485C118.007 33.7949 117.546 33.8413 117.178 34.0268C116.855 34.1659 116.671 34.3978 116.579 34.5833Z" fill="#DE5753"/>
<path d="M121.047 25.2156C121.047 25.2156 117.176 26.9315 114.733 24.9838C112.337 23.0361 114.733 19.9753 114.733 19.9753C114.733 19.9753 115.609 20.8101 116.853 20.8101C118.143 20.8101 121.001 19.8362 123.443 20.8565C125.886 21.8767 127.038 25.262 124.964 26.9779L121.047 25.2156Z" fill="#263238"/>
<path d="M123.86 42.4206L123.307 45.064C123.307 45.064 126.349 57.8633 127.04 64.5412L125.934 65.6542L124.183 64.5412C124.183 64.5412 124.044 50.9999 122.478 45.2958L119.712 43.0235L121.878 42.3279L123.86 42.4206Z" fill="#407BFF"/>
<path d="M116.394 39.1279L121.694 41.5394L122.017 39.5917L123.952 40.2873C124.644 40.5192 125.105 41.2148 125.012 41.9568L124.782 44.09L122.109 42.606L120.772 44.5074L114.413 41.4003L116.394 39.1279Z" fill="#407BFF"/>
<path opacity="0.7" d="M116.394 39.1279L121.694 41.5394L122.017 39.5917L123.952 40.2873C124.644 40.5192 125.105 41.2148 125.012 41.9568L124.782 44.09L122.109 42.606L120.772 44.5074L114.413 41.4003L116.394 39.1279Z" fill="white"/>
<path d="M114.551 41.1221C114.551 41.1221 119.528 45.2031 125.197 58.2343C125.197 58.2343 125.381 45.4813 124.321 40.4729L130.497 40.7511C130.497 40.7511 135.013 50.768 132.755 72.4248L134.322 83.23L127.547 86.1053L125.98 81.0505L124.367 86.0125L111.279 84.2503L111.97 70.5698C111.97 70.5698 108.836 47.9855 108.421 42.5134L114.551 41.1221Z" fill="#263238"/>
<path opacity="0.1" d="M134.276 83.3218L127.501 86.197L125.934 81.1422L124.321 86.1043L119.252 85.4087L111.233 84.3421L111.601 77.5714L111.97 70.708C111.97 70.708 111.417 66.6271 110.726 61.5259C110.357 58.8825 109.988 55.961 109.62 53.1785C109.067 48.6802 108.56 44.5993 108.421 42.6515L114.182 41.2603L114.597 41.1676C114.597 41.1676 119.574 45.2485 125.243 58.2797C125.243 58.2797 125.427 45.5267 124.367 40.5183L130.543 40.8429C130.543 40.8429 135.059 50.8598 132.801 72.5166L134.276 83.3218Z" fill="white"/>
<path opacity="0.2" d="M127.455 46.3622L128.884 48.9128C128.884 48.9128 127.409 58.6514 125.012 62.0831V60.0426L115.749 49.3302L117.408 46.7332L113.261 47.5679C113.261 47.5679 112.892 43.6261 114.09 41.261L114.505 41.1683C114.505 41.1683 119.482 45.2492 125.151 58.2804C125.151 58.2804 125.335 45.5275 124.275 40.519C124.275 40.519 127.225 42.1421 129.298 46.3622H127.455Z" fill="white"/>
<path opacity="0.2" d="M110.679 61.4805C110.311 58.8371 109.942 55.9156 109.573 53.1331L111.048 52.3911C111.048 52.3911 112.338 57.4923 110.679 61.4805Z" fill="black"/>
<path opacity="0.2" d="M119.251 85.4095L111.232 84.3429L111.601 77.5723C114.044 78.7316 118.007 81.2358 119.251 85.4095Z" fill="black"/>
<path d="M108.375 42.606C108.375 42.606 98.5588 57.3994 99.5266 65.654C100.494 73.9086 112.431 87.3572 112.431 87.3572L116.256 84.9921C116.256 84.9921 106.716 70.2451 105.886 65.654C105.426 63.1962 111.094 52.3909 111.094 52.3909C111.094 52.3909 110.679 44.9247 108.375 42.606Z" fill="#263238"/>
<path opacity="0.1" d="M108.375 42.606C108.375 42.606 98.5588 57.3994 99.5266 65.654C100.494 73.9086 112.431 87.3572 112.431 87.3572L116.256 84.9921C116.256 84.9921 106.716 70.2451 105.886 65.654C105.426 63.1962 111.094 52.3909 111.094 52.3909C111.094 52.3909 110.679 44.9247 108.375 42.606Z" fill="white"/>
<path d="M139.252 52.9011L140.128 40.7511L148.009 41.3076L148.93 37.4121L150.82 38.2005L146.857 52.391L139.252 52.9011Z" fill="#407BFF"/>
<path opacity="0.7" d="M139.252 52.9011L140.128 40.7511L148.009 41.3076L148.93 37.4121L150.82 38.2005L146.857 52.391L139.252 52.9011Z" fill="white"/>
<path d="M137.64 54.6624L140.543 42.0486H148.424L151.235 37.5039L148.931 50.9988L146.119 53.9668L137.64 54.6624Z" fill="#407BFF"/>
<path opacity="0.2" d="M148.424 42.0491L146.12 53.9673L148.931 50.9993L151.235 37.5044L148.424 42.0491Z" fill="black"/>
<path d="M149.668 46.5942C149.668 46.5942 148.331 47.058 148.147 47.8463C147.963 48.6347 147.64 53.5504 147.64 53.5504C147.64 53.5504 149.714 53.0403 149.991 51.9737C150.359 50.8143 149.668 46.5942 149.668 46.5942Z" fill="#EBB376"/>
</g>
<defs>
<radialGradient id="paint0_radial" cx="0" cy="0" r="1" gradientUnits="userSpaceOnUse" gradientTransform="translate(86.1764 86.1785) rotate(90) scale(85.493 85.377)">
<stop stop-color="#23D8CF"/>
<stop offset="1" stop-color="#217C78"/>
</radialGradient>
<clipPath id="clip0">
<rect width="144.802" height="169.359" fill="white" transform="translate(12.6543 3.23389)"/>
</clipPath>
</defs>
</svg>
