<svg width="186" height="172" viewBox="0 0 186 172" fill="none" xmlns="http://www.w3.org/2000/svg">
<g clip-path="url(#clip0)">
<path d="M167.159 113.258L167.152 113.277L167.146 113.296L166.598 114.939C165.026 119.284 163.093 123.508 160.86 127.49C160.068 128.889 159.292 130.2 158.403 131.502L158.395 131.514L158.387 131.526C157.343 133.122 156.259 134.745 155.124 136.237L155.096 136.274L155.07 136.313C154.865 136.62 154.658 136.881 154.408 137.192L154.345 137.271L154.293 137.357C154.159 137.581 154.023 137.766 153.793 138.053L153.786 138.062L153.78 138.07C148.106 145.368 141.157 151.651 133.35 156.794C132.579 157.268 131.781 157.759 131.036 158.253C130.5 158.551 129.941 158.862 129.322 159.233L129.31 159.24L129.299 159.247C128.367 159.829 127.369 160.358 126.314 160.916L126.3 160.923L126.287 160.931C125.721 161.245 125.227 161.518 124.744 161.732L124.732 161.738L124.719 161.744C124.425 161.881 124.121 162.019 123.814 162.158C123.222 162.427 122.616 162.702 122.036 162.992L122.706 164.333L122.036 162.992C121.949 163.035 121.843 163.082 121.697 163.147L121.683 163.153C121.566 163.205 121.42 163.27 121.279 163.339C121.093 163.418 120.892 163.499 120.672 163.587L120.662 163.59C120.437 163.68 120.193 163.778 119.961 163.877C119.765 163.961 119.552 164.046 119.318 164.14C119.09 164.231 118.842 164.33 118.607 164.431L118.48 164.485L118.365 164.561C118.362 164.564 118.342 164.575 118.284 164.601C118.256 164.614 118.238 164.623 118.214 164.633C118.199 164.64 118.182 164.648 118.159 164.658C117.944 164.706 117.788 164.783 117.726 164.814C117.677 164.838 117.621 164.869 117.562 164.906C108.659 168.249 98.9248 170.218 88.8344 170.399H87.6163H87.6142H87.612H87.6098H87.6077H87.6055H87.6034H87.6012H87.599H87.5969H87.5947H87.5925H87.5904H87.5882H87.586H87.5839H87.5817H87.5796H87.5774H87.5752H87.5731H87.5709H87.5687H87.5666H87.5644H87.5622H87.5601H87.5579H87.5557H87.5536H87.5514H87.5492H87.5471H87.5449H87.5428H87.5406H87.5384H87.5363H87.5341H87.5319H87.5298H87.5276H87.5254H87.5233H87.5211H87.519H87.5168H87.5146H87.5125H87.5103H87.5081H87.506H87.5038H87.5016H87.4995H87.4973H87.4951H87.493H87.4908H87.4886H87.4865H87.4843H87.4822H87.48H87.4778H87.4757H87.4735H87.4713H87.4692H87.467H87.4648H87.4627H87.4605H87.4584H87.4562H87.454H87.4519H87.4497H87.4475H87.4454H87.4432H87.441H87.4389H87.4367H87.4345H87.4324H87.4302H87.4281H87.4259H87.4237H87.4216H87.4194H87.4172H87.4151H87.4129H87.4107H87.4086H87.4064H87.4042H87.4021H87.3999H87.3978H87.3956H87.3934H87.3913H87.3891H87.3869H87.3848H87.3826H87.3804H87.3783H87.3761H87.3739H87.3718H87.3696H87.3675H87.3653H87.3631H87.361H87.3588H87.3566H87.3545H87.3523H87.3501H87.348H87.3458H87.3436H87.3415H87.3393H87.3372H87.335H87.3328H87.3307H87.3285H87.3263H87.3242H87.322H87.3198H87.3177H87.3155H87.3133H87.3112H87.309H87.3069H87.3047H87.3025H87.3004H87.2982H87.296H87.2939H87.2917H87.2895H87.2874H87.2852H87.283H87.2809H87.2787H87.2766H87.2744H87.2722H87.2701H87.2679H87.2657H87.2636H87.2614H87.2592H87.2571H87.2549H87.2527H87.2506H87.2484H87.2463H87.2441H87.2419H87.2398H87.2376H87.2354H87.2333H87.2311H87.2289H87.2268H87.2246H87.2224H87.2203H87.2181H87.216H87.2138H87.2116H87.2095H87.2073H87.2051H87.203H87.2008H87.1986H87.1965H87.1943H87.1921H87.19H87.1878H87.1857H87.1835H87.1813H87.1792H87.177H87.1748H87.1727H87.1705H87.1683H87.1662H87.164H87.1618H87.1597H87.1575H87.1553H87.1532H87.151H87.1489H87.1467H87.1445H87.1424H87.1402H87.138H87.1359H87.1337H87.1315H87.1294H87.1272H87.1251H87.1229H87.1207H87.1186H87.1164H87.1142H87.1121H87.1099H87.1077H87.1056H87.1034H87.1012H87.0991H87.0969H87.0948H87.0926H87.0904H87.0883H87.0861H87.0839H87.0818H87.0796H87.0774H87.0753H87.0731H87.0709H87.0688H87.0666H87.0645H87.0623H87.0601H87.058H87.0558H87.0536H87.0515H87.0493H87.0471H87.045H87.0428H87.0406H87.0385H87.0363H87.0342H87.032H87.0298H87.0277H87.0255H87.0233H87.0212H87.019H87.0168H87.0147H87.0125H87.0103H87.0082H87.006H87.0039H87.0017H86.9995H86.9974H86.9952H86.993H86.9909H86.9887H86.9865H86.9844H86.9822H86.98H86.9779H86.9757H86.9736H86.9714H86.9692H86.9671H86.9649H86.9627H86.9606H86.9584H86.9562H86.9541H86.9519H86.9497H86.9476H86.9454H86.9433H86.9411H86.9389H86.9368H86.9346H86.9324H86.9303H86.9281H86.9259H86.9238H86.9216H86.9194H86.9173H86.9151H86.913H86.9108H86.9086H86.9065H86.9043H86.9021H86.9H86.8978H86.8956H86.8935H86.8913H86.8891H86.887H86.8848H86.8827H86.8805H86.8783H86.8762H86.874H86.8718H86.8697H86.8675H86.8653H86.8632H86.861H86.8588H86.8567H86.8545H86.8524H86.8502H86.848H86.8459H86.8437H86.8415H86.8394H86.8372H86.835H86.8329H86.8307H86.8285H86.8264H86.8242H86.8221H86.8199H86.8177H86.8156H86.8134H86.8112H86.8091H86.8069H86.8047H86.8026H86.8004H86.7982H86.7961H86.7939H86.7918H86.7896H86.7874H86.7853H86.7831H86.7809H86.7788H86.7766H86.7744H86.7723H86.7701H86.7679H86.7658H86.7636H86.7615H86.7593H86.7571H86.755H86.7528H86.7506H86.7485H86.7463H86.7441H86.742H86.7398H86.7376H86.7355H86.7333H86.7312H86.729H86.7268H86.7247H86.7225H86.7203H86.7182H86.716H86.7138H86.7117H86.7095H86.7073H86.7052H86.703H86.7009H86.6987H86.6965H86.6944H86.6922H86.69H86.6879H86.6857H86.6835H86.6814H86.6792H86.677H86.6749H86.6727H86.6706H86.6684H86.6662H86.6641H86.6619H86.6597H86.6576H86.6554H86.6532H86.6511H86.6489H86.6467H86.6446H86.6424H86.6403H86.6381H86.6359H86.6338H86.6316H86.6294H86.6273H86.6251H86.6229H86.6208H86.6186H86.6164H86.6143H86.6121H86.61H86.6078H86.6056H86.6035H86.6013H86.5991H86.597H86.5948H86.5926H86.5905H86.5883H86.5861H86.584H86.5818H86.5797H86.5775H86.5753H86.5732H86.571H86.5688H86.5667H86.5645H86.5623H86.5602H86.558H86.5558H86.5537H86.5515H86.5494H86.5472H86.545H86.5429H86.5407H86.5385H86.5364H86.5342H86.532H86.5299H86.5277H86.5255H86.5234H86.5212H86.5191H86.5169H86.5147H86.5126H86.5104H86.5082H86.5075H86.5068H86.5061H86.5053H86.5046H86.5039H86.5032H86.5025H86.5017H86.501H86.5003H86.4996H86.4989H86.4981H86.4974H86.4967H86.496H86.4952H86.4945H86.4938H86.4931H86.4924H86.4916H86.4909H86.4902H86.4895H86.4888H86.488H86.4873H86.4866H86.4859H86.4851H86.4844H86.4837H86.483H86.4823H86.4815H86.4808H86.4801H86.4794H86.4787H86.4779H86.4772H86.4765H86.4758H86.4751H86.4743H86.4736H86.4729H86.4722H86.4714H86.4707H86.47H86.4693H86.4686H86.4678H86.4671H86.4664H86.4657H86.465H86.4642H86.4635H86.4628H86.4621H86.4613H86.4606H86.4599H86.4592H86.4585H86.4577H86.457H86.4563H86.4556H86.4548H86.4541H86.4534H86.4527H86.452H86.4512H86.4505H86.4498H86.4491H86.4484H86.4476H86.4469H86.4462H86.4455H86.4447H86.444H86.4433H86.4426H86.4419H86.4411H86.4404H86.4397H86.439H86.4383H86.4375H86.4368H86.4361H86.4354H86.4347H86.4339H86.4332H86.4325H86.4318H86.431H86.4303H86.4296H86.4289H86.4282H86.4274H86.4267H86.426H86.4253H86.4246H86.4238H86.4231H86.4224H86.4217H86.4209H86.4202H86.4195H86.4188H86.4181H86.4173H86.4166H86.4159H86.4152H86.4145H86.4137H86.413H86.4123H86.4116H86.4109H86.4101H86.4094H86.4087H86.408H86.4072H86.4065H86.4058H86.4051H86.4044H86.4036H86.4029H86.4022H86.4015H86.4007H86.4H86.3993H86.3986H86.3979H86.3971H86.3964H86.3957H86.395H86.3943H86.3935H86.3928H86.3921H86.3914H86.3906H86.3899H86.3892H86.3885H86.3878H86.387H86.3863H86.3856H86.3849H86.3842H86.3834H86.3827H86.382H86.3813H86.3805H86.3798H86.3791H86.3784H86.3777H86.3769H86.3762H86.3755H86.3748H86.3741H86.3733H86.3726H86.3719H86.3712H86.3705H86.3697H86.369H86.3683H86.3676H86.3668H86.3661H86.3654H86.3647H86.364H86.3632H86.3625H86.3618H86.3611H86.3604H86.3596H86.3589H86.3582H86.3575H86.3567H86.356H86.3553H86.3546H86.3539H86.3531H86.3524H86.3517H86.351H86.3503H86.3495H86.3488H86.3481H86.3474H86.3466H86.3459H86.3452H86.3445H86.3438H86.343H86.3423H86.3416H86.3409H86.3402H86.3394H86.3387H86.338H86.3373H86.3365H86.3358H86.3351H86.3344H86.3337H86.3329H86.3322H86.3315H86.3308H86.3301H86.3293H86.3286H86.3279H86.3272H86.3264H86.3257H86.325H86.3243H86.3236H86.3228H86.3221H86.3214H86.3207H86.32H86.3192H86.3185H86.3178H86.3171H86.3163H86.3156H86.3149H86.3142H86.3135H86.3127H86.312H86.3113H86.3106H86.3099H86.3091H86.3084H86.3077H86.307H86.3063H86.3055H86.3048H86.3041H86.3034H86.3026H86.3019H86.3012H86.3005H86.2998H86.299H86.2983H86.2976H86.2969H86.2962H86.2954H86.2947H86.294H86.2933H86.2925H86.2918H86.2911H86.2904H86.2897H86.2889H86.2882H86.2875H86.2868H86.286H86.2853H86.2846H86.2839H86.2832H86.2824H86.2817H86.281H86.2803H86.2796H86.2788H86.2781H86.2774H86.2767H86.2759H86.2752H86.2745H86.2738H86.2731H86.2723H86.2716H86.2709H86.2702H86.2695H86.2687H86.268H86.2673H86.2666H86.2659H86.2651H86.2644H86.2637H86.263H86.2622H86.2615H86.2608H86.2601H86.2594H86.2586H86.2579H86.2572H86.2565H86.2558H86.255H86.2543H86.2536H86.2529H86.2521H86.2514H86.2507H86.25H86.2493H86.2485H86.2478H86.2471H86.2464H86.2457H86.2449H86.2442H86.2435H86.2428H86.242H86.2413H86.2406H86.2399H86.2392H86.2384H86.2377H86.237H86.2363H86.2355H86.2348H86.2341H86.2334H86.2327H86.2319H86.2312H86.2305H86.2298H86.2291H86.2283H86.2276H86.2269H86.2262H86.2255H86.2247H86.224H86.2233H86.2226H86.2218H86.2211H86.2204H86.2197H86.219H86.2182H86.2175H86.2168H86.2161H86.2154H86.2146H86.2139H86.2132H86.2125H86.2117H86.211H86.2103H86.2096H86.2089H86.2081H86.2074H86.2067H86.206H86.2053H86.2045H86.2038H86.2031H86.2024H86.2016H86.2009H86.2002H86.1995H86.1988H86.198H86.1973H86.1966H86.1959H86.1952H86.1944H86.1937H86.193H86.1923H86.1916H86.1908H86.1901H86.1894H86.1887H86.1879H86.1872H86.1865H86.1858H86.1851H86.1843H86.1836H86.1829H86.1822H86.1814H86.1807H86.18H86.1793H86.1786H86.1778H86.1771H86.1764H86.1757H86.175H86.1742H86.1735H86.1728H86.1721H86.1713H86.1706H86.1699H86.1692H86.1685H86.1677H86.167H86.1663H86.1656H86.1649H86.1641H86.1634H86.1627H86.162H86.1612H86.1605H86.1598H86.1591H86.1584H86.1576H86.1569H86.1562H86.1555H86.1548H86.154H86.1533H86.1526C75.9501 170.217 66.2423 168.29 57.2633 164.746L57.1985 164.714C57.1172 164.673 57.0437 164.644 56.986 164.623C56.9779 164.621 56.9699 164.618 56.9621 164.615L56.9071 164.56L56.5712 164.448C56.1893 164.321 55.9192 164.229 55.6595 164.099L55.5078 164.023L55.4622 163.978L55.1765 163.863C55.0621 163.818 54.9551 163.781 54.8747 163.753L54.8179 163.734C54.7612 163.714 54.7234 163.702 54.684 163.687C54.6575 163.677 54.6398 163.67 54.6292 163.666L54.5195 163.583L54.3616 163.514C52.8334 162.842 51.3912 162.181 50.019 161.466L50.0075 161.46L49.996 161.454C49.6171 161.265 49.3292 161.119 49.049 160.932L48.9764 160.884L48.8987 160.844C45.9406 159.336 43.1108 157.651 40.4062 155.729L40.3971 155.723C40.0754 155.498 39.7404 155.275 39.4221 155.063L39.4148 155.058C39.1275 154.866 38.8535 154.684 38.593 154.504C38.5843 154.495 38.5753 154.485 38.5661 154.476L38.461 154.371L38.3375 154.289C38.338 154.289 38.3343 154.287 38.325 154.28C38.3208 154.277 38.3161 154.273 38.3106 154.269C38.3035 154.264 38.2952 154.258 38.2852 154.25C38.2793 154.245 38.171 154.16 38.1353 154.133C38.0146 154.04 37.8252 153.9 37.5838 153.777C37.5798 153.774 37.5746 153.771 37.568 153.766L37.5609 153.761C37.5293 153.74 37.4728 153.703 37.3983 153.659C36.9335 153.311 36.5109 152.99 36.0923 152.624L36.0571 152.593L36.0201 152.565C32.3367 149.729 28.898 146.595 25.7627 143.163C25.5815 142.952 25.4275 142.783 25.2874 142.63C25.064 142.385 24.8761 142.179 24.6697 141.904L24.6057 141.819L24.5303 141.743C24.2895 141.503 24.0917 141.258 23.8407 140.944C23.6929 140.76 23.5477 140.596 23.4291 140.463L23.4211 140.454C23.2949 140.312 23.1971 140.202 23.102 140.083C22.9955 139.95 22.8672 139.803 22.765 139.685C22.7292 139.644 22.6967 139.607 22.6694 139.575C22.5429 139.428 22.451 139.313 22.3785 139.204L22.296 139.08L22.191 138.975C22.1862 138.971 22.1821 138.966 22.1785 138.963L22.153 138.912L22.0506 138.785C19.7486 135.94 17.6366 132.985 15.7703 129.857L15.6746 129.696L15.6089 129.63C9.19464 119.037 5.05638 106.892 3.85009 93.845C3.82596 93.4868 3.79711 93.1556 3.76966 92.8404C3.71732 92.2394 3.67004 91.6965 3.67004 91.1347V90.986L3.64086 90.8403C3.6132 90.7021 3.60847 90.5428 3.60847 90.212V90.1779L3.60692 90.1438C3.54521 88.7871 3.48535 87.405 3.48535 86.0907C3.48535 76.6638 5.05746 67.6597 7.90118 59.1958L7.9022 59.1927C8.27476 58.0759 8.62263 57.0366 9.08104 56.006L9.09711 55.9699L9.11125 55.933C17.6983 33.5157 35.6623 15.7453 58.1642 7.28359L58.2371 7.2562L58.3067 7.22143L58.3069 7.22135C58.31 7.21997 58.3453 7.20445 58.4376 7.17884C58.4834 7.16614 58.5341 7.15333 58.596 7.13832C58.612 7.13443 58.6312 7.12982 58.6521 7.1248C58.6988 7.11358 58.7538 7.10037 58.8001 7.08881L58.8559 7.07486L58.9105 7.05667C59.0451 7.01186 59.1566 6.96729 59.2317 6.93723L59.2395 6.93414C59.3183 6.90266 59.3576 6.88727 59.403 6.87213L58.929 5.449L59.4031 6.87213L59.7724 6.7491L59.7849 6.74495L59.7973 6.74058L60.7411 6.40772C61.0014 6.3512 61.2228 6.27043 61.3553 6.22212C61.3641 6.21891 61.3725 6.21585 61.3804 6.21295C61.5681 6.14477 61.6107 6.13349 61.6379 6.12897L61.7539 6.10965L61.8655 6.07248C62.0481 6.01164 62.1852 5.96641 62.3706 5.92009L62.4871 5.89098L62.5975 5.8437C62.8975 5.71523 63.2673 5.61919 63.7865 5.48951L63.8203 5.48107L63.8537 5.47106L65.6892 4.92084C68.8733 4.02105 72.1893 3.3577 75.5199 2.87368L75.5321 2.87181C79.4551 2.26876 83.5034 1.96655 87.6163 1.96655C95.1199 1.96655 102.376 2.93385 109.327 4.80598L109.518 4.8576H109.535C109.785 4.95746 110.006 4.97683 110.125 4.9802C110.194 4.9958 110.273 5.01695 110.374 5.04602C110.39 5.05058 110.408 5.05561 110.427 5.06101C110.527 5.08984 110.663 5.12932 110.81 5.16418C110.924 5.20512 111.021 5.22931 111.082 5.24345L111.194 5.35468L111.639 5.44363C111.712 5.45818 111.797 5.48269 111.964 5.53257L111.983 5.53845C112.114 5.57772 112.305 5.63506 112.51 5.67892C112.539 5.68741 112.588 5.70464 112.699 5.74642L112.718 5.7535C112.818 5.79102 112.984 5.8533 113.167 5.90325C113.409 5.98351 113.627 6.05247 113.831 6.11709C114.304 6.26644 114.702 6.39262 115.158 6.5816C115.475 6.72132 115.799 6.84075 116.074 6.94189L116.093 6.94891C116.394 7.05973 116.64 7.15075 116.865 7.25047L116.909 7.27017L116.954 7.28696C133.338 13.3279 147.251 24.386 156.993 38.4726C160.437 43.4845 163.34 48.9227 165.639 54.6057L165.639 54.6061C168.843 62.5195 170.899 71.0953 171.504 79.97C171.625 82.219 171.686 84.2185 171.686 86.2753C171.686 93.4596 170.719 100.53 169.025 107.182C168.478 109.246 167.876 111.288 167.159 113.258ZM56.6528 164.617H56.6513C56.6324 164.617 56.636 164.617 56.6528 164.617ZM57.1528 164.806C57.1544 164.807 57.1559 164.809 57.1575 164.81L57.1528 164.806Z" fill="url(#paint0_radial)" stroke="white" stroke-width="3"/>
<path d="M130.355 106.616H99.4908C98.1826 106.616 97.1167 105.554 97.1167 104.25C97.1167 102.946 98.1826 101.884 99.4908 101.884H130.355C131.663 101.884 132.729 102.946 132.729 104.25C132.729 105.554 131.663 106.616 130.355 106.616Z" fill="#84B0D8"/>
<path d="M119.404 116.853C119.404 116.853 116.11 87.688 120.519 68.3252C121.197 65.428 123.813 63.4482 126.769 63.4482H160.734V116.853H119.404Z" fill="#B2D6FD"/>
<path d="M110.461 122.659H149.901V119.521H110.461V122.659Z" fill="#84B0D8"/>
<path d="M128.679 151.738H131.635V122.622H128.679V151.738Z" fill="#B2D6FD"/>
<path d="M126.547 151.727H133.767V140.379H126.547V151.727Z" fill="#84B0D8"/>
<path d="M149.59 153.019H110.78C110.053 153.019 109.472 152.44 109.472 151.716C109.472 150.991 110.053 150.412 110.78 150.412H149.59C150.317 150.412 150.898 150.991 150.898 151.716C150.898 152.44 150.317 153.019 149.59 153.019Z" fill="#B2D6FD"/>
<path d="M149.59 156.351C151.008 156.351 152.158 155.205 152.158 153.792C152.158 152.379 151.008 151.233 149.59 151.233C148.172 151.233 147.022 152.379 147.022 153.792C147.022 155.205 148.172 156.351 149.59 156.351Z" fill="#6A96B7"/>
<path d="M130.161 156.351C131.579 156.351 132.729 155.205 132.729 153.792C132.729 152.379 131.579 151.233 130.161 151.233C128.742 151.233 127.593 152.379 127.593 153.792C127.593 155.205 128.742 156.351 130.161 156.351Z" fill="#6A96B7"/>
<path d="M110.78 156.351C112.198 156.351 113.348 155.205 113.348 153.792C113.348 152.379 112.198 151.233 110.78 151.233C109.362 151.233 108.212 152.379 108.212 153.792C108.212 155.205 109.362 156.351 110.78 156.351Z" fill="#6A96B7"/>
<path d="M103.416 113.376H143.388V119.461H103.416C101.768 119.461 100.46 118.157 100.46 116.515V116.322C100.46 114.68 101.768 113.376 103.416 113.376Z" fill="#B2D6FD"/>
<path d="M160.782 63.4482C159.232 63.4482 157.924 64.5588 157.73 66.0557C156.519 74.3127 153.127 100.001 155.162 113.328H139.706C138.01 113.328 136.605 114.728 136.605 116.418V116.37C136.605 118.06 138.01 119.46 139.706 119.46H159.765C161.655 119.46 163.06 117.819 162.866 115.984C161.848 108.161 160.056 90.8266 163.883 67.0214C164.174 65.1383 162.72 63.4482 160.782 63.4482Z" fill="#E6F2FF"/>
<path d="M162.43 106.616H131.566C130.258 106.616 129.192 105.554 129.192 104.25C129.192 102.946 130.258 101.884 131.566 101.884H162.43C163.738 101.884 164.804 102.946 164.804 104.25C164.804 105.554 163.738 106.616 162.43 106.616Z" fill="#84B0D8"/>
<path d="M124.879 157.413C124.879 157.413 127.98 147.08 129.046 129.069C130.161 111.01 127.06 108.113 124.443 108.354C121.827 108.596 118.581 111.59 118.775 118.688C119.114 131.87 118.726 157.413 118.726 157.413L114.705 160.021L118.145 160.745L124.879 157.413Z" fill="#F2A894"/>
<path d="M125.897 162.58V154.613L115.819 160.359L118.726 157.413L111.119 161.856L111.168 162.58H122.263L124.54 159.152L124.734 162.58H125.897Z" fill="#C13E54"/>
<path d="M92.7558 58.7159C92.7558 58.7159 87.9106 54.177 84.4221 55.0461C80.9335 55.9153 81.0789 58.1365 83.0169 58.7159C84.955 59.2954 92.7558 63.2548 92.7558 63.2548V58.7159Z" fill="#FFBBA6"/>
<path d="M92.7556 58.716L91.3989 62.5789C91.3989 62.5789 104.384 70.6428 107.63 69.6288C108.842 69.2425 127.835 51.9559 129.094 48.4793C130.354 45.0027 126.187 40.8501 121.681 44.4233C117.175 47.9965 106.274 62.1927 106.274 62.1927L92.7556 58.716Z" fill="#FFBBA6"/>
<path d="M135.2 157.413C135.2 157.413 138.301 147.08 139.367 129.069C140.481 111.01 137.38 108.113 134.764 108.354C132.147 108.596 128.901 111.59 129.095 118.688C129.434 131.87 129.046 157.413 129.046 157.413L125.025 160.021L128.465 160.745L135.2 157.413Z" fill="#FFBBA6"/>
<path d="M136.266 162.58V154.613L126.188 160.359L129.046 157.413L121.488 161.856V162.58H132.583L134.86 159.152L135.103 162.58H136.266Z" fill="#E64D62"/>
<path d="M136.12 72.9604C136.12 72.9604 129.095 77.0164 120.712 74.0227C120.712 74.0227 119.356 62.5305 118.532 61.9511C117.708 61.3234 113.541 58.1848 114.22 54.7081C114.898 51.2798 121.778 42.7331 123.716 41.9605C126.381 40.85 129.627 39.5462 135.539 41.9605C141.45 44.3749 140.142 47.4169 139.415 49.9278C138.736 52.4387 136.847 67.6006 136.12 72.9604Z" fill="#E64D62"/>
<g opacity="0.6">
<path opacity="0.6" d="M134.763 57.9434C134.763 58.8125 134.327 59.6817 133.746 60.3577C133.601 60.5508 133.455 60.6957 133.261 60.8405C133.116 60.9854 132.922 61.1303 132.728 61.2751C132.535 61.42 132.341 61.5166 132.147 61.6614C131.953 61.758 131.759 61.9028 131.566 61.9511C130.742 62.2891 129.87 62.4823 128.998 62.4823C128.562 62.4823 128.126 62.434 127.689 62.3857C127.253 62.2891 126.866 62.1926 126.43 62.0477V61.9511H127.641C128.029 61.9028 128.465 61.9028 128.852 61.8546C129.676 61.7097 130.451 61.5648 131.226 61.2268C131.953 60.8888 132.68 60.4543 133.261 59.9231C133.843 59.3437 134.327 58.6677 134.618 57.9434H134.763Z" fill="#C13E54"/>
</g>
<path d="M147.942 120.329C147.942 120.329 145.713 79.8654 136.508 70.1116L120.422 71.4636C120.422 71.4636 111.7 87.4464 110.392 119.509C110.392 119.557 124.734 130.904 147.942 120.329Z" fill="#E64D62"/>
<g opacity="0.6">
<g opacity="0.6">
<path opacity="0.6" d="M115.867 122.647C115.77 120.763 115.77 118.88 115.819 117.045C115.867 115.162 115.964 113.327 116.11 111.444C116.255 109.561 116.449 107.726 116.74 105.843C117.03 104.008 117.369 102.125 117.902 100.338C117.709 102.222 117.563 104.056 117.369 105.891L116.933 111.444L116.449 116.997C116.255 118.929 116.061 120.763 115.867 122.647Z" fill="#C13E54"/>
</g>
<g opacity="0.6">
<path opacity="0.6" d="M142.031 122.647C141.838 120.764 141.644 118.881 141.45 116.949L140.965 111.3L140.481 105.602C140.336 103.719 140.19 101.836 140.093 99.9043C140.481 101.787 140.82 103.622 141.111 105.554C141.401 107.437 141.595 109.32 141.741 111.252C141.886 113.135 142.031 115.066 142.08 116.949C142.177 118.833 142.128 120.716 142.031 122.647Z" fill="#C13E54"/>
</g>
<g opacity="0.6">
<path opacity="0.6" d="M123.378 124.434C123.087 120.523 123.087 116.611 123.232 112.652C123.329 110.672 123.426 108.741 123.668 106.761C123.862 104.829 124.153 102.85 124.637 100.967C124.443 102.898 124.347 104.878 124.298 106.809L124.056 112.652C123.862 116.611 123.717 120.523 123.378 124.434Z" fill="#C13E54"/>
</g>
<g opacity="0.6">
<path opacity="0.6" d="M133.746 124.579C133.552 122.647 133.407 120.716 133.31 118.784C133.165 116.853 133.116 114.921 132.971 112.99L132.438 101.353C132.826 103.236 133.116 105.167 133.359 107.099C133.552 109.03 133.698 110.962 133.795 112.893C133.892 114.825 133.94 116.756 133.94 118.736C133.94 120.716 133.892 122.647 133.746 124.579Z" fill="#C13E54"/>
</g>
</g>
<path d="M136.895 68.856C136.895 68.856 127.544 71.1254 120.567 69.8217C120.567 69.8217 118.241 70.6425 119.598 73.1052C119.598 73.1052 124.782 75.8092 137.864 72.2843C137.913 72.2843 138.591 70.7391 136.895 68.856Z" fill="#FFC343"/>
<path d="M134.715 17.2865C134.715 17.2865 135.684 14.8722 138.882 15.4516C142.031 16.0311 143.727 19.9905 142.467 24.964C141.159 29.9375 139.027 34.911 140.142 36.4079C141.256 37.8565 142.274 36.9873 142.274 36.9873C142.274 36.9873 138.058 43.0714 133.116 37.5668C130.064 34.1384 134.715 17.2865 134.715 17.2865Z" fill="#664040"/>
<path d="M134.376 16.4172C134.376 16.4172 140.093 16.4172 137.573 22.5496C137.573 22.5496 133.407 18.2038 134.376 16.4172Z" fill="#FFC343"/>
<path d="M125.218 41.5263V32.7382L133.891 31.0964V41.4297C133.891 41.4297 127.447 48.4313 122.941 48.4313C118.435 48.4313 122.99 43.9889 125.218 41.5263Z" fill="#FFBBA6"/>
<path d="M125.219 41.5263C125.122 42.0574 125.074 42.5886 125.074 43.1197C125.074 43.6509 125.074 44.182 125.316 44.6166C125.365 44.6649 125.413 44.7132 125.413 44.7615C125.462 44.8097 125.51 44.8097 125.559 44.858C125.655 44.9063 125.752 44.9063 125.898 44.858C126.14 44.8097 126.382 44.7615 126.624 44.6649C127.109 44.52 127.593 44.2786 128.078 44.0854C129.047 43.6992 130.016 43.2163 130.985 42.7817L133.844 41.4297C132.923 41.9608 132.003 42.4437 131.034 42.9266C130.113 43.4094 129.144 43.844 128.175 44.2786C127.69 44.4717 127.206 44.6649 126.673 44.858C126.431 44.9546 126.14 45.0029 125.898 45.0512C125.752 45.0512 125.607 45.0995 125.462 45.0029C125.413 44.9546 125.316 44.9063 125.268 44.858C125.219 44.8097 125.171 44.7615 125.122 44.6649C124.88 44.1337 124.88 43.6026 124.929 43.0714C125.026 42.5886 125.122 42.0574 125.219 41.5263Z" fill="white"/>
<path d="M125.558 44.9546C125.558 44.9546 123.474 46.7412 124.444 46.8378C125.413 46.9826 125.558 44.9546 125.558 44.9546Z" fill="white"/>
<path d="M124.201 39.2085C123.184 39.1119 120.422 37.7599 119.937 35.249C119.501 33.0278 119.453 29.4546 119.307 28.5855C118.581 23.3223 119.55 21.0528 119.937 19.8939C120.519 18.059 125.073 15.5964 129.337 16.6587C133.262 17.6245 136.12 20.9562 135.49 25.5434C134.86 30.1306 133.504 33.3175 133.262 34.0901C132.244 37.3253 125.558 39.3533 124.201 39.2085Z" fill="#FFBBA6"/>
<path d="M121.052 37.3735C121.439 37.7115 121.875 38.0495 122.312 38.2909C122.748 38.5324 123.232 38.7738 123.717 38.9186C123.959 38.9669 124.201 39.0152 124.443 39.0152C124.686 39.0152 124.928 38.9669 125.17 38.9186C125.655 38.8221 126.188 38.6772 126.672 38.5324C127.641 38.2426 128.61 37.8563 129.531 37.3735C130.015 37.132 130.451 36.9389 130.936 36.6492C131.372 36.4078 131.808 36.118 132.196 35.78C131.566 36.6492 130.597 37.1803 129.725 37.7115C128.804 38.2426 127.835 38.6772 126.818 39.0152C126.285 39.1601 125.8 39.3049 125.267 39.4015C125.025 39.4498 124.734 39.4498 124.443 39.4498C124.153 39.4498 123.862 39.3532 123.62 39.2566C122.554 38.8704 121.682 38.2426 121.052 37.3735Z" fill="#D88D79"/>
<path d="M138.058 24.4812C138.058 24.4812 137.816 29.503 133.746 30.855C129.676 32.207 131.856 23.4672 133.649 22.936C135.345 22.4049 137.671 22.6946 138.058 24.4812Z" fill="#774C4B"/>
<path d="M138.058 24.481C138.058 24.481 135.006 29.6959 133.649 27.7162C133.649 27.7162 129.434 26.5573 126.575 22.6944C124.346 21.2941 118.387 18.6384 119.017 26.2676C119.017 26.2676 117.03 23.6602 116.352 19.749C115.673 15.8378 122.069 14.9686 125.509 16.2723C125.509 16.2723 129.24 13.9063 133.213 15.6446C137.186 17.3829 138.107 20.8595 138.058 24.481Z" fill="#774C4B"/>
<path d="M133.262 28.1025C133.262 28.1025 134.764 26.0262 136.411 27.33C137.913 28.5371 137.428 35.1041 132.68 32.4L133.262 28.1025Z" fill="#FFBBA6"/>
<path d="M134.618 32.4001C134.618 32.4001 133.892 34.2833 134.958 34.2833C135.975 34.3316 134.618 32.4001 134.618 32.4001Z" fill="white"/>
<path d="M136.749 28.2953C136.555 28.1021 136.313 27.909 136.022 27.7641C135.78 27.6675 135.489 27.6193 135.247 27.6675C134.714 27.7641 134.327 28.1504 133.939 28.6333L133.648 28.247C134.036 28.1021 134.472 28.0055 134.908 28.0055C135.344 28.0055 135.829 28.1021 136.168 28.4401C136.507 28.7781 136.652 29.2127 136.652 29.6473C136.652 30.0819 136.555 30.4682 136.362 30.8544C136.458 30.4682 136.507 30.0336 136.41 29.6956C136.362 29.3093 136.168 28.9713 135.925 28.7781C135.683 28.585 135.296 28.4884 134.956 28.5367C134.569 28.5367 134.181 28.6333 133.842 28.7781C133.697 28.8264 133.6 28.7781 133.551 28.6333C133.503 28.5367 133.551 28.4401 133.6 28.3918C133.794 28.1504 134.036 27.909 134.278 27.7641C134.52 27.571 134.86 27.4261 135.199 27.4261C135.538 27.3778 135.877 27.5227 136.119 27.7158C136.41 27.8124 136.604 28.0538 136.749 28.2953Z" fill="#D88D79"/>
<path d="M123.619 31.9174C123.522 32.2071 123.28 32.4968 122.941 32.6417C122.602 32.7865 122.166 32.7382 121.827 32.5451C121.487 32.3037 121.245 31.9657 121.197 31.5311C121.197 31.4828 121.197 31.4345 121.197 31.3379C121.197 31.2897 121.197 31.1931 121.294 31.0482C121.391 30.9034 121.584 30.8068 121.681 30.8068C121.778 30.8068 121.875 30.8068 121.924 30.8551C122.117 30.9034 122.214 30.9999 122.311 30.9999C122.36 30.9999 122.36 30.9999 122.36 30.9999C122.36 30.9999 122.311 31.0482 122.36 31.0482C122.36 31.0482 122.457 30.9516 122.457 30.8068L122.602 29.9859C122.699 29.4065 122.796 28.8753 122.893 28.2959C122.893 28.2959 122.893 28.2959 122.941 28.2959C122.941 28.8753 122.893 29.4548 122.893 30.0342C122.893 30.3239 122.844 30.6136 122.844 30.9034C122.844 31.0482 122.796 31.1931 122.699 31.3379C122.602 31.4828 122.408 31.4828 122.263 31.4345C122.117 31.3862 121.972 31.3379 121.827 31.2897C121.778 31.2897 121.681 31.2897 121.681 31.2897C121.633 31.3379 121.633 31.3862 121.681 31.4828C121.73 31.7725 121.875 32.0139 122.117 32.1588C122.36 32.3037 122.65 32.4002 122.893 32.3037C123.183 32.2554 123.426 32.1105 123.619 31.9174C123.619 31.8691 123.619 31.8691 123.619 31.9174C123.668 31.9174 123.668 31.9174 123.619 31.9174Z" fill="#D88D79"/>
<path d="M121.633 28.8752C121.633 29.5029 121.342 30.0341 121.052 30.0341C120.712 30.0341 120.47 29.5029 120.47 28.8752C120.47 28.2475 120.761 27.7163 121.052 27.7163C121.391 27.7163 121.633 28.2475 121.633 28.8752Z" fill="#222F38"/>
<path d="M125.509 26.2195C124.346 26.2678 123.426 27.0404 125.897 26.8472C128.319 26.6541 128.029 26.0747 125.509 26.2195Z" fill="#774C4B"/>
<path d="M120.761 26.8958C119.404 26.8958 118.193 26.2681 120.519 26.2681C122.796 26.2198 122.941 26.8958 120.761 26.8958Z" fill="#774C4B"/>
<path d="M126.187 28.8752C126.187 29.5029 125.897 30.0341 125.606 30.0341C125.267 30.0341 125.024 29.5029 125.024 28.8752C125.024 28.2475 125.315 27.7163 125.606 27.7163C125.897 27.7163 126.187 28.2475 126.187 28.8752Z" fill="#222F38"/>
<path d="M127.447 33.3169C127.205 33.7515 126.817 34.1378 126.381 34.4758C125.945 34.8138 125.509 35.0552 124.976 35.2483C124.443 35.4415 123.91 35.4898 123.377 35.4415C122.844 35.3932 122.311 35.1518 121.924 34.8621C122.457 34.9586 122.941 35.1035 123.426 35.0552C123.91 35.0552 124.395 34.9586 124.879 34.8138C125.752 34.5241 126.624 33.9446 127.447 33.3169Z" fill="#D88D79"/>
<path d="M128.077 33.3176C127.883 33.5107 127.641 33.559 127.399 33.4624C127.302 33.4142 127.157 33.3659 127.108 33.221C127.011 33.1244 127.011 32.9796 127.011 32.8347C127.302 32.883 127.399 32.9313 127.544 32.9796C127.69 33.0762 127.835 33.1727 128.077 33.3176Z" fill="#D88D79"/>
<path d="M147.846 64.1726C147.846 64.1726 141.886 71.8501 139.27 77.4996L142.274 79.9139C142.274 79.9139 155.986 66.0557 155.598 63.2551C155.259 60.4545 141.935 46.9826 138.931 44.1337C136.459 41.7677 130.984 44.52 133.359 49.1555C135.781 53.791 145.665 62.6274 147.846 64.1726Z" fill="#FFBBA6"/>
<path d="M140.529 82.6661C139.851 83.3421 139.221 83.8733 138.688 84.6942C138.591 84.839 137.283 87.0602 136.992 86.6256C136.702 86.2393 137.38 84.9839 137.574 84.501C137.816 83.9216 138.155 83.5353 138.494 83.0041C137.477 83.9216 136.799 85.177 135.781 86.0945C135.684 86.1911 135.49 86.2876 135.393 86.1911C135.345 86.1428 135.345 85.9979 135.345 85.9496C135.636 84.5493 136.556 83.3421 137.428 82.1833C136.895 82.6661 136.266 83.2939 135.733 83.9699C135.297 84.501 134.764 85.1288 134.182 85.515C134.037 85.6116 133.94 85.6116 133.891 85.4185C133.843 85.2736 133.843 85.1287 133.891 84.9839C133.94 84.7425 134.037 84.4527 134.134 84.2113C134.327 83.7767 134.57 83.3904 134.86 83.0041C135.442 82.2316 135.684 81.8453 136.411 80.9278C136.266 81.0244 135.248 81.9901 134.957 82.4247C134.279 83.3421 133.552 84.0182 133.358 83.9699C132.971 83.9216 133.262 83.2456 133.407 83.0524C133.891 82.1833 134.037 81.6038 134.715 80.8313C135.248 80.2518 136.314 79.4792 136.847 78.8998C136.217 79.0929 135.781 79.6724 135.151 79.9621C135.054 80.0104 134.909 80.0587 134.812 79.9621C134.667 79.8655 134.764 79.6241 134.86 79.4792C136.508 77.3063 140.578 76.1958 142.031 77.2581C144.842 79.2861 141.401 81.8453 140.529 82.6661Z" fill="#FFBBA6"/>
<path d="M176.335 96.1863H59.3242V99.3249H176.335V96.1863Z" fill="#DADDE6"/>
<path d="M174.785 98.7454H60.8745V101.884H174.785V98.7454Z" fill="#E6E9F4"/>
<path d="M73.1328 162.532V104.636C73.1328 103.14 72.6968 101.932 72.1153 101.932H63.1518C62.5703 101.932 62.1343 103.14 62.1343 104.636V162.532" stroke="#C3CCD8" stroke-width="2" stroke-miterlimit="10"/>
<path d="M173.186 162.532V104.636C173.186 103.14 172.75 101.932 172.169 101.932H163.205C162.624 101.932 162.188 103.14 162.188 104.636V162.532" stroke="#C3CCD8" stroke-width="2" stroke-miterlimit="10"/>
<path d="M105.79 76.7751H73.0361L79.7225 96.1863H112.476L105.79 76.7751Z" fill="#B4B9C1"/>
<path d="M104.336 76.7751H71.5825L78.2689 96.1863H111.022L104.336 76.7751Z" fill="#C9CCD3"/>
<path d="M90.9146 85.0803C93.4341 85.3218 93.4341 89.1364 90.9146 89.3778C90.8177 89.3778 90.7208 89.3778 90.5755 89.3778C90.4786 89.3778 90.3332 89.3778 90.2363 89.3778C87.7168 89.1364 87.7168 85.3218 90.2363 85.0803C90.3332 85.0803 90.4301 85.0803 90.5755 85.0803C90.7208 85.0803 90.8177 85.0803 90.9146 85.0803Z" fill="#B4B9C1"/>
<path d="M67.1732 89.1366V90.1023H66.834C66.0104 90.1023 65.332 90.7784 65.332 91.5992V92.7581C65.332 93.579 66.0104 94.255 66.834 94.255H67.1732V94.3516C67.1732 95.269 67.9484 96.0416 68.869 96.0416H71.2916C72.2122 96.0416 72.9874 95.269 72.9874 94.3516V89.04H67.1732V89.1366ZM66.834 93.6273C66.3495 93.6273 66.0104 93.241 66.0104 92.8064V91.6475C66.0104 91.1646 66.398 90.8266 66.834 90.8266H67.1732V93.6755H66.834V93.6273Z" fill="#F4AC44"/>
<path d="M55.6418 25.9778C55.6418 25.9778 55.8356 30.565 56.8047 30.6616C57.7737 30.7581 56.1263 32.7862 54.0913 32.6896C52.0564 32.593 55.6418 25.9778 55.6418 25.9778Z" fill="#FFBBA6"/>
<path d="M47.114 38.6773C55.9322 39.9328 57.192 24.5777 55.7384 16.3207C54.5756 9.75378 39.3133 13.8098 38.102 18.0107C37.3752 20.5216 37.5205 32.2069 37.5205 32.2069C37.8597 36.0216 34.7588 43.9888 34.7588 43.9888C41.4936 50.7006 45.1759 47.8034 45.1759 47.8034C45.4182 44.6165 47.114 38.6773 47.114 38.6773Z" fill="#FFBBA6"/>
<path d="M51.0872 26.1711C51.0872 26.1711 56.1262 23.3705 56.9499 20.0387C57.7736 16.7069 56.9499 12.844 52.5892 11.2989C48.4224 9.85028 42.1236 9.17427 38.7805 15.5964C38.7805 15.5964 32.2395 16.6587 33.9837 21.8253C35.728 26.9919 36.5032 33.0277 35.9218 34.3798C35.9218 34.3798 43.1896 37.2769 45.5153 34.2832C47.841 31.3377 48.2286 26.0745 51.0872 26.1711Z" fill="black"/>
<path d="M52.7567 27.2202C52.7082 25.9165 52.3206 23.1159 49.7527 24.2748C47.2332 25.4336 47.6208 29.876 49.7042 30.8417C51.8361 31.8557 52.8536 29.2965 52.7567 27.2202Z" fill="#FFBBA6"/>
<path d="M48.8584 25.9779C48.9553 25.7365 49.1007 25.4951 49.246 25.2536C49.3914 25.0122 49.5852 24.8191 49.8759 24.6742C50.1181 24.5293 50.4573 24.4811 50.748 24.5293C51.0387 24.5776 51.3779 24.6742 51.5717 24.9156C52.0078 25.3502 52.1531 25.9779 52.25 26.5091C52.2985 27.0885 52.2985 27.6197 52.25 28.1508C52.25 28.2957 52.1047 28.3922 51.9593 28.3922C51.8624 28.3922 51.7655 28.2957 51.7655 28.1991C51.6201 27.668 51.3779 27.0885 51.0872 26.6057C50.9418 26.3642 50.7965 26.1228 50.5542 25.9779C50.3604 25.8331 50.0212 25.8331 49.779 25.9779C49.8759 25.8814 50.0212 25.7848 50.1666 25.7848C50.3119 25.7365 50.5058 25.7848 50.6511 25.8331C50.9418 25.9779 51.1841 26.2194 51.3779 26.4608C51.5717 26.7022 51.717 26.9919 51.8624 27.2334C52.0078 27.5231 52.1047 27.7645 52.25 28.0542L51.7655 28.1025C51.814 27.6197 51.814 27.0885 51.7655 26.6057C51.7171 26.1228 51.5717 25.6399 51.281 25.3019C50.9903 25.0122 50.5058 24.8191 50.0697 25.0122C49.5367 25.1571 49.1491 25.5434 48.8584 25.9779Z" fill="#D88D79"/>
<path d="M26.0859 85.7563C26.0859 85.7563 23.9541 93.0959 24.7293 94.5928C25.4561 96.0414 29.2838 99.18 30.6404 97.6348C31.9486 96.0896 29.6229 87.5429 29.6229 87.5429L26.0859 85.7563Z" fill="#FFBBA6"/>
<path d="M28.4605 44.6648C28.4605 44.6648 24.972 49.4451 22.3071 58.7161C19.6423 67.9871 24.5359 87.5431 24.5359 87.5431H30.5924L28.4605 44.6648Z" fill="#184551"/>
<path d="M23.082 99.4216V95.4622H31.6095V99.4216" stroke="#774C4B" stroke-width="3" stroke-miterlimit="10" stroke-linecap="round" stroke-linejoin="round"/>
<path d="M40.4762 99.4216H14.2153V118.108H40.4762V99.4216Z" fill="#A57774"/>
<path d="M14.2155 99.4216H10.1455V118.108H14.2155V99.4216Z" fill="#774C4B"/>
<path d="M28.4116 155.144V162.628H42.5595L40.9606 161.035L35.4856 158.862V155.144H28.4116Z" fill="#141E23"/>
<path d="M27.249 158.234H35.4858L44.5463 93.3857L28.8964 92.2751L27.249 158.234Z" fill="#184551"/>
<path d="M41.397 155.144V162.628H55.4964L53.8975 161.035L48.4225 158.862V155.144H41.397Z" fill="#141E23"/>
<path d="M39.895 158.234H50.506L54.2852 92.2751H28.8965C28.8965 92.2751 29.5264 100.87 38.3446 104.202L39.895 158.234Z" fill="#23586B"/>
<path d="M54.1399 94.8343L54.2852 92.2751H28.8965C28.8965 92.2751 28.9449 92.9029 29.1872 93.9169C32.385 95.9932 39.9919 98.9869 54.1399 94.8343Z" fill="#184551"/>
<path d="M33.79 40.0293C33.79 40.0293 35.6312 36.939 39.4589 36.939C43.2866 36.939 47.6957 37.8564 48.4709 41.2365L33.79 40.0293Z" fill="white"/>
<path d="M27.2974 90.9713C27.2974 90.9713 34.8074 99.8077 56.2716 92.7579C56.2716 92.7579 54.7211 49.3002 53.6067 46.0167C52.4923 42.7332 45.8544 38.5323 37.0362 39.4015C28.1695 40.2706 27.1036 46.2581 27.2974 54.1771C27.4912 62.0961 29.4777 83.4386 27.2974 90.9713Z" fill="#23586B"/>
<path d="M54.2848 79.9619H47.4531V82.8591H54.2848V79.9619Z" fill="#184551"/>
<path d="M50.215 42.2021C50.215 42.2021 58.8879 50.3142 63.9268 55.7223L79.3345 55.8188V62.2892C79.3345 62.2892 62.1826 64.5587 56.2715 63.2066C50.3603 61.9029 41.3967 54.66 40.4762 52.0525C39.604 49.4451 46.678 41.4778 50.215 42.2021Z" fill="#23586B"/>
<path d="M79.3344 62.3375C75.9912 62.8686 72.6481 63.2549 69.2564 63.5447C65.8648 63.8344 62.5216 64.0275 59.0815 63.8827C58.2094 63.8344 57.3857 63.7378 56.5136 63.5929C55.6899 63.4481 54.8662 63.1584 54.0426 62.8686C52.4436 62.2409 50.9416 61.4683 49.4881 60.5509C48.0345 59.6335 46.7263 58.5712 45.4181 57.5089C44.1099 56.4466 42.8017 55.3843 41.542 54.2737L45.6119 57.3157C46.9686 58.3297 48.3252 59.3437 49.7303 60.2129C52.589 61.9512 55.7384 63.3515 59.13 63.3998C62.4732 63.5929 65.8648 63.3998 69.2564 63.2066C70.9522 63.1101 72.6481 62.9652 74.2954 62.8204C75.9912 62.6272 77.6386 62.4824 79.3344 62.3375Z" fill="#184551"/>
<path d="M79.3345 57.364C79.3345 57.364 82.5807 54.0322 84.1797 54.2254C85.7786 54.4185 82.2416 56.7846 83.5982 56.6397C84.9064 56.4948 87.4259 54.998 88.4919 57.6537C89.5094 60.3095 88.7826 61.0338 85.1002 61.4683C81.9993 61.8546 79.3345 61.6132 79.3345 61.6132V57.364Z" fill="#FFBBA6"/>
<path d="M84.422 55.0461C82.92 55.6256 81.0303 56.3982 82.0478 57.1707C83.0653 57.9433 84.9065 55.9153 86.1662 56.1084L84.422 55.0461Z" fill="#E58D76"/>
<path d="M83.1625 62.1443C79.3348 62.5306 80.0615 61.1786 82.5326 60.5992C85.0521 60.0197 87.2324 61.7097 83.1625 62.1443Z" fill="#E58D76"/>
</g>
<defs>
<radialGradient id="paint0_radial" cx="0" cy="0" r="1" gradientUnits="userSpaceOnUse" gradientTransform="translate(87.5856 86.183) rotate(90) scale(85.7164 85.6002)">
<stop stop-color="#23D8CF"/>
<stop offset="1" stop-color="#217C78"/>
</radialGradient>
<clipPath id="clip0">
<rect width="184.601" height="171.899" fill="white" transform="translate(0.939453)"/>
</clipPath>
</defs>
</svg>
