<svg width="1920" height="950" viewBox="0 0 1920 950" fill="none" xmlns="http://www.w3.org/2000/svg">
<rect width="1920" height="950" fill="url(#paint0_linear)"/>
<path opacity="0.4" d="M902.638 0.933598L936.724 692.564L950.035 692.564L991.654 0.933679L902.638 0.933598Z" fill="url(#paint1_linear)" fill-opacity="0.4"/>
<path opacity="0.4" d="M703.176 0.872084L957.971 684.13L965.104 684.13L793.824 0.872087L703.176 0.872084Z" fill="url(#paint2_linear)" fill-opacity="0.4"/>
<path opacity="0.4" d="M1218.43 0.871934L955.056 677.186L942.655 677.186L1130.03 0.871912L1218.43 0.871934Z" fill="url(#paint3_linear)" fill-opacity="0.4"/>
<path opacity="0.4" d="M475.846 0.35932L921.066 618.816L933.042 618.816L581.604 0.359336L475.846 0.35932Z" fill="url(#paint4_linear)" fill-opacity="0.4"/>
<path opacity="0.4" d="M1450.79 0.359277L1004.03 625.464L990.813 618.816L1345.94 0.359294L1450.79 0.359277Z" fill="url(#paint5_linear)" fill-opacity="0.4"/>
<path opacity="0.4" d="M189.32 0.787457L861.198 585.747L872.664 572.558L328.153 0.787473L189.32 0.787457Z" fill="url(#paint6_linear)" fill-opacity="0.4"/>
<path opacity="0.4" d="M1731.01 0.78765L1069.56 590.264L1054.26 580.257L1599.01 0.787643L1731.01 0.78765Z" fill="url(#paint7_linear)" fill-opacity="0.4"/>
<path opacity="0.4" d="M6.23714 105.447L830.613 585.129L843.878 574.127L1.97729 0.494103L6.23714 105.447Z" fill="url(#paint8_linear)" fill-opacity="0.4"/>
<path opacity="0.4" d="M1915.79 110.843L1065.55 610.349L1052.4 594.76L1921.88 0.494581L1915.79 110.843Z" fill="url(#paint9_linear)" fill-opacity="0.4"/>
<path opacity="0.4" d="M1.88971 298.491L788.181 611.33L799.824 588.58L1.88972 207.359L1.88971 298.491Z" fill="url(#paint10_linear)" fill-opacity="0.4"/>
<path opacity="0.4" d="M1921.97 299.918L1130.23 601.308L1124.03 588.58L1921.97 207.359L1921.97 299.918Z" fill="url(#paint11_linear)" fill-opacity="0.4"/>
<path opacity="0.4" d="M2.15398 478.996L826.379 691.37L834.993 667.309L2.154 391.914L2.15398 478.996Z" fill="url(#paint12_linear)" fill-opacity="0.4"/>
<path opacity="0.4" d="M1921.7 468.965L1095.29 683.517L1088.86 667.309L1921.7 391.914L1921.7 468.965Z" fill="url(#paint13_linear)" fill-opacity="0.4"/>
<defs>
<linearGradient id="paint0_linear" x1="960" y1="0" x2="960" y2="950" gradientUnits="userSpaceOnUse">
<stop stop-color="#BB788A"/>
<stop offset="1" stop-color="#BB788A" stop-opacity="0.53"/>
</linearGradient>
<linearGradient id="paint1_linear" x1="1005.9" y1="685.691" x2="921.354" y2="-1.36941" gradientUnits="userSpaceOnUse">
<stop stop-color="white"/>
<stop offset="1" stop-color="white" stop-opacity="0.03"/>
</linearGradient>
<linearGradient id="paint2_linear" x1="1017.51" y1="660.813" x2="720.482" y2="-6.82747" gradientUnits="userSpaceOnUse">
<stop stop-color="white"/>
<stop offset="1" stop-color="white" stop-opacity="0.03"/>
</linearGradient>
<linearGradient id="paint3_linear" x1="900.452" y1="658.41" x2="1197.19" y2="-8.57662" gradientUnits="userSpaceOnUse">
<stop stop-color="white"/>
<stop offset="1" stop-color="white" stop-opacity="0.03"/>
</linearGradient>
<linearGradient id="paint4_linear" x1="972.497" y1="587.407" x2="493.795" y2="-13.929" gradientUnits="userSpaceOnUse">
<stop stop-color="white"/>
<stop offset="1" stop-color="white" stop-opacity="0.03"/>
</linearGradient>
<linearGradient id="paint5_linear" x1="954.488" y1="589.898" x2="1434.27" y2="-12.7942" gradientUnits="userSpaceOnUse">
<stop stop-color="white"/>
<stop offset="1" stop-color="white" stop-opacity="0.03"/>
</linearGradient>
<linearGradient id="paint6_linear" x1="903.783" y1="532.319" x2="199.486" y2="-12.3577" gradientUnits="userSpaceOnUse">
<stop stop-color="white"/>
<stop offset="1" stop-color="white" stop-opacity="0.03"/>
</linearGradient>
<linearGradient id="paint7_linear" x1="1021.27" y1="537.599" x2="1725.17" y2="-6.7681" gradientUnits="userSpaceOnUse">
<stop stop-color="white"/>
<stop offset="1" stop-color="white" stop-opacity="0.03"/>
</linearGradient>
<linearGradient id="paint8_linear" x1="866.509" y1="531.427" x2="-28.1151" y2="57.2716" gradientUnits="userSpaceOnUse">
<stop stop-color="white"/>
<stop offset="1" stop-color="white" stop-opacity="0.03"/>
</linearGradient>
<linearGradient id="paint9_linear" x1="1029.46" y1="551.477" x2="1954.15" y2="61.3866" gradientUnits="userSpaceOnUse">
<stop stop-color="white"/>
<stop offset="1" stop-color="white" stop-opacity="0.03"/>
</linearGradient>
<linearGradient id="paint10_linear" x1="813.566" y1="546.708" x2="-19.7254" y2="273.218" gradientUnits="userSpaceOnUse">
<stop stop-color="white"/>
<stop offset="1" stop-color="white" stop-opacity="0.03"/>
</linearGradient>
<linearGradient id="paint11_linear" x1="1108.54" y1="541.377" x2="1941.83" y2="267.887" gradientUnits="userSpaceOnUse">
<stop stop-color="white"/>
<stop offset="1" stop-color="white" stop-opacity="0.03"/>
</linearGradient>
<linearGradient id="paint12_linear" x1="843.374" y1="623.237" x2="-10.9425" y2="460.788" gradientUnits="userSpaceOnUse">
<stop stop-color="white"/>
<stop offset="1" stop-color="white" stop-opacity="0.03"/>
</linearGradient>
<linearGradient id="paint13_linear" x1="1079.72" y1="619.246" x2="1934.04" y2="456.797" gradientUnits="userSpaceOnUse">
<stop stop-color="white"/>
<stop offset="1" stop-color="white" stop-opacity="0.03"/>
</linearGradient>
</defs>
</svg>
