<svg width="1920" height="950" viewBox="0 0 1920 950" fill="none" xmlns="http://www.w3.org/2000/svg">
<rect width="1920" height="950" fill="url(#paint0_linear)"/>
<path opacity="0.4" d="M902.661 0.921147L936.748 692.552L950.058 692.552L991.678 0.921228L902.661 0.921147Z" fill="url(#paint1_linear)" fill-opacity="0.4"/>
<path opacity="0.4" d="M703.2 0.859633L957.995 684.118L965.128 684.118L793.848 0.859636L703.2 0.859633Z" fill="url(#paint2_linear)" fill-opacity="0.4"/>
<path opacity="0.4" d="M1218.43 0.87291L955.055 677.187L942.654 677.187L1130.03 0.872889L1218.43 0.87291Z" fill="url(#paint3_linear)" fill-opacity="0.4"/>
<path opacity="0.4" d="M475.87 0.346869L921.09 618.803L933.066 618.803L581.628 0.346885L475.87 0.346869Z" fill="url(#paint4_linear)" fill-opacity="0.4"/>
<path opacity="0.4" d="M1450.79 0.360254L1004.03 625.465L990.812 618.817L1345.94 0.36027L1450.79 0.360254Z" fill="url(#paint5_linear)" fill-opacity="0.4"/>
<path opacity="0.4" d="M189.345 0.774993L928.452 637.727L939.994 624.597L336.479 7.1955L189.345 0.774993Z" fill="url(#paint6_linear)" fill-opacity="0.4"/>
<path opacity="0.4" d="M1731.01 0.788542L1007.97 637.898L992.251 628.213L1591.73 6.41605L1731.01 0.788542Z" fill="url(#paint7_linear)" fill-opacity="0.4"/>
<path opacity="0.4" d="M11.1352 108.022L923.298 634.231L937.168 623.55L2.00131 0.485697L11.1352 108.022Z" fill="url(#paint8_linear)" fill-opacity="0.4"/>
<path opacity="0.4" d="M1913.09 112.274L1016.27 636.467L1002.92 620.986L1921.88 0.495561L1913.09 112.274Z" fill="url(#paint9_linear)" fill-opacity="0.4"/>
<path opacity="0.4" d="M6.11071 299.875L917.826 653.878L930.058 631.322L1.89072 207.358L6.11071 299.875Z" fill="url(#paint10_linear)" fill-opacity="0.4"/>
<path opacity="0.4" d="M1918.01 301.212L1009.57 640.903L1003.11 628.261L1921.99 207.347L1918.01 301.212Z" fill="url(#paint11_linear)" fill-opacity="0.4"/>
<path opacity="0.4" d="M2.15252 478.997L826.378 691.371L834.992 667.31L2.15254 391.915L2.15252 478.997Z" fill="url(#paint12_linear)" fill-opacity="0.4"/>
<path opacity="0.4" d="M1921.73 468.953L1095.31 683.505L1088.89 667.297L1921.73 391.901L1921.73 468.953Z" fill="url(#paint13_linear)" fill-opacity="0.4"/>
<defs>
<linearGradient id="paint0_linear" x1="960" y1="0" x2="960" y2="950" gradientUnits="userSpaceOnUse">
<stop stop-color="#BB788A"/>
<stop offset="1" stop-color="#BB788A" stop-opacity="0.53"/>
</linearGradient>
<linearGradient id="paint1_linear" x1="1005.92" y1="685.678" x2="921.378" y2="-1.38186" gradientUnits="userSpaceOnUse">
<stop stop-color="white"/>
<stop offset="1" stop-color="white" stop-opacity="0.03"/>
</linearGradient>
<linearGradient id="paint2_linear" x1="1017.54" y1="660.801" x2="720.506" y2="-6.83992" gradientUnits="userSpaceOnUse">
<stop stop-color="white"/>
<stop offset="1" stop-color="white" stop-opacity="0.03"/>
</linearGradient>
<linearGradient id="paint3_linear" x1="900.451" y1="658.411" x2="1197.19" y2="-8.57564" gradientUnits="userSpaceOnUse">
<stop stop-color="white"/>
<stop offset="1" stop-color="white" stop-opacity="0.03"/>
</linearGradient>
<linearGradient id="paint4_linear" x1="972.521" y1="587.395" x2="493.819" y2="-13.9415" gradientUnits="userSpaceOnUse">
<stop stop-color="white"/>
<stop offset="1" stop-color="white" stop-opacity="0.03"/>
</linearGradient>
<linearGradient id="paint5_linear" x1="954.487" y1="589.899" x2="1434.27" y2="-12.7932" gradientUnits="userSpaceOnUse">
<stop stop-color="white"/>
<stop offset="1" stop-color="white" stop-opacity="0.03"/>
</linearGradient>
<linearGradient id="paint6_linear" x1="971.113" y1="584.358" x2="199.511" y2="-12.3702" gradientUnits="userSpaceOnUse">
<stop stop-color="white"/>
<stop offset="1" stop-color="white" stop-opacity="0.03"/>
</linearGradient>
<linearGradient id="paint7_linear" x1="959.261" y1="585.555" x2="1725.17" y2="-6.7672" gradientUnits="userSpaceOnUse">
<stop stop-color="white"/>
<stop offset="1" stop-color="white" stop-opacity="0.03"/>
</linearGradient>
<linearGradient id="paint8_linear" x1="959.799" y1="580.85" x2="-28.0911" y2="57.2632" gradientUnits="userSpaceOnUse">
<stop stop-color="white"/>
<stop offset="1" stop-color="white" stop-opacity="0.03"/>
</linearGradient>
<linearGradient id="paint9_linear" x1="979.98" y1="577.703" x2="1954.15" y2="61.3876" gradientUnits="userSpaceOnUse">
<stop stop-color="white"/>
<stop offset="1" stop-color="white" stop-opacity="0.03"/>
</linearGradient>
<linearGradient id="paint10_linear" x1="943.8" y1="589.45" x2="-19.7245" y2="273.217" gradientUnits="userSpaceOnUse">
<stop stop-color="white"/>
<stop offset="1" stop-color="white" stop-opacity="0.03"/>
</linearGradient>
<linearGradient id="paint11_linear" x1="987.622" y1="581.059" x2="1941.86" y2="267.875" gradientUnits="userSpaceOnUse">
<stop stop-color="white"/>
<stop offset="1" stop-color="white" stop-opacity="0.03"/>
</linearGradient>
<linearGradient id="paint12_linear" x1="843.372" y1="623.238" x2="-10.9439" y2="460.789" gradientUnits="userSpaceOnUse">
<stop stop-color="white"/>
<stop offset="1" stop-color="white" stop-opacity="0.03"/>
</linearGradient>
<linearGradient id="paint13_linear" x1="1079.75" y1="619.234" x2="1934.06" y2="456.785" gradientUnits="userSpaceOnUse">
<stop stop-color="white"/>
<stop offset="1" stop-color="white" stop-opacity="0.03"/>
</linearGradient>
</defs>
</svg>
