<svg width="1884" height="337" viewBox="0 0 1884 337" fill="none" xmlns="http://www.w3.org/2000/svg">
<path d="M36.7314 336.329H81.2566H121.886H174.759H202.031H210.936H256.574H282.176H302.769H304.996H321.693H374.01H421.318H483.096H514.82H525.952H578.825H635.595V196.233H625.02V183.446H615.002V151.758H603.871V183.446H594.409V196.233H578.825V97.8317H573.26V80.5976H561.572V70.5907H555.45V42.7938H550.441V16.6648H543.762V42.7938H535.97V70.5907H530.404V80.5976H519.273V97.8317H514.82V219.582H483.096V205.684V111.73H421.318V205.684H411.856V115.066H398.499V104.503H391.82V91.1604H377.349V104.503H369.001V115.066H355.643V190.673H353.973V183.446H344.512V160.653H338.389V135.635H335.607V160.653H326.702V183.446H313.901V190.673H302.769V221.806H295.534V211.243H286.629V185.67H277.724V211.243H269.375V221.806H256.574V141.751H251.565V127.852H241.547V119.513H236.538V96.7198H231.529V75.5942H226.52V96.7198H219.841V119.513H214.832V127.852H205.371V141.751H202.031V240.708H174.759V230.145V153.425H121.886V230.145H114.094V156.205H102.406V147.31H96.8404V136.191H84.596V147.31H77.3606V156.205H65.6728V217.358H64.0031V211.243H56.2112V192.897H51.2021V172.883H48.4193V192.897H41.1839V211.243H30.0526V217.358H21.1476V254.606L0.554688 256.83V336.329H21.1476H36.7314Z" fill="#447D98"/>
<path d="M1884 175.239V142.542H1872.64V175.239H1862.81V188.811H1846.53V85.7848H1840.7V67.5855H1828.41V57.4063H1822.27V27.7939H1816.43V0.64917H1809.98V27.7939H1802V57.4063H1795.86V67.5855H1784.19V85.7848H1779.89V213.488H1746.72V199.299V100.591H1681.92V199.299H1672.4V103.984H1658.27V92.8794H1651.21V78.6902H1636.16V92.8794H1627.25V103.984H1613.12V183.259H1611.59V175.239H1601.76V151.487H1595.62V125.576H1592.55V151.487H1583.33V175.239H1570.13V183.259H1558.46V215.956H1550.78V205.16H1541.56V178.324H1532.04V205.16H1523.75V215.956H1509.93V132.054H1504.71V116.94H1494.27V108.611H1489.05V84.8594H1484.13V62.6501H1478.61V84.8594H1471.54V108.611H1466.32V116.94H1456.49V132.054H1452.81V236.006H1424.55V224.284V143.776H1369.27V224.284H1360.98V146.86H1349V137.915H1342.86V126.193H1330.27V137.915H1322.59V146.86H1310.61V211.637H1309.08V205.16H1300.78V185.727H1295.56V164.134H1292.8V185.727H1285.12V205.16H1273.76V211.637H1263.93V250.195H1245.2V336.256H1263.93H1280.51H1327.2H1369.27H1424.55H1452.81H1462.64H1509.93H1536.34H1558.46H1560.61H1577.8H1632.47H1681.92H1746.72H1779.89H1791.25H1846.53H1884V175.239Z" fill="#447D98"/>
<path d="M1321.05 153.728H1317.06V158.943H1321.05V153.728Z" fill="#FFF4D2"/>
<path d="M1334.26 145.445H1331.19V152.501H1334.26V145.445Z" fill="#FFF4D2"/>
<path d="M1334.26 164.772H1331.19V175.509H1334.26V164.772Z" fill="#FFF4D2"/>
<path d="M1346.85 153.728H1344.4V158.943H1346.85V153.728Z" fill="#FFF4D2"/>
<path d="M1346.85 170.907H1345.62V175.509H1346.85V170.907Z" fill="#FFF4D2"/>
<path d="M1379.1 152.501H1374.49V158.636H1379.1V152.501Z" fill="#FFF4D2"/>
<path d="M1379.41 171.213H1376.95V178.576H1379.41V171.213Z" fill="#FFF4D2"/>
<path d="M1392.92 150.66H1387.7V172.134H1392.92V150.66Z" fill="#FFF4D2"/>
<path d="M1403.36 155.875H1399.98V162.624H1403.36V155.875Z" fill="#FFF4D2"/>
<path d="M1403.36 175.509H1399.98V181.337H1403.36V175.509Z" fill="#FFF4D2"/>
<path d="M1412.57 153.728H1411.04V162.624H1412.57V153.728Z" fill="#FFF4D2"/>
<path d="M1468.47 123.051H1462.94V131.027H1468.47V123.051Z" fill="#FFF4D2"/>
<path d="M1468.47 146.059H1462.94V159.25H1468.47V146.059Z" fill="#FFF4D2"/>
<path d="M1483.21 118.142H1479.22V127.038H1483.21V118.142Z" fill="#FFF4D2"/>
<path d="M1482.9 145.445H1481.06V154.955H1482.9V145.445Z" fill="#FFF4D2"/>
<path d="M1501.64 136.855H1497.65V147.899H1501.64V136.855Z" fill="#FFF4D2"/>
<path d="M1462.94 176.122H1458.34V188.393H1462.94V176.122Z" fill="#FFF4D2"/>
<path d="M1499.49 168.146H1497.65V180.723H1499.49V168.146Z" fill="#FFF4D2"/>
<path d="M1530.51 207.72H1528.05V217.23H1530.51V207.72Z" fill="#FFF4D2"/>
<path d="M1541.56 180.724H1537.26V189.006H1541.56V180.724Z" fill="#FFF4D2"/>
<path d="M1564.6 190.54H1563.68V200.97H1564.6V190.54Z" fill="#FFF4D2"/>
<path d="M1575.65 206.186H1571.35V211.708H1575.65V206.186Z" fill="#FFF4D2"/>
<path d="M1584.56 184.405H1582.1V194.528H1584.56V184.405Z" fill="#FFF4D2"/>
<path d="M1625.41 114.155H1622.34V123.051H1625.41V114.155Z" fill="#FFF4D2"/>
<path d="M1641.07 98.5088H1637.08V125.198H1641.07V98.5088Z" fill="#FFF4D2"/>
<path d="M1653.36 111.7H1651.82V118.449H1653.36V111.7Z" fill="#FFF4D2"/>
<path d="M1638.92 142.377H1637.08V151.887H1638.92V142.377Z" fill="#FFF4D2"/>
<path d="M1692.97 104.031H1689.59V118.756H1692.97V104.031Z" fill="#FFF4D2"/>
<path d="M1691.13 136.855H1689.59V146.672H1691.13V136.855Z" fill="#FFF4D2"/>
<path d="M1706.79 108.633H1705.26V116.915H1706.79V108.633Z" fill="#FFF4D2"/>
<path d="M1705.26 136.855H1700.65V147.899H1705.26V136.855Z" fill="#FFF4D2"/>
<path d="M1721.54 115.074H1720V124.891H1721.54V115.074Z" fill="#FFF4D2"/>
<path d="M1793.09 89.6125H1790.64V98.5089H1793.09V89.6125Z" fill="#FFF4D2"/>
<path d="M1807.2 67.2183H1801.67V84.3974H1807.2V67.2183Z" fill="#FFF4D2"/>
<path d="M1821.65 67.2183H1816.12V84.3974H1821.65V67.2183Z" fill="#FFF4D2"/>
<path d="M1793.09 115.074H1791.86V126.732H1793.09V115.074Z" fill="#FFF4D2"/>
<path d="M1809.37 90.8396H1808.45V98.5089H1809.37V90.8396Z" fill="#FFF4D2"/>
<path d="M1833.33 98.5088H1831.79V110.473H1833.33V98.5088Z" fill="#FFF4D2"/>
</svg>
