<svg width="1212" height="427" viewBox="0 0 1212 427" fill="none" xmlns="http://www.w3.org/2000/svg">
<path d="M574.571 323.583C574.236 319.233 573.566 314.548 572.896 310.198C571.891 304.844 571.556 306.851 566.531 305.178C565.861 300.159 567.871 294.805 567.536 289.45C567.536 286.773 567.536 273.388 563.851 279.076C562.846 273.722 558.826 276.734 557.486 280.08C557.151 277.738 554.805 276.734 553.13 278.742C551.455 276.734 550.115 280.08 550.45 281.754C548.44 281.754 546.43 282.423 544.42 282.088C544.755 277.738 541.74 279.746 539.73 280.08C538.39 276.065 536.38 275.395 532.359 275.73C529.344 276.065 525.659 276.734 524.319 279.076C523.314 280.75 524.654 282.423 522.644 283.427C521.639 284.096 518.624 283.092 517.954 282.423C516.949 281.419 518.289 279.077 515.944 278.407C513.934 278.073 513.264 280.415 511.924 281.419C511.589 280.08 510.583 279.746 509.913 278.742C510.249 279.076 508.238 280.415 507.903 280.415C506.898 280.415 507.233 279.411 506.563 279.076C504.888 278.407 505.558 275.395 502.543 277.069C500.198 278.407 501.538 283.092 500.868 285.435C499.863 288.446 497.183 289.45 495.173 291.458C496.513 292.797 498.858 292.797 499.528 294.47C500.533 296.812 498.858 300.828 499.193 303.505C498.523 303.505 495.508 302.501 494.838 303.17C493.498 304.509 494.503 306.851 496.178 306.517C495.843 308.19 494.838 309.863 495.173 311.871C489.143 311.871 483.112 313.21 476.747 312.875C473.732 312.875 471.052 313.544 469.377 311.202C468.036 309.529 467.367 306.182 466.697 304.174C470.717 301.832 466.696 296.478 464.351 300.828C462.676 303.505 465.691 306.182 463.681 309.529C461.336 313.21 448.606 314.883 447.936 309.194C454.636 303.17 437.55 302.501 435.54 302.167C435.205 295.474 436.545 289.45 436.21 282.758C435.875 279.077 435.205 276.065 435.205 272.384C435.205 269.037 435.875 265.022 432.86 263.349C432.19 264.687 431.52 266.36 430.85 267.699C430.515 266.026 430.18 264.352 430.18 262.679C429.845 260.337 425.155 266.026 425.155 266.026C422.139 266.695 424.15 264.352 422.139 262.345C421.804 263.014 421.469 263.683 421.134 264.352C420.464 265.022 420.464 268.368 418.119 266.36C417.449 265.691 417.784 262.345 417.784 261.341C415.774 261.006 415.439 263.349 415.104 265.022C413.429 264.687 413.094 261.006 412.424 261.006C410.749 260.671 410.749 264.352 409.744 265.022C409.409 263.349 408.404 262.01 406.729 261.341C406.394 262.345 405.724 263.683 405.389 264.352C402.708 260.337 401.033 265.022 399.358 267.03C398.353 266.026 399.358 262.679 397.348 262.679C395.673 262.679 395.673 266.026 395.338 267.364C392.658 267.364 394.668 264.687 393.328 264.018C391.653 263.014 390.313 264.352 390.313 266.36C389.978 266.695 389.308 266.695 388.973 266.695C387.633 265.022 388.973 262.679 386.628 261.675C382.943 264.352 384.283 266.695 380.933 262.345C378.587 264.687 379.257 267.699 379.592 270.711C380.262 274.057 379.927 277.738 379.927 281.419C379.927 288.112 379.257 294.47 378.922 300.828C378.587 303.84 377.917 306.517 376.577 308.859C375.572 310.532 374.902 311.536 374.567 312.54H367.197C367.197 305.178 367.532 285.769 367.867 285.1C368.202 284.096 367.867 254.313 367.867 254.313V237.247V180.358L364.852 174C364.852 174 365.187 171.992 364.852 169.315L363.512 171.992V175.004L361.502 179.689L359.827 172.662C359.827 172.662 359.492 170.988 359.827 169.985C360.162 169.315 359.827 167.307 358.151 168.311L356.811 171.658V175.673L354.801 178.351V182.366H351.786C352.121 181.362 350.781 180.693 349.106 181.697L344.751 182.366L341.401 169.315L338.051 180.024L335.37 167.642L333.695 178.016V181.697C333.695 181.697 332.355 190.732 330.345 191.736L331.685 194.078V220.85H315.94C315.94 220.85 315.94 146.895 315.94 145.891C315.94 144.887 314.599 139.867 314.599 139.198C314.599 138.529 312.924 121.462 312.924 121.462C312.924 121.462 312.924 118.785 311.584 116.108C311.584 116.108 310.244 116.443 309.239 117.781V120.124V123.47L306.224 142.21C306.224 142.21 306.224 137.859 306.224 137.19C306.224 136.521 303.879 135.182 303.879 135.182L301.869 119.789C301.869 119.789 303.209 118.785 303.879 116.108L300.864 113.765C300.864 113.765 299.524 114.435 299.524 115.773V118.45V121.127C299.524 121.127 298.854 135.182 296.844 135.852L294.163 142.879L293.493 102.388C293.493 102.388 294.834 99.7106 295.839 98.7067C296.509 98.0374 297.514 94.3564 297.514 94.3564C297.514 94.3564 296.509 91.01 296.174 89.6715C295.839 88.3329 294.163 94.3564 294.163 94.3564V77.6245L289.473 81.9748L288.468 78.6284L287.128 81.9748C287.128 81.9748 284.113 82.6441 284.113 80.6363C284.113 79.967 283.778 76.9553 282.773 76.286C282.103 75.6167 282.773 73.6089 282.773 73.6089L281.098 69.5932C281.098 69.5932 281.098 69.5932 282.438 67.5854C282.773 66.9161 282.103 65.9122 282.438 64.9083C282.438 64.239 281.768 64.5737 281.098 64.5737C278.753 58.2155 279.423 50.5189 279.088 43.8261C279.088 40.4797 279.423 24.7518 277.078 23.7478C277.078 22.4093 277.078 20.7361 277.078 19.3975C281.768 19.3975 283.778 8.01986 279.088 10.3623C279.088 8.3545 280.093 8.01986 280.428 6.34667C276.743 7.01595 278.418 2.33102 277.413 0.323191C276.743 -0.011447 277.078 0.657828 276.743 0.657828C275.738 2.66566 275.738 5.34276 274.733 7.35059C273.728 6.68131 272.052 6.34667 270.712 6.68131C271.382 8.01986 272.723 9.02378 273.728 10.0277C273.058 11.0316 272.723 12.0355 272.052 13.0394C271.717 12.0355 270.712 11.0316 269.372 10.697C268.032 13.0394 268.702 15.3819 270.042 17.3897C270.712 18.3936 272.387 17.7244 273.058 19.0629C273.058 19.3975 273.058 22.4093 273.058 22.7439C272.723 27.4289 272.388 31.4445 272.052 35.7948C271.717 40.1451 272.388 46.1686 272.052 51.5228C271.717 55.8731 270.377 59.8887 270.377 64.239C269.707 64.239 269.372 64.239 269.707 64.5737V65.5776C269.707 66.2468 269.372 66.9161 269.707 67.2508V72.9396L269.372 73.2742C269.372 73.2742 269.372 73.6089 269.707 73.6089V75.2821C269.707 75.2821 269.707 75.6167 269.372 75.6167C268.702 76.286 268.032 79.2977 268.032 79.967C268.032 81.9748 265.017 81.3055 265.017 81.3055L263.677 77.9592L262.672 81.3055L257.982 76.9553V93.6871C257.982 93.6871 256.307 87.6637 255.972 89.0022C255.637 90.3408 254.632 93.6871 254.632 93.6871C254.632 93.6871 255.637 97.3682 256.307 98.0374C256.977 98.7067 258.652 101.718 258.652 101.718L257.312 142.879L254.632 135.852C252.622 135.182 251.952 121.127 251.952 121.127V118.45V115.773C251.952 114.1 250.611 113.765 250.611 113.765L247.596 116.108C247.931 118.785 249.606 119.789 249.606 119.789L247.596 135.182C247.596 135.182 245.251 136.521 245.251 137.19C245.251 137.859 245.251 142.21 245.251 142.21L242.236 123.47V120.124V117.781C241.566 116.443 239.891 116.108 239.891 116.108C238.551 118.785 238.551 121.462 238.551 121.462C238.551 121.462 236.876 138.529 236.876 139.198C236.876 139.867 235.536 144.887 235.536 145.891C235.536 146.895 235.536 220.85 235.536 220.85H219.79V194.078L221.13 191.736C219.455 190.732 217.78 181.697 217.78 181.697V178.016L215.435 169.65L212.755 182.032L209.405 171.323L206.054 184.374L202.034 183.705C200.359 182.701 199.019 183.37 199.354 184.374H196.339V180.358L194.329 177.681V173.666L192.989 170.319C191.314 169.315 190.979 170.988 191.314 171.992C191.649 172.662 191.314 174.669 191.314 174.669L189.639 181.697L187.629 177.012V174L186.289 171.323C185.953 174 186.289 176.008 186.289 176.008L183.273 182.366V239.255V256.321C183.273 256.321 182.938 286.104 183.273 287.108C183.608 287.777 183.943 307.186 183.943 314.548H144.077C143.407 313.21 143.742 312.206 141.396 311.536C142.737 306.851 138.046 309.194 137.041 305.513C136.371 302.836 135.701 296.812 136.706 294.135C137.041 294.135 138.046 293.801 138.381 294.135C138.716 292.797 138.046 291.793 136.706 291.793C138.716 290.454 136.706 287.442 136.371 285.435C136.371 282.758 137.041 280.415 137.041 277.738C137.376 277.738 137.376 277.738 137.711 277.738C138.046 276.065 136.706 276.399 136.371 275.395C136.036 274.392 136.036 273.388 136.036 272.049C136.036 269.372 136.036 267.364 133.021 267.699C133.356 268.703 133.021 269.707 131.681 269.707C131.681 271.045 132.016 274.057 129.671 272.718C129.336 271.38 130.006 270.376 129.671 269.372C128.666 269.372 126.656 268.703 125.986 269.372C125.316 269.707 125.316 272.049 124.981 273.053C122.636 274.392 122.971 271.045 122.971 269.707C121.966 269.707 121.296 270.376 120.625 271.045C119.62 269.037 118.28 270.376 118.28 271.714C117.945 272.718 118.95 275.061 118.95 276.399C118.95 279.411 119.285 283.092 118.28 286.104C115.935 286.104 113.59 285.435 110.91 285.435C107.895 285.435 106.555 286.104 106.22 282.423C106.22 281.084 106.22 279.746 105.885 278.742C105.885 278.073 105.885 277.403 105.885 277.069C105.885 276.399 104.88 276.065 104.88 275.73C104.545 273.053 106.89 271.045 104.21 268.703C103.205 269.372 103.205 270.711 103.205 271.714C102.87 271.045 102.2 270.711 101.865 270.041C101.195 270.711 100.86 271.715 100.525 272.718C100.19 270.376 99.5195 267.699 97.5094 271.045C97.1744 270.376 97.1744 269.372 96.8394 268.368C95.4993 269.037 95.4993 271.38 94.1593 272.049L93.1542 272.718C93.1542 271.715 91.4791 267.699 90.1391 268.033C88.464 268.368 88.799 273.053 88.799 274.057C88.464 279.746 88.129 285.769 87.459 291.123C87.1239 290.789 86.7889 290.454 86.7889 290.12C85.1139 291.458 87.1239 292.127 87.459 293.131C87.794 294.47 87.459 296.143 87.459 297.816C87.1239 300.828 87.1239 303.84 86.7889 306.517C85.1139 306.517 84.7788 306.851 83.7738 307.521C83.1037 308.19 83.7738 308.859 83.1037 309.194C82.4337 309.529 82.0987 308.859 81.4287 308.859C78.7485 308.859 76.4034 309.529 74.0583 309.863C72.0482 310.198 68.6981 308.859 68.028 311.536C67.693 313.21 69.0331 313.879 69.0331 315.217C69.3681 316.556 68.6981 317.225 68.3631 318.898C66.688 318.898 64.6779 317.895 62.6678 317.895C63.0028 314.883 63.6729 314.883 61.6628 313.21C60.6577 312.54 61.9978 311.202 59.6527 311.871C58.3126 312.206 59.3176 314.548 57.3076 312.206C55.9675 310.532 56.6375 306.851 56.6375 304.844C56.6375 302.501 55.9675 300.159 56.3025 297.816C58.6476 298.151 57.6426 295.139 56.3025 294.135C58.3126 292.462 55.9675 291.793 55.6325 290.454C54.9625 288.781 55.2975 286.104 55.2975 284.431C53.6224 284.096 53.2874 286.439 52.2823 287.442C51.6123 286.773 51.2773 285.769 50.6073 285.1C49.2672 286.439 49.6022 290.12 46.9221 289.45C46.9221 286.439 46.9221 283.092 46.9221 280.08C46.9221 278.407 47.5921 277.069 45.582 277.403C45.247 277.403 45.247 279.076 44.242 279.076C43.5719 279.076 43.2369 278.407 42.5669 278.073C39.8868 277.069 37.8767 277.738 34.8615 278.073C30.1713 278.742 34.1915 274.057 30.8414 273.053C28.8313 275.396 29.8363 278.407 26.8211 279.411C25.8161 279.746 24.8111 279.077 23.806 279.411C22.801 279.746 22.466 280.415 21.4609 280.415C19.1158 280.08 18.4458 277.738 16.4357 281.084C15.4306 283.092 15.4306 285.769 15.0956 287.777C14.7606 290.454 15.4306 292.127 12.7505 292.797C11.0754 293.131 8.06029 293.131 7.05524 293.131C5.38016 292.797 2.36501 292.127 2.70003 295.139C2.70003 296.143 4.04009 296.812 4.37511 297.816C4.71012 299.489 3.37008 300.159 3.03506 301.497C2.36503 303.84 3.37008 306.182 3.37008 308.525C3.03506 314.213 4.04011 320.237 3.03506 325.926C1.02497 338.977 1.02495 352.028 1.02495 365.078C1.02495 368.09 0.689941 371.437 0.689941 374.783V425.983H574.571V374.783H570.216C572.896 365.413 574.571 357.047 574.571 347.343C576.246 338.977 575.241 331.28 574.571 323.583Z" fill="#013A4B"/>
<path d="M254.297 151.245H249.271V172.662H254.297V151.245Z" fill="#FFF4D2"/>
<path d="M267.027 101.384H265.352V116.108H267.027V101.384Z" fill="#FFF4D2"/>
<path d="M278.083 147.564H272.723V158.272H278.083V147.564Z" fill="#FFF4D2"/>
<path d="M275.403 101.384H272.723V112.761H275.403V101.384Z" fill="#FFF4D2"/>
<path d="M294.833 158.272H289.808V166.638H294.833V158.272Z" fill="#FFF4D2"/>
<path d="M1210.94 362.856C1210.6 360.184 1210.27 357.512 1209.94 354.84C1209.27 351.5 1208.93 352.836 1206.26 351.834C1205.92 348.828 1206.93 345.821 1206.93 342.481C1206.93 340.811 1206.93 332.795 1204.59 336.469C1203.92 333.463 1201.58 335.133 1200.91 337.137C1200.57 335.801 1199.23 335.133 1198.23 336.135C1197.23 334.799 1196.56 336.803 1196.56 337.805C1195.22 337.805 1194.22 338.139 1192.88 338.139C1193.22 335.467 1191.21 336.803 1189.87 337.137C1189.2 334.799 1187.87 334.131 1185.19 334.465C1183.18 334.465 1181.18 335.133 1180.17 336.469C1179.51 337.471 1180.51 338.473 1179.17 339.141C1178.5 339.475 1176.83 339.141 1176.16 338.473C1175.49 337.805 1176.5 336.469 1175.16 336.135C1174.16 335.801 1173.49 337.471 1172.82 337.805C1172.48 337.137 1172.15 336.803 1171.81 336.135C1171.81 336.135 1170.81 337.137 1170.48 337.137C1169.81 337.137 1170.14 336.469 1169.81 336.469C1168.81 336.135 1169.14 334.131 1167.47 335.133C1165.8 335.801 1166.8 338.807 1166.46 340.143C1165.8 341.813 1164.46 342.481 1163.12 343.817C1164.12 344.485 1165.46 344.485 1165.8 345.821C1166.46 347.157 1165.46 349.83 1165.46 351.166C1165.13 351.166 1163.45 350.498 1162.79 351.166C1161.78 351.834 1162.45 353.17 1163.45 353.17C1163.12 354.172 1162.79 355.174 1162.79 356.176C1159.11 356.176 1155.43 356.844 1151.75 356.844C1150.08 356.844 1148.41 357.178 1147.07 355.842C1146.07 354.84 1145.73 352.836 1145.4 351.834C1147.74 350.498 1145.4 347.491 1144.06 349.83C1143.06 351.5 1145.06 352.836 1143.73 354.84C1142.39 357.178 1134.7 358.18 1134.03 354.84C1138.04 351.166 1127.67 350.832 1126.34 350.832C1126 346.823 1127.01 343.149 1126.67 339.475C1126.67 337.471 1126 335.467 1126 333.463C1126 331.459 1126.34 329.121 1124.33 328.118C1123.66 328.787 1123.33 329.789 1122.99 330.791C1122.66 329.789 1122.66 328.787 1122.66 327.784C1122.32 326.448 1119.65 329.789 1119.65 329.789C1117.98 330.123 1118.98 328.787 1117.98 327.784C1117.98 328.118 1117.64 328.787 1117.31 329.121C1116.97 329.455 1116.97 331.459 1115.3 330.457C1114.97 330.123 1115.3 328.118 1114.97 327.45C1113.63 327.45 1113.63 328.787 1113.3 329.789C1112.29 329.455 1112.29 327.45 1111.62 327.45C1110.62 327.116 1110.62 329.455 1109.95 329.789C1109.62 328.787 1108.95 327.784 1108.28 327.45C1107.95 328.118 1107.61 328.787 1107.28 329.121C1105.6 326.782 1104.6 329.455 1103.6 330.791C1102.93 330.123 1103.6 328.452 1102.6 328.118C1101.59 328.118 1101.59 330.123 1101.59 330.791C1099.92 330.791 1101.26 329.121 1100.59 328.786C1099.59 328.118 1098.92 329.121 1098.92 330.123C1098.58 330.123 1098.25 330.123 1098.25 330.457C1097.58 329.455 1098.25 328.118 1096.91 327.45C1094.9 329.121 1095.57 330.457 1093.57 327.784C1092.23 329.121 1092.56 331.125 1092.9 332.795C1093.23 334.799 1093.23 337.137 1093.23 339.141C1093.23 343.149 1092.9 346.823 1092.56 350.832C1092.56 352.502 1091.89 354.172 1091.23 355.508C1090.56 356.51 1090.22 357.178 1089.89 357.846H1085.21C1085.21 353.504 1085.54 342.147 1085.54 341.479C1085.88 340.811 1085.54 323.108 1085.54 323.108V279.352L1083.87 275.678C1083.87 275.678 1084.2 274.342 1083.87 273.006L1083.2 274.676V276.346L1081.86 279.352L1080.86 275.01C1080.86 275.01 1080.53 274.008 1080.86 273.34C1080.86 273.006 1080.86 271.67 1079.86 272.338L1079.19 274.342V276.68L1077.85 278.35V280.688H1076.18C1076.18 280.02 1075.51 279.686 1074.51 280.354L1072.5 280.688C1072.5 273.34 1071.83 265.991 1071.16 258.309C1070.49 258.309 1070.16 258.309 1069.82 258.309C1069.49 252.965 1069.16 248.288 1067.48 243.278C1065.14 244.948 1066.48 249.29 1065.81 251.963C1065.14 254.969 1062.8 256.973 1062.47 259.311C1062.47 259.311 1064.14 260.313 1064.14 260.981C1064.14 261.983 1063.14 262.651 1063.14 263.653C1063.14 265.657 1062.47 267.327 1062.47 269.331C1062.47 272.338 1062.47 275.344 1062.47 278.684C1057.12 271.002 1058.46 260.981 1057.79 252.297C1053.44 251.295 1054.11 239.604 1054.11 236.264C1053.77 230.251 1055.45 224.573 1055.11 218.561C1049.09 217.893 1051.1 194.846 1052.77 183.489H1053.44C1056.11 183.489 1058.46 181.485 1058.46 179.147C1058.46 176.809 1056.11 174.805 1053.44 174.805H1048.76C1046.75 170.462 1046.42 163.782 1045.75 160.776C1044.08 152.426 1042.4 144.075 1042.07 135.391C1041.4 121.362 1032.37 91.6344 1033.04 77.6057C1026.35 81.9479 1024.68 120.026 1021.34 130.046C1016.99 143.407 1019.67 158.104 1013.98 174.805H1009.63C1006.96 174.805 1004.62 176.809 1004.62 179.147C1004.62 181.485 1006.96 183.489 1009.63 183.489H1011.31C1011.64 186.829 1010.64 190.837 1010.64 194.512C1010.64 201.192 1012.31 210.544 1009.3 216.891C1004.28 215.221 1001.61 219.563 1006.29 221.567C999.936 226.243 1005.96 236.264 1005.29 242.61C1005.29 243.278 1004.95 243.946 1004.95 244.614C1003.61 241.608 1002.95 238.602 1000.94 236.598C998.264 242.944 999.267 252.965 999.267 259.645C999.267 263.319 999.936 291.377 1000.27 302.733H996.258V287.034L997.261 285.698C996.258 285.03 995.255 279.686 995.255 279.686V277.348L993.917 272.338L992.245 279.686L990.239 273.34L988.232 281.022L985.557 280.688C984.554 280.02 983.885 280.688 983.885 281.022H982.213V278.684L980.876 277.014V274.676L980.207 272.672C979.204 272.004 978.869 273.006 979.204 273.674C979.204 274.008 979.204 275.344 979.204 275.344L978.2 279.686L976.863 276.68V275.01L976.194 273.34C975.86 275.01 976.194 276.012 976.194 276.012L974.522 279.686V323.442C974.522 323.442 974.188 341.145 974.522 341.813C974.857 342.147 974.857 353.838 974.857 358.18H950.78C950.446 357.178 950.446 356.844 949.108 356.51C950.111 353.838 947.102 355.174 946.433 352.836C946.099 351.166 945.764 347.825 946.433 346.155C946.767 346.155 947.102 346.155 947.436 346.155C947.771 345.487 947.102 344.819 946.433 344.819C947.771 344.151 946.433 342.147 946.099 341.145C946.099 339.475 946.433 338.139 946.433 336.803H946.767C947.102 335.801 946.099 336.135 945.764 335.467C945.43 334.799 945.43 334.131 945.43 333.463C945.43 331.793 945.43 330.791 943.424 330.791C943.424 331.459 943.423 332.127 942.755 332.127C942.755 333.129 943.089 334.799 941.417 333.797C941.417 333.129 941.417 332.461 941.417 331.793C940.748 331.793 939.745 331.459 939.076 331.793C938.742 332.127 938.742 333.463 938.408 333.797C937.07 334.465 937.404 332.461 937.07 331.793C936.401 331.793 936.067 332.127 935.732 332.795C935.064 331.793 934.395 332.461 934.395 333.129C934.395 333.797 934.729 335.133 934.729 335.801C934.729 337.471 934.729 339.809 934.395 341.479C933.057 341.479 931.385 341.145 930.048 341.145C928.041 341.145 927.373 341.479 927.373 339.475C927.373 338.807 927.373 337.805 927.373 337.137C927.373 336.803 927.373 336.469 927.373 336.135C927.373 335.801 926.704 335.467 926.704 335.467C926.704 333.797 927.707 332.795 926.369 331.459C925.701 331.793 925.701 332.461 925.701 333.129C925.701 332.795 925.032 332.461 925.032 332.127C924.697 332.461 924.363 333.129 924.029 333.797C924.029 332.461 923.36 330.791 922.357 332.795C922.022 332.461 922.022 331.793 922.022 331.125C921.019 331.459 921.353 333.129 920.35 333.463L919.682 333.797C919.682 333.129 918.678 330.791 918.01 331.125C917.006 331.459 917.341 334.131 917.341 334.799C917.341 338.139 917.006 341.813 916.672 345.153C916.672 344.819 916.338 344.819 916.338 344.485C915.334 345.487 916.672 345.487 916.672 346.489C917.006 347.157 916.672 348.16 916.672 349.162C916.672 350.832 916.338 352.502 916.338 354.506C915.334 354.506 915.334 354.506 914.666 355.174C914.331 355.508 914.666 355.842 914.331 356.176C913.997 356.51 913.662 355.842 913.328 355.842C911.656 355.842 910.318 356.176 908.981 356.51C907.643 356.51 905.637 355.842 905.302 357.512C904.968 358.514 905.971 358.848 905.971 359.516C905.971 360.518 905.637 360.852 905.637 361.52C904.634 361.52 903.296 360.852 902.293 360.852C902.293 358.848 902.962 359.182 901.624 358.18C900.955 357.846 901.624 357.178 900.287 357.178C899.283 357.178 899.952 358.848 898.949 357.512C897.946 356.51 898.615 354.506 898.615 353.17C898.615 351.834 898.28 350.498 898.28 349.162C899.618 349.162 898.949 347.491 898.28 347.157C899.283 346.155 898.28 345.821 897.946 345.153C897.611 344.151 897.611 342.815 897.611 341.479C896.608 341.145 896.274 342.815 895.94 343.149C895.605 342.815 895.271 342.147 894.936 341.813C893.933 342.815 894.268 344.819 892.596 344.485C892.596 342.481 892.596 340.811 892.596 338.807C892.596 337.805 892.93 337.137 891.592 337.137C891.258 337.137 891.258 338.139 890.924 338.139C890.589 338.139 890.255 337.805 889.92 337.471C888.248 336.803 886.911 337.137 885.239 337.471C882.229 337.805 884.904 335.133 882.564 334.465C881.561 335.801 881.895 337.805 880.223 338.139C879.554 338.139 878.885 338.139 878.551 338.139C877.882 338.139 877.882 338.807 876.879 338.473C875.541 338.139 874.873 336.803 873.869 338.807C873.201 339.809 873.201 341.479 873.201 342.815C872.866 344.485 873.201 345.487 871.863 345.821C870.86 346.155 869.188 346.155 868.185 345.821C867.182 345.821 865.51 345.153 865.51 347.157C865.51 347.825 866.178 348.159 866.513 348.828C866.513 349.83 865.844 350.164 865.844 351.166C865.51 352.502 866.178 354.172 865.844 355.508C865.844 358.848 866.178 362.522 865.51 365.862C864.506 373.545 864.172 381.227 864.172 388.91C864.172 390.58 863.838 392.584 863.838 394.588V424.983H1211.94V394.588H1209.27C1210.94 389.244 1211.94 384.233 1211.94 378.221C1211.94 372.209 1211.61 367.533 1210.94 362.856Z" fill="#013A4B"/>
<path d="M749.8 332.063C747.667 324.818 745.107 321.409 735.72 323.114C760.467 281.347 674.707 276.233 678.973 327.375C664.467 324.818 654.227 336.751 655.507 350.816C643.56 342.718 628.627 346.98 628.2 363.175C615.827 349.537 595.773 361.47 597.907 378.518C582.547 377.665 579.56 398.975 587.24 408.777C580.413 413.039 577.853 418.153 577 425.398C629.907 427.955 684.947 421.562 736.573 417.3C787.773 413.039 836.413 436.053 887.613 419.431C879.507 413.465 871.4 407.498 860.733 408.351C897.427 392.582 846.653 386.189 835.133 382.78C838.547 365.306 825.747 360.192 811.24 365.306C816.36 346.98 799.72 339.735 783.933 343.997C785.64 327.802 763.88 327.802 751.507 327.802L749.8 332.063Z" fill="#095B53"/>
<path d="M874.387 329.506C874.387 342.292 849.213 352.52 818.067 352.52C786.92 352.52 761.747 342.292 761.747 329.506C761.747 316.721 786.92 306.492 818.067 306.492C848.787 306.492 874.387 316.721 874.387 329.506Z" fill="#095B53"/>
<path d="M896.147 416.022H577.427V426.676H896.147V416.022Z" fill="#095B53"/>
<path d="M850.92 288.592C853.48 296.69 840.253 306.492 821.907 310.328C803.56 314.163 786.92 310.754 784.36 302.656C781.8 294.559 795.027 284.757 813.373 280.921C831.72 277.512 848.787 280.495 850.92 288.592Z" fill="#095B53"/>
<path d="M817.64 352.521H813.374V425.824H817.64V352.521Z" fill="#6B2705"/>
</svg>
