<svg width="240" height="343" viewBox="0 0 240 343" fill="none" xmlns="http://www.w3.org/2000/svg">
<path d="M82.7578 117.748L83.0272 118.017L82.7578 117.748Z" fill="#013A4B"/>
<path d="M236.336 298.335C234.719 294.836 231.755 290.53 231.216 286.762C230.677 284.071 232.294 276.804 229.061 275.459C228.253 277.881 228.522 280.841 227.983 283.264C227.175 285.417 226.097 287.57 225.019 289.723C223.403 282.187 219.092 274.921 218.284 267.654C217.475 260.388 215.32 253.121 215.589 244.778C219.631 248.546 221.786 242.356 218.284 241.548C218.553 239.395 219.9 237.242 220.439 235.089C221.247 232.129 220.708 231.321 220.17 228.63C219.361 223.517 219.9 218.134 213.164 218.403C213.703 213.559 212.087 212.213 207.506 211.137C207.237 208.176 207.506 205.216 207.506 202.255C207.506 200.641 207.237 199.564 207.506 198.487C207.776 196.873 210.2 196.873 208.314 194.72C209.392 193.912 209.662 192.297 209.662 190.952C212.087 190.414 211.278 186.646 209.931 185.3C222.594 177.764 210.2 164.039 204.273 156.234C201.309 152.197 197.268 146.545 195.92 141.701C194.843 138.202 195.92 137.933 197.268 134.973C198.615 132.281 198.884 129.859 195.112 129.052C194.843 123.131 195.651 117.479 195.382 111.558C194.843 111.558 195.382 111.827 195.112 112.366L194.304 110.213C194.034 111.289 190.801 114.25 190.801 113.98C190.801 115.595 192.957 114.788 193.496 115.864C194.034 116.941 193.765 117.479 194.034 118.825C194.843 123.131 193.765 127.706 193.496 132.012C189.454 132.012 192.687 136.049 192.957 137.126C193.496 140.355 192.957 141.701 191.34 144.392C188.107 149.237 184.335 153.812 181.102 158.656C175.713 166.192 166.822 179.648 177.329 186.915C174.366 188.53 174.905 189.875 175.443 192.567C175.713 193.643 176.521 193.374 176.521 195.258C176.521 196.065 175.443 197.411 175.174 197.949C173.019 202.255 170.594 206.023 167.899 209.791C166.283 208.445 165.205 206.292 164.127 204.677C178.946 197.68 164.666 179.648 158.739 171.844C158.469 165.384 157.122 158.656 156.583 152.197C156.583 150.044 155.236 148.698 154.966 146.545C154.966 145.738 155.775 144.392 155.505 143.585C154.966 142.508 153.889 142.777 153.35 141.701C150.655 137.933 154.966 133.089 156.583 130.128C154.966 129.859 152.272 129.321 151.194 128.244C149.578 126.899 150.655 124.746 149.847 122.862C149.039 120.978 147.422 119.901 146.883 117.748C146.345 115.864 147.422 113.173 146.614 111.558C146.075 110.751 144.997 110.751 144.728 110.213C143.92 109.405 143.92 108.329 143.65 106.983C143.111 104.561 142.572 102.408 142.034 99.9857C141.225 96.487 140.148 92.9883 139.07 89.4896L135.028 70.3813C135.837 67.69 136.375 69.5739 137.992 68.2282C140.148 66.3443 138.531 64.7295 137.184 63.3839V52.3495C138.531 51.0039 138.8 48.5817 137.723 48.0434C138.8 47.7743 139.07 46.4286 138.531 45.3521C144.728 43.1991 139.878 35.3943 137.723 32.1647C135.028 28.1278 134.489 23.0143 132.603 18.9773C135.567 17.9008 131.795 13.5947 131.526 11.7108C130.987 8.48123 132.334 4.7134 130.717 2.0221L130.987 0.138184C129.101 3.90601 131.795 10.6343 131.256 14.9404C129.37 14.9404 128.831 17.0934 128.831 18.7082C128.831 19.2465 129.64 19.5156 129.909 20.323C129.909 21.1304 129.64 21.9378 129.64 22.7452C129.37 25.9747 128.562 28.3969 126.137 30.8191C123.443 33.2412 121.018 34.5869 120.209 38.3547C119.401 41.5843 121.018 43.1991 122.904 45.6213V46.6978C121.018 47.236 121.018 49.9273 122.904 50.4656V61.2308C122.634 61.5 122.365 61.7691 122.365 62.3074C122.095 63.1148 121.826 64.1913 121.826 64.9987C122.095 66.6134 122.365 66.3443 122.904 67.4208C123.981 69.843 123.173 70.9195 122.365 73.6108C118.593 84.9143 115.36 96.7561 111.857 108.06C111.588 108.867 111.588 109.405 111.588 110.213C111.049 110.213 110.51 110.482 109.971 110.213C109.163 111.558 109.701 113.442 109.163 115.057C108.624 116.403 108.624 118.556 107.546 119.632C106.738 116.941 105.121 122.862 105.66 124.477C104.043 124.477 104.313 126.36 104.043 127.437C101.618 126.36 97.3075 127.437 97.3075 130.936C99.7324 131.474 101.08 131.474 101.618 133.896C102.157 136.049 102.427 138.471 102.427 140.624C98.6547 138.202 100.002 145.2 100.002 147.084C98.1158 147.353 97.3075 150.582 97.5769 152.197C97.8464 153.004 98.6547 153.543 98.6547 154.081C98.9241 155.157 98.3852 155.965 98.1158 157.041C97.8464 158.925 97.5769 161.078 97.5769 163.231C95.6909 161.617 93.8048 160.002 91.9188 158.387C88.4162 155.157 87.3384 151.39 87.069 146.814C86.7995 144.93 85.9912 142.508 86.5301 140.624C87.069 138.202 88.6856 138.202 87.6079 135.78C87.069 134.973 86.5301 134.973 85.9912 133.627C85.7218 132.55 85.9912 131.205 85.9912 130.128C85.7218 128.244 84.9135 125.822 85.4524 123.938C85.4524 123.669 85.4524 123.131 85.4524 122.593C87.8773 122.593 86.2607 120.978 86.2607 120.44C86.2607 120.17 85.4524 118.556 84.6441 117.748C83.8358 118.287 83.8358 119.632 84.1052 120.709C83.5663 120.44 82.758 120.709 82.4886 120.44C81.9497 122.323 83.8358 121.785 84.3746 123.131C84.9135 123.938 84.3746 126.091 84.3746 127.168C84.3746 129.859 84.3746 132.55 84.3746 135.242C81.6803 133.896 80.0637 140.624 83.8358 139.817C84.3746 150.582 77.6388 156.503 69.5557 162.424C66.592 164.577 63.8976 167.807 61.7421 171.574C57.9701 163.77 49.887 158.925 48.2704 149.506C47.7316 145.469 46.6538 141.432 46.6538 137.395C46.3844 134.704 47.7316 134.704 48.2704 132.55C49.3482 129.859 46.6538 129.052 45.8455 126.899C45.0372 124.207 45.8455 119.632 45.8455 116.941C45.8455 114.788 48.5399 108.598 44.7678 109.136H45.3067C42.3429 111.558 43.9595 116.941 43.9595 120.978C43.9595 122.862 44.2289 125.284 43.9595 127.437C43.6901 129.321 42.3429 130.936 42.8817 133.089C43.1512 133.896 43.6901 134.165 43.9595 135.242C43.9595 136.318 43.69 137.664 43.4206 138.471C43.1512 140.624 42.3429 141.97 41.5346 144.123C39.6485 148.698 38.0319 152.466 35.0681 156.772C31.8349 161.078 28.6017 165.115 24.2908 168.614C20.2493 171.844 17.016 175.342 16.2077 180.725C15.6689 185.031 16.7466 189.606 18.9021 193.374C20.2493 195.527 22.6742 196.065 25.3685 196.334V230.783C25.0991 232.129 25.0991 233.744 24.8296 234.82C24.5602 235.897 24.8296 236.435 24.0213 237.511C22.6742 238.05 21.5964 238.05 21.327 238.857C21.0576 240.203 22.9436 241.279 22.6742 242.625C22.4047 244.24 20.7881 244.24 19.7104 245.047C18.9021 243.971 18.0938 240.472 16.4772 242.087C15.13 243.432 16.2077 248.008 15.13 249.891C12.4357 254.467 6.23867 255.005 3.54433 259.311C1.92772 261.733 1.11942 264.694 1.11942 267.654C1.11942 271.422 3.00546 271.96 5.16093 274.382C7.04697 276.266 6.50811 278.419 6.50811 281.38C6.50811 283.533 7.85528 288.915 6.77754 290.799C6.77754 290.799 7.04698 291.338 7.04698 291.607C5.16093 291.068 2.46659 290.799 0.849985 292.683C-1.30549 295.644 1.38885 297.528 1.65829 299.95C1.92772 301.295 0.58055 302.91 0.311116 304.256C-0.227753 306.14 0.0416817 308.562 0.311116 310.446C0.849985 314.752 1.11942 319.058 2.19716 323.095C2.73603 325.517 3.54433 329.823 5.16093 331.707C7.85528 334.937 15.6689 335.744 19.441 336.282C26.9851 337.09 35.607 337.09 43.1512 335.744C47.4621 334.937 52.3119 334.937 56.6229 333.591C56.8923 333.591 57.1618 333.322 57.1618 333.322C61.2033 336.821 71.7112 337.897 75.4833 338.166C85.4524 338.974 95.6909 339.512 105.66 340.858C115.09 341.934 124.52 342.472 134.22 342.472C144.997 342.472 155.505 338.974 166.283 337.09C182.179 334.398 198.076 332.515 213.973 331.169C218.553 330.9 222.864 329.554 227.175 329.285C230.408 329.285 233.102 330.631 236.066 330.631C237.952 324.979 235.258 318.789 237.952 313.406C241.994 306.678 239.299 304.794 236.336 298.335ZM59.3172 233.744V237.511C58.5089 236.973 57.9701 236.166 58.2395 234.551C58.5089 233.744 58.7784 233.205 59.3172 232.398V233.744ZM59.3172 227.554C59.0478 227.015 58.7784 226.477 58.7784 225.67C59.0478 225.67 59.0478 225.67 59.3172 225.67V227.554ZM64.9754 211.675C63.6282 209.791 62.281 207.907 60.9338 206.292C59.0478 203.601 57.9701 201.179 56.8923 198.218C56.8923 197.949 56.6229 197.411 56.3535 197.142C56.6229 197.142 56.6229 197.142 56.8923 197.142C59.3172 196.873 61.2033 195.527 62.0116 193.912V197.411H64.7059V211.675H64.9754Z" fill="#013A4B"/>
<path d="M62.0115 226.746V226.477C62.0115 225.67 61.7421 225.132 61.4726 224.593C61.2032 223.786 60.9337 223.248 60.3949 222.44C58.2394 219.211 53.659 220.556 53.3896 224.324C53.3896 225.939 53.1202 227.823 53.1202 229.438C52.8507 229.976 52.8507 230.245 52.5813 230.783C52.3119 232.129 52.5813 233.205 53.1202 233.744C53.1202 236.435 53.1202 238.857 53.1202 241.549C53.1202 246.393 60.6643 246.393 60.6643 241.549C60.6643 241.279 60.6643 240.741 60.6643 240.472C62.0115 239.934 62.8198 238.857 62.8198 236.973C63.3587 233.744 63.3587 230.245 62.0115 226.746Z" fill="#013A4B"/>
<path d="M81.9497 144.661C81.4108 154.888 70.364 160.271 67.9391 169.69C66.8614 173.996 66.592 178.572 68.2086 182.878C69.0169 184.762 69.8252 186.915 71.1723 188.529C72.7889 190.413 74.1361 190.413 76.561 190.144C72.5195 182.878 72.2501 173.189 76.2916 165.922C80.0637 158.925 81.6803 153.273 81.6803 145.199V144.661H81.9497Z" fill="#0B5B63"/>
<path d="M81.1413 149.237C77.6387 154.081 74.4055 158.118 69.2862 161.078C64.7059 163.77 61.7421 167.268 59.5866 172.382C57.97 176.419 58.2394 180.725 59.856 184.762C60.6643 186.646 61.7421 188.53 63.0892 190.144C64.7059 192.297 65.5142 192.836 67.6696 191.49C62.5504 183.954 60.1255 174.804 66.3225 166.999C69.0168 163.77 72.7889 161.617 75.7527 158.656C77.3693 157.041 81.6802 151.928 80.6025 150.044L81.1413 149.237Z" fill="#0B5B63"/>
<path d="M81.4109 148.429C81.4109 158.118 76.561 166.999 76.561 176.688C76.561 180.187 77.3693 183.147 78.1776 186.377C79.2554 189.876 79.7943 190.414 83.5663 190.414C83.0275 183.416 84.3746 176.957 84.3746 169.96C84.3746 165.923 84.1052 162.155 83.5663 158.387C83.2969 155.965 83.2969 150.313 81.9497 148.699H81.4109V148.429Z" fill="#0B5B63"/>
<path d="M80.6025 150.313C80.0636 149.237 80.0636 145.738 81.9497 145.2C84.3746 144.392 84.644 147.891 85.1829 149.506C86.7995 154.35 90.0327 157.311 94.0742 160.271C102.157 166.461 106.738 176.957 101.08 186.646C100.271 187.992 99.4629 189.606 97.8463 190.145C96.7686 190.683 95.4214 190.145 94.3437 190.683C99.4629 188.261 98.924 176.688 97.5769 172.382C95.4214 166.461 91.1104 161.886 86.7995 157.042C89.4938 164.308 94.3437 169.691 94.3437 178.034C94.3437 183.147 95.152 190.952 88.6855 190.683C88.955 186.646 90.0327 182.609 89.7633 178.303C89.7633 173.997 88.4161 170.229 87.3384 165.923C86.5301 162.693 85.4523 159.733 84.644 156.772C84.3746 155.696 81.9497 148.968 81.6802 149.506L80.6025 150.313Z" fill="#0B5B63"/>
<path d="M100.002 191.49C100.002 192.297 99.1936 193.105 98.3853 193.105H64.706C63.8977 193.105 63.0894 192.297 63.0894 191.49C63.0894 190.683 63.8977 189.875 64.706 189.875H98.3853C99.463 189.875 100.002 190.683 100.002 191.49Z" fill="#0B5B63"/>
<path d="M44.2287 142.508C44.2287 150.044 45.037 157.041 42.0732 164.308C40.1872 169.152 36.4151 172.382 33.1819 176.419C30.4876 179.917 28.3321 183.685 27.5238 188.26C27.2543 190.144 26.446 193.105 28.3321 194.45C30.4876 196.334 32.643 194.181 33.7208 192.566C36.6845 187.722 38.0317 182.609 41.8038 178.033C45.037 173.996 47.1925 169.152 47.4619 163.769C48.0008 156.234 46.1148 148.429 44.2287 142.508Z" fill="#72CED3"/>
<path d="M45.8454 152.197C47.7315 152.735 49.887 157.58 50.6953 159.463C52.0424 162.693 52.5813 165.923 52.3119 169.421C52.3119 173.997 50.1564 177.764 47.462 181.263C45.3066 184.223 42.8817 186.915 40.4568 189.875C39.1096 191.49 34.5292 193.643 34.2598 195.258C36.6847 196.065 39.9179 194.989 42.6122 194.989C45.576 194.989 46.9232 194.989 49.0787 193.105C53.9285 188.26 55.8145 183.147 56.8923 176.419C57.4311 171.843 56.0839 167.537 54.1979 163.77C53.1202 161.886 52.3119 160.002 50.9647 158.118C49.887 156.503 48.0009 155.427 46.9232 153.543C46.3843 153.004 46.1149 152.466 45.8454 151.659V152.197Z" fill="#72CED3"/>
<path d="M43.6903 139.548C43.6903 146.276 40.9959 152.735 38.571 158.925C35.8767 165.115 31.0268 167.806 27.2548 172.651C24.291 176.688 22.9438 180.725 23.4827 185.838C23.7521 187.722 24.0216 189.606 25.3687 191.221C26.4465 192.567 28.6019 193.643 29.1408 194.989C24.8299 195.258 21.0578 195.527 17.8246 192.297C14.3219 188.799 14.0525 183.954 15.3997 179.11C18.6329 168.614 29.6797 164.308 35.0684 154.888C37.2238 151.39 38.8404 147.353 40.1876 143.585C40.7265 142.508 41.2654 138.471 42.882 138.74C44.4986 139.01 43.9597 143.585 43.6903 144.392V139.548Z" fill="#72CED3"/>
<path d="M184.604 152.467C183.527 153.543 183.527 155.427 183.527 157.042C182.718 157.311 181.641 157.311 181.102 157.849C180.293 158.657 180.832 159.464 180.293 160.002C179.755 160.81 179.216 160.271 178.677 161.079C178.138 161.617 178.407 162.694 178.407 163.501C177.33 163.77 175.713 163.77 175.174 164.847C174.635 165.923 174.635 167.269 174.366 168.076C173.558 169.691 172.749 169.96 173.288 171.844C173.558 173.728 174.096 172.651 173.019 174.535C171.941 176.419 172.21 177.227 173.288 178.841C173.558 179.11 174.096 179.11 174.096 179.649C174.366 180.187 173.827 180.994 173.827 181.533C173.827 183.955 176.521 184.493 178.677 184.493C176.791 184.224 175.444 185.3 175.713 187.184C175.983 189.337 177.33 189.068 178.946 189.607C177.869 189.607 177.06 190.683 177.33 191.76C177.599 193.105 178.677 193.374 179.755 193.913C178.677 194.72 178.407 196.335 178.946 197.681C179.216 198.219 180.024 198.219 180.293 199.026C180.563 199.564 180.293 200.641 180.293 201.179C180.293 204.14 179.485 207.907 180.024 210.868C175.983 209.791 173.019 213.29 172.749 217.058C171.133 213.828 168.438 218.673 167.63 220.018C166.552 221.633 166.552 222.979 165.744 224.863C165.205 226.208 164.666 227.016 163.05 226.208C160.355 224.863 164.936 221.095 165.744 218.942C167.091 216.251 167.899 212.752 166.283 210.33C169.786 208.177 171.941 203.871 173.827 200.103C174.635 198.488 175.983 197.142 176.252 195.258C176.791 193.374 175.444 193.374 175.174 191.49C174.905 189.876 176.521 188.53 176.252 187.184C176.252 187.454 175.444 185.839 175.174 185.839C174.905 185.3 174.905 184.493 174.366 183.686C173.288 181.533 172.21 178.034 172.48 175.343C172.749 171.306 174.366 167.807 176.791 164.577C177.869 162.963 179.216 161.617 180.293 160.002C181.371 158.657 183.527 155.696 183.796 154.62L184.604 152.467Z" fill="#013A4B"/>
<path d="M208.045 196.604C208.045 197.142 207.775 197.411 207.237 197.411H178.946C178.407 197.411 178.138 197.142 178.138 196.604C178.138 196.066 178.407 195.796 178.946 195.796H206.967C207.506 195.796 208.045 196.066 208.045 196.604Z" fill="#013A4B"/>
<path d="M208.045 191.759C208.045 192.297 207.506 193.105 206.967 193.105H178.407C177.868 193.105 177.33 192.567 177.33 191.759C177.33 191.221 177.868 190.414 178.407 190.414H206.967C207.506 190.683 208.045 191.221 208.045 191.759Z" fill="#013A4B"/>
<path d="M211.548 185.838C211.548 186.376 211.278 186.646 210.739 186.646H175.444C174.905 186.646 174.635 186.376 174.635 185.838C174.635 185.3 174.905 185.031 175.444 185.031H211.009C211.278 185.031 211.548 185.3 211.548 185.838Z" fill="#013A4B"/>
<path d="M188.915 211.137C188.915 211.944 188.376 212.483 187.568 212.483C186.76 212.483 186.221 211.944 186.221 211.137V199.564C186.221 198.757 186.76 198.219 187.568 198.219C188.376 198.219 188.915 198.757 188.915 199.564V211.137Z" fill="#013A4B"/>
<path d="M200.501 210.867C200.501 211.675 199.692 212.482 198.884 212.482C198.076 212.482 197.268 211.675 197.268 210.867V200.102C197.268 199.295 198.076 198.487 198.884 198.487C199.692 198.487 200.501 199.295 200.501 200.102V210.867Z" fill="#013A4B"/>
<path d="M170.863 216.25C172.749 217.058 173.827 220.556 173.558 222.44C173.558 222.709 173.558 222.709 173.558 222.44C173.288 220.556 175.713 217.865 177.06 217.058C178.677 215.981 181.641 215.443 183.796 215.443C187.838 215.712 191.879 218.672 192.688 222.44C192.418 220.825 194.574 219.211 195.651 218.134C197.537 216.25 199.423 215.981 201.848 215.712C204.273 215.443 206.698 215.174 208.584 216.789C210.201 218.134 211.278 220.018 212.626 221.633C212.626 220.018 213.973 219.211 215.589 219.48C217.475 219.749 218.553 221.364 219.092 223.248C219.361 224.324 220.17 229.707 219.092 230.514C218.284 231.052 216.667 229.976 215.859 229.707C215.859 228.092 217.745 221.902 213.703 222.979C213.164 224.593 213.434 226.746 213.434 228.63C212.626 228.899 211.817 228.63 211.009 228.361C210.74 225.401 210.74 223.248 208.315 221.095C206.159 219.48 203.734 218.403 201.309 218.942C198.884 219.211 196.19 221.364 195.112 223.786C193.765 226.477 195.651 228.361 191.61 228.092C192.687 226.477 190.801 223.517 189.724 222.171C188.107 220.287 186.221 219.48 184.066 219.211C181.371 218.672 178.946 219.48 177.33 221.902C175.713 224.324 175.983 226.477 175.983 229.169C174.905 228.63 173.288 228.361 172.21 228.899C172.48 227.015 172.749 221.364 170.055 221.095C166.013 220.556 166.822 227.554 166.552 229.438C161.433 230.514 164.127 222.44 165.205 220.287C166.014 218.942 167.091 217.058 168.438 216.25C170.055 215.443 171.133 216.25 172.48 216.519L170.863 216.25Z" fill="#013A4B"/>
<path d="M221.786 229.976C221.786 230.783 220.978 231.591 220.169 231.591H164.666C163.858 231.591 163.049 230.783 163.049 229.976C163.049 229.168 163.858 228.361 164.666 228.361H220.169C221.247 228.361 221.786 229.168 221.786 229.976Z" fill="#013A4B"/>
<path d="M200.77 222.44C199.154 222.709 192.148 227.284 195.651 228.899C194.573 228.899 193.496 228.63 192.687 228.63C192.148 228.63 189.454 229.168 189.185 228.899C188.107 228.092 187.838 224.862 186.49 223.786C184.874 222.171 181.91 221.902 180.024 223.247C177.868 224.593 177.599 226.746 177.33 228.899L177.599 229.437C182.179 229.437 186.76 230.514 191.61 230.245C194.304 230.245 196.998 229.976 199.693 229.976C202.387 229.976 204.812 229.168 207.237 229.168C208.045 224.324 205.081 221.902 200.77 222.44Z" fill="#013A4B"/>
<path d="M183.257 225.669C183.257 225.669 183.257 225.4 183.257 225.669C182.718 225.131 181.91 225.669 182.449 226.208C182.449 226.208 182.449 226.208 182.718 226.477C183.257 226.746 183.796 225.939 183.257 225.669Z" fill="#EFD5D0"/>
<path d="M201.579 225.401C201.579 225.401 201.309 225.401 201.579 225.401C201.309 225.401 201.309 225.67 201.309 225.67C201.04 225.939 201.309 226.208 201.309 226.477C201.579 227.015 202.118 226.746 202.118 226.208C202.656 225.67 202.117 225.132 201.579 225.401Z" fill="#EFD5D0"/>
<path d="M59.0476 183.685C59.0476 187.722 57.9699 193.105 53.9284 194.72C53.1201 194.989 50.4257 194.989 51.5034 196.334C52.3118 197.411 54.4672 195.796 54.4672 197.949C51.7729 198.757 52.5812 201.986 51.5034 204.139C50.4257 206.023 49.348 207.638 48.5397 209.522C48.0008 211.137 47.4619 213.29 46.3842 214.366C44.4982 216.788 40.7261 217.058 40.7261 221.364C40.7261 224.593 45.5759 224.324 45.037 227.284C43.151 227.554 42.8816 228.63 43.9593 230.245C44.4982 231.052 44.7676 230.245 45.037 231.591C45.037 232.129 44.7676 233.205 44.7676 233.744C44.7676 237.781 44.2287 242.356 45.037 246.393C45.8453 243.163 45.037 239.395 45.5759 236.166C46.1148 234.013 45.5759 231.321 48.0008 230.514C49.0785 230.245 54.1978 231.052 53.9284 228.63C53.9284 227.554 49.8868 226.746 48.8091 226.208C47.7314 225.401 44.7676 223.517 45.037 221.902C45.3065 219.749 47.4619 220.825 48.8091 220.287C50.9646 219.211 51.234 215.981 51.7729 214.097C52.0423 213.021 53.3895 207.638 54.7367 207.369C56.6227 207.1 59.8559 213.559 60.1254 215.174C60.3948 217.865 59.8559 219.749 57.7004 221.633C60.1253 221.633 60.3948 226.746 61.2031 228.361C61.4725 225.401 61.742 224.593 63.3586 222.44C64.1669 221.364 63.8974 222.171 63.8974 220.825C63.8974 220.018 62.8197 219.749 63.628 218.672C64.4363 217.327 66.5918 218.403 66.8612 216.25C67.1306 214.635 65.2446 212.482 64.4363 211.137C62.5503 208.176 60.1253 205.485 58.2393 202.255C57.7004 201.448 55.8144 199.026 56.0838 197.949C56.3533 197.142 59.317 196.604 59.8559 195.796C61.4725 193.912 62.5503 191.49 61.4725 189.337C60.9337 187.991 58.7782 184.493 57.7004 183.954L59.0476 183.685Z" fill="#013A4B"/>
<path d="M16.7465 242.356C16.2076 242.356 14.3215 247.469 13.7827 248.546C12.4355 250.699 10.8189 252.583 8.93286 254.467C5.69965 257.427 2.197 259.311 0.849831 263.617C-0.227906 267.385 0.580397 271.422 3.54417 274.113C6.77739 276.805 12.1661 275.459 16.2076 275.459C20.2491 275.459 25.0989 276.805 28.871 275.728C33.9903 274.113 35.3374 267.385 33.4514 262.81C31.0265 256.62 24.8295 253.39 22.1351 247.2C21.5963 245.854 21.0574 242.625 19.9797 241.548C18.6325 240.472 16.2076 240.741 16.2076 242.894C16.2076 242.894 16.2076 242.894 16.2076 243.163L16.7465 242.356Z" fill="#013A4B"/>
<path d="M55.8147 199.026C55.8147 199.564 55.5453 199.834 55.0064 199.834H23.4826C22.9438 199.834 22.6743 199.564 22.6743 199.026C22.6743 198.488 22.9438 198.219 23.4826 198.219H55.0064C55.5453 198.219 55.8147 198.488 55.8147 199.026Z" fill="#013A4B"/>
<path d="M53.9287 209.522C53.9287 209.791 53.6593 210.06 53.3898 210.06H23.2132C22.9438 210.06 22.6743 209.791 22.6743 209.522C22.6743 209.253 22.9438 208.984 23.2132 208.984H53.6593C53.6593 208.984 53.9287 209.253 53.9287 209.522Z" fill="#013A4B"/>
<path d="M56.6229 244.24C53.3897 244.24 49.887 244.24 46.6538 244.509C45.8455 244.509 43.6901 244.509 43.1512 245.586C42.6123 247.201 44.2289 247.47 45.3067 247.739C45.3067 247.739 45.0372 248.815 45.0372 249.354C44.2289 249.892 44.2289 250.968 44.2289 251.776C42.0734 252.045 41.804 256.351 42.3429 257.697C43.6901 255.813 44.2289 253.121 47.4621 253.121C50.6953 253.121 51.7731 255.544 52.8508 258.235C55.0063 255.274 58.7784 259.311 59.8561 261.464C59.8561 258.504 58.7784 255.274 55.0063 256.62C55.0063 254.467 54.7369 253.121 52.8508 252.045C51.7731 251.238 48.8093 250.43 47.7316 251.238C47.7316 249.623 47.7316 248.277 47.7316 246.662C52.0425 246.393 56.3535 246.931 60.395 246.662C61.4727 246.662 62.0116 246.931 62.5505 245.855C62.8199 245.048 62.281 244.24 61.4727 243.702C60.395 242.894 57.1618 243.164 56.3535 244.24H56.6229Z" fill="#013A4B"/>
<path d="M149.847 175.612C148.231 172.113 146.345 175.881 146.075 177.765C145.536 180.456 145.536 183.416 144.998 186.377C144.459 189.068 144.459 190.414 142.573 192.298C140.148 194.451 137.453 196.335 135.029 198.219C127.754 203.332 122.096 216.789 131.795 222.44C132.604 222.979 133.412 223.248 133.951 223.786C130.718 225.401 132.065 227.285 132.334 229.976C132.604 232.667 131.256 238.857 133.143 240.741C134.759 236.973 132.873 231.86 134.49 227.823C135.567 224.593 139.609 225.132 142.573 225.132C146.075 224.863 149.578 225.132 153.081 225.132C155.236 225.132 160.086 226.477 161.703 225.132C161.164 224.324 160.355 223.786 159.547 223.248C164.666 222.979 166.552 216.25 166.552 211.944C166.822 206.562 162.78 203.601 159.278 200.103C155.775 196.604 152.542 192.298 150.925 187.453C149.847 184.493 152.003 176.688 149.309 174.804H149.039L149.847 175.612Z" fill="#72CED3"/>
<path d="M193.496 138.203C191.879 139.817 191.071 143.585 189.724 145.738C188.376 148.16 186.49 150.044 185.413 152.467C186.76 151.928 188.915 151.39 188.376 153.812C189.724 153.812 189.724 152.467 191.071 151.928C192.687 151.39 192.687 152.467 193.765 152.736C195.382 153.005 197.807 150.852 198.615 153.274C199.423 153.274 200.231 153.543 201.04 153.543C199.693 153.005 198.615 151.39 196.998 150.583C195.382 149.775 194.573 149.775 192.687 149.775C192.687 149.237 192.418 148.699 192.687 148.43C191.61 148.16 190.532 148.43 189.454 148.968C189.724 145.738 191.879 142.509 192.687 139.279L193.496 138.203Z" fill="#72CED3"/>
<path d="M177.869 163.5C180.563 162.155 180.563 163.5 181.641 165.384C183.257 168.345 182.988 165.384 185.682 166.192C187.838 166.73 186.491 169.421 188.107 170.229C189.454 170.767 191.34 168.076 193.226 168.883C195.112 169.96 194.035 173.727 196.46 169.421C197.537 167.537 198.076 164.577 201.04 165.384C202.118 165.653 202.118 167.268 203.195 166.999C203.734 166.999 204.543 165.384 205.351 165.115C206.968 164.577 208.854 165.653 209.931 166.461C209.662 165.384 208.584 164.039 207.506 163.5C205.62 162.424 206.159 163.231 204.273 163.231C201.309 163.231 200.501 161.886 198.076 164.577C195.651 160.271 195.112 165.653 191.879 165.115C190.263 164.846 191.34 163.77 190.263 162.693C189.185 161.347 188.377 162.424 187.029 162.424C186.491 162.424 185.682 162.962 185.413 162.693C184.604 162.155 185.413 161.616 184.874 161.078C183.527 160.271 184.335 160.002 182.18 160.002C179.485 160.002 178.677 161.616 178.408 164.308L177.869 163.5Z" fill="#72CED3"/>
<path d="M172.749 175.612C172.48 174.804 173.557 173.728 174.635 173.459C176.791 172.92 177.868 174.266 179.215 175.612C182.179 178.572 182.449 177.496 185.951 175.612C187.299 175.073 188.915 174.535 190.532 174.804C191.609 175.073 192.148 176.15 193.226 176.15C195.651 176.419 197.806 172.92 200.501 173.997C201.579 174.266 202.117 175.881 203.195 175.881C204.273 175.881 204.812 174.266 205.62 173.997C207.237 173.19 208.853 173.19 210.47 174.535C213.434 176.957 213.434 182.878 209.931 184.762C214.781 184.762 216.667 176.419 214.242 172.651C213.164 171.306 210.2 171.036 208.853 170.767C207.506 170.229 208.045 169.96 206.159 170.767C205.081 171.306 204.273 172.651 202.926 172.651C201.848 172.651 201.579 171.844 200.501 171.575C198.884 171.575 198.076 172.651 196.729 172.92C195.651 173.19 194.843 172.113 193.496 172.382C192.148 172.651 191.609 173.997 190.262 173.728C188.915 173.459 188.915 172.382 187.837 172.113C186.49 171.844 185.143 173.459 183.526 173.19C182.449 172.92 182.718 171.844 181.91 171.575C180.832 171.306 179.485 172.113 178.407 172.113C178.138 170.229 175.713 169.153 174.096 169.96C172.48 170.767 171.941 174.266 172.21 175.881L172.749 175.612Z" fill="#013A4B"/>
<path d="M60.9336 291.876C62.0113 291.876 142.033 280.034 142.033 280.034L135.836 289.723L60.9336 295.375V291.876Z" fill="#0B5B63"/>
<path d="M146.614 266.847L130.179 300.757H167.9L151.195 266.847H146.614Z" fill="#0B5B63"/>
<path d="M130.179 300.757L146.614 266.847H151.195L167.9 300.757L149.039 269.538V300.757C149.039 300.757 146.614 269.807 146.614 270.615C146.614 271.422 132.065 300.757 132.065 300.757H130.179Z" fill="#033F42"/>
<path d="M167.9 301.564C167.9 302.103 167.63 302.372 167.091 302.372H130.987C130.448 302.372 130.179 302.103 130.179 301.564C130.179 301.026 130.448 300.757 130.987 300.757H167.361C167.63 300.757 167.9 301.295 167.9 301.564Z" fill="#033F42"/>
<path d="M223.133 275.19C223.133 275.728 222.864 275.997 222.325 275.997H173.827C173.288 275.997 173.019 275.728 173.019 275.19C173.019 274.651 173.288 274.382 173.827 274.382H222.325C222.864 274.382 223.133 274.651 223.133 275.19Z" fill="#013A4B"/>
<path d="M47.4619 239.934C47.4619 241.279 46.3842 242.087 45.3064 242.087H22.4045C21.3268 242.087 20.249 241.01 20.249 239.934C20.249 238.588 21.3268 237.781 22.4045 237.781H45.5758C46.6536 237.512 47.4619 238.588 47.4619 239.934Z" fill="#013A4B"/>
<path d="M38.3013 225.67C38.3013 226.477 37.7624 227.016 36.9541 227.016C36.1458 227.016 35.6069 226.477 35.6069 225.67V216.25C35.6069 215.443 36.1458 214.905 36.9541 214.905C37.7624 214.905 38.3013 215.443 38.3013 216.25V225.67Z" fill="#013A4B"/>
<path d="M29.4099 225.67C29.4099 226.208 28.871 226.747 28.3321 226.747C27.7933 226.747 27.2544 226.208 27.2544 225.67V215.981C27.2544 215.443 27.7933 214.905 28.3321 214.905C28.871 214.905 29.4099 215.443 29.4099 215.981V225.67Z" fill="#013A4B"/>
<path d="M67.1309 302.372C66.3226 300.488 66.8614 295.643 69.8252 296.182C72.2501 296.451 71.7113 300.219 71.9807 302.103C72.789 301.564 73.8667 301.564 74.9445 302.103C74.4056 299.95 74.1362 296.989 76.5611 296.72C80.3332 296.182 78.986 300.488 78.986 302.91C79.7943 302.103 81.4109 302.372 82.7581 302.372C82.2192 300.219 81.1415 294.836 85.183 295.374C88.4162 295.913 87.3385 301.295 87.3385 303.448C88.4162 303.179 89.7634 303.179 90.8411 303.179C90.3022 300.488 88.6856 296.72 92.4577 294.836C97.3075 292.414 97.0381 300.219 96.2298 302.641C99.463 302.372 103.235 302.103 106.468 302.372C104.582 299.95 105.391 294.298 108.624 293.221C113.204 291.607 113.743 299.68 112.935 302.372C114.551 301.564 117.515 302.372 119.671 302.103C116.437 300.219 118.054 294.836 121.557 293.76C126.676 292.145 125.598 298.604 125.598 301.833C126.945 301.833 128.292 302.372 129.64 302.641C124.52 303.987 118.593 304.256 113.204 304.525C107.007 305.063 100.81 305.601 94.6132 305.332C88.1468 305.063 81.9498 304.794 75.4833 304.794C74.675 304.794 65.2448 305.332 67.1309 302.372Z" fill="#013A4B"/>
<path d="M130.179 303.987C130.179 304.794 129.37 305.602 128.562 305.602H64.9755C64.1672 305.602 63.3589 304.794 63.3589 303.987C63.3589 303.179 64.1672 302.372 64.9755 302.372H128.562C129.37 302.372 130.179 303.179 130.179 303.987Z" fill="#013A4B"/>
<path d="M55.8147 276.266C54.4676 276.266 54.4676 277.074 54.1981 278.15C54.1981 280.303 55.5453 279.496 56.0842 280.573C56.8925 282.456 55.2759 283.533 55.5453 285.417C55.5453 285.686 56.623 286.493 56.8925 287.032C57.1619 288.108 56.623 288.916 56.623 289.992C56.3536 291.607 56.3536 293.222 56.3536 295.106C59.0479 295.375 59.5868 298.066 59.0479 300.219C58.7785 301.296 57.4313 302.103 58.2396 303.179C59.048 303.987 62.0117 303.449 62.82 303.987C60.6646 305.871 58.7785 307.216 57.9702 310.177C56.8925 313.945 56.8925 318.52 56.8925 322.288C57.1619 316.905 56.8925 311.253 56.623 305.871C56.3536 302.91 56.623 298.066 53.9287 296.182C51.2344 294.029 46.3845 294.567 43.1513 294.298C39.1098 294.029 33.1822 294.298 29.949 292.953C33.9906 293.222 37.4932 291.876 41.5347 291.338C44.2291 291.069 47.4623 292.145 49.8872 290.799C52.5815 289.454 53.3898 283.802 51.7732 281.111C49.6177 278.15 43.1513 278.419 40.1875 278.419C35.3377 278.15 29.949 279.227 25.3687 277.612C34.26 273.575 45.5762 276.805 55.0064 275.997C56.0842 275.997 57.9702 275.997 58.7785 275.459C60.3951 274.652 59.8563 274.652 59.8563 272.499C59.8563 269 60.6646 264.694 59.5868 261.733C58.7785 265.232 58.5091 269 57.7008 272.499C56.8925 274.921 55.5453 274.652 53.9287 276.536L55.8147 276.266Z" fill="#013A4B"/>
<path d="M33.1819 265.77C34.7985 265.232 37.7623 267.923 38.3012 270.076C38.5706 265.232 46.1148 264.425 49.348 266.039C51.5035 267.116 53.3895 268.731 54.1978 271.153C54.4672 272.498 55.0061 276.266 53.9284 277.074C55.545 275.997 57.1616 276.535 58.7782 275.997C57.7005 270.884 59.3171 266.039 53.6589 263.079C49.0786 260.926 42.8816 262.002 39.3789 265.501C38.8401 262.541 34.7985 262.541 32.6431 262.272C32.6431 263.348 32.6431 265.501 32.6431 266.039L33.1819 265.77Z" fill="#013A4B"/>
<path d="M163.319 242.625C163.319 243.702 162.51 244.24 161.702 244.24H130.717C129.909 244.24 129.101 243.433 129.101 242.625C129.101 241.818 129.909 241.01 130.717 241.01H161.433C162.51 240.741 163.319 241.549 163.319 242.625Z" fill="#72CED3"/>
<path d="M131.795 244.509C131.526 244.509 131.256 253.39 130.987 255.005C131.795 253.39 135.028 254.198 135.836 255.543C134.759 251.776 136.914 247.739 140.686 246.662C146.075 245.047 146.883 249.353 147.153 253.659C149.308 250.699 149.308 247.739 153.619 247.2C158.2 246.662 160.086 249.892 159.816 254.198C158.2 252.314 156.044 248.546 152.541 250.161C149.847 251.506 150.116 256.351 147.422 254.198C145.536 252.583 144.728 248.277 140.956 249.353C137.723 250.43 137.722 255.543 136.645 257.427C137.453 258.773 137.992 260.388 137.992 262.003C136.914 260.388 135.298 256.351 133.142 256.62C129.639 256.62 129.37 262.541 129.101 264.963C125.598 265.232 128.023 254.198 130.987 254.467L131.795 244.509Z" fill="#72CED3"/>
<path d="M125.059 274.382C125.059 271.96 125.059 268.461 126.406 266.577C128.831 263.886 132.065 267.654 132.603 270.614C131.795 263.617 145.267 259.042 146.614 266.847C148.5 258.773 159.008 262.81 159.816 269.538C161.433 265.232 163.858 264.155 168.438 264.424C166.013 265.77 163.319 267.116 161.972 269.807C160.894 272.498 161.433 275.997 160.355 278.688C158.739 274.382 158.469 269.538 154.697 266.308C152.811 264.694 148.5 263.617 148.5 267.385C147.153 267.385 146.075 267.654 144.728 267.116C145.267 263.617 139.339 264.963 137.723 266.308C135.298 268.73 135.298 273.037 135.567 276.266C134.759 274.921 132.334 275.19 130.987 275.728C131.256 273.844 131.795 269.807 129.37 269C126.137 267.654 126.406 274.382 126.137 276.266C125.868 275.997 124.52 274.921 124.79 275.459L125.059 274.382Z" fill="#72CED3"/>
<path d="M137.723 262.81C137.453 258.504 140.956 254.467 145.267 255.005C149.308 255.543 148.769 258.504 149.847 261.733C149.847 255.812 153.08 253.659 158.738 253.659C164.127 253.39 166.821 259.311 166.283 264.155C164.935 260.657 163.049 256.889 158.738 256.62C154.158 256.351 153.08 259.58 152.003 263.079C150.655 261.464 149.039 263.079 148.5 264.424C149.578 261.464 148.231 257.427 145.267 256.889C141.225 256.081 139.339 260.657 139.609 263.886C139.07 262.81 138.261 262.541 137.723 263.348V262.81Z" fill="#72CED3"/>
<path d="M145.536 186.915C145.536 188.529 144.459 189.606 142.842 189.606H104.043C102.696 189.606 101.349 188.529 101.349 186.915C101.349 185.3 102.427 184.223 104.043 184.223H142.842C144.459 184.223 145.536 185.569 145.536 186.915Z" fill="#72CED3"/>
<path d="M104.313 275.997C104.313 277.074 103.504 277.881 102.427 277.881H60.3948C59.3171 277.881 58.5088 277.074 58.5088 275.997C58.5088 274.921 59.3171 274.113 60.3948 274.113H102.427C103.504 274.113 104.313 274.921 104.313 275.997Z" fill="#72CED3"/>
<path d="M125.598 218.403C126.676 219.749 128.293 220.825 128.831 222.709C129.37 225.131 128.023 226.477 126.676 228.092C125.598 229.706 124.52 231.859 124.79 234.013C125.059 235.896 126.676 237.242 126.407 239.395C125.598 243.163 121.287 242.894 121.826 246.662C122.096 248.007 122.634 248.815 122.365 250.429C122.096 252.313 120.748 254.197 120.21 255.812C118.054 261.733 117.515 268.192 114.821 273.844C112.396 279.226 106.468 274.113 102.696 277.343C106.199 279.226 112.396 277.612 116.168 277.612C119.401 277.612 123.712 278.419 126.407 277.343C124.52 274.651 123.982 266.039 128.831 265.77C127.215 262.271 127.754 256.889 131.526 254.736C130.179 251.237 131.526 246.931 132.065 243.432C128.562 243.432 129.101 239.395 132.604 239.933C130.987 238.049 131.795 233.205 131.795 231.052C131.795 229.706 131.526 227.822 132.065 226.477C132.604 225.131 133.681 224.593 133.951 223.516C130.448 220.825 126.676 219.479 126.137 214.366C125.868 211.944 126.407 210.329 127.215 208.445C128.023 206.83 129.909 204.946 129.64 203.332C123.443 201.717 121.018 221.363 125.868 222.171L125.598 218.403Z" fill="#013A4B"/>
<path d="M158.739 282.187L167.9 252.313L180.294 295.374L165.475 296.989L158.739 282.187Z" fill="#033F42"/>
<path d="M189.454 290.261C188.107 292.415 187.298 295.106 186.221 297.528C185.143 300.219 185.412 299.95 183.257 300.758C180.024 301.834 175.982 302.911 172.749 303.18C176.252 303.18 179.754 303.18 182.988 303.987C183.526 306.409 183.796 309.639 185.143 311.792C185.412 306.678 184.604 296.99 189.454 293.222C190.532 292.415 195.112 291.607 196.19 292.415C197.268 293.491 196.729 299.143 196.998 300.758C197.806 300.758 198.615 300.758 199.423 300.758C199.423 299.143 198.884 295.913 199.423 294.568C200.231 292.415 202.117 293.491 204.003 293.491C208.045 293.76 212.356 293.222 216.397 293.491C216.667 296.451 217.745 299.143 218.283 302.103C219.631 300.488 219.9 296.451 219.9 294.298C221.247 294.298 225.019 293.491 225.828 294.568C226.905 295.375 227.444 300.219 228.252 301.565C228.522 298.066 228.522 294.298 227.714 290.8C224.75 292.684 220.169 291.876 216.936 291.876C213.164 291.876 209.392 291.607 205.62 291.607C202.656 291.607 199.692 291.338 196.729 291.069C194.573 291.069 191.609 290.261 189.723 290.531L189.454 290.261Z" fill="#72CED3"/>
<path d="M130.179 302.372C130.179 308.293 130.718 315.021 130.718 321.211C131.526 316.366 131.526 313.944 135.298 312.06C136.106 311.522 137.723 312.33 139.07 311.522C140.417 310.715 139.878 308.293 141.764 307.485C144.189 306.14 150.656 306.139 153.62 305.601C157.392 304.794 164.127 305.063 167.091 303.179C160.086 302.641 152.811 302.641 145.806 302.641C142.034 302.641 133.142 300.488 130.448 303.179V302.372H130.179Z" fill="#013A4B"/>
<path d="M173.557 210.598C170.863 212.213 170.594 215.981 171.671 218.672C166.821 215.712 163.588 222.44 164.127 226.746C165.205 227.284 163.858 231.321 164.397 233.205C164.935 235.897 165.474 238.319 165.205 241.548C164.666 246.662 166.013 251.775 164.397 257.427C162.51 256.351 160.624 255.274 158.2 255.543C164.397 248.007 152.003 249.084 150.925 245.854C152.811 245.316 159.008 244.24 160.086 242.894C161.702 240.741 159.277 239.395 158.738 237.242C157.661 232.936 159.547 227.823 158.469 223.786C161.972 224.324 163.588 220.287 165.744 217.865C166.821 216.519 167.63 214.635 168.977 213.29C169.785 212.482 173.557 209.522 173.018 210.598H173.557Z" fill="#72CED3"/>
<path d="M127.753 215.981C127.753 215.712 127.215 215.981 127.484 215.173C131.256 213.289 134.22 214.366 136.914 217.326C139.609 215.173 146.344 213.02 147.422 218.134C149.578 215.712 156.583 212.213 157.93 217.326C160.355 215.173 165.474 215.981 165.744 220.018C165.474 218.134 166.821 215.981 165.205 214.635C163.858 213.559 160.894 214.366 159.277 214.366C158.2 210.329 150.925 211.406 148.5 213.29C146.344 210.329 141.225 211.944 139.07 213.559C136.914 211.406 125.059 210.598 127.484 215.173L127.753 215.981Z" fill="#013A4B"/>
<path d="M127.753 205.754C129.639 201.448 135.028 203.87 136.914 206.83C139.339 204.408 146.344 203.332 147.692 207.638C149.039 203.87 156.313 202.524 157.122 207.369C158.738 205.754 162.241 205.754 164.127 207.369C163.319 205.485 161.163 203.87 159.277 205.485C157.93 202.255 151.194 201.448 148.769 203.332C146.344 200.102 141.225 200.102 139.07 203.601C136.914 199.026 129.639 201.448 129.37 206.292L127.753 205.754Z" fill="#013A4B"/>
<path d="M14.5911 319.596C14.5911 321.211 13.244 322.557 11.6274 322.557C10.0107 322.557 8.66357 321.211 8.66357 319.596V304.525C8.66357 302.91 10.0107 301.564 11.6274 301.564C13.244 301.564 14.5911 302.91 14.5911 304.525V319.596Z" fill="#013A4B"/>
<path d="M22.9434 320.404C22.9434 322.019 21.8656 323.095 20.249 323.095C18.6324 323.095 17.5547 321.749 17.5547 320.404V303.718C17.5547 302.103 18.6324 301.026 20.249 301.026C21.8656 301.026 22.9434 302.372 22.9434 303.718V320.404Z" fill="#013A4B"/>
<path d="M37.2237 320.404C37.2237 322.019 36.1459 323.095 34.5293 323.095C32.9127 323.095 31.835 321.749 31.835 320.404V303.718C31.835 302.103 32.9127 301.026 34.5293 301.026C36.1459 301.026 37.2237 302.372 37.2237 303.718V320.404Z" fill="#013A4B"/>
</svg>
