<svg width="1920" height="310" viewBox="0 0 1920 310" fill="none" xmlns="http://www.w3.org/2000/svg">
<path d="M1919.59 309.415V6.22075L-0.407227 0.00146484V309.415H1919.59Z" fill="#002A3A"/>
<path opacity="0.6" d="M-0.407031 5.2561C-0.407043 16.921 -4.58029 19.399 15.1296 21.9561C38.6958 24.5132 119.995 26.1392 138.848 35.5153C151.273 41.4819 165.842 40.2033 179.124 41.0557C192.836 41.9081 211.26 46.1699 224.971 42.7604C242.967 38.4986 254.965 29.5487 275.96 28.2702C314.951 25.713 354.799 28.2701 394.219 27.8439C438.352 27.4178 482.057 23.5821 526.19 23.5821C563.467 23.5821 601.173 25.713 638.45 28.2702C658.16 29.5487 664.587 30.4011 654.732 45.3176C690.296 59.8079 746.426 45.7437 784.132 44.039C835.978 41.9081 892.108 31.2534 944.382 38.4986C960.664 40.6295 976.518 47.8747 991.943 51.7104C1012.94 56.3984 1035.65 55.546 1056.64 53.4151C1101.63 49.1532 1145.77 36.3677 1191.18 36.7939C1228.46 36.7939 1264.88 44.4652 1302.16 44.039C1353.58 44.039 1404.57 42.3343 1455.98 41.0557C1568.67 37.6462 1681.79 35.5153 1794.48 40.6295C1836.04 42.3342 1878.03 45.7437 1919.59 45.7437V5.2561H-0.407031Z" fill="#02A39B"/>
</svg>
