<svg width="178" height="260" viewBox="0 0 178 260" fill="none" xmlns="http://www.w3.org/2000/svg">
<path d="M65.1543 77.0331L56.9943 73.8711L55.5153 75.4521V78.1041H51.3843L51.7923 82.8471L55.5153 84.2751L63.4713 83.2041L65.1543 77.0331Z" fill="#E1CFB5"/>
<path d="M133.087 243.242C133.903 242.375 134.821 241.865 135.892 242.018C136.912 242.171 137.83 242.885 138.238 243.803C138.544 244.415 138.595 245.129 138.646 245.843C138.952 249.413 138.901 257.879 134.158 259.103C132.169 259.613 130.486 258.185 129.976 256.4C129.16 253.697 130.384 246.2 133.087 243.242Z" fill="#3B455A"/>
<path d="M131.353 189.335L131.608 211.112C131.302 220.802 132.832 230.543 132.526 240.182C132.475 242.426 131.863 244.772 132.424 246.965C132.985 249.107 134.719 249.515 136.504 248.393C138.901 246.914 138.544 243.497 138.952 240.998C140.074 234.164 141.349 227.33 142.522 220.496C143.083 217.13 141.91 212.438 142.165 209.021L145.684 190.763L131.353 189.335Z" fill="#C67A6D"/>
<path d="M156.292 154.145L146.806 196.271L144.766 236.051L129.721 235.694L125.641 124.412L154.813 124.973L156.292 154.145Z" fill="#7DB5DB"/>
<path d="M111.564 242.426C112.431 241.559 113.349 241.151 114.42 241.406C115.44 241.61 116.307 242.375 116.715 243.344C116.97 244.007 117.021 244.721 117.021 245.384C117.174 248.954 116.766 257.471 111.972 258.389C109.932 258.797 108.351 257.267 107.892 255.431C107.229 252.677 108.759 245.282 111.564 242.426Z" fill="#3B455A"/>
<path d="M119.469 192.395L118.194 214.172C118.092 220.241 117.276 226.208 116.664 232.226C116.103 237.785 116.97 243.599 114.063 248.699C113.145 250.28 111.309 251.351 110.034 249.413C109.014 247.934 109.626 245.435 109.422 243.752C108.657 236.867 107.688 229.982 106.821 223.097C106.413 219.731 107.79 215.09 107.688 211.673L105.036 193.262L119.469 192.395Z" fill="#C67A6D"/>
<path d="M100.446 151.544L99.2222 192.446L105.648 233.807L120.948 234.266L120.285 189.488L128.343 152.411L131.097 128.084L106.821 125.228L100.446 151.544Z" fill="#7DB5DB"/>
<path d="M119.674 41.537L145.786 40.925L160.984 69.1281L155.578 95.5461L154.609 127.115L117.328 127.625L105.037 125.636L108.301 91.8741L106.414 46.7901L119.674 41.537Z" fill="white"/>
<path d="M118.704 58.622L105.087 85.8561L90.3994 88.7631L61.0234 84.2751L64.5934 75.0951H91.5724L106.821 46.79L118.704 58.622Z" fill="white"/>
<path d="M121.305 19.6579C125.232 8.18286 140.379 12.4669 143.49 22.7179C145.53 29.3989 140.379 38.0179 133.494 39.9049C133.443 40.1599 133.443 40.4149 133.443 40.6189C133.443 41.6899 133.29 42.7609 133.137 43.8319C133.086 44.2399 127.017 43.0669 126.354 42.9139C126.099 42.8629 125.844 42.8119 125.742 42.6079C125.487 42.2509 125.895 41.1289 125.946 40.6699C125.997 40.1599 126.048 39.7009 126.099 39.1909C122.682 37.5079 120.54 33.9889 119.928 30.3679C119.316 26.7469 120.132 23.0749 121.305 19.6579Z" fill="#C67A6D"/>
<path d="M127.251 27.1488C127.251 27.9114 126.835 28.5353 126.35 28.6047C125.864 28.6047 125.448 27.9807 125.448 27.2181C125.448 26.4555 125.864 25.8315 126.35 25.7622C126.835 25.7622 127.251 26.3862 127.251 27.1488Z" fill="#431E41"/>
<path d="M135.57 27.0796C135.57 27.8422 135.154 28.4661 134.669 28.5355C134.184 28.5355 133.768 27.9115 133.768 27.1489C133.768 26.3863 134.184 25.7624 134.669 25.693C135.154 25.6237 135.57 26.317 135.57 27.0796Z" fill="#431E41"/>
<path d="M130.648 31.17C130.925 31.17 131.203 31.17 131.48 31.1007C131.688 31.0313 131.827 30.8927 131.757 30.6847C131.688 30.4767 131.549 30.338 131.341 30.4074C130.925 30.4767 130.163 30.6154 129.955 30.1994C129.678 29.7834 130.093 28.8128 130.44 28.3969C130.579 28.2582 130.579 27.9809 130.371 27.9116C130.232 27.7729 129.955 27.7729 129.886 27.9809C129.47 28.4662 128.846 29.7834 129.331 30.6154C129.539 30.962 129.955 31.17 130.648 31.17Z" fill="#874137"/>
<path d="M122.952 23.128H123.022C124.616 22.7121 126.765 22.5734 127.805 22.5734C128.013 22.5734 128.152 22.4347 128.152 22.2268C128.152 22.0188 128.013 21.8801 127.805 21.8801C126.696 21.8801 124.477 22.0881 122.883 22.5041C122.675 22.5734 122.606 22.7121 122.675 22.92C122.675 23.0587 122.814 23.128 122.952 23.128Z" fill="#431E41"/>
<path d="M137.719 22.9891C137.858 22.9891 137.997 22.8504 138.066 22.7117C138.135 22.5038 137.997 22.3651 137.789 22.2958C136.194 21.8798 134.53 21.7412 132.797 21.8105C132.589 21.8105 132.45 21.9491 132.45 22.1571C132.45 22.3651 132.589 22.5038 132.797 22.5038C134.392 22.4344 135.986 22.5731 137.581 22.9891C137.65 22.9891 137.719 22.9891 137.719 22.9891Z" fill="#431E41"/>
<path d="M126.142 31.655C126.627 34.2201 128.638 35.7454 131.064 35.676C133.491 35.676 135.432 34.0815 135.848 31.5164L126.142 31.655Z" fill="white"/>
<path d="M131.148 9.30498C131.964 10.121 132.27 11.294 132.525 12.365C132.678 13.028 132.78 13.691 132.627 14.354C132.066 16.955 129.465 16.802 127.476 17.669C125.028 18.689 122.886 20.627 121.509 22.82C119.367 26.237 120.336 30.674 121.203 34.448C121.509 35.774 122.121 37.763 121.101 38.936C120.03 40.16 117.633 39.956 116.358 39.344C115.185 38.783 114.267 37.712 112.992 37.508C111.666 37.304 109.83 37.865 109.218 36.641C109.065 36.284 109.014 35.876 108.81 35.57C108.096 34.499 106.209 35.774 105.189 35.009C104.526 34.55 104.577 33.581 104.781 32.816C104.985 32.051 105.342 31.235 105.189 30.47C105.036 29.807 104.577 29.246 104.271 28.634C103.659 27.41 103.863 25.829 104.781 24.809C106.413 22.922 109.626 23.279 111.36 21.494C112.278 20.576 112.635 19.199 112.992 17.924C113.349 16.649 113.757 15.323 114.726 14.456C115.95 13.385 117.684 13.589 118.908 12.314C119.622 11.549 120.081 10.58 120.846 9.96798C121.866 9.10098 123.906 8.43798 125.232 8.02998C127.323 7.26498 129.618 7.72398 131.148 9.30498Z" fill="#3B455A"/>
<path d="M140.736 27.563C140.787 31.337 138.951 35.417 140.685 38.732C142.419 42.098 146.805 42.71 150.528 42.863C151.14 42.914 158.994 43.577 159.045 43.424C159.657 40.772 160.218 38.12 161.595 35.825C162.972 33.53 165.267 31.592 167.919 31.439C167.154 31.286 166.797 30.368 166.848 29.603C166.95 28.838 167.358 28.124 167.562 27.359C168.123 25.523 167.562 23.33 166.185 22.055C163.38 19.454 158.382 20.525 155.985 17.567C154.506 15.731 154.659 13.028 153.894 10.784C152.415 6.44899 147.621 5.53099 144.051 3.54199C140.277 1.45099 136.758 0.328989 132.372 1.04299C126.966 1.96099 122.988 7.41799 125.079 12.569C127.731 19.199 138.39 18.638 140.379 25.319C140.634 26.084 140.736 26.798 140.736 27.563Z" fill="#3B455A"/>
<path d="M138.084 41.384L129.975 52.8591L126.15 52.5531L119.775 40.925L138.084 41.384Z" fill="#7DB5DB"/>
<path d="M73.6712 201.932C114.203 201.932 147.06 169.075 147.06 128.543C147.06 88.0114 114.203 55.1541 73.6712 55.1541C33.1396 55.1541 0.282227 88.0114 0.282227 128.543C0.282227 169.075 33.1396 201.932 73.6712 201.932Z" fill="#305399"/>
<path d="M90.8579 79.583C88.6649 77.645 85.6048 76.676 81.7288 76.676C78.5158 76.676 75.6089 77.339 73.0078 78.716C70.4068 80.093 68.3158 81.878 66.8878 84.122C65.4088 86.366 64.6948 88.814 64.6948 91.517C64.6948 94.577 65.8168 97.076 68.0098 99.014C70.2028 100.952 73.2628 101.921 77.2408 101.921C80.4538 101.921 83.3608 101.258 85.9108 99.932C88.5118 98.606 90.5008 96.821 91.9798 94.526C93.4588 92.231 94.1729 89.783 94.1729 87.182C94.1729 84.071 93.0509 81.521 90.8579 79.583Z" fill="white"/>
<path d="M89.0221 166.64C89.0221 166.64 77.3431 171.281 78.4141 165.314L86.4211 119.975C87.4411 114.314 83.0551 109.163 77.3431 109.163H64.6441H63.3691H55.107L54.4441 111.968C54.4441 111.968 62.8081 112.427 61.5331 119.669C58.6261 136.142 53.322 166.181 53.322 166.181C52.608 170.21 54.0361 174.392 57.0961 177.146C61.6351 181.277 67.857 180.971 73.365 179.237C75.201 178.676 91.1641 171.536 91.1131 171.434L89.0221 166.64Z" fill="white"/>
<path opacity="0.1" d="M116.052 68.6689C124.518 80.6539 129.567 95.24 129.567 111.05C129.567 151.595 96.7234 184.439 56.1784 184.439C40.3684 184.439 25.7824 179.441 13.7974 170.924C27.1084 189.692 48.9364 201.932 73.6714 201.932C114.216 201.932 147.06 169.088 147.06 128.543C147.009 103.808 134.769 81.9289 116.052 68.6689Z" fill="#272525"/>
<path opacity="0.2" d="M90.0933 65.8639C90.3993 65.8639 90.7563 65.8639 91.0623 65.8639C84.6873 63.5689 77.8533 62.2939 70.6623 62.2939C50.4663 62.2939 32.6163 72.2389 21.7533 87.539C21.3453 87.641 21.0903 88.049 21.0903 88.508C14.5623 98.096 10.7373 109.673 10.7373 122.117C10.7373 122.372 10.7373 122.678 10.7373 122.933C21.8043 89.783 53.1183 65.8639 90.0933 65.8639Z" fill="white"/>
<path d="M136.044 39.701C140.583 39.701 144.204 36.029 144.204 31.541H145.836C145.836 36.947 141.45 41.333 136.044 41.333V39.701Z" fill="#999999"/>
<path d="M131.76 39.0381H134.82C135.636 39.0381 136.35 39.7011 136.35 40.5681V40.8231C136.35 41.6391 135.687 42.3531 134.82 42.3531H131.76C130.944 42.3531 130.23 41.6901 130.23 40.8231V40.5681C130.23 39.7011 130.893 39.0381 131.76 39.0381Z" fill="#5F6568"/>
<path d="M144.154 25.523V18.791C144.154 11.4981 138.238 5.63304 130.996 5.63304C123.754 5.63304 117.838 11.5491 117.838 18.791V25.523H114.931V18.74C114.931 9.86605 122.122 2.67505 130.996 2.67505C139.87 2.67505 147.061 9.86605 147.061 18.74V25.523H144.154Z" fill="#999999"/>
<path d="M111.054 24.2991C110.544 25.0641 110.544 25.5741 110.544 26.1861V27.4101V28.6341C110.544 29.2461 110.544 29.7561 111.054 30.5211L111.87 31.4901V27.4101V23.3301L111.054 24.2991Z" fill="#999999"/>
<path d="M116.256 33.4791H114.726C113.145 33.4791 111.921 32.2041 111.921 30.6741V24.2481C111.921 22.6671 113.196 21.4431 114.726 21.4431H116.256C117.837 21.4431 119.061 22.7181 119.061 24.2481V30.6741C119.061 32.2041 117.786 33.4791 116.256 33.4791Z" fill="#5F6568"/>
<path d="M151.089 24.2991C151.599 25.0641 151.599 25.5741 151.599 26.1861V27.4101V28.6341C151.599 29.2461 151.599 29.7561 151.089 30.5211L150.273 31.4901V27.4101V23.3301L151.089 24.2991Z" fill="#999999"/>
<path d="M145.938 33.4791H147.468C149.049 33.4791 150.273 32.2041 150.273 30.6741V24.2481C150.273 22.6671 148.998 21.4431 147.468 21.4431H145.938C144.357 21.4431 143.133 22.7181 143.133 24.2481V30.6741C143.082 32.2041 144.357 33.4791 145.938 33.4791Z" fill="#5F6568"/>
<path d="M147.264 107.072L149.712 110.693L144.663 117.272L139.053 116.813L136.299 112.478L139.818 109.979L139.359 108.959L140.073 107.429L147.264 107.072Z" fill="#C67A6D"/>
<path d="M146.652 42.863L175.62 76.166L177.048 90.752L148.488 113.345L143.337 105.899L161.85 86.162L143.949 68.669L146.652 42.863Z" fill="white"/>
</svg>
