<svg width="170" height="364" viewBox="0 0 170 364" fill="none" xmlns="http://www.w3.org/2000/svg">
<path d="M12.2184 132.554L7.16943 123.323L12.1674 113.786L17.3184 116.54L16.7064 124.343L19.4094 126.995L18.3894 133.727L12.2184 132.554Z" fill="#EFBFA5"/>
<path d="M89.7895 219.662L90.4525 279.026L84.1285 355.424H75.5605L65.2585 284.942L53.4775 214.358L89.7895 219.662Z" fill="#BCBEC0"/>
<path d="M75.6113 359.045L84.8933 363.686L89.5343 359.045L84.8933 354.404H75.6113V359.045Z" fill="#3B455A"/>
<path d="M30.8337 219.662L30.6807 254.036L36.4437 355.424H45.0627L59.4447 288.104L67.1457 214.358L30.8337 219.662Z" fill="#BCBEC0"/>
<path d="M45.0119 359.045L35.7299 363.686L31.0889 359.045L35.7299 354.404H45.0119V359.045Z" fill="#3B455A"/>
<path d="M21.9087 240.368C21.7047 245.825 21.8576 253.118 24.1526 253.373C24.5606 253.424 25.0197 253.22 25.3767 253.067C29.3547 251.129 32.2106 248.375 36.1376 246.539C40.2686 244.601 44.9607 243.53 49.4997 242.867C56.3337 241.796 63.2697 241.133 70.1547 241.082C76.0707 241.031 82.1907 243.734 87.8007 245.213C89.9427 245.774 91.6767 247.355 93.4617 248.579C96.1137 250.415 97.2356 251.129 96.8787 247.406C96.2667 241.337 95.7057 235.319 94.9407 229.301C93.4617 217.265 91.4217 205.28 88.0047 193.652C86.6787 189.215 85.1997 184.829 83.6697 180.443C81.8337 175.088 79.9977 169.784 78.1617 164.429C75.8667 157.799 72.0417 153.107 65.3097 150.812C59.4957 148.823 52.2536 148.262 46.5926 151.067C40.3196 154.178 37.3107 164.837 34.2507 170.498C31.5477 175.496 28.1816 189.062 27.2126 194.417C25.9886 200.894 24.8667 207.32 23.9997 213.746C23.0307 220.835 22.3677 227.924 22.1637 234.962C22.1637 235.574 21.9597 237.767 21.9087 240.368Z" fill="#3B455A"/>
<path d="M52.9677 151.832L64.5958 151.934C64.5958 151.934 77.0397 195.488 77.4987 203.036C77.9577 210.431 81.1198 240.317 81.1198 240.317C81.1198 240.317 68.2678 240.623 53.4268 242.408C38.9428 245.519 37.7188 243.683 37.7188 243.683C37.7188 243.683 45.5218 212.267 45.7768 203.24C46.0318 194.009 47.2048 163.511 47.2048 163.511L52.9677 151.832Z" fill="white"/>
<path d="M55.8743 151.73C56.0273 151.832 56.1803 151.934 56.3333 151.985C56.6903 152.087 57.0983 152.036 57.4553 152.036C58.9853 151.832 60.5153 151.679 62.0453 151.475C61.5353 146.783 64.2893 145.712 66.9923 142.652C69.6952 139.592 68.8793 135.461 68.7263 131.687C68.6753 130.616 68.6243 129.545 68.1653 128.627C67.4003 126.944 65.5643 126.026 63.8303 125.516C59.3423 124.139 54.2423 124.445 50.3153 126.995C49.2443 127.658 48.2753 128.525 47.7143 129.647C46.8473 131.381 47.0513 133.421 47.3063 135.308C47.6633 138.266 48.5303 141.122 50.2133 143.57C51.7433 145.865 54.7013 146.987 55.0583 149.741C55.1603 150.506 55.3643 151.271 55.8743 151.73Z" fill="#EFBFA5"/>
<path d="M54.8496 135.802C54.8496 136.565 54.4336 137.189 53.9483 137.258C53.463 137.258 53.0471 136.634 53.0471 135.871C53.0471 135.109 53.463 134.485 53.9483 134.416C54.4336 134.416 54.8496 135.039 54.8496 135.802Z" fill="#431E41"/>
<path d="M63.1689 135.733C63.1689 136.496 62.753 137.119 62.2677 137.189C61.7824 137.189 61.3664 136.565 61.3664 135.802C61.3664 135.04 61.7824 134.416 62.2677 134.346C62.753 134.277 63.1689 134.97 63.1689 135.733Z" fill="#431E41"/>
<path d="M58.2467 139.823C58.5241 139.823 58.8014 139.823 59.0787 139.754C59.2867 139.685 59.4253 139.546 59.356 139.338C59.2867 139.13 59.148 138.991 58.94 139.061C58.5241 139.13 57.7614 139.269 57.5535 138.853C57.2761 138.437 57.6921 137.466 58.0388 137.05C58.1774 136.912 58.1774 136.634 57.9694 136.565C57.8308 136.426 57.5535 136.426 57.4841 136.634C57.0682 137.12 56.4442 138.437 56.9295 139.269C57.1375 139.615 57.5535 139.823 58.2467 139.823Z" fill="#874137"/>
<path d="M50.7296 131.915L50.7975 131.901C52.274 131.169 54.35 130.596 55.3681 130.384C55.5718 130.342 55.6793 130.178 55.637 129.974C55.5946 129.771 55.4307 129.663 55.227 129.705C54.141 129.931 52.0113 130.586 50.5348 131.318C50.3452 131.428 50.3056 131.578 50.4158 131.768C50.444 131.903 50.5939 131.943 50.7296 131.915Z" fill="#431E41"/>
<path d="M65.1967 131.661C65.3337 131.682 65.4921 131.567 65.5819 131.44C65.6825 131.246 65.5668 131.087 65.372 130.987C63.8606 130.33 62.2379 129.937 60.5147 129.738C60.3092 129.706 60.1509 129.822 60.1188 130.027C60.0868 130.233 60.2024 130.391 60.408 130.423C61.9941 130.6 63.5483 130.983 65.0597 131.64C65.1282 131.65 65.1967 131.661 65.1967 131.661Z" fill="#431E41"/>
<path d="M53.7404 140.308C54.2257 142.873 56.2362 144.399 58.6627 144.329C61.0891 144.329 63.0303 142.735 63.4463 140.17L53.7404 140.308Z" fill="white"/>
<path d="M47.4593 131.891C47.7143 133.064 48.2753 134.288 47.9693 135.461C46.0823 134.798 44.8583 132.911 44.1953 130.973C43.8893 130.106 43.6853 129.137 43.7363 128.219C43.7873 127.301 44.1953 126.332 44.9603 125.822C45.9803 125.108 47.8673 125.363 48.1223 126.689C48.4793 128.015 47.1023 130.106 47.4593 131.891Z" fill="#3B455A"/>
<path d="M37.5145 121.538C37.5655 120.11 38.0755 118.835 39.3505 118.019C40.4215 117.305 41.6965 116.693 42.3595 115.52C42.8695 114.602 42.9715 113.48 43.4815 112.562C44.3995 110.93 46.3885 110.42 48.1735 109.859C52.5595 108.482 54.9055 106.85 59.4955 108.635C62.7595 109.91 67.0435 110.063 70.0525 111.95C71.3275 112.715 72.3985 113.99 73.3165 115.367C76.3765 120.161 77.1415 126.944 75.1525 131.993C74.6935 133.115 74.1325 134.135 73.5205 135.155C72.2965 137.144 70.9705 139.592 68.8285 140.561C68.6755 139.643 68.0125 139.133 67.7575 138.215C67.6045 137.552 67.6555 136.889 67.7065 136.175C67.8595 133.523 68.6245 129.341 66.0235 128.066C62.7085 126.434 56.4355 127.913 53.2225 129.29C50.3665 130.514 45.5725 132.146 42.5635 130.82C39.7075 129.443 37.4125 124.547 37.5145 121.538Z" fill="#3B455A"/>
<path d="M46.5924 150.914L26.0904 168.152L21.2964 132.911L10.4334 130.82L8.54639 178.658L20.1744 189.572L41.3394 179.168L46.5924 150.914Z" fill="#3B455A"/>
<path d="M63.269 144.539C68.012 144.539 71.888 140.663 71.888 135.92H73.622C73.622 141.632 68.981 146.222 63.32 146.222V144.539H63.269Z" fill="#999999"/>
<path d="M58.7813 143.825H61.9943C62.8613 143.825 63.5753 144.539 63.5753 145.406V145.661C63.5753 146.528 62.8613 147.242 61.9943 147.242H58.7813C57.9143 147.242 57.2003 146.528 57.2003 145.661V145.406C57.1493 144.539 57.8633 143.825 58.7813 143.825Z" fill="#5F6568"/>
<path d="M71.786 129.596V122.507C71.786 114.857 65.564 108.686 57.965 108.686C50.315 108.686 44.144 114.908 44.144 122.507V129.596H41.084V122.456C41.084 113.123 48.632 105.575 57.965 105.575C67.298 105.575 74.846 113.123 74.846 122.456V129.596H71.786Z" fill="#999999"/>
<path d="M37.0041 128.372C36.4941 129.137 36.4941 129.698 36.4941 130.361V131.636V132.911C36.4941 133.574 36.4941 134.135 37.0041 134.9L37.8711 135.92V131.636V127.352L37.0041 128.372Z" fill="#999999"/>
<path d="M42.4611 138.011H40.8291C39.1971 138.011 37.8711 136.685 37.8711 135.053V128.27C37.8711 126.638 39.1971 125.312 40.8291 125.312H42.4611C44.0931 125.312 45.4191 126.638 45.4191 128.27V135.053C45.4191 136.685 44.0931 138.011 42.4611 138.011Z" fill="#5F6568"/>
<path d="M79.1302 128.372C79.6402 129.137 79.6402 129.698 79.6402 130.361V131.636V132.911C79.6402 133.574 79.6402 134.135 79.1302 134.9L78.2632 135.92V131.636V127.352L79.1302 128.372Z" fill="#999999"/>
<path d="M73.6733 138.011H75.3053C76.9373 138.011 78.2633 136.685 78.2633 135.053V128.27C78.2633 126.638 76.9373 125.312 75.3053 125.312H73.6733C72.0413 125.312 70.7153 126.638 70.7153 128.27V135.053C70.7153 136.685 72.0413 138.011 73.6733 138.011Z" fill="#5F6568"/>
<path d="M95.2465 101.903L92.7985 92.111L84.4345 88.592L82.8535 94.202L87.3415 99.863L87.9535 104.861L95.2465 101.903Z" fill="#EFBFA5"/>
<path d="M67.1455 151.577L93.2575 141.071L85.0465 99.914L94.4815 98.792L110.291 141.785L107.027 154.79L77.4475 174.68L67.1455 151.577Z" fill="#3B455A"/>
<path d="M155.426 0.157959L13.7994 0.769959C6.45539 0.820959 0.488387 6.83896 0.539387 14.183L0.84539 84.461C0.89639 91.805 6.91438 97.772 14.2584 97.721L112.382 97.313L135.689 128.78L139.769 97.211L155.885 97.16C163.229 97.109 169.196 91.091 169.145 83.747L168.839 13.469C168.788 6.12496 162.719 0.157959 155.426 0.157959Z" fill="#7DB5DB"/>
</svg>
