<svg width="234" height="368" viewBox="0 0 234 368" fill="none" xmlns="http://www.w3.org/2000/svg">
<path d="M12.2184 132.554L7.16943 123.323L12.1674 113.786L17.3184 116.54L16.7064 124.343L19.4094 126.995L18.3894 133.727L12.2184 132.554Z" fill="#EFBFA5"/>
<path d="M89.7895 219.662L90.4525 279.026L84.1285 355.424H75.5605L65.2585 284.942L53.4775 214.358L89.7895 219.662Z" fill="#BCBEC0"/>
<path d="M75.6113 359.045L84.8933 363.686L89.5343 359.045L84.8933 354.404H75.6113V359.045Z" fill="#3B455A"/>
<path d="M30.8337 219.662L30.6807 254.036L36.4437 355.424H45.0627L59.4447 288.104L67.1457 214.358L30.8337 219.662Z" fill="#BCBEC0"/>
<path d="M45.0119 359.045L35.7299 363.686L31.0889 359.045L35.7299 354.404H45.0119V359.045Z" fill="#3B455A"/>
<path d="M21.9087 240.368C21.7047 245.825 21.8576 253.118 24.1526 253.373C24.5606 253.424 25.0197 253.22 25.3767 253.067C29.3547 251.129 32.2106 248.375 36.1376 246.539C40.2686 244.601 44.9607 243.53 49.4997 242.867C56.3337 241.796 63.2697 241.133 70.1547 241.082C76.0707 241.031 82.1907 243.734 87.8007 245.213C89.9427 245.774 91.6767 247.355 93.4617 248.579C96.1137 250.415 97.2356 251.129 96.8787 247.406C96.2667 241.337 95.7057 235.319 94.9407 229.301C93.4617 217.265 91.4217 205.28 88.0047 193.652C86.6787 189.215 85.1997 184.829 83.6697 180.443C81.8337 175.088 79.9977 169.784 78.1617 164.429C75.8667 157.799 72.0417 153.107 65.3097 150.812C59.4957 148.823 52.2536 148.262 46.5926 151.067C40.3196 154.178 37.3107 164.837 34.2507 170.498C31.5477 175.496 28.1816 189.062 27.2126 194.417C25.9886 200.894 24.8667 207.32 23.9997 213.746C23.0307 220.835 22.3677 227.924 22.1637 234.962C22.1637 235.574 21.9597 237.767 21.9087 240.368Z" fill="#3B455A"/>
<path d="M52.9677 151.832L64.5958 151.934C64.5958 151.934 77.0397 195.488 77.4987 203.036C77.9577 210.431 81.1198 240.317 81.1198 240.317C81.1198 240.317 68.2678 240.623 53.4268 242.408C38.9428 245.519 37.7188 243.683 37.7188 243.683C37.7188 243.683 45.5218 212.267 45.7768 203.24C46.0318 194.009 47.2048 163.511 47.2048 163.511L52.9677 151.832Z" fill="white"/>
<path d="M55.8743 151.73C56.0273 151.832 56.1803 151.934 56.3333 151.985C56.6903 152.087 57.0983 152.036 57.4553 152.036C58.9853 151.832 60.5153 151.679 62.0453 151.475C61.5353 146.783 64.2893 145.712 66.9923 142.652C69.6952 139.592 68.8793 135.461 68.7263 131.687C68.6753 130.616 68.6243 129.545 68.1653 128.627C67.4003 126.944 65.5643 126.026 63.8303 125.516C59.3423 124.139 54.2423 124.445 50.3153 126.995C49.2443 127.658 48.2753 128.525 47.7143 129.647C46.8473 131.381 47.0513 133.421 47.3063 135.308C47.6633 138.266 48.5303 141.122 50.2133 143.57C51.7433 145.865 54.7013 146.987 55.0583 149.741C55.1603 150.506 55.3643 151.271 55.8743 151.73Z" fill="#EFBFA5"/>
<path d="M54.8496 135.802C54.8496 136.565 54.4336 137.189 53.9483 137.258C53.463 137.258 53.0471 136.634 53.0471 135.871C53.0471 135.109 53.463 134.485 53.9483 134.416C54.4336 134.416 54.8496 135.039 54.8496 135.802Z" fill="#431E41"/>
<path d="M63.1689 135.733C63.1689 136.496 62.753 137.119 62.2677 137.189C61.7824 137.189 61.3664 136.565 61.3664 135.802C61.3664 135.04 61.7824 134.416 62.2677 134.346C62.753 134.277 63.1689 134.97 63.1689 135.733Z" fill="#431E41"/>
<path d="M58.2467 139.823C58.5241 139.823 58.8014 139.823 59.0787 139.754C59.2867 139.685 59.4253 139.546 59.356 139.338C59.2867 139.13 59.148 138.991 58.94 139.061C58.5241 139.13 57.7614 139.269 57.5535 138.853C57.2761 138.437 57.6921 137.466 58.0388 137.05C58.1774 136.912 58.1774 136.634 57.9694 136.565C57.8308 136.426 57.5535 136.426 57.4841 136.634C57.0682 137.12 56.4442 138.437 56.9295 139.269C57.1375 139.615 57.5535 139.823 58.2467 139.823Z" fill="#874137"/>
<path d="M50.7296 131.915L50.7975 131.901C52.274 131.169 54.35 130.596 55.3681 130.384C55.5718 130.342 55.6793 130.178 55.637 129.974C55.5946 129.771 55.4307 129.663 55.227 129.705C54.141 129.931 52.0113 130.586 50.5348 131.318C50.3452 131.428 50.3056 131.578 50.4158 131.768C50.444 131.903 50.5939 131.943 50.7296 131.915Z" fill="#431E41"/>
<path d="M65.1967 131.661C65.3337 131.682 65.4921 131.567 65.5819 131.44C65.6825 131.246 65.5668 131.087 65.372 130.987C63.8606 130.33 62.2379 129.937 60.5147 129.738C60.3092 129.706 60.1509 129.822 60.1188 130.027C60.0868 130.233 60.2024 130.391 60.408 130.423C61.9941 130.6 63.5483 130.983 65.0597 131.64C65.1282 131.65 65.1967 131.661 65.1967 131.661Z" fill="#431E41"/>
<path d="M53.7404 140.308C54.2257 142.873 56.2362 144.399 58.6627 144.329C61.0891 144.329 63.0303 142.735 63.4463 140.17L53.7404 140.308Z" fill="white"/>
<path d="M47.4593 131.891C47.7143 133.064 48.2753 134.288 47.9693 135.461C46.0823 134.798 44.8583 132.911 44.1953 130.973C43.8893 130.106 43.6853 129.137 43.7363 128.219C43.7873 127.301 44.1953 126.332 44.9603 125.822C45.9803 125.108 47.8673 125.363 48.1223 126.689C48.4793 128.015 47.1023 130.106 47.4593 131.891Z" fill="#3B455A"/>
<path d="M37.5145 121.538C37.5655 120.11 38.0755 118.835 39.3505 118.019C40.4215 117.305 41.6965 116.693 42.3595 115.52C42.8695 114.602 42.9715 113.48 43.4815 112.562C44.3995 110.93 46.3885 110.42 48.1735 109.859C52.5595 108.482 54.9055 106.85 59.4955 108.635C62.7595 109.91 67.0435 110.063 70.0525 111.95C71.3275 112.715 72.3985 113.99 73.3165 115.367C76.3765 120.161 77.1415 126.944 75.1525 131.993C74.6935 133.115 74.1325 134.135 73.5205 135.155C72.2965 137.144 70.9705 139.592 68.8285 140.561C68.6755 139.643 68.0125 139.133 67.7575 138.215C67.6045 137.552 67.6555 136.889 67.7065 136.175C67.8595 133.523 68.6245 129.341 66.0235 128.066C62.7085 126.434 56.4355 127.913 53.2225 129.29C50.3665 130.514 45.5725 132.146 42.5635 130.82C39.7075 129.443 37.4125 124.547 37.5145 121.538Z" fill="#3B455A"/>
<path d="M46.5924 150.914L26.0904 168.152L21.2964 132.911L10.4334 130.82L8.54639 178.658L20.1744 189.572L41.3394 179.168L46.5924 150.914Z" fill="#3B455A"/>
<path d="M63.269 144.539C68.012 144.539 71.888 140.663 71.888 135.92H73.622C73.622 141.632 68.981 146.222 63.32 146.222V144.539H63.269Z" fill="#999999"/>
<path d="M58.7813 143.825H61.9943C62.8613 143.825 63.5753 144.539 63.5753 145.406V145.661C63.5753 146.528 62.8613 147.242 61.9943 147.242H58.7813C57.9143 147.242 57.2003 146.528 57.2003 145.661V145.406C57.1493 144.539 57.8633 143.825 58.7813 143.825Z" fill="#5F6568"/>
<path d="M71.786 129.596V122.507C71.786 114.857 65.564 108.686 57.965 108.686C50.315 108.686 44.144 114.908 44.144 122.507V129.596H41.084V122.456C41.084 113.123 48.632 105.575 57.965 105.575C67.298 105.575 74.846 113.123 74.846 122.456V129.596H71.786Z" fill="#999999"/>
<path d="M37.0041 128.372C36.4941 129.137 36.4941 129.698 36.4941 130.361V131.636V132.911C36.4941 133.574 36.4941 134.135 37.0041 134.9L37.8711 135.92V131.636V127.352L37.0041 128.372Z" fill="#999999"/>
<path d="M42.4611 138.011H40.8291C39.1971 138.011 37.8711 136.685 37.8711 135.053V128.27C37.8711 126.638 39.1971 125.312 40.8291 125.312H42.4611C44.0931 125.312 45.4191 126.638 45.4191 128.27V135.053C45.4191 136.685 44.0931 138.011 42.4611 138.011Z" fill="#5F6568"/>
<path d="M79.1302 128.372C79.6402 129.137 79.6402 129.698 79.6402 130.361V131.636V132.911C79.6402 133.574 79.6402 134.135 79.1302 134.9L78.2632 135.92V131.636V127.352L79.1302 128.372Z" fill="#999999"/>
<path d="M73.6733 138.011H75.3053C76.9373 138.011 78.2633 136.685 78.2633 135.053V128.27C78.2633 126.638 76.9373 125.312 75.3053 125.312H73.6733C72.0413 125.312 70.7153 126.638 70.7153 128.27V135.053C70.7153 136.685 72.0413 138.011 73.6733 138.011Z" fill="#5F6568"/>
<path d="M95.2465 101.903L92.7985 92.111L84.4345 88.592L82.8535 94.202L87.3415 99.863L87.9535 104.861L95.2465 101.903Z" fill="#EFBFA5"/>
<path d="M67.1455 151.577L93.2575 141.071L85.0465 99.914L94.4815 98.792L110.291 141.785L107.027 154.79L77.4475 174.68L67.1455 151.577Z" fill="#3B455A"/>
<path d="M155.426 0.157959L13.7994 0.769959C6.45539 0.820959 0.488387 6.83896 0.539387 14.183L0.84539 84.461C0.89639 91.805 6.91438 97.772 14.2584 97.721L112.382 97.313L135.689 128.78L139.769 97.211L155.885 97.16C163.229 97.109 169.196 91.091 169.145 83.747L168.839 13.469C168.788 6.12496 162.719 0.157959 155.426 0.157959Z" fill="#7DB5DB"/>
<path d="M121.154 185.033L112.994 181.871L111.515 183.452V186.104H107.384L107.792 190.847L111.515 192.275L119.471 191.204L121.154 185.033Z" fill="#E1CFB5"/>
<path d="M189.087 351.242C189.903 350.375 190.821 349.865 191.892 350.018C192.912 350.171 193.83 350.885 194.238 351.803C194.544 352.415 194.595 353.129 194.646 353.843C194.952 357.413 194.901 365.879 190.158 367.103C188.169 367.613 186.486 366.185 185.976 364.4C185.16 361.697 186.384 354.2 189.087 351.242Z" fill="#3B455A"/>
<path d="M187.353 297.335L187.608 319.112C187.302 328.802 188.832 338.543 188.526 348.182C188.475 350.426 187.863 352.772 188.424 354.965C188.985 357.107 190.719 357.515 192.504 356.393C194.901 354.914 194.544 351.497 194.952 348.998C196.074 342.164 197.349 335.33 198.522 328.496C199.083 325.13 197.91 320.438 198.165 317.021L201.684 298.763L187.353 297.335Z" fill="#C67A6D"/>
<path d="M212.292 262.145L202.806 304.271L200.766 344.051L185.721 343.694L181.641 232.412L210.813 232.973L212.292 262.145Z" fill="#7DB5DB"/>
<path d="M167.564 350.426C168.431 349.559 169.349 349.151 170.42 349.406C171.44 349.61 172.307 350.375 172.715 351.344C172.97 352.007 173.021 352.721 173.021 353.384C173.174 356.954 172.766 365.471 167.972 366.389C165.932 366.797 164.351 365.267 163.892 363.431C163.229 360.677 164.759 353.282 167.564 350.426Z" fill="#3B455A"/>
<path d="M175.469 300.395L174.194 322.172C174.092 328.241 173.276 334.208 172.664 340.226C172.103 345.785 172.97 351.599 170.063 356.699C169.145 358.28 167.309 359.351 166.034 357.413C165.014 355.934 165.626 353.435 165.422 351.752C164.657 344.867 163.688 337.982 162.821 331.097C162.413 327.731 163.79 323.09 163.688 319.673L161.036 301.262L175.469 300.395Z" fill="#C67A6D"/>
<path d="M156.446 259.544L155.222 300.446L161.648 341.807L176.948 342.266L176.285 297.488L184.343 260.411L187.097 236.084L162.821 233.228L156.446 259.544Z" fill="#7DB5DB"/>
<path d="M175.674 149.537L201.786 148.925L216.984 177.128L211.578 203.546L210.609 235.115L173.328 235.625L161.037 233.636L164.301 199.874L162.414 154.79L175.674 149.537Z" fill="white"/>
<path d="M174.704 166.622L161.087 193.856L146.399 196.763L117.023 192.275L120.593 183.095H147.572L162.821 154.79L174.704 166.622Z" fill="white"/>
<path d="M177.305 127.658C181.232 116.183 196.379 120.467 199.49 130.718C201.53 137.399 196.379 146.018 189.494 147.905C189.443 148.16 189.443 148.415 189.443 148.619C189.443 149.69 189.29 150.761 189.137 151.832C189.086 152.24 183.017 151.067 182.354 150.914C182.099 150.863 181.844 150.812 181.742 150.608C181.487 150.251 181.895 149.129 181.946 148.67C181.997 148.16 182.048 147.701 182.099 147.191C178.682 145.508 176.54 141.989 175.928 138.368C175.316 134.747 176.132 131.075 177.305 127.658Z" fill="#C67A6D"/>
<path d="M183.251 135.149C183.251 135.911 182.835 136.535 182.35 136.605C181.864 136.605 181.448 135.981 181.448 135.218C181.448 134.455 181.864 133.832 182.35 133.762C182.835 133.762 183.251 134.386 183.251 135.149Z" fill="#431E41"/>
<path d="M191.57 135.08C191.57 135.842 191.154 136.466 190.669 136.535C190.184 136.535 189.768 135.912 189.768 135.149C189.768 134.386 190.184 133.762 190.669 133.693C191.154 133.624 191.57 134.317 191.57 135.08Z" fill="#431E41"/>
<path d="M186.648 139.17C186.925 139.17 187.203 139.17 187.48 139.101C187.688 139.031 187.827 138.893 187.757 138.685C187.688 138.477 187.549 138.338 187.341 138.407C186.925 138.477 186.163 138.615 185.955 138.199C185.678 137.783 186.093 136.813 186.44 136.397C186.579 136.258 186.579 135.981 186.371 135.912C186.232 135.773 185.955 135.773 185.886 135.981C185.47 136.466 184.846 137.783 185.331 138.615C185.539 138.962 185.955 139.17 186.648 139.17Z" fill="#874137"/>
<path d="M178.952 131.128H179.022C180.616 130.712 182.765 130.573 183.805 130.573C184.013 130.573 184.152 130.435 184.152 130.227C184.152 130.019 184.013 129.88 183.805 129.88C182.696 129.88 180.477 130.088 178.883 130.504C178.675 130.573 178.606 130.712 178.675 130.92C178.675 131.059 178.814 131.128 178.952 131.128Z" fill="#431E41"/>
<path d="M193.719 130.989C193.858 130.989 193.997 130.85 194.066 130.712C194.135 130.504 193.997 130.365 193.789 130.296C192.194 129.88 190.53 129.741 188.797 129.81C188.589 129.81 188.45 129.949 188.45 130.157C188.45 130.365 188.589 130.504 188.797 130.504C190.392 130.434 191.986 130.573 193.581 130.989C193.65 130.989 193.719 130.989 193.719 130.989Z" fill="#431E41"/>
<path d="M182.142 139.655C182.627 142.22 184.638 143.745 187.064 143.676C189.491 143.676 191.432 142.081 191.848 139.516L182.142 139.655Z" fill="white"/>
<path d="M187.148 117.305C187.964 118.121 188.27 119.294 188.525 120.365C188.678 121.028 188.78 121.691 188.627 122.354C188.066 124.955 185.465 124.802 183.476 125.669C181.028 126.689 178.886 128.627 177.509 130.82C175.367 134.237 176.336 138.674 177.203 142.448C177.509 143.774 178.121 145.763 177.101 146.936C176.03 148.16 173.633 147.956 172.358 147.344C171.185 146.783 170.267 145.712 168.992 145.508C167.666 145.304 165.83 145.865 165.218 144.641C165.065 144.284 165.014 143.876 164.81 143.57C164.096 142.499 162.209 143.774 161.189 143.009C160.526 142.55 160.577 141.581 160.781 140.816C160.985 140.051 161.342 139.235 161.189 138.47C161.036 137.807 160.577 137.246 160.271 136.634C159.659 135.41 159.863 133.829 160.781 132.809C162.413 130.922 165.626 131.279 167.36 129.494C168.278 128.576 168.635 127.199 168.992 125.924C169.349 124.649 169.757 123.323 170.726 122.456C171.95 121.385 173.684 121.589 174.908 120.314C175.622 119.549 176.081 118.58 176.846 117.968C177.866 117.101 179.906 116.438 181.232 116.03C183.323 115.265 185.618 115.724 187.148 117.305Z" fill="#3B455A"/>
<path d="M196.736 135.563C196.787 139.337 194.951 143.417 196.685 146.732C198.419 150.098 202.805 150.71 206.528 150.863C207.14 150.914 214.994 151.577 215.045 151.424C215.657 148.772 216.218 146.12 217.595 143.825C218.972 141.53 221.267 139.592 223.919 139.439C223.154 139.286 222.797 138.368 222.848 137.603C222.95 136.838 223.358 136.124 223.562 135.359C224.123 133.523 223.562 131.33 222.185 130.055C219.38 127.454 214.382 128.525 211.985 125.567C210.506 123.731 210.659 121.028 209.894 118.784C208.415 114.449 203.621 113.531 200.051 111.542C196.277 109.451 192.758 108.329 188.372 109.043C182.966 109.961 178.988 115.418 181.079 120.569C183.731 127.199 194.39 126.638 196.379 133.319C196.634 134.084 196.736 134.798 196.736 135.563Z" fill="#3B455A"/>
<path d="M194.084 149.384L185.975 160.859L182.15 160.553L175.775 148.925L194.084 149.384Z" fill="#7DB5DB"/>
<path d="M129.671 309.932C170.203 309.932 203.06 277.075 203.06 236.543C203.06 196.011 170.203 163.154 129.671 163.154C89.1396 163.154 56.2822 196.011 56.2822 236.543C56.2822 277.075 89.1396 309.932 129.671 309.932Z" fill="#305399"/>
<path d="M146.858 187.583C144.665 185.645 141.605 184.676 137.729 184.676C134.516 184.676 131.609 185.339 129.008 186.716C126.407 188.093 124.316 189.878 122.888 192.122C121.409 194.366 120.695 196.814 120.695 199.517C120.695 202.577 121.817 205.076 124.01 207.014C126.203 208.952 129.263 209.921 133.241 209.921C136.454 209.921 139.361 209.258 141.911 207.932C144.512 206.606 146.501 204.821 147.98 202.526C149.459 200.231 150.173 197.783 150.173 195.182C150.173 192.071 149.051 189.521 146.858 187.583Z" fill="white"/>
<path d="M145.022 274.64C145.022 274.64 133.343 279.281 134.414 273.314L142.421 227.975C143.441 222.314 139.055 217.163 133.343 217.163H120.644H119.369H111.107L110.444 219.968C110.444 219.968 118.808 220.427 117.533 227.669C114.626 244.142 109.322 274.181 109.322 274.181C108.608 278.21 110.036 282.392 113.096 285.146C117.635 289.277 123.857 288.971 129.365 287.237C131.201 286.676 147.164 279.536 147.113 279.434L145.022 274.64Z" fill="white"/>
<path opacity="0.1" d="M172.052 176.669C180.518 188.654 185.567 203.24 185.567 219.05C185.567 259.595 152.723 292.439 112.178 292.439C96.3684 292.439 81.7824 287.441 69.7974 278.924C83.1084 297.692 104.936 309.932 129.671 309.932C170.216 309.932 203.06 277.088 203.06 236.543C203.009 211.808 190.769 189.929 172.052 176.669Z" fill="#272525"/>
<path opacity="0.2" d="M146.093 173.864C146.399 173.864 146.756 173.864 147.062 173.864C140.687 171.569 133.853 170.294 126.662 170.294C106.466 170.294 88.6163 180.239 77.7533 195.539C77.3453 195.641 77.0903 196.049 77.0903 196.508C70.5623 206.096 66.7373 217.673 66.7373 230.117C66.7373 230.372 66.7373 230.678 66.7373 230.933C77.8043 197.783 109.118 173.864 146.093 173.864Z" fill="white"/>
<path d="M192.044 147.701C196.583 147.701 200.204 144.029 200.204 139.541H201.836C201.836 144.947 197.45 149.333 192.044 149.333V147.701Z" fill="#999999"/>
<path d="M187.76 147.038H190.82C191.636 147.038 192.35 147.701 192.35 148.568V148.823C192.35 149.639 191.687 150.353 190.82 150.353H187.76C186.944 150.353 186.23 149.69 186.23 148.823V148.568C186.23 147.701 186.893 147.038 187.76 147.038Z" fill="#5F6568"/>
<path d="M200.154 133.523V126.791C200.154 119.498 194.238 113.633 186.996 113.633C179.754 113.633 173.838 119.549 173.838 126.791V133.523H170.931V126.74C170.931 117.866 178.122 110.675 186.996 110.675C195.87 110.675 203.061 117.866 203.061 126.74V133.523H200.154Z" fill="#999999"/>
<path d="M167.054 132.299C166.544 133.064 166.544 133.574 166.544 134.186V135.41V136.634C166.544 137.246 166.544 137.756 167.054 138.521L167.87 139.49V135.41V131.33L167.054 132.299Z" fill="#999999"/>
<path d="M172.256 141.479H170.726C169.145 141.479 167.921 140.204 167.921 138.674V132.248C167.921 130.667 169.196 129.443 170.726 129.443H172.256C173.837 129.443 175.061 130.718 175.061 132.248V138.674C175.061 140.204 173.786 141.479 172.256 141.479Z" fill="#5F6568"/>
<path d="M207.089 132.299C207.599 133.064 207.599 133.574 207.599 134.186V135.41V136.634C207.599 137.246 207.599 137.756 207.089 138.521L206.273 139.49V135.41V131.33L207.089 132.299Z" fill="#999999"/>
<path d="M201.938 141.479H203.468C205.049 141.479 206.273 140.204 206.273 138.674V132.248C206.273 130.667 204.998 129.443 203.468 129.443H201.938C200.357 129.443 199.133 130.718 199.133 132.248V138.674C199.082 140.204 200.357 141.479 201.938 141.479Z" fill="#5F6568"/>
<path d="M203.264 215.072L205.712 218.693L200.663 225.272L195.053 224.813L192.299 220.478L195.818 217.979L195.359 216.959L196.073 215.429L203.264 215.072Z" fill="#C67A6D"/>
<path d="M202.652 150.863L231.62 184.166L233.048 198.752L204.488 221.345L199.337 213.899L217.85 194.162L199.949 176.669L202.652 150.863Z" fill="white"/>
</svg>
