<svg width="122" height="291" viewBox="0 0 122 291" fill="none" xmlns="http://www.w3.org/2000/svg">
<path d="M50.7423 82.1429C50.6403 82.5509 50.5383 83.0099 50.7933 83.3669C50.9973 83.6729 51.3543 83.8259 51.7113 83.9279C59.9733 86.4269 68.7963 84.2339 77.1603 82.0409C78.5373 81.6839 79.9653 81.3269 81.3423 80.9189C82.0053 80.7149 82.7193 80.5109 83.2293 80.0519C83.9943 79.4399 84.3003 78.4199 84.3513 77.4509C84.5553 75.1559 83.6883 72.8609 82.7703 70.7189C80.4243 65.2619 77.7723 59.9069 74.7633 54.8069C74.3553 54.1439 73.9983 53.4809 73.3863 52.9709C72.2643 52.0019 70.6323 51.7469 69.1533 52.0529C67.6743 52.3589 66.3483 53.0729 65.0733 53.8379C60.5343 56.5409 57.5253 59.2949 56.6073 64.4459C55.5363 70.6169 52.1703 76.0739 50.7423 82.1429Z" fill="#3B455A"/>
<path d="M82.2092 52.6651C78.6902 40.119 62.9822 43.74 59.3102 54.4501C57.1172 60.9271 61.0952 69.5971 67.2662 72.8611C67.0622 74.5441 67.4702 78.9301 67.5722 78.9301C69.7652 78.9301 71.9582 78.9301 74.1512 78.9301C74.2022 77.2981 74.1512 75.6661 74.0492 74.0341C74.8142 73.8811 75.5792 73.6771 76.3952 73.3201C80.0162 71.7901 82.3622 68.1181 83.1782 64.2931C83.8922 60.4171 83.2802 56.4391 82.2092 52.6651Z" fill="#C67A6D"/>
<path d="M68.3325 62.5084C68.3325 63.271 67.9166 63.8949 67.4313 63.9643C66.946 63.9643 66.53 63.3403 66.53 62.5777C66.53 61.8151 66.946 61.1912 67.4313 61.1218C67.9166 61.1218 68.3325 61.7458 68.3325 62.5084Z" fill="#431E41"/>
<path d="M76.6519 62.4392C76.6519 63.2018 76.2359 63.8258 75.7506 63.8951C75.2653 63.8951 74.8493 63.2711 74.8493 62.5085C74.8493 61.7459 75.2653 61.122 75.7506 61.0526C76.2359 60.9833 76.6519 61.6766 76.6519 62.4392Z" fill="#431E41"/>
<path d="M71.7296 66.5296C72.007 66.5296 72.2843 66.5296 72.5616 66.4603C72.7696 66.3909 72.9082 66.2523 72.8389 66.0443C72.7696 65.8363 72.6309 65.6977 72.4229 65.767C72.007 65.8363 71.2444 65.975 71.0364 65.559C70.7591 65.1431 71.175 64.1725 71.5217 63.7565C71.6603 63.6178 71.6603 63.3405 71.4523 63.2712C71.3137 63.1325 71.0364 63.1325 70.967 63.3405C70.5511 63.8258 69.9271 65.143 70.4124 65.975C70.6204 66.3216 71.0364 66.5296 71.7296 66.5296Z" fill="#874137"/>
<path d="M64.0338 58.4876H64.1031C65.6977 58.0717 67.8468 57.933 68.8868 57.933C69.0947 57.933 69.2334 57.7944 69.2334 57.5864C69.2334 57.3784 69.0947 57.2397 68.8868 57.2397C67.7775 57.2397 65.559 57.4477 63.9645 57.8637C63.7565 57.933 63.6872 58.0717 63.7565 58.2797C63.7565 58.4183 63.8952 58.4876 64.0338 58.4876Z" fill="#431E41"/>
<path d="M78.8009 58.3487C78.9395 58.3487 79.0782 58.21 79.1475 58.0714C79.2168 57.8634 79.0782 57.7247 78.8702 57.6554C77.2756 57.2394 75.6118 57.1008 73.8786 57.1701C73.6706 57.1701 73.5319 57.3088 73.5319 57.5167C73.5319 57.7247 73.6706 57.8634 73.8786 57.8634C75.4731 57.7941 77.0677 57.9327 78.6622 58.3487C78.7315 58.3487 78.8009 58.3487 78.8009 58.3487Z" fill="#431E41"/>
<path d="M67.2233 67.0146C67.7086 69.5798 69.7191 71.105 72.1456 71.0356C74.5721 71.0356 76.5132 69.4411 76.9292 66.876L67.2233 67.0146Z" fill="white"/>
<path d="M67.368 282.726L66.9601 286.857L58.494 290.427L54.873 286.041L59.3101 282.165L67.776 278.595L67.368 282.726Z" fill="#3B455A"/>
<path d="M74.4572 199.188L67.9292 281.451L59.7692 282.522L53.0372 212.448L47.4272 190.161L74.4572 199.188Z" fill="#C67A6D"/>
<path d="M91.4402 177.156L97.6622 274.362L91.3892 276.708L75.8852 202.758L67.3682 181.338L91.4402 177.156Z" fill="#C67A6D"/>
<path d="M92.0523 279.972L100.875 282.624L104.088 277.728L99.2943 274.311L91.2363 275.79L92.0523 279.972Z" fill="#3B455A"/>
<path d="M82.8212 75.7681C81.1382 75.5641 79.4042 75.7171 77.6702 75.9721C72.5192 76.6861 67.4702 77.9101 62.5742 79.6441C60.9932 80.2051 59.4122 80.8171 57.9842 81.6331C50.9972 85.8151 51.5582 92.2921 50.2832 99.5341C49.4162 104.583 48.0902 109.785 47.7332 114.885C46.8152 128.247 42.6332 141.762 36.8192 154.002C34.3712 159.153 31.4642 164.151 29.7302 169.557C26.8742 178.584 26.8742 189.192 27.6902 198.474C35.9012 200.718 43.5512 204.849 52.0172 205.92C58.9532 206.787 65.9402 205.563 72.9272 204.951C81.1892 204.237 89.4512 204.441 97.7132 203.778C105.975 203.166 114.288 201.636 121.581 197.811C120.816 198.219 110.361 170.271 109.647 167.772C108.423 163.59 107.76 159.255 107.046 154.92C103.629 133.602 99.2942 112.386 92.3582 91.8841C90.5732 86.6311 90.2162 76.9921 83.5352 75.7171C83.2802 75.8191 83.0252 75.8191 82.8212 75.7681Z" fill="#587BC9"/>
<path d="M70.6323 49.299C74.4573 49.962 79.1493 53.175 80.0673 57.153C80.5263 59.04 79.8633 60.825 80.4243 62.865C81.4953 66.843 76.5993 72.759 81.4443 75.564C83.9433 76.992 87.0543 76.533 89.9103 76.023C90.2673 75.972 90.6243 75.87 90.8793 75.666C91.3383 75.309 91.3893 74.646 91.2363 74.085C91.0833 73.524 90.7263 73.065 90.3693 72.606C87.0543 67.659 87.8193 60.57 86.5443 54.909C85.2693 49.299 82.1583 43.689 76.5483 41.343C73.7433 43.128 71.7033 46.086 70.9893 49.299H70.6323Z" fill="#3B455A"/>
<path d="M56.7095 80.4601C58.4945 79.3381 60.2795 78.2161 61.2995 76.1251C62.9825 72.8101 62.2685 67.6081 62.4725 63.9871C62.6765 60.1621 63.0335 56.0311 65.6855 53.2261C67.4195 51.3901 69.5615 50.9311 71.9585 50.6761C73.5905 50.5231 73.7435 51.1351 75.0185 50.1151C76.0385 49.3501 76.7525 47.2591 76.9055 46.0861C77.1605 44.0971 76.1915 42.0571 74.7125 40.6291C72.4685 38.4361 69.9695 37.4671 66.9095 37.6711C56.1485 38.3341 48.6005 45.3211 46.5095 55.9291C45.4895 61.0291 47.0195 66.4861 45.8975 71.3821C45.1835 74.4421 43.4495 76.5331 42.9395 79.7461C41.6135 88.1101 37.9415 98.9221 39.0125 107.337C39.0635 107.643 39.1145 108 39.3695 108.204C39.8795 108.561 40.5935 108 40.9505 107.49C43.1435 104.481 45.3875 101.421 47.5805 98.4121C48.4475 97.2391 49.3145 96.0151 49.8245 94.6381C51.0995 91.2211 49.9265 86.9881 52.0685 84.0301C53.3435 82.5001 55.0775 81.4801 56.7095 80.4601Z" fill="#3B455A"/>
<path d="M45.6423 84.0812L23.4062 125.187L48.2433 143.394L54.0063 137.784L39.9813 124.932L61.3503 108.357L58.8003 81.4292L45.6423 84.0812Z" fill="#587BC9"/>
<path d="M76.4976 73.473C80.9856 73.473 84.6576 69.801 84.6576 65.313H86.2896C86.2896 70.719 81.9036 75.105 76.4976 75.105V73.473Z" fill="#999999"/>
<path d="M72.2131 72.8101H75.2731C76.0891 72.8101 76.8031 73.4731 76.8031 74.3401V74.5951C76.8031 75.4111 76.1401 76.1251 75.2731 76.1251H72.2131C71.3971 76.1251 70.6831 75.4621 70.6831 74.5951V74.3401C70.6831 73.5241 71.3461 72.8101 72.2131 72.8101Z" fill="#5F6568"/>
<path d="M84.6063 59.2951V52.6141C84.6063 45.3721 78.7413 39.4561 71.4483 39.4561C64.1553 39.4561 58.2903 45.3211 58.2903 52.6141V59.3461H55.3833V52.5631C55.3833 43.6891 62.5743 36.498 71.4483 36.498C80.3223 36.498 87.5133 43.6891 87.5133 52.5631V59.3461H84.6063V59.2951Z" fill="#999999"/>
<path d="M51.5583 58.1221C51.0483 58.8871 51.0483 59.3971 51.0483 60.0091V61.2331V62.4571C51.0483 63.0691 51.0483 63.5791 51.5583 64.3441L52.3743 65.3131V61.2331V57.1531L51.5583 58.1221Z" fill="#999999"/>
<path d="M56.7095 67.3021H55.1795C53.6495 67.3021 52.3745 66.0271 52.3745 64.4971V58.0711C52.3745 56.5411 53.6495 55.2661 55.1795 55.2661H56.7095C58.2395 55.2661 59.5145 56.5411 59.5145 58.0711V64.4971C59.5655 66.0271 58.2905 67.3021 56.7095 67.3021Z" fill="#5F6568"/>
<path d="M91.5421 58.1221C92.0521 58.8871 92.0521 59.3971 92.0521 60.0091V61.2331V62.4571C92.0521 63.0691 92.0521 63.5791 91.5421 64.3441L90.7261 65.3131V61.2331V57.1531L91.5421 58.1221Z" fill="#999999"/>
<path d="M86.3402 67.3021H87.8702C89.4001 67.3021 90.6751 66.0271 90.6751 64.4971V58.0711C90.6751 56.5411 89.4001 55.2661 87.8702 55.2661H86.3402C84.8102 55.2661 83.5352 56.5411 83.5352 58.0711V64.4971C83.5352 66.0271 84.8102 67.3021 86.3402 67.3021Z" fill="#5F6568"/>
<path d="M1.01732 25.584C-0.563684 38.436 0.813314 58.836 14.6343 86.376C28.4553 113.916 44.0103 127.227 55.2813 133.602C63.3393 138.192 73.4883 138.294 82.1583 133.908L87.0033 131.46C90.9303 129.471 92.6133 124.881 90.7773 121.209L79.2003 98.157C77.3643 94.485 72.6723 93.108 68.7453 95.097L61.9623 98.514C59.7183 99.636 57.1173 99.636 55.0263 98.463C44.5203 92.445 36.2073 75.564 36.2073 75.564C36.2073 75.564 27.5883 58.836 29.0673 46.8C29.3733 44.454 30.9033 42.312 33.1473 41.19L39.9303 37.773C43.8573 35.784 45.5403 31.194 43.7043 27.522L32.1273 4.47004C30.2913 0.798044 25.5993 -0.578956 21.6723 1.41004L16.8273 3.85804C8.15731 8.19304 2.19032 16.404 1.01732 25.584Z" fill="#3B455A"/>
<path opacity="0.1" d="M9.6875 75.4111C11.1665 78.9301 12.7985 82.5511 14.6855 86.3761C28.5065 113.916 44.0615 127.227 55.3325 133.602C63.3905 138.192 73.5395 138.294 82.2095 133.908L87.0545 131.46C88.2785 130.848 89.2985 129.93 90.0635 128.91C46.6625 136.254 10.3505 76.5331 9.6875 75.4111Z" fill="black"/>
<path d="M52.4765 145.332C53.8025 147.015 58.8515 149.514 61.0445 148.902C66.1445 147.474 60.0755 143.955 58.2905 142.272C59.0555 141.813 59.8205 141.405 60.4835 140.793C61.0955 140.232 54.1595 136.968 53.1395 137.07C50.6405 137.325 50.2835 138.906 48.8555 140.742C50.0795 142.272 51.2525 143.853 52.4765 145.332Z" fill="#C67A6D"/>
<path d="M105.771 66.2309L104.853 62.2529L105.873 61.2839L107.811 63.0179L110.361 57.9179L114.543 55.4189L116.736 57.7649L113.115 63.2219L110.82 66.6899L108.831 73.9319L105.363 72.9119L105.771 66.2309Z" fill="#C67A6D"/>
<path d="M100.569 87.651C101.895 81.072 102.966 74.442 103.68 67.761C106.485 67.557 109.29 67.965 111.891 69.036C112.605 80.817 112.044 92.649 110.259 104.328C110.208 104.838 110.055 105.399 109.698 105.705C109.341 105.96 108.882 106.011 108.474 106.011C104.343 106.011 100.314 104.787 96.4381 103.461C90.4711 101.421 84.6571 99.024 78.9961 96.321C79.6081 92.751 79.7611 89.079 79.4041 85.407C78.8941 80.409 80.0671 73.524 86.2381 77.4C87.8701 78.42 100.875 86.274 100.569 87.651Z" fill="#587BC9"/>
</svg>
