<svg width="107" height="163" viewBox="0 0 107 163" fill="none" xmlns="http://www.w3.org/2000/svg">
<path d="M19.8965 131.685C15.6635 130.665 11.6855 131.277 8.06446 133.521C4.44346 135.765 2.04647 139.029 1.02647 143.262C0.00646764 147.495 0.618455 151.473 2.86246 155.094C5.10646 158.715 8.37048 161.112 12.6035 162.132C14.2865 162.54 15.9185 162.693 17.4995 162.591C19.8965 162.438 22.2425 161.673 24.4355 160.347C28.0565 158.103 30.4535 154.839 31.4735 150.606C32.4935 146.373 31.8815 142.395 29.6375 138.774C27.3935 135.102 24.1295 132.705 19.8965 131.685Z" fill="#305399"/>
<g opacity="0.1">
<g opacity="0.1">
<path opacity="0.1" d="M29.6373 138.723C27.3933 135.102 24.1294 132.705 19.8964 131.685C18.5194 131.379 17.1933 131.226 15.8673 131.226C18.5703 132.501 20.7633 134.49 22.3953 137.142C24.6393 140.814 25.2514 144.792 24.2314 148.974C23.2114 153.207 20.8654 156.471 17.1934 158.715C15.0004 160.041 12.6543 160.806 10.2573 160.959C9.95135 160.959 9.64536 161.01 9.33936 161.01C10.3594 161.469 11.4303 161.877 12.5523 162.132C14.2353 162.54 15.8674 162.693 17.4484 162.591C19.8454 162.438 22.1914 161.673 24.3844 160.347C28.0054 158.103 30.4023 154.839 31.4223 150.606C32.4423 146.373 31.8303 142.395 29.6373 138.723Z" fill="black"/>
</g>
</g>
<path d="M99.7626 23.9729C92.5206 13.1609 81.1476 5.81693 65.8986 2.14493C50.6496 -1.52707 37.0836 -0.20107 25.6086 6.12293C15.6126 11.5799 8.62562 20.1989 4.80062 31.7249C4.13762 33.6629 4.34164 35.8049 5.36164 37.5899C6.33064 39.3749 8.06465 40.7009 10.0536 41.1599L19.1316 43.3529C22.7526 44.2199 26.4246 42.2309 27.6996 38.7119C29.9436 32.4899 33.4626 28.1039 38.4096 25.4009C44.4276 22.0859 51.8736 21.4739 60.6456 23.5649C69.3666 25.6559 75.6396 29.6849 79.3626 35.5499C83.0346 41.4149 83.9016 48.7079 81.8106 57.2249C78.9546 69.0059 73.7016 76.1459 66.1026 78.3899C58.0956 80.7869 46.6206 80.1239 31.9326 76.4009L28.0056 75.4319C24.0786 74.4629 20.1006 76.9109 19.1826 80.8379L10.9206 115.059C10.4616 116.946 10.7676 118.935 11.7876 120.567C12.8076 122.25 14.4396 123.423 16.3266 123.882L25.5576 126.126C26.3226 126.33 27.0366 126.381 27.7506 126.33C30.8616 126.126 33.6156 123.933 34.3806 120.72L39.7356 98.5859C39.7866 98.3309 40.0926 98.1269 40.3476 98.1779C57.6366 101.85 71.7126 101.238 82.2696 96.2909C93.4896 91.0379 101.089 80.2769 104.965 64.3139C108.739 48.4019 107.005 34.8359 99.7626 23.9729Z" fill="#305399"/>
<g opacity="0.1">
<g opacity="0.1">
<path opacity="0.1" d="M99.7628 23.973C92.5208 13.161 81.1478 5.81701 65.8988 2.14501C56.4638 -0.149989 47.6918 -0.506988 39.6338 1.07401C43.9178 1.27801 48.4058 1.94101 52.9958 3.01201C68.2448 6.68401 79.6178 14.028 86.8598 24.84C94.1018 35.703 95.8358 49.269 92.0108 65.181C88.1858 81.144 80.5358 91.905 69.3158 97.158C66.1028 98.688 62.4818 99.759 58.6058 100.473C67.7858 100.728 75.6908 99.3 82.2188 96.291C93.4388 91.038 101.038 80.277 104.914 64.314C108.739 48.402 107.005 34.836 99.7628 23.973Z" fill="black"/>
</g>
</g>
</svg>
