<svg width="100" height="272" viewBox="0 0 100 272" fill="none" xmlns="http://www.w3.org/2000/svg">
<path d="M36.6184 264.746L44.0134 257.912C46.1554 256.841 48.3994 256.076 50.2354 256.076C51.5614 256.076 52.6834 256.535 53.3464 257.555C54.0094 258.524 54.1114 259.799 53.7034 260.819C53.5504 261.176 53.2954 261.533 53.0404 261.839C52.8364 262.094 52.5814 262.4 52.3264 262.655C52.1734 262.808 52.0204 263.012 51.8164 263.165C50.2864 264.797 47.7364 267.5 46.7164 268.112C45.2374 269.03 41.9224 271.376 38.0464 268.724C38.0464 268.724 38.0974 268.724 38.0974 268.673C36.7204 267.806 36.3124 266.225 36.6184 264.746Z" fill="#3B455A"/>
<path d="M42.4326 205.382L43.0446 213.95L45.9516 255.617L43.0446 260.462C43.0446 260.462 42.4326 264.338 46.9206 264.032C48.2466 263.93 52.9386 257.963 52.9386 257.963L52.2756 255.209L55.5906 223.895L55.5396 214.817L57.1206 204.719L42.4326 205.382Z" fill="#EFBFA5"/>
<path d="M89.2501 254.189C90.6271 253.781 91.9021 253.832 92.9221 254.648C93.8911 255.413 94.4521 256.688 94.3501 257.912C94.2991 258.728 93.9421 259.493 93.5851 260.258C91.8001 264.134 86.8021 272.855 81.0391 271.274C78.6421 270.611 77.7241 268.163 78.1831 265.97C78.9991 262.655 84.6601 255.617 89.2501 254.189Z" fill="#3B455A"/>
<path d="M60.333 200.384L61.353 212.726L85.527 256.28C85.527 256.28 82.059 262.349 84.252 262.859C86.445 263.369 92.922 261.533 92.922 254.699C90.372 246.386 80.376 218.183 80.376 218.183L75.684 210.89L75.735 197.222L60.333 200.384Z" fill="#EFBFA5"/>
<path d="M87.6692 159.125C87.8732 155.504 86.7002 146.018 85.5272 142.601C81.1922 130.208 80.3252 124.088 80.3252 114.041C80.3252 103.943 78.3872 72.4758 78.3872 72.4758L69.2582 62.6838L50.6432 63.1938L40.2902 66.6108C40.2902 66.6108 38.0972 106.85 37.4852 119.804C37.0262 129.035 36.4142 137.042 35.5472 147.803C35.5472 147.803 33.2012 172.232 36.8222 198.446C36.8222 198.446 37.6382 207.167 37.9952 207.932C38.0462 208.187 38.0462 208.34 38.0462 208.34H38.1992H79.6112V193.397C80.9882 188.603 82.3142 183.809 83.5382 178.964C85.1702 172.742 87.3122 165.857 87.6692 159.125Z" fill="#7DB5DB"/>
<path d="M78.8971 65.4378L82.4161 69.6708C82.4161 69.6708 80.5801 107.564 80.2741 113.99C79.9681 120.416 88.2811 146.069 88.2811 146.069L54.009 150.557C54.009 150.557 48.96 123.119 47.532 109.502C46.104 95.8848 66.81 62.6838 66.81 62.6838L78.8971 65.4378Z" fill="#587BC9"/>
<path d="M44.5233 64.8259L37.5363 68.1409C37.5363 68.1409 38.5052 109.043 36.7202 119.447C35.6492 125.771 31.3652 146.324 31.3652 146.324L42.4323 150.098C42.4323 150.098 49.2663 124.445 50.5923 110.828C51.9693 97.2109 50.4903 63.3469 50.4903 63.3469L44.5233 64.8259Z" fill="#587BC9"/>
<path d="M45.849 49.8318C44.931 53.3508 47.022 56.8188 48.858 59.7768C49.623 61.0008 50.745 62.6838 49.776 64.0608C48.705 65.5908 46.002 65.2848 44.829 64.1628C44.013 63.3468 43.605 62.2248 43.248 61.1538C41.667 56.3088 39.423 49.5258 39.882 44.4258C40.239 40.3458 45.237 33.1038 50.388 35.7048C51.306 36.1638 51.918 37.0818 52.428 37.9488C52.734 38.4588 53.04 39.0198 53.091 39.5808C53.346 41.9268 51.051 42.5388 49.572 43.8138C47.736 45.3438 46.461 47.5878 45.849 49.8318Z" fill="#3B455A"/>
<path d="M54.4681 62.4288C51.0001 61.9698 48.144 59.5728 46.614 56.6658C45.084 53.7588 44.727 50.4438 44.778 47.1798C44.982 36.3678 59.3131 35.7558 64.9231 43.5588C69.7681 50.3418 64.4641 63.7038 54.4681 62.4288Z" fill="#EFBFA5"/>
<path d="M51.0674 50.0489C51.0674 50.8115 50.6514 51.4355 50.1661 51.5048C49.6808 51.5048 49.2649 50.8808 49.2649 50.1182C49.2649 49.3556 49.6808 48.7317 50.1661 48.6624C50.6514 48.6624 51.0674 49.2863 51.0674 50.0489Z" fill="#431E41"/>
<path d="M59.3867 49.9797C59.3867 50.7423 58.9707 51.3663 58.4855 51.4356C58.0002 51.4356 57.5842 50.8117 57.5842 50.0491C57.5842 49.2864 58.0002 48.6625 58.4855 48.5932C58.9707 48.5238 59.3867 49.2171 59.3867 49.9797Z" fill="#431E41"/>
<path d="M54.4645 54.0701C54.7418 54.0701 55.0191 54.0701 55.2964 54.0008C55.5044 53.9315 55.6431 53.7928 55.5738 53.5848C55.5044 53.3769 55.3658 53.2382 55.1578 53.3075C54.7418 53.3768 53.9792 53.5155 53.7712 53.0995C53.4939 52.6836 53.9099 51.713 54.2565 51.297C54.3952 51.1584 54.3952 50.8811 54.1872 50.8117C54.0486 50.6731 53.7712 50.6731 53.7019 50.881C53.2859 51.3663 52.662 52.6836 53.1473 53.5155C53.3553 53.8621 53.7712 54.0701 54.4645 54.0701Z" fill="#874137"/>
<path d="M46.7692 46.0282H46.8385C48.433 45.6122 50.5822 45.4736 51.6221 45.4736C51.8301 45.4736 51.9688 45.3349 51.9688 45.1269C51.9688 44.9189 51.8301 44.7803 51.6221 44.7803C50.5129 44.7803 48.2944 44.9883 46.6998 45.4042C46.4918 45.4735 46.4225 45.6122 46.4918 45.8202C46.4918 45.9588 46.6305 46.0282 46.7692 46.0282Z" fill="#431E41"/>
<path d="M61.5362 45.8892C61.6749 45.8892 61.8135 45.7505 61.8828 45.6119C61.9522 45.4039 61.8135 45.2652 61.6055 45.1959C60.011 44.78 58.3471 44.6413 56.6139 44.7106C56.4059 44.7106 56.2673 44.8493 56.2673 45.0573C56.2673 45.2653 56.4059 45.4039 56.6139 45.4039C58.2085 45.3346 59.803 45.4732 61.3976 45.8892C61.4669 45.8892 61.5362 45.8892 61.5362 45.8892Z" fill="#431E41"/>
<path d="M49.9582 54.5552C50.4435 57.1203 52.454 58.6455 54.8804 58.5762C57.3069 58.5762 59.2481 56.9816 59.6641 54.4165L49.9582 54.5552Z" fill="white"/>
<path d="M64.2602 48.7098C64.3622 50.0358 65.0252 51.4128 65.2292 52.7388C65.5862 55.2378 65.0252 58.4508 65.9432 60.6948C68.4422 60.3378 71.5022 58.7568 73.3892 57.0738C75.2762 55.2888 74.9702 52.6878 75.3782 50.0868C75.7862 47.6898 76.2962 45.2928 76.1432 42.8448C75.3782 29.5338 62.1182 22.2408 50.3883 28.2588C45.9513 30.5538 44.0132 36.3168 47.2772 40.0908C50.7962 44.1708 57.8852 42.3858 62.0672 45.4458C63.0362 46.0578 63.7502 47.2818 64.2602 48.7098Z" fill="#3B455A"/>
<path d="M54.1618 61.3577C54.3148 62.1737 54.5188 62.9897 54.6718 63.7547C54.7738 64.1117 54.7228 65.1827 55.0288 65.4377C55.1818 65.5907 55.4368 65.5397 55.6408 65.5397C56.2528 65.4887 61.8118 64.7747 61.7608 64.4177C61.6078 63.4487 61.4038 62.5307 61.0978 61.6127C60.8428 60.8987 60.7918 59.5217 60.3328 58.9607C59.3638 59.6237 58.3948 60.0317 57.2728 60.3377C56.2018 60.6437 55.1308 60.9497 54.0088 61.2047C54.1618 61.2047 54.1618 61.2557 54.1618 61.3577Z" fill="#EFBFA5"/>
<path d="M31.9263 13.9279L35.2923 3.88085L44.3702 0.922852L45.5433 6.99186L40.3413 12.4999L39.2702 17.7019L31.9263 13.9279Z" fill="#EFBFA5"/>
<path d="M50.3375 73.9548L31.1104 56.2579L42.7385 12.7549L32.9465 10.7659L12.6484 54.3709L14.8924 68.2938L44.1154 91.7538L50.3375 73.9548Z" fill="#587BC9"/>
<path d="M52.3263 61.9189C47.6853 61.9189 43.9623 58.1959 43.9623 53.5549H42.2793C42.2793 59.1139 46.7673 63.6019 52.3263 63.6019V61.9189Z" fill="#999999"/>
<path d="M56.712 61.2559H53.601C52.734 61.2559 52.02 61.9698 52.02 62.8368V63.0918C52.02 63.9588 52.734 64.6729 53.601 64.6729H56.712C57.579 64.6729 58.2931 63.9588 58.2931 63.0918V62.8368C58.2421 61.9698 57.579 61.2559 56.712 61.2559Z" fill="#5F6568"/>
<path d="M44.0639 47.4349V40.5499C44.0639 33.1039 50.082 27.0859 57.528 27.0859C64.974 27.0859 70.9919 33.1039 70.9919 40.5499V47.4349H73.9499V40.4989C73.9499 31.4209 66.606 24.0769 57.528 24.0769C48.45 24.0769 41.106 31.4209 41.106 40.4989V47.4349H44.0639Z" fill="#999999"/>
<path d="M77.8263 46.211C78.3363 46.976 78.3363 47.4859 78.3363 48.1489V49.424V50.699C78.3363 51.362 78.3363 51.8719 77.8263 52.6369L77.0103 53.606V49.424V45.2419L77.8263 46.211Z" fill="#999999"/>
<path d="M72.5733 55.595H74.1543C75.7353 55.595 77.0103 54.32 77.0103 52.739V46.16C77.0103 44.579 75.7353 43.304 74.1543 43.304H72.5733C70.9923 43.304 69.7173 44.579 69.7173 46.16V52.739C69.6663 54.32 70.9413 55.595 72.5733 55.595Z" fill="#5F6568"/>
<path d="M36.9241 46.211C36.4141 46.976 36.4141 47.4859 36.4141 48.1489V49.424V50.699C36.4141 51.362 36.4141 51.8719 36.9241 52.6369L37.7401 53.606V49.424V45.2419L36.9241 46.211Z" fill="#999999"/>
<path d="M42.228 55.595H40.647C39.066 55.595 37.791 54.32 37.791 52.739V46.16C37.791 44.579 39.066 43.304 40.647 43.304H42.228C43.809 43.304 45.084 44.579 45.084 46.16V52.739C45.084 54.32 43.809 55.595 42.228 55.595Z" fill="#5F6568"/>
<path d="M61.8632 189.572L1.27518 187.583C0.765178 187.583 0.408203 187.175 0.408203 186.665L3.77419 83.6448C3.77419 83.1348 4.18218 82.7778 4.69218 82.7778L65.2802 84.7668C65.7902 84.7668 66.1472 85.1748 66.1472 85.6848L62.7812 188.705C62.7302 189.215 62.3222 189.572 61.8632 189.572Z" fill="#3B455A"/>
<path d="M61.3528 90.0933L8.2373 88.3696L5.48135 173.293L58.5968 175.017L61.3528 90.0933Z" fill="#F7F7F7"/>
<path d="M38.0971 184.574L25.2451 184.166C24.9391 184.166 24.6841 183.911 24.6841 183.605L24.7861 180.29C24.7861 179.984 25.0411 179.729 25.3471 179.729L38.1991 180.137C38.5051 180.137 38.7601 180.392 38.7601 180.698L38.6581 184.013C38.7091 184.319 38.4031 184.574 38.0971 184.574Z" fill="#F7F7F7"/>
<path d="M75.0722 131.126L70.7372 140.867L61.4552 142.958L60.8433 136.838L66.5042 131.789L68.0852 126.74L75.0722 131.126Z" fill="#EFBFA5"/>
<path d="M70.7885 71.7619L83.7424 99.8629L68.0854 126.74L74.5115 132.707L96.4924 105.065L99.8074 95.5789L82.4165 69.6709L70.7885 71.7619Z" fill="#587BC9"/>
</svg>
